<?xml version="1.0" encoding="UTF-8" standalone="no"?>
<!DOCTYPE svg PUBLIC "-//W3C//DTD SVG 1.1//EN"
 "http://www.w3.org/Graphics/SVG/1.1/DTD/svg11.dtd">
<!-- Generated by graphviz version 2.43.0 (0)
 -->
<!-- Title: G Pages: 1 -->
<svg width="612pt" height="1092pt"
 viewBox="0.00 0.00 612.43 1092.20" xmlns="http://www.w3.org/2000/svg" xmlns:xlink="http://www.w3.org/1999/xlink">
<g id="graph0" class="graph" transform="scale(1 1) rotate(0) translate(4 1088.2)">
<title>G</title>
<polygon fill="white" stroke="transparent" points="-4,4 -4,-1088.2 608.43,-1088.2 608.43,4 -4,4"/>
<!-- node24 -->
<g id="node1" class="node">
<title>node24</title>
<ellipse fill="lightblue" stroke="black" cx="131.21" cy="-1053.09" rx="31.23" ry="31.23"/>
<text text-anchor="middle" x="131.21" y="-1048.09" font-family="Times,serif" font-size="20.00">ST</text>
</g>
<!-- node2 -->
<g id="node2" class="node">
<title>node2</title>
<ellipse fill="lightblue" stroke="black" cx="86.21" cy="-944.26" rx="41.94" ry="41.94"/>
<text text-anchor="middle" x="86.21" y="-939.26" font-family="Times,serif" font-size="20.00">VAR</text>
</g>
<!-- node24&#45;&gt;node2 -->
<g id="edge1" class="edge">
<title>node24&#45;&gt;node2</title>
<path fill="none" stroke="black" d="M119.39,-1024.02C115.32,-1014.36 110.65,-1003.26 106.11,-992.5"/>
<polygon fill="black" stroke="black" points="109.29,-991.04 102.19,-983.18 102.84,-993.76 109.29,-991.04"/>
</g>
<!-- node23 -->
<g id="node5" class="node">
<title>node23</title>
<ellipse fill="lightblue" stroke="black" cx="177.21" cy="-944.26" rx="31.23" ry="31.23"/>
<text text-anchor="middle" x="177.21" y="-939.26" font-family="Times,serif" font-size="20.00">ST</text>
</g>
<!-- node24&#45;&gt;node23 -->
<g id="edge24" class="edge">
<title>node24&#45;&gt;node23</title>
<path fill="none" stroke="black" d="M143.18,-1024.3C148.67,-1011.54 155.27,-996.23 161.18,-982.49"/>
<polygon fill="black" stroke="black" points="164.41,-983.85 165.15,-973.28 157.98,-981.08 164.41,-983.85"/>
</g>
<!-- node0 -->
<g id="node3" class="node">
<title>node0</title>
<ellipse fill="lightblue" stroke="black" cx="21.21" cy="-835.43" rx="21.43" ry="21.43"/>
<text text-anchor="middle" x="21.21" y="-830.43" font-family="Times,serif" font-size="20.00">a</text>
</g>
<!-- node2&#45;&gt;node0 -->
<g id="edge2" class="edge">
<title>node2&#45;&gt;node0</title>
<path fill="none" stroke="black" d="M64.93,-908.28C55.97,-893.54 45.7,-876.68 37.37,-862.99"/>
<polygon fill="black" stroke="black" points="40.15,-860.81 31.96,-854.09 34.17,-864.45 40.15,-860.81"/>
</g>
<!-- node1 -->
<g id="node4" class="node">
<title>node1</title>
<ellipse fill="lightblue" stroke="black" cx="90.21" cy="-835.43" rx="29.9" ry="29.9"/>
<text text-anchor="middle" x="90.21" y="-830.43" font-family="Times,serif" font-size="20.00">12</text>
</g>
<!-- node2&#45;&gt;node1 -->
<g id="edge3" class="edge">
<title>node2&#45;&gt;node1</title>
<path fill="none" stroke="black" d="M87.74,-902.56C88.07,-893.66 88.42,-884.26 88.75,-875.43"/>
<polygon fill="black" stroke="black" points="92.25,-875.51 89.13,-865.39 85.26,-875.25 92.25,-875.51"/>
</g>
<!-- node7 -->
<g id="node6" class="node">
<title>node7</title>
<ellipse fill="lightblue" stroke="black" cx="174.21" cy="-835.43" rx="29.9" ry="29.9"/>
<text text-anchor="middle" x="174.21" y="-830.43" font-family="Times,serif" font-size="20.00">IN</text>
</g>
<!-- node23&#45;&gt;node7 -->
<g id="edge4" class="edge">
<title>node23&#45;&gt;node7</title>
<path fill="none" stroke="black" d="M176.36,-912.93C176.03,-901.27 175.66,-887.79 175.31,-875.42"/>
<polygon fill="black" stroke="black" points="178.81,-875.26 175.03,-865.36 171.81,-875.45 178.81,-875.26"/>
</g>
<!-- node22 -->
<g id="node11" class="node">
<title>node22</title>
<ellipse fill="lightblue" stroke="black" cx="269.21" cy="-835.43" rx="31.23" ry="31.23"/>
<text text-anchor="middle" x="269.21" y="-830.43" font-family="Times,serif" font-size="20.00">ST</text>
</g>
<!-- node23&#45;&gt;node22 -->
<g id="edge23" class="edge">
<title>node23&#45;&gt;node22</title>
<path fill="none" stroke="black" d="M197.18,-920.08C210.44,-904.68 228,-884.28 242.47,-867.48"/>
<polygon fill="black" stroke="black" points="245.42,-869.42 249.29,-859.56 240.11,-864.85 245.42,-869.42"/>
</g>
<!-- node6 -->
<g id="node7" class="node">
<title>node6</title>
<ellipse fill="lightblue" stroke="black" cx="165.21" cy="-703.26" rx="65.11" ry="65.11"/>
<text text-anchor="middle" x="165.21" y="-698.26" font-family="Times,serif" font-size="20.00">PARAM</text>
</g>
<!-- node7&#45;&gt;node6 -->
<g id="edge5" class="edge">
<title>node7&#45;&gt;node6</title>
<path fill="none" stroke="black" d="M172.22,-805.54C171.65,-797.31 171,-787.95 170.33,-778.33"/>
<polygon fill="black" stroke="black" points="173.82,-777.97 169.64,-768.23 166.83,-778.45 173.82,-777.97"/>
</g>
<!-- node5 -->
<g id="node8" class="node">
<title>node5</title>
<ellipse fill="lightblue" stroke="black" cx="163.21" cy="-547.76" rx="41.94" ry="41.94"/>
<text text-anchor="middle" x="163.21" y="-542.76" font-family="Times,serif" font-size="20.00">VAR</text>
</g>
<!-- node6&#45;&gt;node5 -->
<g id="edge6" class="edge">
<title>node6&#45;&gt;node5</title>
<path fill="none" stroke="black" d="M164.38,-638.05C164.21,-625.21 164.04,-611.9 163.88,-599.59"/>
<polygon fill="black" stroke="black" points="167.37,-599.47 163.74,-589.52 160.37,-599.56 167.37,-599.47"/>
</g>
<!-- node3 -->
<g id="node9" class="node">
<title>node3</title>
<ellipse fill="lightblue" stroke="black" cx="105.21" cy="-412.76" rx="21.43" ry="21.43"/>
<text text-anchor="middle" x="105.21" y="-407.76" font-family="Times,serif" font-size="20.00">b</text>
</g>
<!-- node5&#45;&gt;node3 -->
<g id="edge7" class="edge">
<title>node5&#45;&gt;node3</title>
<path fill="none" stroke="black" d="M146.9,-509.36C137.56,-487.93 126.02,-461.48 117.46,-441.84"/>
<polygon fill="black" stroke="black" points="120.6,-440.3 113.4,-432.53 114.19,-443.09 120.6,-440.3"/>
</g>
<!-- node4 -->
<g id="node10" class="node">
<title>node4</title>
<ellipse fill="lightblue" stroke="black" cx="165.21" cy="-412.76" rx="21.43" ry="21.43"/>
<text text-anchor="middle" x="165.21" y="-407.76" font-family="Times,serif" font-size="20.00">0</text>
</g>
<!-- node5&#45;&gt;node4 -->
<g id="edge8" class="edge">
<title>node5&#45;&gt;node4</title>
<path fill="none" stroke="black" d="M163.83,-505.77C164.13,-485.86 164.48,-462.36 164.76,-444.1"/>
<polygon fill="black" stroke="black" points="168.26,-444.06 164.91,-434.01 161.26,-443.96 168.26,-444.06"/>
</g>
<!-- node21 -->
<g id="node12" class="node">
<title>node21</title>
<ellipse fill="lightblue" stroke="black" cx="277.21" cy="-703.26" rx="27.65" ry="27.65"/>
<text text-anchor="middle" x="277.21" y="-698.26" font-family="Times,serif" font-size="20.00">IF</text>
</g>
<!-- node22&#45;&gt;node21 -->
<g id="edge9" class="edge">
<title>node22&#45;&gt;node21</title>
<path fill="none" stroke="black" d="M271.07,-804.24C272.22,-785.52 273.71,-761.34 274.93,-741.44"/>
<polygon fill="black" stroke="black" points="278.44,-741.39 275.56,-731.19 271.45,-740.96 278.44,-741.39"/>
</g>
<!-- node10 -->
<g id="node13" class="node">
<title>node10</title>
<ellipse fill="lightblue" stroke="black" cx="277.21" cy="-547.76" rx="54.39" ry="54.39"/>
<text text-anchor="middle" x="277.21" y="-542.76" font-family="Times,serif" font-size="20.00">IS_EE</text>
</g>
<!-- node21&#45;&gt;node10 -->
<g id="edge10" class="edge">
<title>node21&#45;&gt;node10</title>
<path fill="none" stroke="black" d="M277.21,-675.52C277.21,-658.09 277.21,-634.57 277.21,-612.51"/>
<polygon fill="black" stroke="black" points="280.71,-612.51 277.21,-602.51 273.71,-612.51 280.71,-612.51"/>
</g>
<!-- node20 -->
<g id="node16" class="node">
<title>node20</title>
<ellipse fill="lightblue" stroke="black" cx="381.21" cy="-547.76" rx="31.23" ry="31.23"/>
<text text-anchor="middle" x="381.21" y="-542.76" font-family="Times,serif" font-size="20.00">ST</text>
</g>
<!-- node21&#45;&gt;node20 -->
<g id="edge22" class="edge">
<title>node21&#45;&gt;node20</title>
<path fill="none" stroke="black" d="M292.34,-679.94C309.72,-654.28 338.43,-611.91 358.5,-582.28"/>
<polygon fill="black" stroke="black" points="361.46,-584.15 364.17,-573.91 355.66,-580.23 361.46,-584.15"/>
</g>
<!-- node8 -->
<g id="node14" class="node">
<title>node8</title>
<ellipse fill="lightblue" stroke="black" cx="232.21" cy="-412.76" rx="21.43" ry="21.43"/>
<text text-anchor="middle" x="232.21" y="-407.76" font-family="Times,serif" font-size="20.00">a</text>
</g>
<!-- node10&#45;&gt;node8 -->
<g id="edge11" class="edge">
<title>node10&#45;&gt;node8</title>
<path fill="none" stroke="black" d="M259.94,-495.72C253.84,-477.69 247.2,-458.06 241.95,-442.53"/>
<polygon fill="black" stroke="black" points="245.24,-441.33 238.71,-432.98 238.6,-443.57 245.24,-441.33"/>
</g>
<!-- node9 -->
<g id="node15" class="node">
<title>node9</title>
<ellipse fill="lightblue" stroke="black" cx="292.21" cy="-412.76" rx="21.43" ry="21.43"/>
<text text-anchor="middle" x="292.21" y="-407.76" font-family="Times,serif" font-size="20.00">b</text>
</g>
<!-- node10&#45;&gt;node9 -->
<g id="edge12" class="edge">
<title>node10&#45;&gt;node9</title>
<path fill="none" stroke="black" d="M283.23,-493.43C285.13,-476.57 287.16,-458.53 288.82,-443.88"/>
<polygon fill="black" stroke="black" points="292.3,-444.22 289.94,-433.89 285.34,-443.43 292.3,-444.22"/>
</g>
<!-- node13 -->
<g id="node17" class="node">
<title>node13</title>
<ellipse fill="lightblue" stroke="black" cx="379.21" cy="-412.76" rx="44.6" ry="44.6"/>
<text text-anchor="middle" x="379.21" y="-407.76" font-family="Times,serif" font-size="20.00">OUT</text>
</g>
<!-- node20&#45;&gt;node13 -->
<g id="edge13" class="edge">
<title>node20&#45;&gt;node13</title>
<path fill="none" stroke="black" d="M380.76,-516.58C380.54,-502.11 380.27,-484.33 380.02,-467.65"/>
<polygon fill="black" stroke="black" points="383.52,-467.39 379.87,-457.44 376.52,-467.49 383.52,-467.39"/>
</g>
<!-- node19 -->
<g id="node20" class="node">
<title>node19</title>
<ellipse fill="lightblue" stroke="black" cx="484.21" cy="-412.76" rx="31.23" ry="31.23"/>
<text text-anchor="middle" x="484.21" y="-407.76" font-family="Times,serif" font-size="20.00">ST</text>
</g>
<!-- node20&#45;&gt;node19 -->
<g id="edge21" class="edge">
<title>node20&#45;&gt;node19</title>
<path fill="none" stroke="black" d="M399.87,-522.67C416.46,-501.25 440.86,-469.74 459.16,-446.11"/>
<polygon fill="black" stroke="black" points="462,-448.17 465.35,-438.12 456.46,-443.88 462,-448.17"/>
</g>
<!-- node12 -->
<g id="node18" class="node">
<title>node12</title>
<ellipse fill="lightblue" stroke="black" cx="373.21" cy="-267.16" rx="65.11" ry="65.11"/>
<text text-anchor="middle" x="373.21" y="-262.16" font-family="Times,serif" font-size="20.00">PARAM</text>
</g>
<!-- node13&#45;&gt;node12 -->
<g id="edge14" class="edge">
<title>node13&#45;&gt;node12</title>
<path fill="none" stroke="black" d="M377.38,-367.9C377.04,-359.83 376.68,-351.22 376.32,-342.55"/>
<polygon fill="black" stroke="black" points="379.81,-342.22 375.9,-332.38 372.82,-342.51 379.81,-342.22"/>
</g>
<!-- node11 -->
<g id="node19" class="node">
<title>node11</title>
<ellipse fill="lightblue" stroke="black" cx="373.21" cy="-122.27" rx="38.78" ry="38.78"/>
<text text-anchor="middle" x="373.21" y="-117.27" font-family="Times,serif" font-size="20.00">999</text>
</g>
<!-- node12&#45;&gt;node11 -->
<g id="edge15" class="edge">
<title>node12&#45;&gt;node11</title>
<path fill="none" stroke="black" d="M373.21,-201.82C373.21,-191.7 373.21,-181.39 373.21,-171.71"/>
<polygon fill="black" stroke="black" points="376.71,-171.49 373.21,-161.49 369.71,-171.49 376.71,-171.49"/>
</g>
<!-- node18 -->
<g id="node21" class="node">
<title>node18</title>
<ellipse fill="lightblue" stroke="black" cx="489.21" cy="-267.16" rx="33.47" ry="33.47"/>
<text text-anchor="middle" x="489.21" y="-262.16" font-family="Times,serif" font-size="20.00">EQ</text>
</g>
<!-- node19&#45;&gt;node18 -->
<g id="edge16" class="edge">
<title>node19&#45;&gt;node18</title>
<path fill="none" stroke="black" d="M485.26,-381.66C485.98,-361.05 486.94,-333.42 487.74,-310.58"/>
<polygon fill="black" stroke="black" points="491.24,-310.59 488.09,-300.47 484.24,-310.34 491.24,-310.59"/>
</g>
<!-- node14 -->
<g id="node22" class="node">
<title>node14</title>
<ellipse fill="lightblue" stroke="black" cx="470.21" cy="-122.27" rx="21.43" ry="21.43"/>
<text text-anchor="middle" x="470.21" y="-117.27" font-family="Times,serif" font-size="20.00">a</text>
</g>
<!-- node18&#45;&gt;node14 -->
<g id="edge17" class="edge">
<title>node18&#45;&gt;node14</title>
<path fill="none" stroke="black" d="M484.95,-234.09C481.74,-209.97 477.38,-177.15 474.23,-153.49"/>
<polygon fill="black" stroke="black" points="477.67,-152.78 472.88,-143.33 470.73,-153.7 477.67,-152.78"/>
</g>
<!-- node17 -->
<g id="node23" class="node">
<title>node17</title>
<ellipse fill="lightblue" stroke="black" cx="553.21" cy="-122.27" rx="43.68" ry="43.68"/>
<text text-anchor="middle" x="553.21" y="-117.27" font-family="Times,serif" font-size="20.00">ADD</text>
</g>
<!-- node18&#45;&gt;node17 -->
<g id="edge20" class="edge">
<title>node18&#45;&gt;node17</title>
<path fill="none" stroke="black" d="M502.47,-236.55C510.83,-217.9 521.82,-193.36 531.43,-171.9"/>
<polygon fill="black" stroke="black" points="534.7,-173.16 535.6,-162.6 528.31,-170.3 534.7,-173.16"/>
</g>
<!-- node15 -->
<g id="node24" class="node">
<title>node15</title>
<ellipse fill="lightblue" stroke="black" cx="523.21" cy="-21.21" rx="21.43" ry="21.43"/>
<text text-anchor="middle" x="523.21" y="-16.21" font-family="Times,serif" font-size="20.00">a</text>
</g>
<!-- node17&#45;&gt;node15 -->
<g id="edge18" class="edge">
<title>node17&#45;&gt;node15</title>
<path fill="none" stroke="black" d="M540.75,-80.12C537.83,-70.46 534.77,-60.37 532.04,-51.37"/>
<polygon fill="black" stroke="black" points="535.38,-50.3 529.13,-41.75 528.68,-52.33 535.38,-50.3"/>
</g>
<!-- node16 -->
<g id="node25" class="node">
<title>node16</title>
<ellipse fill="lightblue" stroke="black" cx="583.21" cy="-21.21" rx="21.43" ry="21.43"/>
<text text-anchor="middle" x="583.21" y="-16.21" font-family="Times,serif" font-size="20.00">1</text>
</g>
<!-- node17&#45;&gt;node16 -->
<g id="edge19" class="edge">
<title>node17&#45;&gt;node16</title>
<path fill="none" stroke="black" d="M565.68,-80.12C568.6,-70.46 571.66,-60.37 574.38,-51.37"/>
<polygon fill="black" stroke="black" points="577.75,-52.33 577.3,-41.75 571.05,-50.3 577.75,-52.33"/>
</g>
</g>
</svg>
