<?xml version="1.0" encoding="UTF-8" standalone="no"?>
<!DOCTYPE svg PUBLIC "-//W3C//DTD SVG 1.1//EN"
 "http://www.w3.org/Graphics/SVG/1.1/DTD/svg11.dtd">
<!-- Generated by graphviz version 2.43.0 (0)
 -->
<!-- Title: G Pages: 1 -->
<svg width="143pt" height="212pt"
 viewBox="0.00 0.00 143.43 211.52" xmlns="http://www.w3.org/2000/svg" xmlns:xlink="http://www.w3.org/1999/xlink">
<g id="graph0" class="graph" transform="scale(1 1) rotate(0) translate(4 207.52)">
<title>G</title>
<polygon fill="white" stroke="transparent" points="-4,4 -4,-207.52 139.43,-207.52 139.43,4 -4,4"/>
<!-- node8 -->
<g id="node1" class="node">
<title>node8</title>
<ellipse fill="lightblue" stroke="black" cx="52.21" cy="-182.31" rx="21.43" ry="21.43"/>
<text text-anchor="middle" x="52.21" y="-177.31" font-family="Times,serif" font-size="20.00">&#45;</text>
</g>
<!-- node4 -->
<g id="node2" class="node">
<title>node4</title>
<ellipse fill="lightblue" stroke="black" cx="21.21" cy="-101.76" rx="21.43" ry="21.43"/>
<text text-anchor="middle" x="21.21" y="-96.76" font-family="Times,serif" font-size="20.00">1</text>
</g>
<!-- node8&#45;&gt;node4 -->
<g id="edge1" class="edge">
<title>node8&#45;&gt;node4</title>
<path fill="none" stroke="black" d="M44.71,-162.29C41.04,-153 36.55,-141.63 32.49,-131.32"/>
<polygon fill="black" stroke="black" points="35.68,-129.89 28.76,-121.87 29.17,-132.46 35.68,-129.89"/>
</g>
<!-- node7 -->
<g id="node3" class="node">
<title>node7</title>
<ellipse fill="lightblue" stroke="black" cx="84.21" cy="-101.76" rx="23.17" ry="23.17"/>
<text text-anchor="middle" x="84.21" y="-96.76" font-family="Times,serif" font-size="20.00">+</text>
</g>
<!-- node8&#45;&gt;node7 -->
<g id="edge4" class="edge">
<title>node8&#45;&gt;node7</title>
<path fill="none" stroke="black" d="M59.96,-162.29C63.54,-153.51 67.88,-142.86 71.89,-133.01"/>
<polygon fill="black" stroke="black" points="75.22,-134.11 75.75,-123.53 68.74,-131.47 75.22,-134.11"/>
</g>
<!-- node5 -->
<g id="node4" class="node">
<title>node5</title>
<ellipse fill="lightblue" stroke="black" cx="54.21" cy="-21.21" rx="21.43" ry="21.43"/>
<text text-anchor="middle" x="54.21" y="-16.21" font-family="Times,serif" font-size="20.00">2</text>
</g>
<!-- node7&#45;&gt;node5 -->
<g id="edge2" class="edge">
<title>node7&#45;&gt;node5</title>
<path fill="none" stroke="black" d="M76.17,-79.71C72.77,-70.81 68.76,-60.3 65.1,-50.72"/>
<polygon fill="black" stroke="black" points="68.29,-49.26 61.45,-41.17 61.75,-51.76 68.29,-49.26"/>
</g>
<!-- node6 -->
<g id="node5" class="node">
<title>node6</title>
<ellipse fill="lightblue" stroke="black" cx="114.21" cy="-21.21" rx="21.43" ry="21.43"/>
<text text-anchor="middle" x="114.21" y="-16.21" font-family="Times,serif" font-size="20.00">4</text>
</g>
<!-- node7&#45;&gt;node6 -->
<g id="edge3" class="edge">
<title>node7&#45;&gt;node6</title>
<path fill="none" stroke="black" d="M92.25,-79.71C95.65,-70.81 99.67,-60.3 103.33,-50.72"/>
<polygon fill="black" stroke="black" points="106.67,-51.76 106.97,-41.17 100.13,-49.26 106.67,-51.76"/>
</g>
</g>
</svg>
