<?xml version="1.0" encoding="UTF-8" standalone="no"?>
<!DOCTYPE svg PUBLIC "-//W3C//DTD SVG 1.1//EN"
 "http://www.w3.org/Graphics/SVG/1.1/DTD/svg11.dtd">
<!-- Generated by graphviz version 2.43.0 (0)
 -->
<!-- Title: G Pages: 1 -->
<svg width="439pt" height="1253pt"
 viewBox="0.00 0.00 439.27 1252.65" xmlns="http://www.w3.org/2000/svg" xmlns:xlink="http://www.w3.org/1999/xlink">
<g id="graph0" class="graph" transform="scale(1 1) rotate(0) translate(4 1248.65)">
<title>G</title>
<polygon fill="white" stroke="transparent" points="-4,4 -4,-1248.65 435.27,-1248.65 435.27,4 -4,4"/>
<!-- node23 -->
<g id="node1" class="node">
<title>node23</title>
<ellipse fill="lightblue" stroke="black" cx="181.21" cy="-1213.54" rx="31.23" ry="31.23"/>
<text text-anchor="middle" x="181.21" y="-1208.54" font-family="Times,serif" font-size="20.00">ST</text>
</g>
<!-- node14 -->
<g id="node2" class="node">
<title>node14</title>
<ellipse fill="lightblue" stroke="black" cx="134.21" cy="-1101.88" rx="44.6" ry="44.6"/>
<text text-anchor="middle" x="134.21" y="-1096.88" font-family="Times,serif" font-size="20.00">OUT</text>
</g>
<!-- node23&#45;&gt;node14 -->
<g id="edge1" class="edge">
<title>node23&#45;&gt;node14</title>
<path fill="none" stroke="black" d="M169.23,-1184.58C165.07,-1174.87 160.26,-1163.65 155.57,-1152.71"/>
<polygon fill="black" stroke="black" points="158.65,-1151.01 151.49,-1143.2 152.22,-1153.77 158.65,-1151.01"/>
</g>
<!-- node22 -->
<g id="node17" class="node">
<title>node22</title>
<ellipse fill="lightblue" stroke="black" cx="233.21" cy="-1101.88" rx="31.23" ry="31.23"/>
<text text-anchor="middle" x="233.21" y="-1096.88" font-family="Times,serif" font-size="20.00">ST</text>
</g>
<!-- node23&#45;&gt;node22 -->
<g id="edge23" class="edge">
<title>node23&#45;&gt;node22</title>
<path fill="none" stroke="black" d="M194.2,-1185.15C200.72,-1171.41 208.7,-1154.58 215.74,-1139.72"/>
<polygon fill="black" stroke="black" points="219.09,-1140.84 220.21,-1130.3 212.76,-1137.84 219.09,-1140.84"/>
</g>
<!-- node13 -->
<g id="node3" class="node">
<title>node13</title>
<ellipse fill="lightblue" stroke="black" cx="125.21" cy="-956.28" rx="65.11" ry="65.11"/>
<text text-anchor="middle" x="125.21" y="-951.28" font-family="Times,serif" font-size="20.00">PARAM</text>
</g>
<!-- node14&#45;&gt;node13 -->
<g id="edge2" class="edge">
<title>node14&#45;&gt;node13</title>
<path fill="none" stroke="black" d="M131.49,-1057.41C130.97,-1049.13 130.41,-1040.25 129.85,-1031.33"/>
<polygon fill="black" stroke="black" points="133.34,-1031.03 129.22,-1021.27 126.36,-1031.47 133.34,-1031.03"/>
</g>
<!-- node0 -->
<g id="node4" class="node">
<title>node0</title>
<ellipse fill="lightblue" stroke="black" cx="21.21" cy="-790.17" rx="21.43" ry="21.43"/>
<text text-anchor="middle" x="21.21" y="-785.17" font-family="Times,serif" font-size="20.00">1</text>
</g>
<!-- node13&#45;&gt;node0 -->
<g id="edge3" class="edge">
<title>node13&#45;&gt;node0</title>
<path fill="none" stroke="black" d="M84.97,-904.96C73.4,-889.45 61.22,-872.02 51.21,-855.22 44.5,-843.97 38.17,-830.96 33.07,-819.62"/>
<polygon fill="black" stroke="black" points="36.15,-817.93 28.93,-810.17 29.74,-820.74 36.15,-817.93"/>
</g>
<!-- node12 -->
<g id="node5" class="node">
<title>node12</title>
<ellipse fill="lightblue" stroke="black" cx="125.21" cy="-790.17" rx="65.11" ry="65.11"/>
<text text-anchor="middle" x="125.21" y="-785.17" font-family="Times,serif" font-size="20.00">PARAM</text>
</g>
<!-- node13&#45;&gt;node12 -->
<g id="edge15" class="edge">
<title>node13&#45;&gt;node12</title>
<path fill="none" stroke="black" d="M125.21,-890.89C125.21,-882.59 125.21,-874.04 125.21,-865.59"/>
<polygon fill="black" stroke="black" points="128.71,-865.37 125.21,-855.37 121.71,-865.37 128.71,-865.37"/>
</g>
<!-- node1 -->
<g id="node6" class="node">
<title>node1</title>
<ellipse fill="lightblue" stroke="black" cx="32.21" cy="-624.06" rx="21.43" ry="21.43"/>
<text text-anchor="middle" x="32.21" y="-619.06" font-family="Times,serif" font-size="20.00">a</text>
</g>
<!-- node12&#45;&gt;node1 -->
<g id="edge4" class="edge">
<title>node12&#45;&gt;node1</title>
<path fill="none" stroke="black" d="M89.63,-735.38C80.33,-720.6 70.58,-704.43 62.21,-689.12 55.93,-677.61 49.67,-664.57 44.51,-653.27"/>
<polygon fill="black" stroke="black" points="47.57,-651.55 40.28,-643.87 41.19,-654.42 47.57,-651.55"/>
</g>
<!-- node11 -->
<g id="node7" class="node">
<title>node11</title>
<ellipse fill="lightblue" stroke="black" cx="136.21" cy="-624.06" rx="65.11" ry="65.11"/>
<text text-anchor="middle" x="136.21" y="-619.06" font-family="Times,serif" font-size="20.00">PARAM</text>
</g>
<!-- node12&#45;&gt;node11 -->
<g id="edge14" class="edge">
<title>node12&#45;&gt;node11</title>
<path fill="none" stroke="black" d="M129.5,-725.25C130.07,-716.71 130.66,-707.9 131.24,-699.2"/>
<polygon fill="black" stroke="black" points="134.75,-699.29 131.92,-689.08 127.76,-698.82 134.75,-699.29"/>
</g>
<!-- node10 -->
<g id="node8" class="node">
<title>node10</title>
<ellipse fill="lightblue" stroke="black" cx="136.21" cy="-481.29" rx="41.94" ry="41.94"/>
<text text-anchor="middle" x="136.21" y="-476.29" font-family="Times,serif" font-size="20.00">VAR</text>
</g>
<!-- node11&#45;&gt;node10 -->
<g id="edge5" class="edge">
<title>node11&#45;&gt;node10</title>
<path fill="none" stroke="black" d="M136.21,-558.86C136.21,-550.29 136.21,-541.6 136.21,-533.3"/>
<polygon fill="black" stroke="black" points="139.71,-533.04 136.21,-523.04 132.71,-533.04 139.71,-533.04"/>
</g>
<!-- node2 -->
<g id="node9" class="node">
<title>node2</title>
<ellipse fill="lightblue" stroke="black" cx="95.21" cy="-359.73" rx="21.43" ry="21.43"/>
<text text-anchor="middle" x="95.21" y="-354.73" font-family="Times,serif" font-size="20.00">c</text>
</g>
<!-- node10&#45;&gt;node2 -->
<g id="edge6" class="edge">
<title>node10&#45;&gt;node2</title>
<path fill="none" stroke="black" d="M122.9,-441.47C117.11,-424.58 110.44,-405.13 105.1,-389.56"/>
<polygon fill="black" stroke="black" points="108.36,-388.27 101.8,-379.94 101.74,-390.54 108.36,-388.27"/>
</g>
<!-- node9 -->
<g id="node10" class="node">
<title>node9</title>
<ellipse fill="lightblue" stroke="black" cx="178.21" cy="-359.73" rx="43.68" ry="43.68"/>
<text text-anchor="middle" x="178.21" y="-354.73" font-family="Times,serif" font-size="20.00">ADD</text>
</g>
<!-- node10&#45;&gt;node9 -->
<g id="edge13" class="edge">
<title>node10&#45;&gt;node9</title>
<path fill="none" stroke="black" d="M149.73,-441.8C153.19,-431.97 156.95,-421.26 160.58,-410.94"/>
<polygon fill="black" stroke="black" points="163.98,-411.8 163.99,-401.2 157.38,-409.48 163.98,-411.8"/>
</g>
<!-- node3 -->
<g id="node11" class="node">
<title>node3</title>
<ellipse fill="lightblue" stroke="black" cx="139.21" cy="-241" rx="21.43" ry="21.43"/>
<text text-anchor="middle" x="139.21" y="-236" font-family="Times,serif" font-size="20.00">3</text>
</g>
<!-- node9&#45;&gt;node3 -->
<g id="edge7" class="edge">
<title>node9&#45;&gt;node3</title>
<path fill="none" stroke="black" d="M164.57,-317.9C159.41,-302.45 153.65,-285.2 148.92,-271.05"/>
<polygon fill="black" stroke="black" points="152.17,-269.74 145.68,-261.36 145.53,-271.96 152.17,-269.74"/>
</g>
<!-- node8 -->
<g id="node12" class="node">
<title>node8</title>
<ellipse fill="lightblue" stroke="black" cx="217.21" cy="-241" rx="38.78" ry="38.78"/>
<text text-anchor="middle" x="217.21" y="-236" font-family="Times,serif" font-size="20.00">DIV</text>
</g>
<!-- node9&#45;&gt;node8 -->
<g id="edge12" class="edge">
<title>node9&#45;&gt;node8</title>
<path fill="none" stroke="black" d="M191.85,-317.9C195.08,-308.24 198.55,-297.87 201.85,-287.99"/>
<polygon fill="black" stroke="black" points="205.23,-288.92 205.08,-278.32 198.59,-286.7 205.23,-288.92"/>
</g>
<!-- node4 -->
<g id="node13" class="node">
<title>node4</title>
<ellipse fill="lightblue" stroke="black" cx="176.21" cy="-122.27" rx="21.43" ry="21.43"/>
<text text-anchor="middle" x="176.21" y="-117.27" font-family="Times,serif" font-size="20.00">x</text>
</g>
<!-- node8&#45;&gt;node4 -->
<g id="edge8" class="edge">
<title>node8&#45;&gt;node4</title>
<path fill="none" stroke="black" d="M204.58,-204.02C198.75,-187.43 191.92,-167.99 186.42,-152.34"/>
<polygon fill="black" stroke="black" points="189.64,-150.94 183.03,-142.67 183.04,-153.26 189.64,-150.94"/>
</g>
<!-- node7 -->
<g id="node14" class="node">
<title>node7</title>
<ellipse fill="lightblue" stroke="black" cx="259.21" cy="-122.27" rx="43.68" ry="43.68"/>
<text text-anchor="middle" x="259.21" y="-117.27" font-family="Times,serif" font-size="20.00">SUB</text>
</g>
<!-- node8&#45;&gt;node7 -->
<g id="edge11" class="edge">
<title>node8&#45;&gt;node7</title>
<path fill="none" stroke="black" d="M230.16,-204.02C233.63,-194.38 237.44,-183.77 241.14,-173.51"/>
<polygon fill="black" stroke="black" points="244.53,-174.41 244.63,-163.81 237.95,-172.04 244.53,-174.41"/>
</g>
<!-- node5 -->
<g id="node15" class="node">
<title>node5</title>
<ellipse fill="lightblue" stroke="black" cx="229.21" cy="-21.21" rx="21.43" ry="21.43"/>
<text text-anchor="middle" x="229.21" y="-16.21" font-family="Times,serif" font-size="20.00">6</text>
</g>
<!-- node7&#45;&gt;node5 -->
<g id="edge9" class="edge">
<title>node7&#45;&gt;node5</title>
<path fill="none" stroke="black" d="M246.75,-80.12C243.83,-70.46 240.77,-60.37 238.04,-51.37"/>
<polygon fill="black" stroke="black" points="241.38,-50.3 235.13,-41.75 234.68,-52.33 241.38,-50.3"/>
</g>
<!-- node6 -->
<g id="node16" class="node">
<title>node6</title>
<ellipse fill="lightblue" stroke="black" cx="289.21" cy="-21.21" rx="21.43" ry="21.43"/>
<text text-anchor="middle" x="289.21" y="-16.21" font-family="Times,serif" font-size="20.00">a</text>
</g>
<!-- node7&#45;&gt;node6 -->
<g id="edge10" class="edge">
<title>node7&#45;&gt;node6</title>
<path fill="none" stroke="black" d="M271.68,-80.12C274.6,-70.46 277.66,-60.37 280.38,-51.37"/>
<polygon fill="black" stroke="black" points="283.75,-52.33 283.3,-41.75 277.05,-50.3 283.75,-52.33"/>
</g>
<!-- node21 -->
<g id="node18" class="node">
<title>node21</title>
<ellipse fill="lightblue" stroke="black" cx="255.21" cy="-956.28" rx="29.9" ry="29.9"/>
<text text-anchor="middle" x="255.21" y="-951.28" font-family="Times,serif" font-size="20.00">IN</text>
</g>
<!-- node22&#45;&gt;node21 -->
<g id="edge16" class="edge">
<title>node22&#45;&gt;node21</title>
<path fill="none" stroke="black" d="M237.83,-1070.78C241.16,-1049 245.7,-1019.39 249.3,-995.87"/>
<polygon fill="black" stroke="black" points="252.78,-996.29 250.83,-985.87 245.86,-995.23 252.78,-996.29"/>
</g>
<!-- node20 -->
<g id="node19" class="node">
<title>node20</title>
<ellipse fill="lightblue" stroke="black" cx="273.21" cy="-790.17" rx="65.11" ry="65.11"/>
<text text-anchor="middle" x="273.21" y="-785.17" font-family="Times,serif" font-size="20.00">PARAM</text>
</g>
<!-- node21&#45;&gt;node20 -->
<g id="edge17" class="edge">
<title>node21&#45;&gt;node20</title>
<path fill="none" stroke="black" d="M258.35,-926.69C260.23,-909.57 262.71,-886.95 265.1,-865.1"/>
<polygon fill="black" stroke="black" points="268.59,-865.46 266.2,-855.14 261.63,-864.7 268.59,-865.46"/>
</g>
<!-- node15 -->
<g id="node20" class="node">
<title>node15</title>
<ellipse fill="lightblue" stroke="black" cx="262.21" cy="-624.06" rx="21.43" ry="21.43"/>
<text text-anchor="middle" x="262.21" y="-619.06" font-family="Times,serif" font-size="20.00">y</text>
</g>
<!-- node20&#45;&gt;node15 -->
<g id="edge18" class="edge">
<title>node20&#45;&gt;node15</title>
<path fill="none" stroke="black" d="M268.93,-725.25C267.32,-701.26 265.57,-675.08 264.25,-655.51"/>
<polygon fill="black" stroke="black" points="267.74,-655.11 263.57,-645.37 260.75,-655.58 267.74,-655.11"/>
</g>
<!-- node19 -->
<g id="node21" class="node">
<title>node19</title>
<ellipse fill="lightblue" stroke="black" cx="366.21" cy="-624.06" rx="65.11" ry="65.11"/>
<text text-anchor="middle" x="366.21" y="-619.06" font-family="Times,serif" font-size="20.00">PARAM</text>
</g>
<!-- node20&#45;&gt;node19 -->
<g id="edge22" class="edge">
<title>node20&#45;&gt;node19</title>
<path fill="none" stroke="black" d="M304.96,-733.15C312.85,-719.24 321.36,-704.2 329.47,-689.9"/>
<polygon fill="black" stroke="black" points="332.57,-691.53 334.45,-681.11 326.48,-688.08 332.57,-691.53"/>
</g>
<!-- node18 -->
<g id="node22" class="node">
<title>node18</title>
<ellipse fill="lightblue" stroke="black" cx="366.21" cy="-481.29" rx="41.94" ry="41.94"/>
<text text-anchor="middle" x="366.21" y="-476.29" font-family="Times,serif" font-size="20.00">VAR</text>
</g>
<!-- node19&#45;&gt;node18 -->
<g id="edge19" class="edge">
<title>node19&#45;&gt;node18</title>
<path fill="none" stroke="black" d="M366.21,-558.86C366.21,-550.29 366.21,-541.6 366.21,-533.3"/>
<polygon fill="black" stroke="black" points="369.71,-533.04 366.21,-523.04 362.71,-533.04 369.71,-533.04"/>
</g>
<!-- node16 -->
<g id="node23" class="node">
<title>node16</title>
<ellipse fill="lightblue" stroke="black" cx="336.21" cy="-359.73" rx="21.43" ry="21.43"/>
<text text-anchor="middle" x="336.21" y="-354.73" font-family="Times,serif" font-size="20.00">z</text>
</g>
<!-- node18&#45;&gt;node16 -->
<g id="edge20" class="edge">
<title>node18&#45;&gt;node16</title>
<path fill="none" stroke="black" d="M356.22,-440.48C352.12,-424.14 347.46,-405.56 343.67,-390.44"/>
<polygon fill="black" stroke="black" points="347.03,-389.45 341.2,-380.6 340.24,-391.15 347.03,-389.45"/>
</g>
<!-- node17 -->
<g id="node24" class="node">
<title>node17</title>
<ellipse fill="lightblue" stroke="black" cx="396.21" cy="-359.73" rx="21.43" ry="21.43"/>
<text text-anchor="middle" x="396.21" y="-354.73" font-family="Times,serif" font-size="20.00">2</text>
</g>
<!-- node18&#45;&gt;node17 -->
<g id="edge21" class="edge">
<title>node18&#45;&gt;node17</title>
<path fill="none" stroke="black" d="M376.2,-440.48C380.3,-424.14 384.97,-405.56 388.76,-390.44"/>
<polygon fill="black" stroke="black" points="392.19,-391.15 391.23,-380.6 385.4,-389.45 392.19,-391.15"/>
</g>
</g>
</svg>
