<?xml version="1.0" encoding="UTF-8" standalone="no"?>
<!DOCTYPE svg PUBLIC "-//W3C//DTD SVG 1.1//EN"
 "http://www.w3.org/Graphics/SVG/1.1/DTD/svg11.dtd">
<!-- Generated by graphviz version 2.43.0 (0)
 -->
<!-- Title: G Pages: 1 -->
<svg width="432pt" height="737pt"
 viewBox="0.00 0.00 432.43 736.71" xmlns="http://www.w3.org/2000/svg" xmlns:xlink="http://www.w3.org/1999/xlink">
<g id="graph0" class="graph" transform="scale(1 1) rotate(0) translate(4 732.71)">
<title>G</title>
<polygon fill="white" stroke="transparent" points="-4,4 -4,-732.71 428.43,-732.71 428.43,4 -4,4"/>
<!-- node24 -->
<g id="node1" class="node">
<title>node24</title>
<ellipse fill="lightblue" stroke="black" cx="121.21" cy="-665.08" rx="63.78" ry="63.78"/>
<text text-anchor="middle" x="121.21" y="-660.08" font-family="Times,serif" font-size="20.00">WHILE</text>
</g>
<!-- node11 -->
<g id="node2" class="node">
<title>node11</title>
<ellipse fill="lightblue" stroke="black" cx="75.21" cy="-521.6" rx="43.68" ry="43.68"/>
<text text-anchor="middle" x="75.21" y="-516.6" font-family="Times,serif" font-size="20.00">SUB</text>
</g>
<!-- node24&#45;&gt;node11 -->
<g id="edge1" class="edge">
<title>node24&#45;&gt;node11</title>
<path fill="none" stroke="black" d="M101.71,-604.07C98.36,-593.79 94.92,-583.2 91.67,-573.2"/>
<polygon fill="black" stroke="black" points="94.91,-571.85 88.49,-563.42 88.25,-574.02 94.91,-571.85"/>
</g>
<!-- node23 -->
<g id="node5" class="node">
<title>node23</title>
<ellipse fill="lightblue" stroke="black" cx="168.21" cy="-521.6" rx="31.23" ry="31.23"/>
<text text-anchor="middle" x="168.21" y="-516.6" font-family="Times,serif" font-size="20.00">ST</text>
</g>
<!-- node24&#45;&gt;node23 -->
<g id="edge15" class="edge">
<title>node24&#45;&gt;node23</title>
<path fill="none" stroke="black" d="M141.01,-604.48C145.89,-589.8 150.98,-574.46 155.43,-561.08"/>
<polygon fill="black" stroke="black" points="158.86,-561.86 158.69,-551.27 152.21,-559.66 158.86,-561.86"/>
</g>
<!-- node9 -->
<g id="node3" class="node">
<title>node9</title>
<ellipse fill="lightblue" stroke="black" cx="21.21" cy="-408.52" rx="21.43" ry="21.43"/>
<text text-anchor="middle" x="21.21" y="-403.52" font-family="Times,serif" font-size="20.00">n</text>
</g>
<!-- node11&#45;&gt;node9 -->
<g id="edge2" class="edge">
<title>node11&#45;&gt;node9</title>
<path fill="none" stroke="black" d="M56.33,-481.75C49.18,-467.05 41.2,-450.63 34.65,-437.16"/>
<polygon fill="black" stroke="black" points="37.69,-435.41 30.17,-427.95 31.4,-438.47 37.69,-435.41"/>
</g>
<!-- node10 -->
<g id="node4" class="node">
<title>node10</title>
<ellipse fill="lightblue" stroke="black" cx="81.21" cy="-408.52" rx="21.43" ry="21.43"/>
<text text-anchor="middle" x="81.21" y="-403.52" font-family="Times,serif" font-size="20.00">1</text>
</g>
<!-- node11&#45;&gt;node10 -->
<g id="edge3" class="edge">
<title>node11&#45;&gt;node10</title>
<path fill="none" stroke="black" d="M77.53,-477.65C78.21,-465.03 78.95,-451.5 79.58,-439.84"/>
<polygon fill="black" stroke="black" points="83.08,-439.92 80.12,-429.75 76.09,-439.54 83.08,-439.92"/>
</g>
<!-- node16 -->
<g id="node6" class="node">
<title>node16</title>
<ellipse fill="lightblue" stroke="black" cx="163.21" cy="-408.52" rx="33.47" ry="33.47"/>
<text text-anchor="middle" x="163.21" y="-403.52" font-family="Times,serif" font-size="20.00">EQ</text>
</g>
<!-- node23&#45;&gt;node16 -->
<g id="edge4" class="edge">
<title>node23&#45;&gt;node16</title>
<path fill="none" stroke="black" d="M166.85,-490.24C166.31,-478.38 165.69,-464.58 165.12,-451.78"/>
<polygon fill="black" stroke="black" points="168.61,-451.61 164.67,-441.78 161.62,-451.93 168.61,-451.61"/>
</g>
<!-- node22 -->
<g id="node11" class="node">
<title>node22</title>
<ellipse fill="lightblue" stroke="black" cx="251.21" cy="-408.52" rx="31.23" ry="31.23"/>
<text text-anchor="middle" x="251.21" y="-403.52" font-family="Times,serif" font-size="20.00">ST</text>
</g>
<!-- node23&#45;&gt;node22 -->
<g id="edge14" class="edge">
<title>node23&#45;&gt;node22</title>
<path fill="none" stroke="black" d="M186.43,-496.22C198.32,-480.3 213.99,-459.34 226.93,-442.01"/>
<polygon fill="black" stroke="black" points="229.86,-443.94 233.04,-433.84 224.25,-439.75 229.86,-443.94"/>
</g>
<!-- node12 -->
<g id="node7" class="node">
<title>node12</title>
<ellipse fill="lightblue" stroke="black" cx="80.21" cy="-295.45" rx="21.43" ry="21.43"/>
<text text-anchor="middle" x="80.21" y="-290.45" font-family="Times,serif" font-size="20.00">n</text>
</g>
<!-- node16&#45;&gt;node12 -->
<g id="edge5" class="edge">
<title>node16&#45;&gt;node12</title>
<path fill="none" stroke="black" d="M142.77,-381.83C132.8,-369.14 120.72,-353.53 110.21,-339.29 106.18,-333.82 101.94,-327.89 97.96,-322.23"/>
<polygon fill="black" stroke="black" points="100.59,-319.87 91.99,-313.68 94.85,-323.88 100.59,-319.87"/>
</g>
<!-- node15 -->
<g id="node8" class="node">
<title>node15</title>
<ellipse fill="lightblue" stroke="black" cx="163.21" cy="-295.45" rx="43.68" ry="43.68"/>
<text text-anchor="middle" x="163.21" y="-290.45" font-family="Times,serif" font-size="20.00">SUB</text>
</g>
<!-- node16&#45;&gt;node15 -->
<g id="edge8" class="edge">
<title>node16&#45;&gt;node15</title>
<path fill="none" stroke="black" d="M163.21,-375.09C163.21,-367.09 163.21,-358.3 163.21,-349.59"/>
<polygon fill="black" stroke="black" points="166.71,-349.45 163.21,-339.45 159.71,-349.45 166.71,-349.45"/>
</g>
<!-- node13 -->
<g id="node9" class="node">
<title>node13</title>
<ellipse fill="lightblue" stroke="black" cx="106.21" cy="-168.23" rx="21.43" ry="21.43"/>
<text text-anchor="middle" x="106.21" y="-163.23" font-family="Times,serif" font-size="20.00">n</text>
</g>
<!-- node15&#45;&gt;node13 -->
<g id="edge6" class="edge">
<title>node15&#45;&gt;node13</title>
<path fill="none" stroke="black" d="M145.33,-255.17C136.76,-236.34 126.7,-214.23 118.92,-197.15"/>
<polygon fill="black" stroke="black" points="121.97,-195.39 114.64,-187.74 115.6,-198.29 121.97,-195.39"/>
</g>
<!-- node14 -->
<g id="node10" class="node">
<title>node14</title>
<ellipse fill="lightblue" stroke="black" cx="166.21" cy="-168.23" rx="21.43" ry="21.43"/>
<text text-anchor="middle" x="166.21" y="-163.23" font-family="Times,serif" font-size="20.00">1</text>
</g>
<!-- node15&#45;&gt;node14 -->
<g id="edge7" class="edge">
<title>node15&#45;&gt;node14</title>
<path fill="none" stroke="black" d="M164.25,-251.35C164.65,-234.34 165.11,-215.19 165.48,-199.66"/>
<polygon fill="black" stroke="black" points="168.99,-199.65 165.73,-189.56 161.99,-199.48 168.99,-199.65"/>
</g>
<!-- node21 -->
<g id="node12" class="node">
<title>node21</title>
<ellipse fill="lightblue" stroke="black" cx="258.21" cy="-295.45" rx="33.47" ry="33.47"/>
<text text-anchor="middle" x="258.21" y="-290.45" font-family="Times,serif" font-size="20.00">EQ</text>
</g>
<!-- node22&#45;&gt;node21 -->
<g id="edge9" class="edge">
<title>node22&#45;&gt;node21</title>
<path fill="none" stroke="black" d="M253.11,-377.46C253.86,-365.6 254.73,-351.76 255.54,-338.9"/>
<polygon fill="black" stroke="black" points="259.03,-339.07 256.17,-328.87 252.05,-338.63 259.03,-339.07"/>
</g>
<!-- node17 -->
<g id="node13" class="node">
<title>node17</title>
<ellipse fill="lightblue" stroke="black" cx="254.21" cy="-168.23" rx="42.35" ry="42.35"/>
<text text-anchor="middle" x="254.21" y="-163.23" font-family="Times,serif" font-size="20.00">fuck</text>
</g>
<!-- node21&#45;&gt;node17 -->
<g id="edge10" class="edge">
<title>node21&#45;&gt;node17</title>
<path fill="none" stroke="black" d="M257.18,-262.2C256.78,-249.6 256.31,-234.85 255.86,-220.85"/>
<polygon fill="black" stroke="black" points="259.36,-220.71 255.54,-210.83 252.36,-220.93 259.36,-220.71"/>
</g>
<!-- node20 -->
<g id="node14" class="node">
<title>node20</title>
<ellipse fill="lightblue" stroke="black" cx="362.21" cy="-168.23" rx="47.25" ry="47.25"/>
<text text-anchor="middle" x="362.21" y="-163.23" font-family="Times,serif" font-size="20.00">MUL</text>
</g>
<!-- node21&#45;&gt;node20 -->
<g id="edge13" class="edge">
<title>node21&#45;&gt;node20</title>
<path fill="none" stroke="black" d="M279.01,-269.41C292.39,-253.3 310.15,-231.92 325.82,-213.05"/>
<polygon fill="black" stroke="black" points="328.69,-215.06 332.39,-205.14 323.31,-210.59 328.69,-215.06"/>
</g>
<!-- node18 -->
<g id="node15" class="node">
<title>node18</title>
<ellipse fill="lightblue" stroke="black" cx="321.21" cy="-42.43" rx="42.35" ry="42.35"/>
<text text-anchor="middle" x="321.21" y="-37.43" font-family="Times,serif" font-size="20.00">fuck</text>
</g>
<!-- node20&#45;&gt;node18 -->
<g id="edge11" class="edge">
<title>node20&#45;&gt;node18</title>
<path fill="none" stroke="black" d="M347.53,-122.88C344.29,-113.1 340.84,-102.68 337.54,-92.71"/>
<polygon fill="black" stroke="black" points="340.77,-91.33 334.3,-82.94 334.12,-93.53 340.77,-91.33"/>
</g>
<!-- node19 -->
<g id="node16" class="node">
<title>node19</title>
<ellipse fill="lightblue" stroke="black" cx="403.21" cy="-42.43" rx="21.43" ry="21.43"/>
<text text-anchor="middle" x="403.21" y="-37.43" font-family="Times,serif" font-size="20.00">n</text>
</g>
<!-- node20&#45;&gt;node19 -->
<g id="edge12" class="edge">
<title>node20&#45;&gt;node19</title>
<path fill="none" stroke="black" d="M376.9,-122.88C382.43,-106.2 388.57,-87.65 393.52,-72.68"/>
<polygon fill="black" stroke="black" points="396.92,-73.55 396.75,-62.95 390.28,-71.35 396.92,-73.55"/>
</g>
</g>
</svg>
