<?xml version="1.0" encoding="UTF-8" standalone="no"?>
<!DOCTYPE svg PUBLIC "-//W3C//DTD SVG 1.1//EN"
 "http://www.w3.org/Graphics/SVG/1.1/DTD/svg11.dtd">
<!-- Generated by graphviz version 2.43.0 (0)
 -->
<!-- Title: G Pages: 1 -->
<svg width="163pt" height="277pt"
 viewBox="0.00 0.00 163.43 276.58" xmlns="http://www.w3.org/2000/svg" xmlns:xlink="http://www.w3.org/1999/xlink">
<g id="graph0" class="graph" transform="scale(1 1) rotate(0) translate(4 272.58)">
<title>G</title>
<polygon fill="white" stroke="transparent" points="-4,4 -4,-272.58 159.43,-272.58 159.43,4 -4,4"/>
<!-- node16 -->
<g id="node1" class="node">
<title>node16</title>
<ellipse fill="lightblue" stroke="black" cx="62.21" cy="-235.34" rx="33.47" ry="33.47"/>
<text text-anchor="middle" x="62.21" y="-230.34" font-family="Times,serif" font-size="20.00">EQ</text>
</g>
<!-- node12 -->
<g id="node2" class="node">
<title>node12</title>
<ellipse fill="lightblue" stroke="black" cx="21.21" cy="-122.27" rx="21.43" ry="21.43"/>
<text text-anchor="middle" x="21.21" y="-117.27" font-family="Times,serif" font-size="20.00">n</text>
</g>
<!-- node16&#45;&gt;node12 -->
<g id="edge1" class="edge">
<title>node16&#45;&gt;node12</title>
<path fill="none" stroke="black" d="M51.01,-203.99C45.06,-187.87 37.78,-168.15 31.91,-152.24"/>
<polygon fill="black" stroke="black" points="35.03,-150.58 28.28,-142.41 28.46,-153 35.03,-150.58"/>
</g>
<!-- node15 -->
<g id="node3" class="node">
<title>node15</title>
<ellipse fill="lightblue" stroke="black" cx="104.21" cy="-122.27" rx="43.68" ry="43.68"/>
<text text-anchor="middle" x="104.21" y="-117.27" font-family="Times,serif" font-size="20.00">SUB</text>
</g>
<!-- node16&#45;&gt;node15 -->
<g id="edge4" class="edge">
<title>node16&#45;&gt;node15</title>
<path fill="none" stroke="black" d="M73.69,-203.99C77.3,-194.45 81.38,-183.65 85.36,-173.13"/>
<polygon fill="black" stroke="black" points="88.71,-174.18 88.97,-163.58 82.16,-171.7 88.71,-174.18"/>
</g>
<!-- node13 -->
<g id="node4" class="node">
<title>node13</title>
<ellipse fill="lightblue" stroke="black" cx="74.21" cy="-21.21" rx="21.43" ry="21.43"/>
<text text-anchor="middle" x="74.21" y="-16.21" font-family="Times,serif" font-size="20.00">n</text>
</g>
<!-- node15&#45;&gt;node13 -->
<g id="edge2" class="edge">
<title>node15&#45;&gt;node13</title>
<path fill="none" stroke="black" d="M91.75,-80.12C88.83,-70.46 85.77,-60.37 83.04,-51.37"/>
<polygon fill="black" stroke="black" points="86.38,-50.3 80.13,-41.75 79.68,-52.33 86.38,-50.3"/>
</g>
<!-- node14 -->
<g id="node5" class="node">
<title>node14</title>
<ellipse fill="lightblue" stroke="black" cx="134.21" cy="-21.21" rx="21.43" ry="21.43"/>
<text text-anchor="middle" x="134.21" y="-16.21" font-family="Times,serif" font-size="20.00">1</text>
</g>
<!-- node15&#45;&gt;node14 -->
<g id="edge3" class="edge">
<title>node15&#45;&gt;node14</title>
<path fill="none" stroke="black" d="M116.68,-80.12C119.6,-70.46 122.66,-60.37 125.38,-51.37"/>
<polygon fill="black" stroke="black" points="128.75,-52.33 128.3,-41.75 122.05,-50.3 128.75,-52.33"/>
</g>
</g>
</svg>
