<?xml version="1.0" encoding="UTF-8" standalone="no"?>
<!DOCTYPE svg PUBLIC "-//W3C//DTD SVG 1.1//EN"
 "http://www.w3.org/Graphics/SVG/1.1/DTD/svg11.dtd">
<!-- Generated by graphviz version 2.43.0 (0)
 -->
<!-- Title: G Pages: 1 -->
<svg width="221pt" height="326pt"
 viewBox="0.00 0.00 220.64 326.07" xmlns="http://www.w3.org/2000/svg" xmlns:xlink="http://www.w3.org/1999/xlink">
<g id="graph0" class="graph" transform="scale(1 1) rotate(0) translate(4 322.07)">
<title>G</title>
<polygon fill="white" stroke="transparent" points="-4,4 -4,-322.07 216.64,-322.07 216.64,4 -4,4"/>
<!-- node21 -->
<g id="node1" class="node">
<title>node21</title>
<ellipse fill="lightblue" stroke="black" cx="96.43" cy="-284.84" rx="33.47" ry="33.47"/>
<text text-anchor="middle" x="96.43" y="-279.84" font-family="Times,serif" font-size="20.00">EQ</text>
</g>
<!-- node17 -->
<g id="node2" class="node">
<title>node17</title>
<ellipse fill="lightblue" stroke="black" cx="42.43" cy="-168.23" rx="42.35" ry="42.35"/>
<text text-anchor="middle" x="42.43" y="-163.23" font-family="Times,serif" font-size="20.00">fuck</text>
</g>
<!-- node21&#45;&gt;node17 -->
<g id="edge1" class="edge">
<title>node21&#45;&gt;node17</title>
<path fill="none" stroke="black" d="M82.52,-254.32C77.04,-242.69 70.61,-229.04 64.52,-216.12"/>
<polygon fill="black" stroke="black" points="67.59,-214.43 60.17,-206.88 61.26,-217.42 67.59,-214.43"/>
</g>
<!-- node20 -->
<g id="node3" class="node">
<title>node20</title>
<ellipse fill="lightblue" stroke="black" cx="150.43" cy="-168.23" rx="47.25" ry="47.25"/>
<text text-anchor="middle" x="150.43" y="-163.23" font-family="Times,serif" font-size="20.00">MUL</text>
</g>
<!-- node21&#45;&gt;node20 -->
<g id="edge4" class="edge">
<title>node21&#45;&gt;node20</title>
<path fill="none" stroke="black" d="M110.33,-254.32C115.17,-244.07 120.74,-232.24 126.16,-220.73"/>
<polygon fill="black" stroke="black" points="129.36,-222.14 130.46,-211.61 123.03,-219.16 129.36,-222.14"/>
</g>
<!-- node18 -->
<g id="node4" class="node">
<title>node18</title>
<ellipse fill="lightblue" stroke="black" cx="109.43" cy="-42.43" rx="42.35" ry="42.35"/>
<text text-anchor="middle" x="109.43" y="-37.43" font-family="Times,serif" font-size="20.00">fuck</text>
</g>
<!-- node20&#45;&gt;node18 -->
<g id="edge2" class="edge">
<title>node20&#45;&gt;node18</title>
<path fill="none" stroke="black" d="M135.74,-122.88C132.5,-113.1 129.05,-102.68 125.75,-92.71"/>
<polygon fill="black" stroke="black" points="128.98,-91.33 122.51,-82.94 122.33,-93.53 128.98,-91.33"/>
</g>
<!-- node19 -->
<g id="node5" class="node">
<title>node19</title>
<ellipse fill="lightblue" stroke="black" cx="191.43" cy="-42.43" rx="21.43" ry="21.43"/>
<text text-anchor="middle" x="191.43" y="-37.43" font-family="Times,serif" font-size="20.00">n</text>
</g>
<!-- node20&#45;&gt;node19 -->
<g id="edge3" class="edge">
<title>node20&#45;&gt;node19</title>
<path fill="none" stroke="black" d="M165.11,-122.88C170.64,-106.2 176.78,-87.65 181.74,-72.68"/>
<polygon fill="black" stroke="black" points="185.14,-73.55 184.96,-62.95 178.49,-71.35 185.14,-73.55"/>
</g>
</g>
</svg>
