<?xml version="1.0" encoding="UTF-8" standalone="no"?>
<!DOCTYPE svg PUBLIC "-//W3C//DTD SVG 1.1//EN"
 "http://www.w3.org/Graphics/SVG/1.1/DTD/svg11.dtd">
<!-- Generated by graphviz version 2.43.0 (0)
 -->
<!-- Title: G Pages: 1 -->
<svg width="110pt" height="133pt"
 viewBox="0.00 0.00 110.43 133.10" xmlns="http://www.w3.org/2000/svg" xmlns:xlink="http://www.w3.org/1999/xlink">
<g id="graph0" class="graph" transform="scale(1 1) rotate(0) translate(4 129.1)">
<title>G</title>
<polygon fill="white" stroke="transparent" points="-4,4 -4,-129.1 106.43,-129.1 106.43,4 -4,4"/>
<!-- node7 -->
<g id="node1" class="node">
<title>node7</title>
<ellipse fill="lightblue" stroke="black" cx="51.21" cy="-101.76" rx="23.17" ry="23.17"/>
<text text-anchor="middle" x="51.21" y="-96.76" font-family="Times,serif" font-size="20.00">+</text>
</g>
<!-- node5 -->
<g id="node2" class="node">
<title>node5</title>
<ellipse fill="lightblue" stroke="black" cx="21.21" cy="-21.21" rx="21.43" ry="21.43"/>
<text text-anchor="middle" x="21.21" y="-16.21" font-family="Times,serif" font-size="20.00">2</text>
</g>
<!-- node7&#45;&gt;node5 -->
<g id="edge1" class="edge">
<title>node7&#45;&gt;node5</title>
<path fill="none" stroke="black" d="M43.17,-79.71C39.77,-70.81 35.76,-60.3 32.1,-50.72"/>
<polygon fill="black" stroke="black" points="35.29,-49.26 28.45,-41.17 28.75,-51.76 35.29,-49.26"/>
</g>
<!-- node6 -->
<g id="node3" class="node">
<title>node6</title>
<ellipse fill="lightblue" stroke="black" cx="81.21" cy="-21.21" rx="21.43" ry="21.43"/>
<text text-anchor="middle" x="81.21" y="-16.21" font-family="Times,serif" font-size="20.00">4</text>
</g>
<!-- node7&#45;&gt;node6 -->
<g id="edge2" class="edge">
<title>node7&#45;&gt;node6</title>
<path fill="none" stroke="black" d="M59.25,-79.71C62.65,-70.81 66.67,-60.3 70.33,-50.72"/>
<polygon fill="black" stroke="black" points="73.67,-51.76 73.97,-41.17 67.13,-49.26 73.67,-51.76"/>
</g>
</g>
</svg>
