<?xml version="1.0" encoding="UTF-8" standalone="no"?>
<!DOCTYPE svg PUBLIC "-//W3C//DTD SVG 1.1//EN"
 "http://www.w3.org/Graphics/SVG/1.1/DTD/svg11.dtd">
<!-- Generated by graphviz version 2.43.0 (0)
 -->
<!-- Title: G Pages: 1 -->
<svg width="312pt" height="817pt"
 viewBox="0.00 0.00 311.82 816.56" xmlns="http://www.w3.org/2000/svg" xmlns:xlink="http://www.w3.org/1999/xlink">
<g id="graph0" class="graph" transform="scale(1 1) rotate(0) translate(4 812.56)">
<title>G</title>
<polygon fill="white" stroke="transparent" points="-4,4 -4,-812.56 307.82,-812.56 307.82,4 -4,4"/>
<!-- node11 -->
<g id="node1" class="node">
<title>node11</title>
<ellipse fill="lightblue" stroke="black" cx="113.15" cy="-777.44" rx="31.23" ry="31.23"/>
<text text-anchor="middle" x="113.15" y="-772.44" font-family="Times,serif" font-size="20.00">ST</text>
</g>
<!-- node10 -->
<g id="node2" class="node">
<title>node10</title>
<ellipse fill="lightblue" stroke="black" cx="113.15" cy="-677.1" rx="33.47" ry="33.47"/>
<text text-anchor="middle" x="113.15" y="-672.1" font-family="Times,serif" font-size="20.00">EQ</text>
</g>
<!-- node11&#45;&gt;node10 -->
<g id="edge1" class="edge">
<title>node11&#45;&gt;node10</title>
<path fill="none" stroke="black" d="M113.15,-746.13C113.15,-738.11 113.15,-729.29 113.15,-720.75"/>
<polygon fill="black" stroke="black" points="116.65,-720.52 113.15,-710.52 109.65,-720.52 116.65,-720.52"/>
</g>
<!-- node0 -->
<g id="node3" class="node">
<title>node0</title>
<ellipse fill="lightblue" stroke="black" cx="55.15" cy="-552.71" rx="55.31" ry="55.31"/>
<text text-anchor="middle" x="55.15" y="-547.71" font-family="Times,serif" font-size="20.00">aboba</text>
</g>
<!-- node10&#45;&gt;node0 -->
<g id="edge2" class="edge">
<title>node10&#45;&gt;node0</title>
<path fill="none" stroke="black" d="M99.26,-646.78C94.29,-636.3 88.51,-624.09 82.79,-612.02"/>
<polygon fill="black" stroke="black" points="85.89,-610.4 78.45,-602.86 79.57,-613.39 85.89,-610.4"/>
</g>
<!-- node9 -->
<g id="node4" class="node">
<title>node9</title>
<ellipse fill="lightblue" stroke="black" cx="172.15" cy="-552.71" rx="43.68" ry="43.68"/>
<text text-anchor="middle" x="172.15" y="-547.71" font-family="Times,serif" font-size="20.00">SUB</text>
</g>
<!-- node10&#45;&gt;node9 -->
<g id="edge11" class="edge">
<title>node10&#45;&gt;node9</title>
<path fill="none" stroke="black" d="M127.29,-646.78C133.78,-633.31 141.65,-616.98 148.98,-601.79"/>
<polygon fill="black" stroke="black" points="152.26,-603.03 153.45,-592.51 145.95,-600 152.26,-603.03"/>
</g>
<!-- node1 -->
<g id="node5" class="node">
<title>node1</title>
<ellipse fill="lightblue" stroke="black" cx="133.15" cy="-422.66" rx="21.43" ry="21.43"/>
<text text-anchor="middle" x="133.15" y="-417.66" font-family="Times,serif" font-size="20.00">1</text>
</g>
<!-- node9&#45;&gt;node1 -->
<g id="edge3" class="edge">
<title>node9&#45;&gt;node1</title>
<path fill="none" stroke="black" d="M159.6,-510.49C153.92,-491.84 147.34,-470.23 142.16,-453.23"/>
<polygon fill="black" stroke="black" points="145.4,-451.85 139.14,-443.31 138.7,-453.89 145.4,-451.85"/>
</g>
<!-- node8 -->
<g id="node6" class="node">
<title>node8</title>
<ellipse fill="lightblue" stroke="black" cx="211.15" cy="-422.66" rx="38.78" ry="38.78"/>
<text text-anchor="middle" x="211.15" y="-417.66" font-family="Times,serif" font-size="20.00">DIV</text>
</g>
<!-- node9&#45;&gt;node8 -->
<g id="edge10" class="edge">
<title>node9&#45;&gt;node8</title>
<path fill="none" stroke="black" d="M184.71,-510.49C188.65,-497.56 193.02,-483.19 197.06,-469.93"/>
<polygon fill="black" stroke="black" points="200.51,-470.64 200.07,-460.05 193.81,-468.6 200.51,-470.64"/>
</g>
<!-- node6 -->
<g id="node7" class="node">
<title>node6</title>
<ellipse fill="lightblue" stroke="black" cx="170.15" cy="-303.93" rx="43.68" ry="43.68"/>
<text text-anchor="middle" x="170.15" y="-298.93" font-family="Times,serif" font-size="20.00">ADD</text>
</g>
<!-- node8&#45;&gt;node6 -->
<g id="edge4" class="edge">
<title>node8&#45;&gt;node6</title>
<path fill="none" stroke="black" d="M198.52,-385.69C195.13,-376.04 191.41,-365.43 187.8,-355.17"/>
<polygon fill="black" stroke="black" points="191.01,-353.75 184.39,-345.48 184.41,-356.07 191.01,-353.75"/>
</g>
<!-- node7 -->
<g id="node12" class="node">
<title>node7</title>
<ellipse fill="lightblue" stroke="black" cx="253.15" cy="-303.93" rx="21.43" ry="21.43"/>
<text text-anchor="middle" x="253.15" y="-298.93" font-family="Times,serif" font-size="20.00">4</text>
</g>
<!-- node8&#45;&gt;node7 -->
<g id="edge9" class="edge">
<title>node8&#45;&gt;node7</title>
<path fill="none" stroke="black" d="M224.1,-385.69C230.07,-369.09 237.06,-349.65 242.7,-334"/>
<polygon fill="black" stroke="black" points="246.08,-334.93 246.17,-324.33 239.49,-332.56 246.08,-334.93"/>
</g>
<!-- node2 -->
<g id="node8" class="node">
<title>node2</title>
<ellipse fill="lightblue" stroke="black" cx="127.15" cy="-176.71" rx="21.43" ry="21.43"/>
<text text-anchor="middle" x="127.15" y="-171.71" font-family="Times,serif" font-size="20.00">4</text>
</g>
<!-- node6&#45;&gt;node2 -->
<g id="edge5" class="edge">
<title>node6&#45;&gt;node2</title>
<path fill="none" stroke="black" d="M156.19,-262.28C149.98,-244.18 142.8,-223.28 137.14,-206.79"/>
<polygon fill="black" stroke="black" points="140.39,-205.47 133.83,-197.15 133.77,-207.75 140.39,-205.47"/>
</g>
<!-- node5 -->
<g id="node9" class="node">
<title>node5</title>
<ellipse fill="lightblue" stroke="black" cx="214.15" cy="-176.71" rx="47.25" ry="47.25"/>
<text text-anchor="middle" x="214.15" y="-171.71" font-family="Times,serif" font-size="20.00">MUL</text>
</g>
<!-- node6&#45;&gt;node5 -->
<g id="edge8" class="edge">
<title>node6&#45;&gt;node5</title>
<path fill="none" stroke="black" d="M184.44,-262.28C187.94,-252.33 191.73,-241.53 195.4,-231.08"/>
<polygon fill="black" stroke="black" points="198.71,-232.22 198.73,-221.62 192.11,-229.89 198.71,-232.22"/>
</g>
<!-- node3 -->
<g id="node10" class="node">
<title>node3</title>
<ellipse fill="lightblue" stroke="black" cx="171.15" cy="-46.67" rx="21.43" ry="21.43"/>
<text text-anchor="middle" x="171.15" y="-41.67" font-family="Times,serif" font-size="20.00">9</text>
</g>
<!-- node5&#45;&gt;node3 -->
<g id="edge6" class="edge">
<title>node5&#45;&gt;node3</title>
<path fill="none" stroke="black" d="M199.36,-131.65C193.24,-113.44 186.32,-92.83 180.87,-76.59"/>
<polygon fill="black" stroke="black" points="184.18,-75.46 177.68,-67.1 177.54,-77.69 184.18,-75.46"/>
</g>
<!-- node4 -->
<g id="node11" class="node">
<title>node4</title>
<ellipse fill="lightblue" stroke="black" cx="257.15" cy="-46.67" rx="46.84" ry="46.84"/>
<text text-anchor="middle" x="257.15" y="-41.67" font-family="Times,serif" font-size="20.00">kuku</text>
</g>
<!-- node5&#45;&gt;node4 -->
<g id="edge7" class="edge">
<title>node5&#45;&gt;node4</title>
<path fill="none" stroke="black" d="M228.95,-131.65C232.27,-121.78 235.82,-111.21 239.24,-101.01"/>
<polygon fill="black" stroke="black" points="242.61,-101.98 242.47,-91.38 235.97,-99.75 242.61,-101.98"/>
</g>
</g>
</svg>
