<?xml version="1.0" encoding="UTF-8" standalone="no"?>
<!DOCTYPE svg PUBLIC "-//W3C//DTD SVG 1.1//EN"
 "http://www.w3.org/Graphics/SVG/1.1/DTD/svg11.dtd">
<!-- Generated by graphviz version 2.43.0 (0)
 -->
<!-- Title: G Pages: 1 -->
<svg width="518pt" height="790pt"
 viewBox="0.00 0.00 518.17 790.45" xmlns="http://www.w3.org/2000/svg" xmlns:xlink="http://www.w3.org/1999/xlink">
<g id="graph0" class="graph" transform="scale(1 1) rotate(0) translate(4 786.45)">
<title>G</title>
<polygon fill="white" stroke="transparent" points="-4,4 -4,-786.45 514.17,-786.45 514.17,4 -4,4"/>
<!-- node50 -->
<g id="node1" class="node">
<title>node50</title>
<ellipse fill="lightblue" stroke="black" cx="299.72" cy="-725.89" rx="56.64" ry="56.64"/>
<text text-anchor="middle" x="299.72" y="-720.89" font-family="Times,serif" font-size="20.00">FUNC</text>
</g>
<!-- node49 -->
<g id="node2" class="node">
<title>node49</title>
<ellipse fill="lightblue" stroke="black" cx="251.72" cy="-594.43" rx="38.78" ry="38.78"/>
<text text-anchor="middle" x="251.72" y="-589.43" font-family="Times,serif" font-size="20.00">mul</text>
</g>
<!-- node50&#45;&gt;node49 -->
<g id="edge1" class="edge">
<title>node50&#45;&gt;node49</title>
<path fill="none" stroke="black" d="M280.33,-672.6C276.43,-662.07 272.36,-651.09 268.55,-640.82"/>
<polygon fill="black" stroke="black" points="271.75,-639.39 264.99,-631.23 265.19,-641.82 271.75,-639.39"/>
</g>
<!-- node47 -->
<g id="node10" class="node">
<title>node47</title>
<ellipse fill="lightblue" stroke="black" cx="347.72" cy="-594.43" rx="31.23" ry="31.23"/>
<text text-anchor="middle" x="347.72" y="-589.43" font-family="Times,serif" font-size="20.00">ST</text>
</g>
<!-- node50&#45;&gt;node47 -->
<g id="edge17" class="edge">
<title>node50&#45;&gt;node47</title>
<path fill="none" stroke="black" d="M319.1,-672.6C323.99,-659.42 329.14,-645.53 333.71,-633.22"/>
<polygon fill="black" stroke="black" points="337.03,-634.32 337.23,-623.73 330.47,-631.89 337.03,-634.32"/>
</g>
<!-- node38 -->
<g id="node3" class="node">
<title>node38</title>
<ellipse fill="lightblue" stroke="black" cx="121.72" cy="-454.48" rx="65.11" ry="65.11"/>
<text text-anchor="middle" x="121.72" y="-449.48" font-family="Times,serif" font-size="20.00">PARAM</text>
</g>
<!-- node49&#45;&gt;node38 -->
<g id="edge2" class="edge">
<title>node49&#45;&gt;node38</title>
<path fill="none" stroke="black" d="M225.41,-565.51C210.35,-549.53 190.92,-528.92 172.97,-509.86"/>
<polygon fill="black" stroke="black" points="175.31,-507.25 165.91,-502.37 170.22,-512.05 175.31,-507.25"/>
</g>
<!-- node48 -->
<g id="node9" class="node">
<title>node48</title>
<ellipse fill="lightblue" stroke="black" cx="251.72" cy="-454.48" rx="46.84" ry="46.84"/>
<text text-anchor="middle" x="251.72" y="-449.48" font-family="Times,serif" font-size="20.00">Type</text>
</g>
<!-- node49&#45;&gt;node48 -->
<g id="edge8" class="edge">
<title>node49&#45;&gt;node48</title>
<path fill="none" stroke="black" d="M251.72,-555.37C251.72,-541.76 251.72,-526.13 251.72,-511.34"/>
<polygon fill="black" stroke="black" points="255.22,-511.26 251.72,-501.26 248.22,-511.26 255.22,-511.26"/>
</g>
<!-- node34 -->
<g id="node4" class="node">
<title>node34</title>
<ellipse fill="lightblue" stroke="black" cx="41.72" cy="-288.37" rx="41.94" ry="41.94"/>
<text text-anchor="middle" x="41.72" y="-283.37" font-family="Times,serif" font-size="20.00">VAR</text>
</g>
<!-- node38&#45;&gt;node34 -->
<g id="edge3" class="edge">
<title>node38&#45;&gt;node34</title>
<path fill="none" stroke="black" d="M93.51,-395.62C83.89,-375.89 73.27,-354.1 64.17,-335.42"/>
<polygon fill="black" stroke="black" points="67.22,-333.7 59.69,-326.24 60.93,-336.77 67.22,-333.7"/>
</g>
<!-- node37 -->
<g id="node6" class="node">
<title>node37</title>
<ellipse fill="lightblue" stroke="black" cx="166.72" cy="-288.37" rx="65.11" ry="65.11"/>
<text text-anchor="middle" x="166.72" y="-283.37" font-family="Times,serif" font-size="20.00">PARAM</text>
</g>
<!-- node38&#45;&gt;node37 -->
<g id="edge7" class="edge">
<title>node38&#45;&gt;node37</title>
<path fill="none" stroke="black" d="M138.73,-391.44C141.47,-381.47 144.32,-371.07 147.11,-360.9"/>
<polygon fill="black" stroke="black" points="150.49,-361.8 149.76,-351.23 143.74,-359.95 150.49,-361.8"/>
</g>
<!-- node33 -->
<g id="node5" class="node">
<title>node33</title>
<ellipse fill="lightblue" stroke="black" cx="41.72" cy="-132.87" rx="21.43" ry="21.43"/>
<text text-anchor="middle" x="41.72" y="-127.87" font-family="Times,serif" font-size="20.00">a</text>
</g>
<!-- node34&#45;&gt;node33 -->
<g id="edge4" class="edge">
<title>node34&#45;&gt;node33</title>
<path fill="none" stroke="black" d="M41.72,-246.64C41.72,-220.76 41.72,-187.82 41.72,-164.23"/>
<polygon fill="black" stroke="black" points="45.22,-164.11 41.72,-154.11 38.22,-164.11 45.22,-164.11"/>
</g>
<!-- node36 -->
<g id="node7" class="node">
<title>node36</title>
<ellipse fill="lightblue" stroke="black" cx="166.72" cy="-132.87" rx="41.94" ry="41.94"/>
<text text-anchor="middle" x="166.72" y="-127.87" font-family="Times,serif" font-size="20.00">VAR</text>
</g>
<!-- node37&#45;&gt;node36 -->
<g id="edge5" class="edge">
<title>node37&#45;&gt;node36</title>
<path fill="none" stroke="black" d="M166.72,-223.17C166.72,-210.33 166.72,-197.01 166.72,-184.7"/>
<polygon fill="black" stroke="black" points="170.22,-184.63 166.72,-174.63 163.22,-184.63 170.22,-184.63"/>
</g>
<!-- node35 -->
<g id="node8" class="node">
<title>node35</title>
<ellipse fill="lightblue" stroke="black" cx="166.72" cy="-21.21" rx="21.43" ry="21.43"/>
<text text-anchor="middle" x="166.72" y="-16.21" font-family="Times,serif" font-size="20.00">b</text>
</g>
<!-- node36&#45;&gt;node35 -->
<g id="edge6" class="edge">
<title>node36&#45;&gt;node35</title>
<path fill="none" stroke="black" d="M166.72,-91.04C166.72,-78.36 166.72,-64.61 166.72,-52.75"/>
<polygon fill="black" stroke="black" points="170.22,-52.49 166.72,-42.49 163.22,-52.49 170.22,-52.49"/>
</g>
<!-- node44 -->
<g id="node11" class="node">
<title>node44</title>
<ellipse fill="lightblue" stroke="black" cx="347.72" cy="-454.48" rx="31.23" ry="31.23"/>
<text text-anchor="middle" x="347.72" y="-449.48" font-family="Times,serif" font-size="20.00">ST</text>
</g>
<!-- node47&#45;&gt;node44 -->
<g id="edge9" class="edge">
<title>node47&#45;&gt;node44</title>
<path fill="none" stroke="black" d="M347.72,-563.15C347.72,-543.39 347.72,-517.35 347.72,-495.84"/>
<polygon fill="black" stroke="black" points="351.22,-495.68 347.72,-485.68 344.22,-495.68 351.22,-495.68"/>
</g>
<!-- node46 -->
<g id="node17" class="node">
<title>node46</title>
<ellipse fill="lightblue" stroke="black" cx="449.72" cy="-454.48" rx="41.94" ry="41.94"/>
<text text-anchor="middle" x="449.72" y="-449.48" font-family="Times,serif" font-size="20.00">RET</text>
</g>
<!-- node47&#45;&gt;node46 -->
<g id="edge16" class="edge">
<title>node47&#45;&gt;node46</title>
<path fill="none" stroke="black" d="M365.95,-568.77C380.77,-548.73 401.98,-520.05 419.35,-496.56"/>
<polygon fill="black" stroke="black" points="422.18,-498.61 425.32,-488.49 416.56,-494.45 422.18,-498.61"/>
</g>
<!-- node43 -->
<g id="node12" class="node">
<title>node43</title>
<ellipse fill="lightblue" stroke="black" cx="341.72" cy="-288.37" rx="41.94" ry="41.94"/>
<text text-anchor="middle" x="341.72" y="-283.37" font-family="Times,serif" font-size="20.00">VAR</text>
</g>
<!-- node44&#45;&gt;node43 -->
<g id="edge10" class="edge">
<title>node44&#45;&gt;node43</title>
<path fill="none" stroke="black" d="M346.62,-423.38C345.77,-400.16 344.58,-367.51 343.58,-340.25"/>
<polygon fill="black" stroke="black" points="347.07,-339.97 343.21,-330.1 340.08,-340.22 347.07,-339.97"/>
</g>
<!-- node39 -->
<g id="node13" class="node">
<title>node39</title>
<ellipse fill="lightblue" stroke="black" cx="310.72" cy="-132.87" rx="54.39" ry="54.39"/>
<text text-anchor="middle" x="310.72" y="-127.87" font-family="Times,serif" font-size="20.00">result</text>
</g>
<!-- node43&#45;&gt;node39 -->
<g id="edge11" class="edge">
<title>node43&#45;&gt;node39</title>
<path fill="none" stroke="black" d="M333.57,-247.04C330.44,-231.52 326.78,-213.42 323.33,-196.3"/>
<polygon fill="black" stroke="black" points="326.73,-195.47 321.32,-186.36 319.87,-196.86 326.73,-195.47"/>
</g>
<!-- node42 -->
<g id="node14" class="node">
<title>node42</title>
<ellipse fill="lightblue" stroke="black" cx="430.72" cy="-132.87" rx="47.25" ry="47.25"/>
<text text-anchor="middle" x="430.72" y="-127.87" font-family="Times,serif" font-size="20.00">MUL</text>
</g>
<!-- node43&#45;&gt;node42 -->
<g id="edge14" class="edge">
<title>node43&#45;&gt;node42</title>
<path fill="none" stroke="black" d="M362.36,-251.77C374.24,-231.29 389.34,-205.25 402.32,-182.86"/>
<polygon fill="black" stroke="black" points="405.38,-184.56 407.36,-174.15 399.32,-181.05 405.38,-184.56"/>
</g>
<!-- node40 -->
<g id="node15" class="node">
<title>node40</title>
<ellipse fill="lightblue" stroke="black" cx="400.72" cy="-21.21" rx="21.43" ry="21.43"/>
<text text-anchor="middle" x="400.72" y="-16.21" font-family="Times,serif" font-size="20.00">a</text>
</g>
<!-- node42&#45;&gt;node40 -->
<g id="edge12" class="edge">
<title>node42&#45;&gt;node40</title>
<path fill="none" stroke="black" d="M418.43,-86.95C415.17,-75.03 411.73,-62.46 408.76,-51.6"/>
<polygon fill="black" stroke="black" points="412.09,-50.51 406.08,-41.79 405.34,-52.36 412.09,-50.51"/>
</g>
<!-- node41 -->
<g id="node16" class="node">
<title>node41</title>
<ellipse fill="lightblue" stroke="black" cx="460.72" cy="-21.21" rx="21.43" ry="21.43"/>
<text text-anchor="middle" x="460.72" y="-16.21" font-family="Times,serif" font-size="20.00">b</text>
</g>
<!-- node42&#45;&gt;node41 -->
<g id="edge13" class="edge">
<title>node42&#45;&gt;node41</title>
<path fill="none" stroke="black" d="M443.01,-86.95C446.27,-75.03 449.71,-62.46 452.68,-51.6"/>
<polygon fill="black" stroke="black" points="456.1,-52.36 455.36,-41.79 449.35,-50.51 456.1,-52.36"/>
</g>
<!-- node45 -->
<g id="node18" class="node">
<title>node45</title>
<ellipse fill="lightblue" stroke="black" cx="455.72" cy="-288.37" rx="54.39" ry="54.39"/>
<text text-anchor="middle" x="455.72" y="-283.37" font-family="Times,serif" font-size="20.00">result</text>
</g>
<!-- node46&#45;&gt;node45 -->
<g id="edge15" class="edge">
<title>node46&#45;&gt;node45</title>
<path fill="none" stroke="black" d="M451.22,-412.49C451.88,-394.46 452.67,-372.87 453.4,-352.84"/>
<polygon fill="black" stroke="black" points="456.9,-352.96 453.76,-342.84 449.9,-352.71 456.9,-352.96"/>
</g>
</g>
</svg>
