<?xml version="1.0" encoding="UTF-8" standalone="no"?>
<!DOCTYPE svg PUBLIC "-//W3C//DTD SVG 1.1//EN"
 "http://www.w3.org/Graphics/SVG/1.1/DTD/svg11.dtd">
<!-- Generated by graphviz version 2.43.0 (0)
 -->
<!-- Title: G Pages: 1 -->
<svg width="391pt" height="709pt"
 viewBox="0.00 0.00 391.43 709.08" xmlns="http://www.w3.org/2000/svg" xmlns:xlink="http://www.w3.org/1999/xlink">
<g id="graph0" class="graph" transform="scale(1 1) rotate(0) translate(4 705.08)">
<title>G</title>
<polygon fill="white" stroke="transparent" points="-4,4 -4,-705.08 387.43,-705.08 387.43,4 -4,4"/>
<!-- node25 -->
<g id="node1" class="node">
<title>node25</title>
<ellipse fill="lightblue" stroke="black" cx="148.21" cy="-669.96" rx="31.23" ry="31.23"/>
<text text-anchor="middle" x="148.21" y="-664.96" font-family="Times,serif" font-size="20.00">ST</text>
</g>
<!-- node24 -->
<g id="node2" class="node">
<title>node24</title>
<ellipse fill="lightblue" stroke="black" cx="148.21" cy="-575.27" rx="27.65" ry="27.65"/>
<text text-anchor="middle" x="148.21" y="-570.27" font-family="Times,serif" font-size="20.00">IF</text>
</g>
<!-- node25&#45;&gt;node24 -->
<g id="edge1" class="edge">
<title>node25&#45;&gt;node24</title>
<path fill="none" stroke="black" d="M148.21,-638.61C148.21,-630.43 148.21,-621.49 148.21,-613"/>
<polygon fill="black" stroke="black" points="151.71,-612.95 148.21,-602.95 144.71,-612.95 151.71,-612.95"/>
</g>
<!-- node13 -->
<g id="node3" class="node">
<title>node13</title>
<ellipse fill="lightblue" stroke="black" cx="99.21" cy="-467.85" rx="43.68" ry="43.68"/>
<text text-anchor="middle" x="99.21" y="-462.85" font-family="Times,serif" font-size="20.00">ADD</text>
</g>
<!-- node24&#45;&gt;node13 -->
<g id="edge2" class="edge">
<title>node24&#45;&gt;node13</title>
<path fill="none" stroke="black" d="M136.97,-550.09C132.38,-540.21 126.9,-528.41 121.55,-516.92"/>
<polygon fill="black" stroke="black" points="124.7,-515.39 117.32,-507.8 118.36,-518.34 124.7,-515.39"/>
</g>
<!-- node23 -->
<g id="node8" class="node">
<title>node23</title>
<ellipse fill="lightblue" stroke="black" cx="199.21" cy="-467.85" rx="31.23" ry="31.23"/>
<text text-anchor="middle" x="199.21" y="-462.85" font-family="Times,serif" font-size="20.00">ST</text>
</g>
<!-- node24&#45;&gt;node23 -->
<g id="edge16" class="edge">
<title>node24&#45;&gt;node23</title>
<path fill="none" stroke="black" d="M159.91,-550.09C166.28,-536.92 174.29,-520.36 181.42,-505.63"/>
<polygon fill="black" stroke="black" points="184.74,-506.8 185.95,-496.27 178.44,-503.75 184.74,-506.8"/>
</g>
<!-- node9 -->
<g id="node4" class="node">
<title>node9</title>
<ellipse fill="lightblue" stroke="black" cx="21.21" cy="-346.29" rx="21.43" ry="21.43"/>
<text text-anchor="middle" x="21.21" y="-341.29" font-family="Times,serif" font-size="20.00">x</text>
</g>
<!-- node13&#45;&gt;node9 -->
<g id="edge3" class="edge">
<title>node13&#45;&gt;node9</title>
<path fill="none" stroke="black" d="M75.6,-430.66C63.49,-412.1 49.03,-389.93 38.06,-373.12"/>
<polygon fill="black" stroke="black" points="40.76,-370.86 32.37,-364.39 34.9,-374.68 40.76,-370.86"/>
</g>
<!-- node12 -->
<g id="node5" class="node">
<title>node12</title>
<ellipse fill="lightblue" stroke="black" cx="99.21" cy="-346.29" rx="38.78" ry="38.78"/>
<text text-anchor="middle" x="99.21" y="-341.29" font-family="Times,serif" font-size="20.00">DIV</text>
</g>
<!-- node13&#45;&gt;node12 -->
<g id="edge6" class="edge">
<title>node13&#45;&gt;node12</title>
<path fill="none" stroke="black" d="M99.21,-423.69C99.21,-414.55 99.21,-404.86 99.21,-395.54"/>
<polygon fill="black" stroke="black" points="102.71,-395.25 99.21,-385.25 95.71,-395.25 102.71,-395.25"/>
</g>
<!-- node10 -->
<g id="node6" class="node">
<title>node10</title>
<ellipse fill="lightblue" stroke="black" cx="39.21" cy="-235.34" rx="21.43" ry="21.43"/>
<text text-anchor="middle" x="39.21" y="-230.34" font-family="Times,serif" font-size="20.00">3</text>
</g>
<!-- node12&#45;&gt;node10 -->
<g id="edge4" class="edge">
<title>node12&#45;&gt;node10</title>
<path fill="none" stroke="black" d="M80.72,-311.72C72.19,-296.23 62.2,-278.08 54.15,-263.47"/>
<polygon fill="black" stroke="black" points="57.08,-261.52 49.19,-254.45 50.94,-264.9 57.08,-261.52"/>
</g>
<!-- node11 -->
<g id="node7" class="node">
<title>node11</title>
<ellipse fill="lightblue" stroke="black" cx="99.21" cy="-235.34" rx="21.43" ry="21.43"/>
<text text-anchor="middle" x="99.21" y="-230.34" font-family="Times,serif" font-size="20.00">y</text>
</g>
<!-- node12&#45;&gt;node11 -->
<g id="edge5" class="edge">
<title>node12&#45;&gt;node11</title>
<path fill="none" stroke="black" d="M99.21,-307.19C99.21,-294.09 99.21,-279.6 99.21,-267.15"/>
<polygon fill="black" stroke="black" points="102.71,-266.83 99.21,-256.83 95.71,-266.83 102.71,-266.83"/>
</g>
<!-- node16 -->
<g id="node9" class="node">
<title>node16</title>
<ellipse fill="lightblue" stroke="black" cx="199.21" cy="-346.29" rx="41.94" ry="41.94"/>
<text text-anchor="middle" x="199.21" y="-341.29" font-family="Times,serif" font-size="20.00">VAR</text>
</g>
<!-- node23&#45;&gt;node16 -->
<g id="edge7" class="edge">
<title>node23&#45;&gt;node16</title>
<path fill="none" stroke="black" d="M199.21,-436.68C199.21,-425.11 199.21,-411.56 199.21,-398.56"/>
<polygon fill="black" stroke="black" points="202.71,-398.29 199.21,-388.29 195.71,-398.29 202.71,-398.29"/>
</g>
<!-- node22 -->
<g id="node12" class="node">
<title>node22</title>
<ellipse fill="lightblue" stroke="black" cx="290.21" cy="-346.29" rx="31.23" ry="31.23"/>
<text text-anchor="middle" x="290.21" y="-341.29" font-family="Times,serif" font-size="20.00">ST</text>
</g>
<!-- node23&#45;&gt;node22 -->
<g id="edge15" class="edge">
<title>node23&#45;&gt;node22</title>
<path fill="none" stroke="black" d="M217.63,-442.66C231.44,-424.51 250.49,-399.48 265.61,-379.62"/>
<polygon fill="black" stroke="black" points="268.55,-381.53 271.83,-371.45 262.98,-377.29 268.55,-381.53"/>
</g>
<!-- node14 -->
<g id="node10" class="node">
<title>node14</title>
<ellipse fill="lightblue" stroke="black" cx="159.21" cy="-235.34" rx="21.43" ry="21.43"/>
<text text-anchor="middle" x="159.21" y="-230.34" font-family="Times,serif" font-size="20.00">a</text>
</g>
<!-- node16&#45;&gt;node14 -->
<g id="edge8" class="edge">
<title>node16&#45;&gt;node14</title>
<path fill="none" stroke="black" d="M185.11,-306.88C180.07,-293.15 174.48,-277.93 169.79,-265.15"/>
<polygon fill="black" stroke="black" points="172.98,-263.68 166.25,-255.5 166.41,-266.09 172.98,-263.68"/>
</g>
<!-- node15 -->
<g id="node11" class="node">
<title>node15</title>
<ellipse fill="lightblue" stroke="black" cx="219.21" cy="-235.34" rx="21.43" ry="21.43"/>
<text text-anchor="middle" x="219.21" y="-230.34" font-family="Times,serif" font-size="20.00">3</text>
</g>
<!-- node16&#45;&gt;node15 -->
<g id="edge9" class="edge">
<title>node16&#45;&gt;node15</title>
<path fill="none" stroke="black" d="M206.6,-305.03C208.96,-292.19 211.53,-278.21 213.73,-266.23"/>
<polygon fill="black" stroke="black" points="217.19,-266.77 215.55,-256.3 210.3,-265.51 217.19,-266.77"/>
</g>
<!-- node21 -->
<g id="node13" class="node">
<title>node21</title>
<ellipse fill="lightblue" stroke="black" cx="291.21" cy="-235.34" rx="33.47" ry="33.47"/>
<text text-anchor="middle" x="291.21" y="-230.34" font-family="Times,serif" font-size="20.00">EQ</text>
</g>
<!-- node22&#45;&gt;node21 -->
<g id="edge10" class="edge">
<title>node22&#45;&gt;node21</title>
<path fill="none" stroke="black" d="M290.49,-314.95C290.59,-303.84 290.71,-291.06 290.82,-279.08"/>
<polygon fill="black" stroke="black" points="294.32,-278.85 290.92,-268.81 287.32,-278.78 294.32,-278.85"/>
</g>
<!-- node17 -->
<g id="node14" class="node">
<title>node17</title>
<ellipse fill="lightblue" stroke="black" cx="249.21" cy="-122.27" rx="21.43" ry="21.43"/>
<text text-anchor="middle" x="249.21" y="-117.27" font-family="Times,serif" font-size="20.00">z</text>
</g>
<!-- node21&#45;&gt;node17 -->
<g id="edge11" class="edge">
<title>node21&#45;&gt;node17</title>
<path fill="none" stroke="black" d="M279.74,-203.99C273.58,-187.71 266.04,-167.77 260,-151.79"/>
<polygon fill="black" stroke="black" points="263.26,-150.52 256.45,-142.41 256.71,-153 263.26,-150.52"/>
</g>
<!-- node20 -->
<g id="node15" class="node">
<title>node20</title>
<ellipse fill="lightblue" stroke="black" cx="332.21" cy="-122.27" rx="43.68" ry="43.68"/>
<text text-anchor="middle" x="332.21" y="-117.27" font-family="Times,serif" font-size="20.00">SUB</text>
</g>
<!-- node21&#45;&gt;node20 -->
<g id="edge14" class="edge">
<title>node21&#45;&gt;node20</title>
<path fill="none" stroke="black" d="M302.42,-203.99C305.94,-194.45 309.92,-183.65 313.81,-173.13"/>
<polygon fill="black" stroke="black" points="317.15,-174.18 317.33,-163.58 310.59,-171.75 317.15,-174.18"/>
</g>
<!-- node18 -->
<g id="node16" class="node">
<title>node18</title>
<ellipse fill="lightblue" stroke="black" cx="302.21" cy="-21.21" rx="21.43" ry="21.43"/>
<text text-anchor="middle" x="302.21" y="-16.21" font-family="Times,serif" font-size="20.00">2</text>
</g>
<!-- node20&#45;&gt;node18 -->
<g id="edge12" class="edge">
<title>node20&#45;&gt;node18</title>
<path fill="none" stroke="black" d="M319.75,-80.12C316.83,-70.46 313.77,-60.37 311.04,-51.37"/>
<polygon fill="black" stroke="black" points="314.38,-50.3 308.13,-41.75 307.68,-52.33 314.38,-50.3"/>
</g>
<!-- node19 -->
<g id="node17" class="node">
<title>node19</title>
<ellipse fill="lightblue" stroke="black" cx="362.21" cy="-21.21" rx="21.43" ry="21.43"/>
<text text-anchor="middle" x="362.21" y="-16.21" font-family="Times,serif" font-size="20.00">6</text>
</g>
<!-- node20&#45;&gt;node19 -->
<g id="edge13" class="edge">
<title>node20&#45;&gt;node19</title>
<path fill="none" stroke="black" d="M344.68,-80.12C347.6,-70.46 350.66,-60.37 353.38,-51.37"/>
<polygon fill="black" stroke="black" points="356.75,-52.33 356.3,-41.75 350.05,-50.3 356.75,-52.33"/>
</g>
</g>
</svg>
