<?xml version="1.0" encoding="UTF-8" standalone="no"?>
<!DOCTYPE svg PUBLIC "-//W3C//DTD SVG 1.1//EN"
 "http://www.w3.org/Graphics/SVG/1.1/DTD/svg11.dtd">
<!-- Generated by graphviz version 2.43.0 (0)
 -->
<!-- Title: G Pages: 1 -->
<svg width="729pt" height="1053pt"
 viewBox="0.00 0.00 729.12 1053.37" xmlns="http://www.w3.org/2000/svg" xmlns:xlink="http://www.w3.org/1999/xlink">
<g id="graph0" class="graph" transform="scale(1 1) rotate(0) translate(4 1049.37)">
<title>G</title>
<polygon fill="white" stroke="transparent" points="-4,4 -4,-1049.37 725.12,-1049.37 725.12,4 -4,4"/>
<!-- node33 -->
<g id="node1" class="node">
<title>node33</title>
<ellipse fill="lightblue" stroke="black" cx="222.67" cy="-1014.26" rx="31.23" ry="31.23"/>
<text text-anchor="middle" x="222.67" y="-1009.26" font-family="Times,serif" font-size="20.00">ST</text>
</g>
<!-- node12 -->
<g id="node2" class="node">
<title>node12</title>
<ellipse fill="lightblue" stroke="black" cx="169.67" cy="-890.58" rx="56.64" ry="56.64"/>
<text text-anchor="middle" x="169.67" y="-885.58" font-family="Times,serif" font-size="20.00">FUNC</text>
</g>
<!-- node33&#45;&gt;node12 -->
<g id="edge1" class="edge">
<title>node33&#45;&gt;node12</title>
<path fill="none" stroke="black" d="M210.51,-985.34C206.17,-975.38 201.09,-963.73 196.03,-952.09"/>
<polygon fill="black" stroke="black" points="199.18,-950.57 191.98,-942.8 192.76,-953.36 199.18,-950.57"/>
</g>
<!-- node32 -->
<g id="node13" class="node">
<title>node32</title>
<ellipse fill="lightblue" stroke="black" cx="382.67" cy="-890.58" rx="31.23" ry="31.23"/>
<text text-anchor="middle" x="382.67" y="-885.58" font-family="Times,serif" font-size="20.00">ST</text>
</g>
<!-- node33&#45;&gt;node32 -->
<g id="edge30" class="edge">
<title>node33&#45;&gt;node32</title>
<path fill="none" stroke="black" d="M246.97,-994.78C274.46,-973.88 319.36,-939.72 349.93,-916.48"/>
<polygon fill="black" stroke="black" points="352.3,-919.07 358.14,-910.23 348.06,-913.5 352.3,-919.07"/>
</g>
<!-- node11 -->
<g id="node3" class="node">
<title>node11</title>
<ellipse fill="lightblue" stroke="black" cx="73.67" cy="-741.44" rx="47.25" ry="47.25"/>
<text text-anchor="middle" x="73.67" y="-736.44" font-family="Times,serif" font-size="20.00">main</text>
</g>
<!-- node12&#45;&gt;node11 -->
<g id="edge2" class="edge">
<title>node12&#45;&gt;node11</title>
<path fill="none" stroke="black" d="M139.03,-842.62C128.1,-825.86 115.77,-806.97 104.8,-790.15"/>
<polygon fill="black" stroke="black" points="107.59,-788.03 99.2,-781.57 101.73,-791.85 107.59,-788.03"/>
</g>
<!-- node9 -->
<g id="node5" class="node">
<title>node9</title>
<ellipse fill="lightblue" stroke="black" cx="169.67" cy="-741.44" rx="31.23" ry="31.23"/>
<text text-anchor="middle" x="169.67" y="-736.44" font-family="Times,serif" font-size="20.00">ST</text>
</g>
<!-- node12&#45;&gt;node9 -->
<g id="edge11" class="edge">
<title>node12&#45;&gt;node9</title>
<path fill="none" stroke="black" d="M169.67,-833.95C169.67,-817.03 169.67,-798.75 169.67,-783.01"/>
<polygon fill="black" stroke="black" points="173.17,-782.57 169.67,-772.57 166.17,-782.57 173.17,-782.57"/>
</g>
<!-- node10 -->
<g id="node4" class="node">
<title>node10</title>
<ellipse fill="lightblue" stroke="black" cx="46.67" cy="-602.21" rx="46.84" ry="46.84"/>
<text text-anchor="middle" x="46.67" y="-597.21" font-family="Times,serif" font-size="20.00">Type</text>
</g>
<!-- node11&#45;&gt;node10 -->
<g id="edge3" class="edge">
<title>node11&#45;&gt;node10</title>
<path fill="none" stroke="black" d="M64.68,-694.74C62.38,-683.05 59.88,-670.35 57.5,-658.24"/>
<polygon fill="black" stroke="black" points="60.89,-657.37 55.53,-648.24 54.02,-658.72 60.89,-657.37"/>
</g>
<!-- node6 -->
<g id="node6" class="node">
<title>node6</title>
<ellipse fill="lightblue" stroke="black" cx="142.67" cy="-602.21" rx="31.23" ry="31.23"/>
<text text-anchor="middle" x="142.67" y="-597.21" font-family="Times,serif" font-size="20.00">ST</text>
</g>
<!-- node9&#45;&gt;node6 -->
<g id="edge4" class="edge">
<title>node9&#45;&gt;node6</title>
<path fill="none" stroke="black" d="M163.81,-710.66C159.9,-690.79 154.72,-664.44 150.46,-642.81"/>
<polygon fill="black" stroke="black" points="153.88,-642.06 148.52,-632.93 147.01,-643.41 153.88,-642.06"/>
</g>
<!-- node8 -->
<g id="node11" class="node">
<title>node8</title>
<ellipse fill="lightblue" stroke="black" cx="233.67" cy="-602.21" rx="41.94" ry="41.94"/>
<text text-anchor="middle" x="233.67" y="-597.21" font-family="Times,serif" font-size="20.00">RET</text>
</g>
<!-- node9&#45;&gt;node8 -->
<g id="edge10" class="edge">
<title>node9&#45;&gt;node8</title>
<path fill="none" stroke="black" d="M182.47,-713C190.95,-694.81 202.29,-670.49 212.15,-649.36"/>
<polygon fill="black" stroke="black" points="215.35,-650.76 216.41,-640.22 209.01,-647.8 215.35,-650.76"/>
</g>
<!-- node5 -->
<g id="node7" class="node">
<title>node5</title>
<ellipse fill="lightblue" stroke="black" cx="142.67" cy="-454.48" rx="41.94" ry="41.94"/>
<text text-anchor="middle" x="142.67" y="-449.48" font-family="Times,serif" font-size="20.00">VAR</text>
</g>
<!-- node6&#45;&gt;node5 -->
<g id="edge5" class="edge">
<title>node6&#45;&gt;node5</title>
<path fill="none" stroke="black" d="M142.67,-571.01C142.67,-552.46 142.67,-528.2 142.67,-506.71"/>
<polygon fill="black" stroke="black" points="146.17,-506.42 142.67,-496.42 139.17,-506.42 146.17,-506.42"/>
</g>
<!-- node1 -->
<g id="node8" class="node">
<title>node1</title>
<ellipse fill="lightblue" stroke="black" cx="63.67" cy="-288.37" rx="21.43" ry="21.43"/>
<text text-anchor="middle" x="63.67" y="-283.37" font-family="Times,serif" font-size="20.00">z</text>
</g>
<!-- node5&#45;&gt;node1 -->
<g id="edge6" class="edge">
<title>node5&#45;&gt;node1</title>
<path fill="none" stroke="black" d="M124.36,-416.49C115.09,-397.65 103.7,-374.36 93.67,-353.43 88.01,-341.61 81.85,-328.51 76.6,-317.25"/>
<polygon fill="black" stroke="black" points="79.64,-315.5 72.25,-307.91 73.3,-318.46 79.64,-315.5"/>
</g>
<!-- node4 -->
<g id="node9" class="node">
<title>node4</title>
<ellipse fill="lightblue" stroke="black" cx="154.67" cy="-288.37" rx="51.74" ry="51.74"/>
<text text-anchor="middle" x="154.67" y="-283.37" font-family="Times,serif" font-size="20.00">CALL</text>
</g>
<!-- node5&#45;&gt;node4 -->
<g id="edge8" class="edge">
<title>node5&#45;&gt;node4</title>
<path fill="none" stroke="black" d="M145.67,-412.49C147.04,-393.65 148.71,-370.91 150.23,-350.13"/>
<polygon fill="black" stroke="black" points="153.72,-350.33 150.96,-340.11 146.74,-349.82 153.72,-350.33"/>
</g>
<!-- node3 -->
<g id="node10" class="node">
<title>node3</title>
<ellipse fill="lightblue" stroke="black" cx="154.67" cy="-132.87" rx="38.78" ry="38.78"/>
<text text-anchor="middle" x="154.67" y="-127.87" font-family="Times,serif" font-size="20.00">mul</text>
</g>
<!-- node4&#45;&gt;node3 -->
<g id="edge7" class="edge">
<title>node4&#45;&gt;node3</title>
<path fill="none" stroke="black" d="M154.67,-236.69C154.67,-219.19 154.67,-199.63 154.67,-182.32"/>
<polygon fill="black" stroke="black" points="158.17,-181.86 154.67,-171.86 151.17,-181.86 158.17,-181.86"/>
</g>
<!-- node7 -->
<g id="node12" class="node">
<title>node7</title>
<ellipse fill="lightblue" stroke="black" cx="228.67" cy="-454.48" rx="21.43" ry="21.43"/>
<text text-anchor="middle" x="228.67" y="-449.48" font-family="Times,serif" font-size="20.00">1</text>
</g>
<!-- node8&#45;&gt;node7 -->
<g id="edge9" class="edge">
<title>node8&#45;&gt;node7</title>
<path fill="none" stroke="black" d="M232.26,-560.23C231.46,-536.75 230.46,-507.77 229.72,-486.25"/>
<polygon fill="black" stroke="black" points="233.22,-485.92 229.37,-476.04 226.22,-486.16 233.22,-485.92"/>
</g>
<!-- node31 -->
<g id="node14" class="node">
<title>node31</title>
<ellipse fill="lightblue" stroke="black" cx="409.67" cy="-741.44" rx="56.64" ry="56.64"/>
<text text-anchor="middle" x="409.67" y="-736.44" font-family="Times,serif" font-size="20.00">FUNC</text>
</g>
<!-- node32&#45;&gt;node31 -->
<g id="edge12" class="edge">
<title>node32&#45;&gt;node31</title>
<path fill="none" stroke="black" d="M388.13,-859.8C390.92,-844.64 394.41,-825.58 397.78,-807.25"/>
<polygon fill="black" stroke="black" points="401.26,-807.64 399.63,-797.17 394.38,-806.38 401.26,-807.64"/>
</g>
<!-- node30 -->
<g id="node15" class="node">
<title>node30</title>
<ellipse fill="lightblue" stroke="black" cx="409.67" cy="-602.21" rx="38.78" ry="38.78"/>
<text text-anchor="middle" x="409.67" y="-597.21" font-family="Times,serif" font-size="20.00">mul</text>
</g>
<!-- node31&#45;&gt;node30 -->
<g id="edge13" class="edge">
<title>node31&#45;&gt;node30</title>
<path fill="none" stroke="black" d="M409.67,-684.62C409.67,-673.6 409.67,-662.12 409.67,-651.38"/>
<polygon fill="black" stroke="black" points="413.17,-651.34 409.67,-641.34 406.17,-651.34 413.17,-651.34"/>
</g>
<!-- node28 -->
<g id="node23" class="node">
<title>node28</title>
<ellipse fill="lightblue" stroke="black" cx="558.67" cy="-602.21" rx="31.23" ry="31.23"/>
<text text-anchor="middle" x="558.67" y="-597.21" font-family="Times,serif" font-size="20.00">ST</text>
</g>
<!-- node31&#45;&gt;node28 -->
<g id="edge29" class="edge">
<title>node31&#45;&gt;node28</title>
<path fill="none" stroke="black" d="M450.78,-702.58C475.44,-679.87 506.25,-651.49 528.62,-630.88"/>
<polygon fill="black" stroke="black" points="531.18,-633.29 536.16,-623.94 526.43,-628.14 531.18,-633.29"/>
</g>
<!-- node19 -->
<g id="node16" class="node">
<title>node19</title>
<ellipse fill="lightblue" stroke="black" cx="332.67" cy="-454.48" rx="65.11" ry="65.11"/>
<text text-anchor="middle" x="332.67" y="-449.48" font-family="Times,serif" font-size="20.00">PARAM</text>
</g>
<!-- node30&#45;&gt;node19 -->
<g id="edge14" class="edge">
<title>node30&#45;&gt;node19</title>
<path fill="none" stroke="black" d="M391.81,-567.41C384.61,-553.77 376.03,-537.55 367.68,-521.74"/>
<polygon fill="black" stroke="black" points="370.56,-519.71 362.8,-512.5 364.38,-522.98 370.56,-519.71"/>
</g>
<!-- node29 -->
<g id="node22" class="node">
<title>node29</title>
<ellipse fill="lightblue" stroke="black" cx="462.67" cy="-454.48" rx="46.84" ry="46.84"/>
<text text-anchor="middle" x="462.67" y="-449.48" font-family="Times,serif" font-size="20.00">Type</text>
</g>
<!-- node30&#45;&gt;node29 -->
<g id="edge20" class="edge">
<title>node30&#45;&gt;node29</title>
<path fill="none" stroke="black" d="M422.77,-565.18C429.04,-547.95 436.66,-526.99 443.56,-508.02"/>
<polygon fill="black" stroke="black" points="446.86,-509.2 446.98,-498.61 440.28,-506.81 446.86,-509.2"/>
</g>
<!-- node15 -->
<g id="node17" class="node">
<title>node15</title>
<ellipse fill="lightblue" stroke="black" cx="290.67" cy="-288.37" rx="41.94" ry="41.94"/>
<text text-anchor="middle" x="290.67" y="-283.37" font-family="Times,serif" font-size="20.00">VAR</text>
</g>
<!-- node19&#45;&gt;node15 -->
<g id="edge15" class="edge">
<title>node19&#45;&gt;node15</title>
<path fill="none" stroke="black" d="M316.67,-390.97C312.26,-373.72 307.53,-355.24 303.33,-338.84"/>
<polygon fill="black" stroke="black" points="306.66,-337.75 300.79,-328.93 299.88,-339.48 306.66,-337.75"/>
</g>
<!-- node18 -->
<g id="node19" class="node">
<title>node18</title>
<ellipse fill="lightblue" stroke="black" cx="415.67" cy="-288.37" rx="65.11" ry="65.11"/>
<text text-anchor="middle" x="415.67" y="-283.37" font-family="Times,serif" font-size="20.00">PARAM</text>
</g>
<!-- node19&#45;&gt;node18 -->
<g id="edge19" class="edge">
<title>node19&#45;&gt;node18</title>
<path fill="none" stroke="black" d="M361.7,-396.09C368.27,-383.09 375.3,-369.19 382.04,-355.86"/>
<polygon fill="black" stroke="black" points="385.27,-357.24 386.66,-346.74 379.02,-354.08 385.27,-357.24"/>
</g>
<!-- node14 -->
<g id="node18" class="node">
<title>node14</title>
<ellipse fill="lightblue" stroke="black" cx="290.67" cy="-132.87" rx="21.43" ry="21.43"/>
<text text-anchor="middle" x="290.67" y="-127.87" font-family="Times,serif" font-size="20.00">a</text>
</g>
<!-- node15&#45;&gt;node14 -->
<g id="edge16" class="edge">
<title>node15&#45;&gt;node14</title>
<path fill="none" stroke="black" d="M290.67,-246.64C290.67,-220.76 290.67,-187.82 290.67,-164.23"/>
<polygon fill="black" stroke="black" points="294.17,-164.11 290.67,-154.11 287.17,-164.11 294.17,-164.11"/>
</g>
<!-- node17 -->
<g id="node20" class="node">
<title>node17</title>
<ellipse fill="lightblue" stroke="black" cx="415.67" cy="-132.87" rx="41.94" ry="41.94"/>
<text text-anchor="middle" x="415.67" y="-127.87" font-family="Times,serif" font-size="20.00">VAR</text>
</g>
<!-- node18&#45;&gt;node17 -->
<g id="edge17" class="edge">
<title>node18&#45;&gt;node17</title>
<path fill="none" stroke="black" d="M415.67,-223.17C415.67,-210.33 415.67,-197.01 415.67,-184.7"/>
<polygon fill="black" stroke="black" points="419.17,-184.63 415.67,-174.63 412.17,-184.63 419.17,-184.63"/>
</g>
<!-- node16 -->
<g id="node21" class="node">
<title>node16</title>
<ellipse fill="lightblue" stroke="black" cx="415.67" cy="-21.21" rx="21.43" ry="21.43"/>
<text text-anchor="middle" x="415.67" y="-16.21" font-family="Times,serif" font-size="20.00">b</text>
</g>
<!-- node17&#45;&gt;node16 -->
<g id="edge18" class="edge">
<title>node17&#45;&gt;node16</title>
<path fill="none" stroke="black" d="M415.67,-91.04C415.67,-78.36 415.67,-64.61 415.67,-52.75"/>
<polygon fill="black" stroke="black" points="419.17,-52.49 415.67,-42.49 412.17,-52.49 419.17,-52.49"/>
</g>
<!-- node25 -->
<g id="node24" class="node">
<title>node25</title>
<ellipse fill="lightblue" stroke="black" cx="558.67" cy="-454.48" rx="31.23" ry="31.23"/>
<text text-anchor="middle" x="558.67" y="-449.48" font-family="Times,serif" font-size="20.00">ST</text>
</g>
<!-- node28&#45;&gt;node25 -->
<g id="edge21" class="edge">
<title>node28&#45;&gt;node25</title>
<path fill="none" stroke="black" d="M558.67,-571.01C558.67,-549.23 558.67,-519.58 558.67,-495.78"/>
<polygon fill="black" stroke="black" points="562.17,-495.64 558.67,-485.64 555.17,-495.64 562.17,-495.64"/>
</g>
<!-- node27 -->
<g id="node30" class="node">
<title>node27</title>
<ellipse fill="lightblue" stroke="black" cx="660.67" cy="-454.48" rx="41.94" ry="41.94"/>
<text text-anchor="middle" x="660.67" y="-449.48" font-family="Times,serif" font-size="20.00">RET</text>
</g>
<!-- node28&#45;&gt;node27 -->
<g id="edge28" class="edge">
<title>node28&#45;&gt;node27</title>
<path fill="none" stroke="black" d="M576.2,-576.15C591.3,-554.59 613.4,-523.01 631.21,-497.57"/>
<polygon fill="black" stroke="black" points="634.2,-499.4 637.07,-489.2 628.47,-495.39 634.2,-499.4"/>
</g>
<!-- node24 -->
<g id="node25" class="node">
<title>node24</title>
<ellipse fill="lightblue" stroke="black" cx="552.67" cy="-288.37" rx="41.94" ry="41.94"/>
<text text-anchor="middle" x="552.67" y="-283.37" font-family="Times,serif" font-size="20.00">VAR</text>
</g>
<!-- node25&#45;&gt;node24 -->
<g id="edge22" class="edge">
<title>node25&#45;&gt;node24</title>
<path fill="none" stroke="black" d="M557.57,-423.38C556.72,-400.16 555.53,-367.51 554.53,-340.25"/>
<polygon fill="black" stroke="black" points="558.02,-339.97 554.16,-330.1 551.03,-340.22 558.02,-339.97"/>
</g>
<!-- node20 -->
<g id="node26" class="node">
<title>node20</title>
<ellipse fill="lightblue" stroke="black" cx="534.67" cy="-132.87" rx="54.39" ry="54.39"/>
<text text-anchor="middle" x="534.67" y="-127.87" font-family="Times,serif" font-size="20.00">result</text>
</g>
<!-- node24&#45;&gt;node20 -->
<g id="edge23" class="edge">
<title>node24&#45;&gt;node20</title>
<path fill="none" stroke="black" d="M547.89,-246.64C546.12,-231.56 544.08,-214.09 542.13,-197.46"/>
<polygon fill="black" stroke="black" points="545.57,-196.77 540.93,-187.25 538.62,-197.58 545.57,-196.77"/>
</g>
<!-- node23 -->
<g id="node27" class="node">
<title>node23</title>
<ellipse fill="lightblue" stroke="black" cx="654.67" cy="-132.87" rx="47.25" ry="47.25"/>
<text text-anchor="middle" x="654.67" y="-127.87" font-family="Times,serif" font-size="20.00">MUL</text>
</g>
<!-- node24&#45;&gt;node23 -->
<g id="edge26" class="edge">
<title>node24&#45;&gt;node23</title>
<path fill="none" stroke="black" d="M575.31,-253.31C589.42,-232.07 607.78,-204.43 623.29,-181.1"/>
<polygon fill="black" stroke="black" points="626.24,-182.98 628.86,-172.71 620.41,-179.11 626.24,-182.98"/>
</g>
<!-- node21 -->
<g id="node28" class="node">
<title>node21</title>
<ellipse fill="lightblue" stroke="black" cx="624.67" cy="-21.21" rx="21.43" ry="21.43"/>
<text text-anchor="middle" x="624.67" y="-16.21" font-family="Times,serif" font-size="20.00">a</text>
</g>
<!-- node23&#45;&gt;node21 -->
<g id="edge24" class="edge">
<title>node23&#45;&gt;node21</title>
<path fill="none" stroke="black" d="M642.38,-86.95C639.12,-75.03 635.68,-62.46 632.71,-51.6"/>
<polygon fill="black" stroke="black" points="636.04,-50.51 630.03,-41.79 629.29,-52.36 636.04,-50.51"/>
</g>
<!-- node22 -->
<g id="node29" class="node">
<title>node22</title>
<ellipse fill="lightblue" stroke="black" cx="684.67" cy="-21.21" rx="21.43" ry="21.43"/>
<text text-anchor="middle" x="684.67" y="-16.21" font-family="Times,serif" font-size="20.00">b</text>
</g>
<!-- node23&#45;&gt;node22 -->
<g id="edge25" class="edge">
<title>node23&#45;&gt;node22</title>
<path fill="none" stroke="black" d="M666.96,-86.95C670.22,-75.03 673.66,-62.46 676.63,-51.6"/>
<polygon fill="black" stroke="black" points="680.05,-52.36 679.31,-41.79 673.3,-50.51 680.05,-52.36"/>
</g>
<!-- node26 -->
<g id="node31" class="node">
<title>node26</title>
<ellipse fill="lightblue" stroke="black" cx="666.67" cy="-288.37" rx="54.39" ry="54.39"/>
<text text-anchor="middle" x="666.67" y="-283.37" font-family="Times,serif" font-size="20.00">result</text>
</g>
<!-- node27&#45;&gt;node26 -->
<g id="edge27" class="edge">
<title>node27&#45;&gt;node26</title>
<path fill="none" stroke="black" d="M662.17,-412.49C662.83,-394.46 663.62,-372.87 664.35,-352.84"/>
<polygon fill="black" stroke="black" points="667.85,-352.96 664.71,-342.84 660.85,-352.71 667.85,-352.96"/>
</g>
</g>
</svg>
