<?xml version="1.0" encoding="UTF-8" standalone="no"?>
<!DOCTYPE svg PUBLIC "-//W3C//DTD SVG 1.1//EN"
 "http://www.w3.org/Graphics/SVG/1.1/DTD/svg11.dtd">
<!-- Generated by graphviz version 2.43.0 (0)
 -->
<!-- Title: G Pages: 1 -->
<svg width="540pt" height="607pt"
 viewBox="0.00 0.00 540.00 607.00" xmlns="http://www.w3.org/2000/svg" xmlns:xlink="http://www.w3.org/1999/xlink">
<g id="graph0" class="graph" transform="scale(1 1) rotate(0) translate(4 603)">
<title>G</title>
<polygon fill="white" stroke="transparent" points="-4,4 -4,-603 536,-603 536,4 -4,4"/>
<!-- node8 -->
<g id="node1" class="node">
<title>node8</title>
<polygon fill="lightblue" stroke="black" points="110,-508.5 110,-598.5 312,-598.5 312,-508.5 110,-508.5"/>
<text text-anchor="middle" x="170.5" y="-586.5" font-family="Times,serif" font-size="10.00">data_type:</text>
<text text-anchor="middle" x="170.5" y="-575.5" font-family="Times,serif" font-size="10.00"> OPERATOR</text>
<polyline fill="none" stroke="black" points="231,-568.5 231,-598.5 "/>
<text text-anchor="middle" x="271.5" y="-581" font-family="Times,serif" font-size="10.00">SUB</text>
<polyline fill="none" stroke="black" points="110,-568.5 312,-568.5 "/>
<text text-anchor="middle" x="175" y="-556.5" font-family="Times,serif" font-size="10.00">this:</text>
<text text-anchor="middle" x="175" y="-545.5" font-family="Times,serif" font-size="10.00">0x604000000210</text>
<polyline fill="none" stroke="black" points="240,-538.5 240,-568.5 "/>
<text text-anchor="middle" x="276" y="-556.5" font-family="Times,serif" font-size="10.00">prev:</text>
<text text-anchor="middle" x="276" y="-545.5" font-family="Times,serif" font-size="10.00">(nil)</text>
<polyline fill="none" stroke="black" points="110,-538.5 312,-538.5 "/>
<text text-anchor="middle" x="160.5" y="-526.5" font-family="Times,serif" font-size="10.00">left:</text>
<text text-anchor="middle" x="160.5" y="-515.5" font-family="Times,serif" font-size="10.00">0x604000000010</text>
<polyline fill="none" stroke="black" points="211,-508.5 211,-538.5 "/>
<text text-anchor="middle" x="261.5" y="-526.5" font-family="Times,serif" font-size="10.00">right:</text>
<text text-anchor="middle" x="261.5" y="-515.5" font-family="Times,serif" font-size="10.00">0x6040000001d0</text>
</g>
<!-- node0 -->
<g id="node2" class="node">
<title>node0</title>
<polygon fill="lightblue" stroke="black" points="0,-381.5 0,-471.5 202,-471.5 202,-381.5 0,-381.5"/>
<text text-anchor="middle" x="62" y="-459.5" font-family="Times,serif" font-size="10.00">data_type:</text>
<text text-anchor="middle" x="62" y="-448.5" font-family="Times,serif" font-size="10.00"> NUMBER</text>
<polyline fill="none" stroke="black" points="124,-441.5 124,-471.5 "/>
<text text-anchor="middle" x="163" y="-454" font-family="Times,serif" font-size="10.00">1</text>
<polyline fill="none" stroke="black" points="0,-441.5 202,-441.5 "/>
<text text-anchor="middle" x="50.5" y="-429.5" font-family="Times,serif" font-size="10.00">this:</text>
<text text-anchor="middle" x="50.5" y="-418.5" font-family="Times,serif" font-size="10.00">0x604000000010</text>
<polyline fill="none" stroke="black" points="101,-411.5 101,-441.5 "/>
<text text-anchor="middle" x="151.5" y="-429.5" font-family="Times,serif" font-size="10.00">prev:</text>
<text text-anchor="middle" x="151.5" y="-418.5" font-family="Times,serif" font-size="10.00">0x604000000210</text>
<polyline fill="none" stroke="black" points="0,-411.5 202,-411.5 "/>
<text text-anchor="middle" x="48.5" y="-399.5" font-family="Times,serif" font-size="10.00">left:</text>
<text text-anchor="middle" x="48.5" y="-388.5" font-family="Times,serif" font-size="10.00">(nil)</text>
<polyline fill="none" stroke="black" points="97,-381.5 97,-411.5 "/>
<text text-anchor="middle" x="149.5" y="-399.5" font-family="Times,serif" font-size="10.00">right:</text>
<text text-anchor="middle" x="149.5" y="-388.5" font-family="Times,serif" font-size="10.00">(nil)</text>
</g>
<!-- node8&#45;&gt;node0 -->
<g id="edge1" class="edge">
<title>node8&#45;&gt;node0</title>
<path fill="none" stroke="black" d="M172.22,-508.43C163.92,-499 155.08,-488.96 146.56,-479.27"/>
<polygon fill="black" stroke="black" points="149.04,-476.79 139.8,-471.59 143.78,-481.41 149.04,-476.79"/>
</g>
<!-- node7 -->
<g id="node3" class="node">
<title>node7</title>
<polygon fill="lightblue" stroke="black" points="220,-381.5 220,-471.5 422,-471.5 422,-381.5 220,-381.5"/>
<text text-anchor="middle" x="281" y="-459.5" font-family="Times,serif" font-size="10.00">data_type:</text>
<text text-anchor="middle" x="281" y="-448.5" font-family="Times,serif" font-size="10.00"> OPERATOR</text>
<polyline fill="none" stroke="black" points="342,-441.5 342,-471.5 "/>
<text text-anchor="middle" x="382" y="-454" font-family="Times,serif" font-size="10.00">DIV</text>
<polyline fill="none" stroke="black" points="220,-441.5 422,-441.5 "/>
<text text-anchor="middle" x="270.5" y="-429.5" font-family="Times,serif" font-size="10.00">this:</text>
<text text-anchor="middle" x="270.5" y="-418.5" font-family="Times,serif" font-size="10.00">0x6040000001d0</text>
<polyline fill="none" stroke="black" points="321,-411.5 321,-441.5 "/>
<text text-anchor="middle" x="371.5" y="-429.5" font-family="Times,serif" font-size="10.00">prev:</text>
<text text-anchor="middle" x="371.5" y="-418.5" font-family="Times,serif" font-size="10.00">0x604000000210</text>
<polyline fill="none" stroke="black" points="220,-411.5 422,-411.5 "/>
<text text-anchor="middle" x="270.5" y="-399.5" font-family="Times,serif" font-size="10.00">left:</text>
<text text-anchor="middle" x="270.5" y="-388.5" font-family="Times,serif" font-size="10.00">0x604000000150</text>
<polyline fill="none" stroke="black" points="321,-381.5 321,-411.5 "/>
<text text-anchor="middle" x="371.5" y="-399.5" font-family="Times,serif" font-size="10.00">right:</text>
<text text-anchor="middle" x="371.5" y="-388.5" font-family="Times,serif" font-size="10.00">0x604000000190</text>
</g>
<!-- node8&#45;&gt;node7 -->
<g id="edge8" class="edge">
<title>node8&#45;&gt;node7</title>
<path fill="none" stroke="black" d="M249.78,-508.43C258.08,-499 266.92,-488.96 275.44,-479.27"/>
<polygon fill="black" stroke="black" points="278.22,-481.41 282.2,-471.59 272.96,-476.79 278.22,-481.41"/>
</g>
<!-- node5 -->
<g id="node4" class="node">
<title>node5</title>
<polygon fill="lightblue" stroke="black" points="110,-254.5 110,-344.5 312,-344.5 312,-254.5 110,-254.5"/>
<text text-anchor="middle" x="170" y="-332.5" font-family="Times,serif" font-size="10.00">data_type:</text>
<text text-anchor="middle" x="170" y="-321.5" font-family="Times,serif" font-size="10.00"> OPERATOR</text>
<polyline fill="none" stroke="black" points="230,-314.5 230,-344.5 "/>
<text text-anchor="middle" x="271" y="-327" font-family="Times,serif" font-size="10.00">ADD</text>
<polyline fill="none" stroke="black" points="110,-314.5 312,-314.5 "/>
<text text-anchor="middle" x="160.5" y="-302.5" font-family="Times,serif" font-size="10.00">this:</text>
<text text-anchor="middle" x="160.5" y="-291.5" font-family="Times,serif" font-size="10.00">0x604000000150</text>
<polyline fill="none" stroke="black" points="211,-284.5 211,-314.5 "/>
<text text-anchor="middle" x="261.5" y="-302.5" font-family="Times,serif" font-size="10.00">prev:</text>
<text text-anchor="middle" x="261.5" y="-291.5" font-family="Times,serif" font-size="10.00">0x6040000001d0</text>
<polyline fill="none" stroke="black" points="110,-284.5 312,-284.5 "/>
<text text-anchor="middle" x="160.5" y="-272.5" font-family="Times,serif" font-size="10.00">left:</text>
<text text-anchor="middle" x="160.5" y="-261.5" font-family="Times,serif" font-size="10.00">0x604000000050</text>
<polyline fill="none" stroke="black" points="211,-254.5 211,-284.5 "/>
<text text-anchor="middle" x="261.5" y="-272.5" font-family="Times,serif" font-size="10.00">right:</text>
<text text-anchor="middle" x="261.5" y="-261.5" font-family="Times,serif" font-size="10.00">0x604000000110</text>
</g>
<!-- node7&#45;&gt;node5 -->
<g id="edge2" class="edge">
<title>node7&#45;&gt;node5</title>
<path fill="none" stroke="black" d="M282.22,-381.43C273.92,-372 265.08,-361.96 256.56,-352.27"/>
<polygon fill="black" stroke="black" points="259.04,-349.79 249.8,-344.59 253.78,-354.41 259.04,-349.79"/>
</g>
<!-- node6 -->
<g id="node9" class="node">
<title>node6</title>
<polygon fill="lightblue" stroke="black" points="330,-254.5 330,-344.5 532,-344.5 532,-254.5 330,-254.5"/>
<text text-anchor="middle" x="392" y="-332.5" font-family="Times,serif" font-size="10.00">data_type:</text>
<text text-anchor="middle" x="392" y="-321.5" font-family="Times,serif" font-size="10.00"> NUMBER</text>
<polyline fill="none" stroke="black" points="454,-314.5 454,-344.5 "/>
<text text-anchor="middle" x="493" y="-327" font-family="Times,serif" font-size="10.00">4</text>
<polyline fill="none" stroke="black" points="330,-314.5 532,-314.5 "/>
<text text-anchor="middle" x="380.5" y="-302.5" font-family="Times,serif" font-size="10.00">this:</text>
<text text-anchor="middle" x="380.5" y="-291.5" font-family="Times,serif" font-size="10.00">0x604000000190</text>
<polyline fill="none" stroke="black" points="431,-284.5 431,-314.5 "/>
<text text-anchor="middle" x="481.5" y="-302.5" font-family="Times,serif" font-size="10.00">prev:</text>
<text text-anchor="middle" x="481.5" y="-291.5" font-family="Times,serif" font-size="10.00">0x6040000001d0</text>
<polyline fill="none" stroke="black" points="330,-284.5 532,-284.5 "/>
<text text-anchor="middle" x="378.5" y="-272.5" font-family="Times,serif" font-size="10.00">left:</text>
<text text-anchor="middle" x="378.5" y="-261.5" font-family="Times,serif" font-size="10.00">(nil)</text>
<polyline fill="none" stroke="black" points="427,-254.5 427,-284.5 "/>
<text text-anchor="middle" x="479.5" y="-272.5" font-family="Times,serif" font-size="10.00">right:</text>
<text text-anchor="middle" x="479.5" y="-261.5" font-family="Times,serif" font-size="10.00">(nil)</text>
</g>
<!-- node7&#45;&gt;node6 -->
<g id="edge7" class="edge">
<title>node7&#45;&gt;node6</title>
<path fill="none" stroke="black" d="M359.78,-381.43C368.08,-372 376.92,-361.96 385.44,-352.27"/>
<polygon fill="black" stroke="black" points="388.22,-354.41 392.2,-344.59 382.96,-349.79 388.22,-354.41"/>
</g>
<!-- node1 -->
<g id="node5" class="node">
<title>node1</title>
<polygon fill="lightblue" stroke="black" points="0,-127.5 0,-217.5 202,-217.5 202,-127.5 0,-127.5"/>
<text text-anchor="middle" x="62" y="-205.5" font-family="Times,serif" font-size="10.00">data_type:</text>
<text text-anchor="middle" x="62" y="-194.5" font-family="Times,serif" font-size="10.00"> NUMBER</text>
<polyline fill="none" stroke="black" points="124,-187.5 124,-217.5 "/>
<text text-anchor="middle" x="163" y="-200" font-family="Times,serif" font-size="10.00">4</text>
<polyline fill="none" stroke="black" points="0,-187.5 202,-187.5 "/>
<text text-anchor="middle" x="50.5" y="-175.5" font-family="Times,serif" font-size="10.00">this:</text>
<text text-anchor="middle" x="50.5" y="-164.5" font-family="Times,serif" font-size="10.00">0x604000000050</text>
<polyline fill="none" stroke="black" points="101,-157.5 101,-187.5 "/>
<text text-anchor="middle" x="151.5" y="-175.5" font-family="Times,serif" font-size="10.00">prev:</text>
<text text-anchor="middle" x="151.5" y="-164.5" font-family="Times,serif" font-size="10.00">0x604000000150</text>
<polyline fill="none" stroke="black" points="0,-157.5 202,-157.5 "/>
<text text-anchor="middle" x="48.5" y="-145.5" font-family="Times,serif" font-size="10.00">left:</text>
<text text-anchor="middle" x="48.5" y="-134.5" font-family="Times,serif" font-size="10.00">(nil)</text>
<polyline fill="none" stroke="black" points="97,-127.5 97,-157.5 "/>
<text text-anchor="middle" x="149.5" y="-145.5" font-family="Times,serif" font-size="10.00">right:</text>
<text text-anchor="middle" x="149.5" y="-134.5" font-family="Times,serif" font-size="10.00">(nil)</text>
</g>
<!-- node5&#45;&gt;node1 -->
<g id="edge3" class="edge">
<title>node5&#45;&gt;node1</title>
<path fill="none" stroke="black" d="M172.22,-254.43C163.92,-245 155.08,-234.96 146.56,-225.27"/>
<polygon fill="black" stroke="black" points="149.04,-222.79 139.8,-217.59 143.78,-227.41 149.04,-222.79"/>
</g>
<!-- node4 -->
<g id="node6" class="node">
<title>node4</title>
<polygon fill="lightblue" stroke="black" points="220,-127.5 220,-217.5 422,-217.5 422,-127.5 220,-127.5"/>
<text text-anchor="middle" x="279.5" y="-205.5" font-family="Times,serif" font-size="10.00">data_type:</text>
<text text-anchor="middle" x="279.5" y="-194.5" font-family="Times,serif" font-size="10.00"> OPERATOR</text>
<polyline fill="none" stroke="black" points="339,-187.5 339,-217.5 "/>
<text text-anchor="middle" x="380.5" y="-200" font-family="Times,serif" font-size="10.00">MUL</text>
<polyline fill="none" stroke="black" points="220,-187.5 422,-187.5 "/>
<text text-anchor="middle" x="270.5" y="-175.5" font-family="Times,serif" font-size="10.00">this:</text>
<text text-anchor="middle" x="270.5" y="-164.5" font-family="Times,serif" font-size="10.00">0x604000000110</text>
<polyline fill="none" stroke="black" points="321,-157.5 321,-187.5 "/>
<text text-anchor="middle" x="371.5" y="-175.5" font-family="Times,serif" font-size="10.00">prev:</text>
<text text-anchor="middle" x="371.5" y="-164.5" font-family="Times,serif" font-size="10.00">0x604000000150</text>
<polyline fill="none" stroke="black" points="220,-157.5 422,-157.5 "/>
<text text-anchor="middle" x="270.5" y="-145.5" font-family="Times,serif" font-size="10.00">left:</text>
<text text-anchor="middle" x="270.5" y="-134.5" font-family="Times,serif" font-size="10.00">0x604000000090</text>
<polyline fill="none" stroke="black" points="321,-127.5 321,-157.5 "/>
<text text-anchor="middle" x="371.5" y="-145.5" font-family="Times,serif" font-size="10.00">right:</text>
<text text-anchor="middle" x="371.5" y="-134.5" font-family="Times,serif" font-size="10.00">0x6040000000d0</text>
</g>
<!-- node5&#45;&gt;node4 -->
<g id="edge6" class="edge">
<title>node5&#45;&gt;node4</title>
<path fill="none" stroke="black" d="M249.78,-254.43C258.08,-245 266.92,-234.96 275.44,-225.27"/>
<polygon fill="black" stroke="black" points="278.22,-227.41 282.2,-217.59 272.96,-222.79 278.22,-227.41"/>
</g>
<!-- node2 -->
<g id="node7" class="node">
<title>node2</title>
<polygon fill="lightblue" stroke="black" points="110,-0.5 110,-90.5 312,-90.5 312,-0.5 110,-0.5"/>
<text text-anchor="middle" x="172" y="-78.5" font-family="Times,serif" font-size="10.00">data_type:</text>
<text text-anchor="middle" x="172" y="-67.5" font-family="Times,serif" font-size="10.00"> NUMBER</text>
<polyline fill="none" stroke="black" points="234,-60.5 234,-90.5 "/>
<text text-anchor="middle" x="273" y="-73" font-family="Times,serif" font-size="10.00">9</text>
<polyline fill="none" stroke="black" points="110,-60.5 312,-60.5 "/>
<text text-anchor="middle" x="160.5" y="-48.5" font-family="Times,serif" font-size="10.00">this:</text>
<text text-anchor="middle" x="160.5" y="-37.5" font-family="Times,serif" font-size="10.00">0x604000000090</text>
<polyline fill="none" stroke="black" points="211,-30.5 211,-60.5 "/>
<text text-anchor="middle" x="261.5" y="-48.5" font-family="Times,serif" font-size="10.00">prev:</text>
<text text-anchor="middle" x="261.5" y="-37.5" font-family="Times,serif" font-size="10.00">0x604000000110</text>
<polyline fill="none" stroke="black" points="110,-30.5 312,-30.5 "/>
<text text-anchor="middle" x="158.5" y="-18.5" font-family="Times,serif" font-size="10.00">left:</text>
<text text-anchor="middle" x="158.5" y="-7.5" font-family="Times,serif" font-size="10.00">(nil)</text>
<polyline fill="none" stroke="black" points="207,-0.5 207,-30.5 "/>
<text text-anchor="middle" x="259.5" y="-18.5" font-family="Times,serif" font-size="10.00">right:</text>
<text text-anchor="middle" x="259.5" y="-7.5" font-family="Times,serif" font-size="10.00">(nil)</text>
</g>
<!-- node4&#45;&gt;node2 -->
<g id="edge4" class="edge">
<title>node4&#45;&gt;node2</title>
<path fill="none" stroke="black" d="M282.22,-127.43C273.92,-118 265.08,-107.96 256.56,-98.27"/>
<polygon fill="black" stroke="black" points="259.04,-95.79 249.8,-90.59 253.78,-100.41 259.04,-95.79"/>
</g>
<!-- node3 -->
<g id="node8" class="node">
<title>node3</title>
<polygon fill="lightblue" stroke="black" points="330,-0.5 330,-90.5 532,-90.5 532,-0.5 330,-0.5"/>
<text text-anchor="middle" x="387.5" y="-78.5" font-family="Times,serif" font-size="10.00">data_type:</text>
<text text-anchor="middle" x="387.5" y="-67.5" font-family="Times,serif" font-size="10.00"> NAME</text>
<polyline fill="none" stroke="black" points="445,-60.5 445,-90.5 "/>
<text text-anchor="middle" x="488.5" y="-73" font-family="Times,serif" font-size="10.00">kuku</text>
<polyline fill="none" stroke="black" points="330,-60.5 532,-60.5 "/>
<text text-anchor="middle" x="380.5" y="-48.5" font-family="Times,serif" font-size="10.00">this:</text>
<text text-anchor="middle" x="380.5" y="-37.5" font-family="Times,serif" font-size="10.00">0x6040000000d0</text>
<polyline fill="none" stroke="black" points="431,-30.5 431,-60.5 "/>
<text text-anchor="middle" x="481.5" y="-48.5" font-family="Times,serif" font-size="10.00">prev:</text>
<text text-anchor="middle" x="481.5" y="-37.5" font-family="Times,serif" font-size="10.00">0x604000000110</text>
<polyline fill="none" stroke="black" points="330,-30.5 532,-30.5 "/>
<text text-anchor="middle" x="378.5" y="-18.5" font-family="Times,serif" font-size="10.00">left:</text>
<text text-anchor="middle" x="378.5" y="-7.5" font-family="Times,serif" font-size="10.00">(nil)</text>
<polyline fill="none" stroke="black" points="427,-0.5 427,-30.5 "/>
<text text-anchor="middle" x="479.5" y="-18.5" font-family="Times,serif" font-size="10.00">right:</text>
<text text-anchor="middle" x="479.5" y="-7.5" font-family="Times,serif" font-size="10.00">(nil)</text>
</g>
<!-- node4&#45;&gt;node3 -->
<g id="edge5" class="edge">
<title>node4&#45;&gt;node3</title>
<path fill="none" stroke="black" d="M359.78,-127.43C368.08,-118 376.92,-107.96 385.44,-98.27"/>
<polygon fill="black" stroke="black" points="388.22,-100.41 392.2,-90.59 382.96,-95.79 388.22,-100.41"/>
</g>
</g>
</svg>
