<?xml version="1.0" encoding="UTF-8" standalone="no"?>
<!DOCTYPE svg PUBLIC "-//W3C//DTD SVG 1.1//EN"
 "http://www.w3.org/Graphics/SVG/1.1/DTD/svg11.dtd">
<!-- Generated by graphviz version 2.43.0 (0)
 -->
<!-- Title: G Pages: 1 -->
<svg width="1089pt" height="734pt"
 viewBox="0.00 0.00 1088.50 734.00" xmlns="http://www.w3.org/2000/svg" xmlns:xlink="http://www.w3.org/1999/xlink">
<g id="graph0" class="graph" transform="scale(1 1) rotate(0) translate(4 730)">
<title>G</title>
<polygon fill="white" stroke="transparent" points="-4,4 -4,-730 1084.5,-730 1084.5,4 -4,4"/>
<!-- node12 -->
<g id="node1" class="node">
<title>node12</title>
<polygon fill="lightblue" stroke="black" points="440,-635.5 440,-725.5 642,-725.5 642,-635.5 440,-635.5"/>
<text text-anchor="middle" x="505" y="-713.5" font-family="Times,serif" font-size="10.00">data_type:</text>
<text text-anchor="middle" x="505" y="-702.5" font-family="Times,serif" font-size="10.00"> OPERATOR</text>
<polyline fill="none" stroke="black" points="570,-695.5 570,-725.5 "/>
<text text-anchor="middle" x="606" y="-708" font-family="Times,serif" font-size="10.00">&#45;</text>
<polyline fill="none" stroke="black" points="440,-695.5 642,-695.5 "/>
<text text-anchor="middle" x="505" y="-683.5" font-family="Times,serif" font-size="10.00">this:</text>
<text text-anchor="middle" x="505" y="-672.5" font-family="Times,serif" font-size="10.00">0x6060000004a0</text>
<polyline fill="none" stroke="black" points="570,-665.5 570,-695.5 "/>
<text text-anchor="middle" x="606" y="-683.5" font-family="Times,serif" font-size="10.00">prev:</text>
<text text-anchor="middle" x="606" y="-672.5" font-family="Times,serif" font-size="10.00">(nil)</text>
<polyline fill="none" stroke="black" points="440,-665.5 642,-665.5 "/>
<text text-anchor="middle" x="490.5" y="-653.5" font-family="Times,serif" font-size="10.00">left:</text>
<text text-anchor="middle" x="490.5" y="-642.5" font-family="Times,serif" font-size="10.00">0x6060000003e0</text>
<polyline fill="none" stroke="black" points="541,-635.5 541,-665.5 "/>
<text text-anchor="middle" x="591.5" y="-653.5" font-family="Times,serif" font-size="10.00">right:</text>
<text text-anchor="middle" x="591.5" y="-642.5" font-family="Times,serif" font-size="10.00">0x606000000440</text>
</g>
<!-- node10 -->
<g id="node2" class="node">
<title>node10</title>
<polygon fill="lightblue" stroke="black" points="330,-508.5 330,-598.5 532,-598.5 532,-508.5 330,-508.5"/>
<text text-anchor="middle" x="394" y="-586.5" font-family="Times,serif" font-size="10.00">data_type:</text>
<text text-anchor="middle" x="394" y="-575.5" font-family="Times,serif" font-size="10.00"> OPERATOR</text>
<polyline fill="none" stroke="black" points="458,-568.5 458,-598.5 "/>
<text text-anchor="middle" x="495" y="-581" font-family="Times,serif" font-size="10.00">+</text>
<polyline fill="none" stroke="black" points="330,-568.5 532,-568.5 "/>
<text text-anchor="middle" x="380.5" y="-556.5" font-family="Times,serif" font-size="10.00">this:</text>
<text text-anchor="middle" x="380.5" y="-545.5" font-family="Times,serif" font-size="10.00">0x6060000003e0</text>
<polyline fill="none" stroke="black" points="431,-538.5 431,-568.5 "/>
<text text-anchor="middle" x="481.5" y="-556.5" font-family="Times,serif" font-size="10.00">prev:</text>
<text text-anchor="middle" x="481.5" y="-545.5" font-family="Times,serif" font-size="10.00">0x6060000004a0</text>
<polyline fill="none" stroke="black" points="330,-538.5 532,-538.5 "/>
<text text-anchor="middle" x="380.5" y="-526.5" font-family="Times,serif" font-size="10.00">left:</text>
<text text-anchor="middle" x="380.5" y="-515.5" font-family="Times,serif" font-size="10.00">0x6060000000e0</text>
<polyline fill="none" stroke="black" points="431,-508.5 431,-538.5 "/>
<text text-anchor="middle" x="481.5" y="-526.5" font-family="Times,serif" font-size="10.00">right:</text>
<text text-anchor="middle" x="481.5" y="-515.5" font-family="Times,serif" font-size="10.00">0x606000000380</text>
</g>
<!-- node12&#45;&gt;node10 -->
<g id="edge1" class="edge">
<title>node12&#45;&gt;node10</title>
<path fill="none" stroke="black" d="M502.22,-635.43C493.92,-626 485.08,-615.96 476.56,-606.27"/>
<polygon fill="black" stroke="black" points="479.04,-603.79 469.8,-598.59 473.78,-608.41 479.04,-603.79"/>
</g>
<!-- node11 -->
<g id="node13" class="node">
<title>node11</title>
<polygon fill="lightblue" stroke="black" points="550,-508.5 550,-598.5 752,-598.5 752,-508.5 550,-508.5"/>
<text text-anchor="middle" x="612" y="-586.5" font-family="Times,serif" font-size="10.00">data_type:</text>
<text text-anchor="middle" x="612" y="-575.5" font-family="Times,serif" font-size="10.00"> NUMBER</text>
<polyline fill="none" stroke="black" points="674,-568.5 674,-598.5 "/>
<text text-anchor="middle" x="713" y="-581" font-family="Times,serif" font-size="10.00">2</text>
<polyline fill="none" stroke="black" points="550,-568.5 752,-568.5 "/>
<text text-anchor="middle" x="600.5" y="-556.5" font-family="Times,serif" font-size="10.00">this:</text>
<text text-anchor="middle" x="600.5" y="-545.5" font-family="Times,serif" font-size="10.00">0x606000000440</text>
<polyline fill="none" stroke="black" points="651,-538.5 651,-568.5 "/>
<text text-anchor="middle" x="701.5" y="-556.5" font-family="Times,serif" font-size="10.00">prev:</text>
<text text-anchor="middle" x="701.5" y="-545.5" font-family="Times,serif" font-size="10.00">0x6060000004a0</text>
<polyline fill="none" stroke="black" points="550,-538.5 752,-538.5 "/>
<text text-anchor="middle" x="598.5" y="-526.5" font-family="Times,serif" font-size="10.00">left:</text>
<text text-anchor="middle" x="598.5" y="-515.5" font-family="Times,serif" font-size="10.00">(nil)</text>
<polyline fill="none" stroke="black" points="647,-508.5 647,-538.5 "/>
<text text-anchor="middle" x="699.5" y="-526.5" font-family="Times,serif" font-size="10.00">right:</text>
<text text-anchor="middle" x="699.5" y="-515.5" font-family="Times,serif" font-size="10.00">(nil)</text>
</g>
<!-- node12&#45;&gt;node11 -->
<g id="edge12" class="edge">
<title>node12&#45;&gt;node11</title>
<path fill="none" stroke="black" d="M579.78,-635.43C588.08,-626 596.92,-615.96 605.44,-606.27"/>
<polygon fill="black" stroke="black" points="608.22,-608.41 612.2,-598.59 602.96,-603.79 608.22,-608.41"/>
</g>
<!-- node2 -->
<g id="node3" class="node">
<title>node2</title>
<polygon fill="lightblue" stroke="black" points="220,-381.5 220,-471.5 422,-471.5 422,-381.5 220,-381.5"/>
<text text-anchor="middle" x="285" y="-459.5" font-family="Times,serif" font-size="10.00">data_type:</text>
<text text-anchor="middle" x="285" y="-448.5" font-family="Times,serif" font-size="10.00"> OPERATOR</text>
<polyline fill="none" stroke="black" points="350,-441.5 350,-471.5 "/>
<text text-anchor="middle" x="386" y="-454" font-family="Times,serif" font-size="10.00">/</text>
<polyline fill="none" stroke="black" points="220,-441.5 422,-441.5 "/>
<text text-anchor="middle" x="270.5" y="-429.5" font-family="Times,serif" font-size="10.00">this:</text>
<text text-anchor="middle" x="270.5" y="-418.5" font-family="Times,serif" font-size="10.00">0x6060000000e0</text>
<polyline fill="none" stroke="black" points="321,-411.5 321,-441.5 "/>
<text text-anchor="middle" x="371.5" y="-429.5" font-family="Times,serif" font-size="10.00">prev:</text>
<text text-anchor="middle" x="371.5" y="-418.5" font-family="Times,serif" font-size="10.00">0x6060000003e0</text>
<polyline fill="none" stroke="black" points="220,-411.5 422,-411.5 "/>
<text text-anchor="middle" x="270.5" y="-399.5" font-family="Times,serif" font-size="10.00">left:</text>
<text text-anchor="middle" x="270.5" y="-388.5" font-family="Times,serif" font-size="10.00">0x606000000020</text>
<polyline fill="none" stroke="black" points="321,-381.5 321,-411.5 "/>
<text text-anchor="middle" x="371.5" y="-399.5" font-family="Times,serif" font-size="10.00">right:</text>
<text text-anchor="middle" x="371.5" y="-388.5" font-family="Times,serif" font-size="10.00">0x606000000080</text>
</g>
<!-- node10&#45;&gt;node2 -->
<g id="edge2" class="edge">
<title>node10&#45;&gt;node2</title>
<path fill="none" stroke="black" d="M392.22,-508.43C383.92,-499 375.08,-488.96 366.56,-479.27"/>
<polygon fill="black" stroke="black" points="369.04,-476.79 359.8,-471.59 363.78,-481.41 369.04,-476.79"/>
</g>
<!-- node9 -->
<g id="node6" class="node">
<title>node9</title>
<polygon fill="lightblue" stroke="black" points="440,-381.5 440,-471.5 642,-471.5 642,-381.5 440,-381.5"/>
<text text-anchor="middle" x="504.5" y="-459.5" font-family="Times,serif" font-size="10.00">data_type:</text>
<text text-anchor="middle" x="504.5" y="-448.5" font-family="Times,serif" font-size="10.00"> OPERATOR</text>
<polyline fill="none" stroke="black" points="569,-441.5 569,-471.5 "/>
<text text-anchor="middle" x="605.5" y="-454" font-family="Times,serif" font-size="10.00">*</text>
<polyline fill="none" stroke="black" points="440,-441.5 642,-441.5 "/>
<text text-anchor="middle" x="490.5" y="-429.5" font-family="Times,serif" font-size="10.00">this:</text>
<text text-anchor="middle" x="490.5" y="-418.5" font-family="Times,serif" font-size="10.00">0x606000000380</text>
<polyline fill="none" stroke="black" points="541,-411.5 541,-441.5 "/>
<text text-anchor="middle" x="591.5" y="-429.5" font-family="Times,serif" font-size="10.00">prev:</text>
<text text-anchor="middle" x="591.5" y="-418.5" font-family="Times,serif" font-size="10.00">0x6060000003e0</text>
<polyline fill="none" stroke="black" points="440,-411.5 642,-411.5 "/>
<text text-anchor="middle" x="490.5" y="-399.5" font-family="Times,serif" font-size="10.00">left:</text>
<text text-anchor="middle" x="490.5" y="-388.5" font-family="Times,serif" font-size="10.00">0x606000000140</text>
<polyline fill="none" stroke="black" points="541,-381.5 541,-411.5 "/>
<text text-anchor="middle" x="591.5" y="-399.5" font-family="Times,serif" font-size="10.00">right:</text>
<text text-anchor="middle" x="591.5" y="-388.5" font-family="Times,serif" font-size="10.00">0x606000000320</text>
</g>
<!-- node10&#45;&gt;node9 -->
<g id="edge11" class="edge">
<title>node10&#45;&gt;node9</title>
<path fill="none" stroke="black" d="M469.78,-508.43C478.08,-499 486.92,-488.96 495.44,-479.27"/>
<polygon fill="black" stroke="black" points="498.22,-481.41 502.2,-471.59 492.96,-476.79 498.22,-481.41"/>
</g>
<!-- node0 -->
<g id="node4" class="node">
<title>node0</title>
<polygon fill="lightblue" stroke="black" points="0,-254.5 0,-344.5 202,-344.5 202,-254.5 0,-254.5"/>
<text text-anchor="middle" x="60.5" y="-332.5" font-family="Times,serif" font-size="10.00">data_type:</text>
<text text-anchor="middle" x="60.5" y="-321.5" font-family="Times,serif" font-size="10.00"> NUMBER</text>
<polyline fill="none" stroke="black" points="121,-314.5 121,-344.5 "/>
<text text-anchor="middle" x="161.5" y="-327" font-family="Times,serif" font-size="10.00">17</text>
<polyline fill="none" stroke="black" points="0,-314.5 202,-314.5 "/>
<text text-anchor="middle" x="50.5" y="-302.5" font-family="Times,serif" font-size="10.00">this:</text>
<text text-anchor="middle" x="50.5" y="-291.5" font-family="Times,serif" font-size="10.00">0x606000000020</text>
<polyline fill="none" stroke="black" points="101,-284.5 101,-314.5 "/>
<text text-anchor="middle" x="151.5" y="-302.5" font-family="Times,serif" font-size="10.00">prev:</text>
<text text-anchor="middle" x="151.5" y="-291.5" font-family="Times,serif" font-size="10.00">0x6060000000e0</text>
<polyline fill="none" stroke="black" points="0,-284.5 202,-284.5 "/>
<text text-anchor="middle" x="48.5" y="-272.5" font-family="Times,serif" font-size="10.00">left:</text>
<text text-anchor="middle" x="48.5" y="-261.5" font-family="Times,serif" font-size="10.00">(nil)</text>
<polyline fill="none" stroke="black" points="97,-254.5 97,-284.5 "/>
<text text-anchor="middle" x="149.5" y="-272.5" font-family="Times,serif" font-size="10.00">right:</text>
<text text-anchor="middle" x="149.5" y="-261.5" font-family="Times,serif" font-size="10.00">(nil)</text>
</g>
<!-- node2&#45;&gt;node0 -->
<g id="edge3" class="edge">
<title>node2&#45;&gt;node0</title>
<path fill="none" stroke="black" d="M243.44,-381.43C225.28,-371.11 205.83,-360.06 187.32,-349.55"/>
<polygon fill="black" stroke="black" points="189.03,-346.49 178.6,-344.59 185.57,-352.58 189.03,-346.49"/>
</g>
<!-- node1 -->
<g id="node5" class="node">
<title>node1</title>
<polygon fill="lightblue" stroke="black" points="220,-254.5 220,-344.5 422,-344.5 422,-254.5 220,-254.5"/>
<text text-anchor="middle" x="282" y="-332.5" font-family="Times,serif" font-size="10.00">data_type:</text>
<text text-anchor="middle" x="282" y="-321.5" font-family="Times,serif" font-size="10.00"> NUMBER</text>
<polyline fill="none" stroke="black" points="344,-314.5 344,-344.5 "/>
<text text-anchor="middle" x="383" y="-327" font-family="Times,serif" font-size="10.00">2</text>
<polyline fill="none" stroke="black" points="220,-314.5 422,-314.5 "/>
<text text-anchor="middle" x="270.5" y="-302.5" font-family="Times,serif" font-size="10.00">this:</text>
<text text-anchor="middle" x="270.5" y="-291.5" font-family="Times,serif" font-size="10.00">0x606000000080</text>
<polyline fill="none" stroke="black" points="321,-284.5 321,-314.5 "/>
<text text-anchor="middle" x="371.5" y="-302.5" font-family="Times,serif" font-size="10.00">prev:</text>
<text text-anchor="middle" x="371.5" y="-291.5" font-family="Times,serif" font-size="10.00">0x6060000000e0</text>
<polyline fill="none" stroke="black" points="220,-284.5 422,-284.5 "/>
<text text-anchor="middle" x="268.5" y="-272.5" font-family="Times,serif" font-size="10.00">left:</text>
<text text-anchor="middle" x="268.5" y="-261.5" font-family="Times,serif" font-size="10.00">(nil)</text>
<polyline fill="none" stroke="black" points="317,-254.5 317,-284.5 "/>
<text text-anchor="middle" x="369.5" y="-272.5" font-family="Times,serif" font-size="10.00">right:</text>
<text text-anchor="middle" x="369.5" y="-261.5" font-family="Times,serif" font-size="10.00">(nil)</text>
</g>
<!-- node2&#45;&gt;node1 -->
<g id="edge4" class="edge">
<title>node2&#45;&gt;node1</title>
<path fill="none" stroke="black" d="M321,-381.43C321,-372.84 321,-363.74 321,-354.87"/>
<polygon fill="black" stroke="black" points="324.5,-354.59 321,-344.59 317.5,-354.59 324.5,-354.59"/>
</g>
<!-- node3 -->
<g id="node7" class="node">
<title>node3</title>
<polygon fill="lightblue" stroke="black" points="440,-254.5 440,-344.5 642,-344.5 642,-254.5 440,-254.5"/>
<text text-anchor="middle" x="502" y="-332.5" font-family="Times,serif" font-size="10.00">data_type:</text>
<text text-anchor="middle" x="502" y="-321.5" font-family="Times,serif" font-size="10.00"> NUMBER</text>
<polyline fill="none" stroke="black" points="564,-314.5 564,-344.5 "/>
<text text-anchor="middle" x="603" y="-327" font-family="Times,serif" font-size="10.00">3</text>
<polyline fill="none" stroke="black" points="440,-314.5 642,-314.5 "/>
<text text-anchor="middle" x="490.5" y="-302.5" font-family="Times,serif" font-size="10.00">this:</text>
<text text-anchor="middle" x="490.5" y="-291.5" font-family="Times,serif" font-size="10.00">0x606000000140</text>
<polyline fill="none" stroke="black" points="541,-284.5 541,-314.5 "/>
<text text-anchor="middle" x="591.5" y="-302.5" font-family="Times,serif" font-size="10.00">prev:</text>
<text text-anchor="middle" x="591.5" y="-291.5" font-family="Times,serif" font-size="10.00">0x606000000380</text>
<polyline fill="none" stroke="black" points="440,-284.5 642,-284.5 "/>
<text text-anchor="middle" x="488.5" y="-272.5" font-family="Times,serif" font-size="10.00">left:</text>
<text text-anchor="middle" x="488.5" y="-261.5" font-family="Times,serif" font-size="10.00">(nil)</text>
<polyline fill="none" stroke="black" points="537,-254.5 537,-284.5 "/>
<text text-anchor="middle" x="589.5" y="-272.5" font-family="Times,serif" font-size="10.00">right:</text>
<text text-anchor="middle" x="589.5" y="-261.5" font-family="Times,serif" font-size="10.00">(nil)</text>
</g>
<!-- node9&#45;&gt;node3 -->
<g id="edge5" class="edge">
<title>node9&#45;&gt;node3</title>
<path fill="none" stroke="black" d="M541,-381.43C541,-372.84 541,-363.74 541,-354.87"/>
<polygon fill="black" stroke="black" points="544.5,-354.59 541,-344.59 537.5,-354.59 544.5,-354.59"/>
</g>
<!-- node8 -->
<g id="node8" class="node">
<title>node8</title>
<polygon fill="lightblue" stroke="black" points="660,-254.5 660,-344.5 862,-344.5 862,-254.5 660,-254.5"/>
<text text-anchor="middle" x="725" y="-332.5" font-family="Times,serif" font-size="10.00">data_type:</text>
<text text-anchor="middle" x="725" y="-321.5" font-family="Times,serif" font-size="10.00"> OPERATOR</text>
<polyline fill="none" stroke="black" points="790,-314.5 790,-344.5 "/>
<text text-anchor="middle" x="826" y="-327" font-family="Times,serif" font-size="10.00">&#45;</text>
<polyline fill="none" stroke="black" points="660,-314.5 862,-314.5 "/>
<text text-anchor="middle" x="710.5" y="-302.5" font-family="Times,serif" font-size="10.00">this:</text>
<text text-anchor="middle" x="710.5" y="-291.5" font-family="Times,serif" font-size="10.00">0x606000000320</text>
<polyline fill="none" stroke="black" points="761,-284.5 761,-314.5 "/>
<text text-anchor="middle" x="811.5" y="-302.5" font-family="Times,serif" font-size="10.00">prev:</text>
<text text-anchor="middle" x="811.5" y="-291.5" font-family="Times,serif" font-size="10.00">0x606000000380</text>
<polyline fill="none" stroke="black" points="660,-284.5 862,-284.5 "/>
<text text-anchor="middle" x="710.5" y="-272.5" font-family="Times,serif" font-size="10.00">left:</text>
<text text-anchor="middle" x="710.5" y="-261.5" font-family="Times,serif" font-size="10.00">0x6060000001a0</text>
<polyline fill="none" stroke="black" points="761,-254.5 761,-284.5 "/>
<text text-anchor="middle" x="811.5" y="-272.5" font-family="Times,serif" font-size="10.00">right:</text>
<text text-anchor="middle" x="811.5" y="-261.5" font-family="Times,serif" font-size="10.00">0x6060000002c0</text>
</g>
<!-- node9&#45;&gt;node8 -->
<g id="edge10" class="edge">
<title>node9&#45;&gt;node8</title>
<path fill="none" stroke="black" d="M618.56,-381.43C636.72,-371.11 656.17,-360.06 674.68,-349.55"/>
<polygon fill="black" stroke="black" points="676.43,-352.58 683.4,-344.59 672.97,-346.49 676.43,-352.58"/>
</g>
<!-- node4 -->
<g id="node9" class="node">
<title>node4</title>
<polygon fill="lightblue" stroke="black" points="550,-127.5 550,-217.5 752,-217.5 752,-127.5 550,-127.5"/>
<text text-anchor="middle" x="612" y="-205.5" font-family="Times,serif" font-size="10.00">data_type:</text>
<text text-anchor="middle" x="612" y="-194.5" font-family="Times,serif" font-size="10.00"> NUMBER</text>
<polyline fill="none" stroke="black" points="674,-187.5 674,-217.5 "/>
<text text-anchor="middle" x="713" y="-200" font-family="Times,serif" font-size="10.00">1</text>
<polyline fill="none" stroke="black" points="550,-187.5 752,-187.5 "/>
<text text-anchor="middle" x="600.5" y="-175.5" font-family="Times,serif" font-size="10.00">this:</text>
<text text-anchor="middle" x="600.5" y="-164.5" font-family="Times,serif" font-size="10.00">0x6060000001a0</text>
<polyline fill="none" stroke="black" points="651,-157.5 651,-187.5 "/>
<text text-anchor="middle" x="701.5" y="-175.5" font-family="Times,serif" font-size="10.00">prev:</text>
<text text-anchor="middle" x="701.5" y="-164.5" font-family="Times,serif" font-size="10.00">0x606000000320</text>
<polyline fill="none" stroke="black" points="550,-157.5 752,-157.5 "/>
<text text-anchor="middle" x="598.5" y="-145.5" font-family="Times,serif" font-size="10.00">left:</text>
<text text-anchor="middle" x="598.5" y="-134.5" font-family="Times,serif" font-size="10.00">(nil)</text>
<polyline fill="none" stroke="black" points="647,-127.5 647,-157.5 "/>
<text text-anchor="middle" x="699.5" y="-145.5" font-family="Times,serif" font-size="10.00">right:</text>
<text text-anchor="middle" x="699.5" y="-134.5" font-family="Times,serif" font-size="10.00">(nil)</text>
</g>
<!-- node8&#45;&gt;node4 -->
<g id="edge6" class="edge">
<title>node8&#45;&gt;node4</title>
<path fill="none" stroke="black" d="M722.22,-254.43C713.92,-245 705.08,-234.96 696.56,-225.27"/>
<polygon fill="black" stroke="black" points="699.04,-222.79 689.8,-217.59 693.78,-227.41 699.04,-222.79"/>
</g>
<!-- node7 -->
<g id="node10" class="node">
<title>node7</title>
<polygon fill="lightblue" stroke="black" points="770,-127.5 770,-217.5 972,-217.5 972,-127.5 770,-127.5"/>
<text text-anchor="middle" x="834" y="-205.5" font-family="Times,serif" font-size="10.00">data_type:</text>
<text text-anchor="middle" x="834" y="-194.5" font-family="Times,serif" font-size="10.00"> OPERATOR</text>
<polyline fill="none" stroke="black" points="898,-187.5 898,-217.5 "/>
<text text-anchor="middle" x="935" y="-200" font-family="Times,serif" font-size="10.00">+</text>
<polyline fill="none" stroke="black" points="770,-187.5 972,-187.5 "/>
<text text-anchor="middle" x="820" y="-175.5" font-family="Times,serif" font-size="10.00">this:</text>
<text text-anchor="middle" x="820" y="-164.5" font-family="Times,serif" font-size="10.00">0x6060000002c0</text>
<polyline fill="none" stroke="black" points="870,-157.5 870,-187.5 "/>
<text text-anchor="middle" x="921" y="-175.5" font-family="Times,serif" font-size="10.00">prev:</text>
<text text-anchor="middle" x="921" y="-164.5" font-family="Times,serif" font-size="10.00">0x606000000320</text>
<polyline fill="none" stroke="black" points="770,-157.5 972,-157.5 "/>
<text text-anchor="middle" x="820.5" y="-145.5" font-family="Times,serif" font-size="10.00">left:</text>
<text text-anchor="middle" x="820.5" y="-134.5" font-family="Times,serif" font-size="10.00">0x606000000200</text>
<polyline fill="none" stroke="black" points="871,-127.5 871,-157.5 "/>
<text text-anchor="middle" x="921.5" y="-145.5" font-family="Times,serif" font-size="10.00">right:</text>
<text text-anchor="middle" x="921.5" y="-134.5" font-family="Times,serif" font-size="10.00">0x606000000260</text>
</g>
<!-- node8&#45;&gt;node7 -->
<g id="edge9" class="edge">
<title>node8&#45;&gt;node7</title>
<path fill="none" stroke="black" d="M799.78,-254.43C808.08,-245 816.92,-234.96 825.44,-225.27"/>
<polygon fill="black" stroke="black" points="828.22,-227.41 832.2,-217.59 822.96,-222.79 828.22,-227.41"/>
</g>
<!-- node5 -->
<g id="node11" class="node">
<title>node5</title>
<polygon fill="lightblue" stroke="black" points="660.5,-0.5 660.5,-90.5 861.5,-90.5 861.5,-0.5 660.5,-0.5"/>
<text text-anchor="middle" x="722.5" y="-78.5" font-family="Times,serif" font-size="10.00">data_type:</text>
<text text-anchor="middle" x="722.5" y="-67.5" font-family="Times,serif" font-size="10.00"> NUMBER</text>
<polyline fill="none" stroke="black" points="784.5,-60.5 784.5,-90.5 "/>
<text text-anchor="middle" x="823" y="-73" font-family="Times,serif" font-size="10.00">2</text>
<polyline fill="none" stroke="black" points="660.5,-60.5 861.5,-60.5 "/>
<text text-anchor="middle" x="711" y="-48.5" font-family="Times,serif" font-size="10.00">this:</text>
<text text-anchor="middle" x="711" y="-37.5" font-family="Times,serif" font-size="10.00">0x606000000200</text>
<polyline fill="none" stroke="black" points="761.5,-30.5 761.5,-60.5 "/>
<text text-anchor="middle" x="811.5" y="-48.5" font-family="Times,serif" font-size="10.00">prev:</text>
<text text-anchor="middle" x="811.5" y="-37.5" font-family="Times,serif" font-size="10.00">0x6060000002c0</text>
<polyline fill="none" stroke="black" points="660.5,-30.5 861.5,-30.5 "/>
<text text-anchor="middle" x="709" y="-18.5" font-family="Times,serif" font-size="10.00">left:</text>
<text text-anchor="middle" x="709" y="-7.5" font-family="Times,serif" font-size="10.00">(nil)</text>
<polyline fill="none" stroke="black" points="757.5,-0.5 757.5,-30.5 "/>
<text text-anchor="middle" x="809.5" y="-18.5" font-family="Times,serif" font-size="10.00">right:</text>
<text text-anchor="middle" x="809.5" y="-7.5" font-family="Times,serif" font-size="10.00">(nil)</text>
</g>
<!-- node7&#45;&gt;node5 -->
<g id="edge7" class="edge">
<title>node7&#45;&gt;node5</title>
<path fill="none" stroke="black" d="M832.22,-127.43C823.92,-118 815.08,-107.96 806.56,-98.27"/>
<polygon fill="black" stroke="black" points="809.04,-95.79 799.8,-90.59 803.78,-100.41 809.04,-95.79"/>
</g>
<!-- node6 -->
<g id="node12" class="node">
<title>node6</title>
<polygon fill="lightblue" stroke="black" points="879.5,-0.5 879.5,-90.5 1080.5,-90.5 1080.5,-0.5 879.5,-0.5"/>
<text text-anchor="middle" x="941.5" y="-78.5" font-family="Times,serif" font-size="10.00">data_type:</text>
<text text-anchor="middle" x="941.5" y="-67.5" font-family="Times,serif" font-size="10.00"> NUMBER</text>
<polyline fill="none" stroke="black" points="1003.5,-60.5 1003.5,-90.5 "/>
<text text-anchor="middle" x="1042" y="-73" font-family="Times,serif" font-size="10.00">4</text>
<polyline fill="none" stroke="black" points="879.5,-60.5 1080.5,-60.5 "/>
<text text-anchor="middle" x="930" y="-48.5" font-family="Times,serif" font-size="10.00">this:</text>
<text text-anchor="middle" x="930" y="-37.5" font-family="Times,serif" font-size="10.00">0x606000000260</text>
<polyline fill="none" stroke="black" points="980.5,-30.5 980.5,-60.5 "/>
<text text-anchor="middle" x="1030.5" y="-48.5" font-family="Times,serif" font-size="10.00">prev:</text>
<text text-anchor="middle" x="1030.5" y="-37.5" font-family="Times,serif" font-size="10.00">0x6060000002c0</text>
<polyline fill="none" stroke="black" points="879.5,-30.5 1080.5,-30.5 "/>
<text text-anchor="middle" x="928" y="-18.5" font-family="Times,serif" font-size="10.00">left:</text>
<text text-anchor="middle" x="928" y="-7.5" font-family="Times,serif" font-size="10.00">(nil)</text>
<polyline fill="none" stroke="black" points="976.5,-0.5 976.5,-30.5 "/>
<text text-anchor="middle" x="1028.5" y="-18.5" font-family="Times,serif" font-size="10.00">right:</text>
<text text-anchor="middle" x="1028.5" y="-7.5" font-family="Times,serif" font-size="10.00">(nil)</text>
</g>
<!-- node7&#45;&gt;node6 -->
<g id="edge8" class="edge">
<title>node7&#45;&gt;node6</title>
<path fill="none" stroke="black" d="M909.43,-127.43C917.65,-118 926.41,-107.96 934.86,-98.27"/>
<polygon fill="black" stroke="black" points="937.62,-100.43 941.55,-90.59 932.34,-95.83 937.62,-100.43"/>
</g>
</g>
</svg>
