<?xml version="1.0" encoding="UTF-8" standalone="no"?>
<!DOCTYPE svg PUBLIC "-//W3C//DTD SVG 1.1//EN"
 "http://www.w3.org/Graphics/SVG/1.1/DTD/svg11.dtd">
<!-- Generated by graphviz version 2.43.0 (0)
 -->
<!-- Title: G Pages: 1 -->
<svg width="138pt" height="197pt"
 viewBox="0.00 0.00 137.86 196.74" xmlns="http://www.w3.org/2000/svg" xmlns:xlink="http://www.w3.org/1999/xlink">
<g id="graph0" class="graph" transform="scale(1 1) rotate(0) translate(4 192.74)">
<title>G</title>
<polygon fill="white" stroke="transparent" points="-4,4 -4,-192.74 133.86,-192.74 133.86,4 -4,4"/>
<!-- node63 -->
<g id="node1" class="node">
<title>node63</title>
<ellipse fill="lightblue" stroke="black" cx="71.65" cy="-147.02" rx="41.94" ry="41.94"/>
<text text-anchor="middle" x="71.65" y="-142.02" font-family="Times,serif" font-size="20.00">VAR</text>
</g>
<!-- node61 -->
<g id="node2" class="node">
<title>node61</title>
<ellipse fill="lightblue" stroke="black" cx="34.65" cy="-34.65" rx="34.8" ry="34.8"/>
<text text-anchor="middle" x="34.65" y="-29.65" font-family="Times,serif" font-size="20.00">inp</text>
</g>
<!-- node63&#45;&gt;node61 -->
<g id="edge1" class="edge">
<title>node63&#45;&gt;node61</title>
<path fill="none" stroke="black" d="M58.6,-107.1C55.36,-97.42 51.87,-87.01 48.58,-77.2"/>
<polygon fill="black" stroke="black" points="51.88,-76.02 45.38,-67.65 45.24,-78.25 51.88,-76.02"/>
</g>
<!-- node62 -->
<g id="node3" class="node">
<title>node62</title>
<ellipse fill="lightblue" stroke="black" cx="108.65" cy="-34.65" rx="21.43" ry="21.43"/>
<text text-anchor="middle" x="108.65" y="-29.65" font-family="Times,serif" font-size="20.00">1</text>
</g>
<!-- node63&#45;&gt;node62 -->
<g id="edge2" class="edge">
<title>node63&#45;&gt;node62</title>
<path fill="none" stroke="black" d="M84.69,-107.1C89.36,-93.2 94.53,-77.77 98.87,-64.83"/>
<polygon fill="black" stroke="black" points="102.28,-65.65 102.14,-55.05 95.65,-63.42 102.28,-65.65"/>
</g>
</g>
</svg>
