<?xml version="1.0" encoding="UTF-8" standalone="no"?>
<!DOCTYPE svg PUBLIC "-//W3C//DTD SVG 1.1//EN"
 "http://www.w3.org/Graphics/SVG/1.1/DTD/svg11.dtd">
<!-- Generated by graphviz version 2.43.0 (0)
 -->
<!-- Title: G Pages: 1 -->
<svg width="138pt" height="384pt"
 viewBox="0.00 0.00 138.11 384.06" xmlns="http://www.w3.org/2000/svg" xmlns:xlink="http://www.w3.org/1999/xlink">
<g id="graph0" class="graph" transform="scale(1 1) rotate(0) translate(4 380.06)">
<title>G</title>
<polygon fill="white" stroke="transparent" points="-4,4 -4,-380.06 134.11,-380.06 134.11,4 -4,4"/>
<!-- node27 -->
<g id="node1" class="node">
<title>node27</title>
<ellipse fill="lightblue" stroke="black" cx="65.05" cy="-331.51" rx="44.6" ry="44.6"/>
<text text-anchor="middle" x="65.05" y="-326.51" font-family="Times,serif" font-size="20.00">OUT</text>
</g>
<!-- node26 -->
<g id="node2" class="node">
<title>node26</title>
<ellipse fill="lightblue" stroke="black" cx="65.05" cy="-185.91" rx="65.11" ry="65.11"/>
<text text-anchor="middle" x="65.05" y="-180.91" font-family="Times,serif" font-size="20.00">PARAM</text>
</g>
<!-- node27&#45;&gt;node26 -->
<g id="edge1" class="edge">
<title>node27&#45;&gt;node26</title>
<path fill="none" stroke="black" d="M65.05,-286.64C65.05,-278.58 65.05,-269.96 65.05,-261.29"/>
<polygon fill="black" stroke="black" points="68.55,-261.12 65.05,-251.12 61.55,-261.12 68.55,-261.12"/>
</g>
<!-- node25 -->
<g id="node3" class="node">
<title>node25</title>
<ellipse fill="lightblue" stroke="black" cx="65.05" cy="-42.43" rx="42.35" ry="42.35"/>
<text text-anchor="middle" x="65.05" y="-37.43" font-family="Times,serif" font-size="20.00">fuck</text>
</g>
<!-- node26&#45;&gt;node25 -->
<g id="edge2" class="edge">
<title>node26&#45;&gt;node25</title>
<path fill="none" stroke="black" d="M65.05,-120.79C65.05,-112.26 65.05,-103.59 65.05,-95.3"/>
<polygon fill="black" stroke="black" points="68.55,-95.04 65.05,-85.04 61.55,-95.04 68.55,-95.04"/>
</g>
</g>
</svg>
