<?xml version="1.0" encoding="UTF-8" standalone="no"?>
<!DOCTYPE svg PUBLIC "-//W3C//DTD SVG 1.1//EN"
 "http://www.w3.org/Graphics/SVG/1.1/DTD/svg11.dtd">
<!-- Generated by graphviz version 2.43.0 (0)
 -->
<!-- Title: G Pages: 1 -->
<svg width="703pt" height="1428pt"
 viewBox="0.00 0.00 703.11 1428.02" xmlns="http://www.w3.org/2000/svg" xmlns:xlink="http://www.w3.org/1999/xlink">
<g id="graph0" class="graph" transform="scale(1 1) rotate(0) translate(4 1424.02)">
<title>G</title>
<polygon fill="white" stroke="transparent" points="-4,4 -4,-1424.02 699.11,-1424.02 699.11,4 -4,4"/>
<!-- node36 -->
<g id="node1" class="node">
<title>node36</title>
<ellipse fill="lightblue" stroke="black" cx="157.39" cy="-1363.45" rx="56.64" ry="56.64"/>
<text text-anchor="middle" x="157.39" y="-1358.45" font-family="Times,serif" font-size="20.00">FUNC</text>
</g>
<!-- node35 -->
<g id="node2" class="node">
<title>node35</title>
<ellipse fill="lightblue" stroke="black" cx="88.39" cy="-1182.49" rx="88.28" ry="88.28"/>
<text text-anchor="middle" x="88.39" y="-1177.49" font-family="Times,serif" font-size="20.00">while_fuck</text>
</g>
<!-- node36&#45;&gt;node35 -->
<g id="edge1" class="edge">
<title>node36&#45;&gt;node35</title>
<path fill="none" stroke="black" d="M137.25,-1310.2C132.9,-1298.94 128.19,-1286.72 123.46,-1274.46"/>
<polygon fill="black" stroke="black" points="126.72,-1273.17 119.85,-1265.1 120.18,-1275.69 126.72,-1273.17"/>
</g>
<!-- node34 -->
<g id="node3" class="node">
<title>node34</title>
<ellipse fill="lightblue" stroke="black" cx="226.39" cy="-1182.49" rx="31.23" ry="31.23"/>
<text text-anchor="middle" x="226.39" y="-1177.49" font-family="Times,serif" font-size="20.00">ST</text>
</g>
<!-- node36&#45;&gt;node34 -->
<g id="edge35" class="edge">
<title>node36&#45;&gt;node34</title>
<path fill="none" stroke="black" d="M177.53,-1310.2C188.54,-1281.66 201.91,-1246.97 211.89,-1221.1"/>
<polygon fill="black" stroke="black" points="215.2,-1222.24 215.53,-1211.66 208.67,-1219.73 215.2,-1222.24"/>
</g>
<!-- node5 -->
<g id="node4" class="node">
<title>node5</title>
<ellipse fill="lightblue" stroke="black" cx="175.39" cy="-1026.99" rx="29.9" ry="29.9"/>
<text text-anchor="middle" x="175.39" y="-1021.99" font-family="Times,serif" font-size="20.00">IN</text>
</g>
<!-- node34&#45;&gt;node5 -->
<g id="edge2" class="edge">
<title>node34&#45;&gt;node5</title>
<path fill="none" stroke="black" d="M216.8,-1152.62C208.58,-1127.9 196.7,-1092.15 187.77,-1065.27"/>
<polygon fill="black" stroke="black" points="190.98,-1063.83 184.51,-1055.44 184.34,-1066.04 190.98,-1063.83"/>
</g>
<!-- node33 -->
<g id="node9" class="node">
<title>node33</title>
<ellipse fill="lightblue" stroke="black" cx="277.39" cy="-1026.99" rx="31.23" ry="31.23"/>
<text text-anchor="middle" x="277.39" y="-1021.99" font-family="Times,serif" font-size="20.00">ST</text>
</g>
<!-- node34&#45;&gt;node33 -->
<g id="edge34" class="edge">
<title>node34&#45;&gt;node33</title>
<path fill="none" stroke="black" d="M235.98,-1152.62C244.07,-1128.28 255.7,-1093.26 264.58,-1066.53"/>
<polygon fill="black" stroke="black" points="268.01,-1067.33 267.84,-1056.73 261.36,-1065.12 268.01,-1067.33"/>
</g>
<!-- node4 -->
<g id="node5" class="node">
<title>node4</title>
<ellipse fill="lightblue" stroke="black" cx="137.39" cy="-894.82" rx="65.11" ry="65.11"/>
<text text-anchor="middle" x="137.39" y="-889.82" font-family="Times,serif" font-size="20.00">PARAM</text>
</g>
<!-- node5&#45;&gt;node4 -->
<g id="edge3" class="edge">
<title>node5&#45;&gt;node4</title>
<path fill="none" stroke="black" d="M167.33,-998.38C164.62,-989.09 161.45,-978.25 158.22,-967.17"/>
<polygon fill="black" stroke="black" points="161.53,-966.02 155.36,-957.4 154.81,-967.98 161.53,-966.02"/>
</g>
<!-- node3 -->
<g id="node6" class="node">
<title>node3</title>
<ellipse fill="lightblue" stroke="black" cx="122.39" cy="-730.13" rx="41.94" ry="41.94"/>
<text text-anchor="middle" x="122.39" y="-725.13" font-family="Times,serif" font-size="20.00">VAR</text>
</g>
<!-- node4&#45;&gt;node3 -->
<g id="edge4" class="edge">
<title>node4&#45;&gt;node3</title>
<path fill="none" stroke="black" d="M131.5,-829.99C130.04,-814.08 128.48,-797.22 127.08,-782.03"/>
<polygon fill="black" stroke="black" points="130.54,-781.44 126.14,-771.81 123.57,-782.09 130.54,-781.44"/>
</g>
<!-- node1 -->
<g id="node7" class="node">
<title>node1</title>
<ellipse fill="lightblue" stroke="black" cx="90.39" cy="-585.94" rx="21.43" ry="21.43"/>
<text text-anchor="middle" x="90.39" y="-580.94" font-family="Times,serif" font-size="20.00">n</text>
</g>
<!-- node3&#45;&gt;node1 -->
<g id="edge5" class="edge">
<title>node3&#45;&gt;node1</title>
<path fill="none" stroke="black" d="M113.39,-689.14C108.23,-666.24 101.87,-637.96 97.14,-616.96"/>
<polygon fill="black" stroke="black" points="100.51,-615.99 94.9,-607 93.68,-617.53 100.51,-615.99"/>
</g>
<!-- node2 -->
<g id="node8" class="node">
<title>node2</title>
<ellipse fill="lightblue" stroke="black" cx="150.39" cy="-585.94" rx="21.43" ry="21.43"/>
<text text-anchor="middle" x="150.39" y="-580.94" font-family="Times,serif" font-size="20.00">1</text>
</g>
<!-- node3&#45;&gt;node2 -->
<g id="edge6" class="edge">
<title>node3&#45;&gt;node2</title>
<path fill="none" stroke="black" d="M130.26,-689.14C134.77,-666.24 140.34,-637.96 144.48,-616.96"/>
<polygon fill="black" stroke="black" points="147.94,-617.49 146.44,-607 141.07,-616.14 147.94,-617.49"/>
</g>
<!-- node8 -->
<g id="node10" class="node">
<title>node8</title>
<ellipse fill="lightblue" stroke="black" cx="277.39" cy="-894.82" rx="41.94" ry="41.94"/>
<text text-anchor="middle" x="277.39" y="-889.82" font-family="Times,serif" font-size="20.00">VAR</text>
</g>
<!-- node33&#45;&gt;node8 -->
<g id="edge7" class="edge">
<title>node33&#45;&gt;node8</title>
<path fill="none" stroke="black" d="M277.39,-995.8C277.39,-981.25 277.39,-963.39 277.39,-946.81"/>
<polygon fill="black" stroke="black" points="280.89,-946.7 277.39,-936.7 273.89,-946.7 280.89,-946.7"/>
</g>
<!-- node32 -->
<g id="node13" class="node">
<title>node32</title>
<ellipse fill="lightblue" stroke="black" cx="409.39" cy="-894.82" rx="31.23" ry="31.23"/>
<text text-anchor="middle" x="409.39" y="-889.82" font-family="Times,serif" font-size="20.00">ST</text>
</g>
<!-- node33&#45;&gt;node32 -->
<g id="edge33" class="edge">
<title>node33&#45;&gt;node32</title>
<path fill="none" stroke="black" d="M299.19,-1004.49C321.35,-982.64 355.82,-948.64 380.31,-924.5"/>
<polygon fill="black" stroke="black" points="382.9,-926.86 387.56,-917.35 377.98,-921.88 382.9,-926.86"/>
</g>
<!-- node6 -->
<g id="node11" class="node">
<title>node6</title>
<ellipse fill="lightblue" stroke="black" cx="224.39" cy="-730.13" rx="42.35" ry="42.35"/>
<text text-anchor="middle" x="224.39" y="-725.13" font-family="Times,serif" font-size="20.00">fuck</text>
</g>
<!-- node8&#45;&gt;node6 -->
<g id="edge8" class="edge">
<title>node8&#45;&gt;node6</title>
<path fill="none" stroke="black" d="M264.69,-854.85C257.4,-832.46 248.17,-804.13 240.38,-780.23"/>
<polygon fill="black" stroke="black" points="243.68,-779.05 237.26,-770.63 237.03,-781.22 243.68,-779.05"/>
</g>
<!-- node7 -->
<g id="node12" class="node">
<title>node7</title>
<ellipse fill="lightblue" stroke="black" cx="306.39" cy="-730.13" rx="21.43" ry="21.43"/>
<text text-anchor="middle" x="306.39" y="-725.13" font-family="Times,serif" font-size="20.00">n</text>
</g>
<!-- node8&#45;&gt;node7 -->
<g id="edge9" class="edge">
<title>node8&#45;&gt;node7</title>
<path fill="none" stroke="black" d="M284.56,-853.61C289.66,-824.99 296.4,-787.16 301.04,-761.16"/>
<polygon fill="black" stroke="black" points="304.51,-761.6 302.82,-751.14 297.62,-760.37 304.51,-761.6"/>
</g>
<!-- node24 -->
<g id="node14" class="node">
<title>node24</title>
<ellipse fill="lightblue" stroke="black" cx="409.39" cy="-730.13" rx="63.78" ry="63.78"/>
<text text-anchor="middle" x="409.39" y="-725.13" font-family="Times,serif" font-size="20.00">WHILE</text>
</g>
<!-- node32&#45;&gt;node24 -->
<g id="edge10" class="edge">
<title>node32&#45;&gt;node24</title>
<path fill="none" stroke="black" d="M409.39,-863.6C409.39,-846.78 409.39,-825.06 409.39,-804.08"/>
<polygon fill="black" stroke="black" points="412.89,-803.87 409.39,-793.87 405.89,-803.87 412.89,-803.87"/>
</g>
<!-- node31 -->
<g id="node30" class="node">
<title>node31</title>
<ellipse fill="lightblue" stroke="black" cx="528.39" cy="-730.13" rx="31.23" ry="31.23"/>
<text text-anchor="middle" x="528.39" y="-725.13" font-family="Times,serif" font-size="20.00">ST</text>
</g>
<!-- node32&#45;&gt;node31 -->
<g id="edge32" class="edge">
<title>node32&#45;&gt;node31</title>
<path fill="none" stroke="black" d="M427.46,-869.11C447.97,-841.08 481.5,-795.23 504.23,-764.15"/>
<polygon fill="black" stroke="black" points="507.26,-765.94 510.34,-755.8 501.61,-761.81 507.26,-765.94"/>
</g>
<!-- node11 -->
<g id="node15" class="node">
<title>node11</title>
<ellipse fill="lightblue" stroke="black" cx="260.39" cy="-585.94" rx="43.68" ry="43.68"/>
<text text-anchor="middle" x="260.39" y="-580.94" font-family="Times,serif" font-size="20.00">SUB</text>
</g>
<!-- node24&#45;&gt;node11 -->
<g id="edge11" class="edge">
<title>node24&#45;&gt;node11</title>
<path fill="none" stroke="black" d="M363.47,-685.31C342.84,-665.63 318.78,-642.66 299.09,-623.87"/>
<polygon fill="black" stroke="black" points="301.42,-621.26 291.77,-616.89 296.59,-626.33 301.42,-621.26"/>
</g>
<!-- node23 -->
<g id="node18" class="node">
<title>node23</title>
<ellipse fill="lightblue" stroke="black" cx="409.39" cy="-585.94" rx="31.23" ry="31.23"/>
<text text-anchor="middle" x="409.39" y="-580.94" font-family="Times,serif" font-size="20.00">ST</text>
</g>
<!-- node24&#45;&gt;node23 -->
<g id="edge25" class="edge">
<title>node24&#45;&gt;node23</title>
<path fill="none" stroke="black" d="M409.39,-666.35C409.39,-653.12 409.39,-639.49 409.39,-627.35"/>
<polygon fill="black" stroke="black" points="412.89,-627.1 409.39,-617.1 405.89,-627.1 412.89,-627.1"/>
</g>
<!-- node9 -->
<g id="node16" class="node">
<title>node9</title>
<ellipse fill="lightblue" stroke="black" cx="200.39" cy="-440.34" rx="21.43" ry="21.43"/>
<text text-anchor="middle" x="200.39" y="-435.34" font-family="Times,serif" font-size="20.00">n</text>
</g>
<!-- node11&#45;&gt;node9 -->
<g id="edge12" class="edge">
<title>node11&#45;&gt;node9</title>
<path fill="none" stroke="black" d="M243.83,-545.32C233.79,-521.28 221.2,-491.16 212.17,-469.54"/>
<polygon fill="black" stroke="black" points="215.37,-468.13 208.29,-460.25 208.92,-470.83 215.37,-468.13"/>
</g>
<!-- node10 -->
<g id="node17" class="node">
<title>node10</title>
<ellipse fill="lightblue" stroke="black" cx="260.39" cy="-440.34" rx="21.43" ry="21.43"/>
<text text-anchor="middle" x="260.39" y="-435.34" font-family="Times,serif" font-size="20.00">1</text>
</g>
<!-- node11&#45;&gt;node10 -->
<g id="edge13" class="edge">
<title>node11&#45;&gt;node10</title>
<path fill="none" stroke="black" d="M260.39,-541.86C260.39,-519.31 260.39,-492.23 260.39,-471.87"/>
<polygon fill="black" stroke="black" points="263.89,-471.6 260.39,-461.6 256.89,-471.6 263.89,-471.6"/>
</g>
<!-- node16 -->
<g id="node19" class="node">
<title>node16</title>
<ellipse fill="lightblue" stroke="black" cx="332.39" cy="-440.34" rx="33.47" ry="33.47"/>
<text text-anchor="middle" x="332.39" y="-435.34" font-family="Times,serif" font-size="20.00">EQ</text>
</g>
<!-- node23&#45;&gt;node16 -->
<g id="edge14" class="edge">
<title>node23&#45;&gt;node16</title>
<path fill="none" stroke="black" d="M395.09,-558.27C383.16,-536.02 366.01,-504.05 352.67,-479.16"/>
<polygon fill="black" stroke="black" points="355.75,-477.5 347.94,-470.34 349.58,-480.8 355.75,-477.5"/>
</g>
<!-- node22 -->
<g id="node24" class="node">
<title>node22</title>
<ellipse fill="lightblue" stroke="black" cx="414.39" cy="-440.34" rx="31.23" ry="31.23"/>
<text text-anchor="middle" x="414.39" y="-435.34" font-family="Times,serif" font-size="20.00">ST</text>
</g>
<!-- node23&#45;&gt;node22 -->
<g id="edge24" class="edge">
<title>node23&#45;&gt;node22</title>
<path fill="none" stroke="black" d="M410.44,-554.84C411.17,-533.73 412.16,-505.26 412.97,-482.11"/>
<polygon fill="black" stroke="black" points="416.47,-482.01 413.32,-471.9 409.48,-481.77 416.47,-482.01"/>
</g>
<!-- node12 -->
<g id="node20" class="node">
<title>node12</title>
<ellipse fill="lightblue" stroke="black" cx="249.39" cy="-295.45" rx="21.43" ry="21.43"/>
<text text-anchor="middle" x="249.39" y="-290.45" font-family="Times,serif" font-size="20.00">n</text>
</g>
<!-- node16&#45;&gt;node12 -->
<g id="edge15" class="edge">
<title>node16&#45;&gt;node12</title>
<path fill="none" stroke="black" d="M315.99,-411.11C301.16,-385.58 279.48,-348.25 264.92,-323.19"/>
<polygon fill="black" stroke="black" points="267.77,-321.13 259.72,-314.24 261.72,-324.64 267.77,-321.13"/>
</g>
<!-- node15 -->
<g id="node21" class="node">
<title>node15</title>
<ellipse fill="lightblue" stroke="black" cx="332.39" cy="-295.45" rx="43.68" ry="43.68"/>
<text text-anchor="middle" x="332.39" y="-290.45" font-family="Times,serif" font-size="20.00">SUB</text>
</g>
<!-- node16&#45;&gt;node15 -->
<g id="edge18" class="edge">
<title>node16&#45;&gt;node15</title>
<path fill="none" stroke="black" d="M332.39,-406.92C332.39,-389.95 332.39,-368.76 332.39,-349.49"/>
<polygon fill="black" stroke="black" points="335.89,-349.31 332.39,-339.31 328.89,-349.31 335.89,-349.31"/>
</g>
<!-- node13 -->
<g id="node22" class="node">
<title>node13</title>
<ellipse fill="lightblue" stroke="black" cx="276.39" cy="-168.23" rx="21.43" ry="21.43"/>
<text text-anchor="middle" x="276.39" y="-163.23" font-family="Times,serif" font-size="20.00">n</text>
</g>
<!-- node15&#45;&gt;node13 -->
<g id="edge16" class="edge">
<title>node15&#45;&gt;node13</title>
<path fill="none" stroke="black" d="M314.82,-255.17C306.46,-236.46 296.64,-214.51 289.02,-197.48"/>
<polygon fill="black" stroke="black" points="292.1,-195.78 284.82,-188.08 285.71,-198.64 292.1,-195.78"/>
</g>
<!-- node14 -->
<g id="node23" class="node">
<title>node14</title>
<ellipse fill="lightblue" stroke="black" cx="336.39" cy="-168.23" rx="21.43" ry="21.43"/>
<text text-anchor="middle" x="336.39" y="-163.23" font-family="Times,serif" font-size="20.00">1</text>
</g>
<!-- node15&#45;&gt;node14 -->
<g id="edge17" class="edge">
<title>node15&#45;&gt;node14</title>
<path fill="none" stroke="black" d="M333.76,-251.35C334.31,-234.34 334.92,-215.19 335.42,-199.66"/>
<polygon fill="black" stroke="black" points="338.92,-199.67 335.74,-189.56 331.92,-199.45 338.92,-199.67"/>
</g>
<!-- node21 -->
<g id="node25" class="node">
<title>node21</title>
<ellipse fill="lightblue" stroke="black" cx="427.39" cy="-295.45" rx="33.47" ry="33.47"/>
<text text-anchor="middle" x="427.39" y="-290.45" font-family="Times,serif" font-size="20.00">EQ</text>
</g>
<!-- node22&#45;&gt;node21 -->
<g id="edge19" class="edge">
<title>node22&#45;&gt;node21</title>
<path fill="none" stroke="black" d="M417.15,-409.04C419.01,-388.58 421.49,-361.29 423.54,-338.7"/>
<polygon fill="black" stroke="black" points="427.03,-338.97 424.45,-328.69 420.06,-338.33 427.03,-338.97"/>
</g>
<!-- node17 -->
<g id="node26" class="node">
<title>node17</title>
<ellipse fill="lightblue" stroke="black" cx="424.39" cy="-168.23" rx="42.35" ry="42.35"/>
<text text-anchor="middle" x="424.39" y="-163.23" font-family="Times,serif" font-size="20.00">fuck</text>
</g>
<!-- node21&#45;&gt;node17 -->
<g id="edge20" class="edge">
<title>node21&#45;&gt;node17</title>
<path fill="none" stroke="black" d="M426.62,-262.2C426.31,-249.6 425.96,-234.85 425.63,-220.85"/>
<polygon fill="black" stroke="black" points="429.12,-220.74 425.38,-210.83 422.13,-220.91 429.12,-220.74"/>
</g>
<!-- node20 -->
<g id="node27" class="node">
<title>node20</title>
<ellipse fill="lightblue" stroke="black" cx="532.39" cy="-168.23" rx="47.25" ry="47.25"/>
<text text-anchor="middle" x="532.39" y="-163.23" font-family="Times,serif" font-size="20.00">MUL</text>
</g>
<!-- node21&#45;&gt;node20 -->
<g id="edge23" class="edge">
<title>node21&#45;&gt;node20</title>
<path fill="none" stroke="black" d="M448.38,-269.41C461.89,-253.3 479.82,-231.92 495.65,-213.05"/>
<polygon fill="black" stroke="black" points="498.54,-215.05 502.28,-205.14 493.17,-210.55 498.54,-215.05"/>
</g>
<!-- node18 -->
<g id="node28" class="node">
<title>node18</title>
<ellipse fill="lightblue" stroke="black" cx="491.39" cy="-42.43" rx="42.35" ry="42.35"/>
<text text-anchor="middle" x="491.39" y="-37.43" font-family="Times,serif" font-size="20.00">fuck</text>
</g>
<!-- node20&#45;&gt;node18 -->
<g id="edge21" class="edge">
<title>node20&#45;&gt;node18</title>
<path fill="none" stroke="black" d="M517.7,-122.88C514.46,-113.1 511.01,-102.68 507.71,-92.71"/>
<polygon fill="black" stroke="black" points="510.94,-91.33 504.47,-82.94 504.3,-93.53 510.94,-91.33"/>
</g>
<!-- node19 -->
<g id="node29" class="node">
<title>node19</title>
<ellipse fill="lightblue" stroke="black" cx="573.39" cy="-42.43" rx="21.43" ry="21.43"/>
<text text-anchor="middle" x="573.39" y="-37.43" font-family="Times,serif" font-size="20.00">n</text>
</g>
<!-- node20&#45;&gt;node19 -->
<g id="edge22" class="edge">
<title>node20&#45;&gt;node19</title>
<path fill="none" stroke="black" d="M547.07,-122.88C552.6,-106.2 558.74,-87.65 563.7,-72.68"/>
<polygon fill="black" stroke="black" points="567.1,-73.55 566.92,-62.95 560.46,-71.35 567.1,-73.55"/>
</g>
<!-- node27 -->
<g id="node31" class="node">
<title>node27</title>
<ellipse fill="lightblue" stroke="black" cx="528.39" cy="-585.94" rx="44.6" ry="44.6"/>
<text text-anchor="middle" x="528.39" y="-580.94" font-family="Times,serif" font-size="20.00">OUT</text>
</g>
<!-- node31&#45;&gt;node27 -->
<g id="edge26" class="edge">
<title>node31&#45;&gt;node27</title>
<path fill="none" stroke="black" d="M528.39,-698.97C528.39,-682.04 528.39,-660.4 528.39,-640.66"/>
<polygon fill="black" stroke="black" points="531.89,-640.54 528.39,-630.54 524.89,-640.54 531.89,-640.54"/>
</g>
<!-- node30 -->
<g id="node34" class="node">
<title>node30</title>
<ellipse fill="lightblue" stroke="black" cx="637.39" cy="-585.94" rx="31.23" ry="31.23"/>
<text text-anchor="middle" x="637.39" y="-580.94" font-family="Times,serif" font-size="20.00">ST</text>
</g>
<!-- node31&#45;&gt;node30 -->
<g id="edge31" class="edge">
<title>node31&#45;&gt;node30</title>
<path fill="none" stroke="black" d="M546.88,-705.01C564.97,-681.42 592.63,-645.33 612.61,-619.26"/>
<polygon fill="black" stroke="black" points="615.5,-621.25 618.81,-611.18 609.95,-616.99 615.5,-621.25"/>
</g>
<!-- node26 -->
<g id="node32" class="node">
<title>node26</title>
<ellipse fill="lightblue" stroke="black" cx="528.39" cy="-440.34" rx="65.11" ry="65.11"/>
<text text-anchor="middle" x="528.39" y="-435.34" font-family="Times,serif" font-size="20.00">PARAM</text>
</g>
<!-- node27&#45;&gt;node26 -->
<g id="edge27" class="edge">
<title>node27&#45;&gt;node26</title>
<path fill="none" stroke="black" d="M528.39,-541.08C528.39,-533.01 528.39,-524.39 528.39,-515.72"/>
<polygon fill="black" stroke="black" points="531.89,-515.55 528.39,-505.55 524.89,-515.55 531.89,-515.55"/>
</g>
<!-- node25 -->
<g id="node33" class="node">
<title>node25</title>
<ellipse fill="lightblue" stroke="black" cx="528.39" cy="-295.45" rx="42.35" ry="42.35"/>
<text text-anchor="middle" x="528.39" y="-290.45" font-family="Times,serif" font-size="20.00">fuck</text>
</g>
<!-- node26&#45;&gt;node25 -->
<g id="edge28" class="edge">
<title>node26&#45;&gt;node25</title>
<path fill="none" stroke="black" d="M528.39,-375C528.39,-365.95 528.39,-356.74 528.39,-347.97"/>
<polygon fill="black" stroke="black" points="531.89,-347.91 528.39,-337.91 524.89,-347.91 531.89,-347.91"/>
</g>
<!-- node29 -->
<g id="node35" class="node">
<title>node29</title>
<ellipse fill="lightblue" stroke="black" cx="653.39" cy="-440.34" rx="41.94" ry="41.94"/>
<text text-anchor="middle" x="653.39" y="-435.34" font-family="Times,serif" font-size="20.00">RET</text>
</g>
<!-- node30&#45;&gt;node29 -->
<g id="edge29" class="edge">
<title>node30&#45;&gt;node29</title>
<path fill="none" stroke="black" d="M640.74,-554.84C642.77,-536.67 645.4,-513.06 647.73,-492.08"/>
<polygon fill="black" stroke="black" points="651.23,-492.35 648.85,-482.03 644.27,-491.58 651.23,-492.35"/>
</g>
<!-- node28 -->
<g id="node36" class="node">
<title>node28</title>
<ellipse fill="lightblue" stroke="black" cx="653.39" cy="-295.45" rx="21.43" ry="21.43"/>
<text text-anchor="middle" x="653.39" y="-290.45" font-family="Times,serif" font-size="20.00">1</text>
</g>
<!-- node29&#45;&gt;node28 -->
<g id="edge30" class="edge">
<title>node29&#45;&gt;node28</title>
<path fill="none" stroke="black" d="M653.39,-398.39C653.39,-375.64 653.39,-347.8 653.39,-326.97"/>
<polygon fill="black" stroke="black" points="656.89,-326.78 653.39,-316.78 649.89,-326.78 656.89,-326.78"/>
</g>
</g>
</svg>
