<?xml version="1.0" encoding="UTF-8" standalone="no"?>
<!DOCTYPE svg PUBLIC "-//W3C//DTD SVG 1.1//EN"
 "http://www.w3.org/Graphics/SVG/1.1/DTD/svg11.dtd">
<!-- Generated by graphviz version 2.43.0 (0)
 -->
<!-- Title: G Pages: 1 -->
<svg width="193pt" height="788pt"
 viewBox="0.00 0.00 193.05 787.63" xmlns="http://www.w3.org/2000/svg" xmlns:xlink="http://www.w3.org/1999/xlink">
<g id="graph0" class="graph" transform="scale(1 1) rotate(0) translate(4 783.63)">
<title>G</title>
<polygon fill="white" stroke="transparent" points="-4,4 -4,-783.63 189.05,-783.63 189.05,4 -4,4"/>
<!-- node54 -->
<g id="node1" class="node">
<title>node54</title>
<ellipse fill="lightblue" stroke="black" cx="66.21" cy="-737.91" rx="41.94" ry="41.94"/>
<text text-anchor="middle" x="66.21" y="-732.91" font-family="Times,serif" font-size="20.00">RET</text>
</g>
<!-- node53 -->
<g id="node2" class="node">
<title>node53</title>
<ellipse fill="lightblue" stroke="black" cx="66.21" cy="-612.81" rx="47.25" ry="47.25"/>
<text text-anchor="middle" x="66.21" y="-607.81" font-family="Times,serif" font-size="20.00">MUL</text>
</g>
<!-- node54&#45;&gt;node53 -->
<g id="edge1" class="edge">
<title>node54&#45;&gt;node53</title>
<path fill="none" stroke="black" d="M66.21,-695.92C66.21,-687.86 66.21,-679.28 66.21,-670.81"/>
<polygon fill="black" stroke="black" points="69.71,-670.58 66.21,-660.58 62.71,-670.58 69.71,-670.58"/>
</g>
<!-- node47 -->
<g id="node3" class="node">
<title>node47</title>
<ellipse fill="lightblue" stroke="black" cx="21.21" cy="-477.82" rx="21.43" ry="21.43"/>
<text text-anchor="middle" x="21.21" y="-472.82" font-family="Times,serif" font-size="20.00">n</text>
</g>
<!-- node53&#45;&gt;node47 -->
<g id="edge2" class="edge">
<title>node53&#45;&gt;node47</title>
<path fill="none" stroke="black" d="M51.23,-567.53C44.56,-547.82 36.9,-525.17 30.98,-507.69"/>
<polygon fill="black" stroke="black" points="34.24,-506.41 27.72,-498.06 27.61,-508.65 34.24,-506.41"/>
</g>
<!-- node52 -->
<g id="node4" class="node">
<title>node52</title>
<ellipse fill="lightblue" stroke="black" cx="112.21" cy="-477.82" rx="51.74" ry="51.74"/>
<text text-anchor="middle" x="112.21" y="-472.82" font-family="Times,serif" font-size="20.00">CALL</text>
</g>
<!-- node53&#45;&gt;node52 -->
<g id="edge6" class="edge">
<title>node53&#45;&gt;node52</title>
<path fill="none" stroke="black" d="M81.4,-567.9C84.89,-557.82 88.65,-546.95 92.3,-536.39"/>
<polygon fill="black" stroke="black" points="95.65,-537.41 95.61,-526.81 89.04,-535.12 95.65,-537.41"/>
</g>
<!-- node51 -->
<g id="node5" class="node">
<title>node51</title>
<ellipse fill="lightblue" stroke="black" cx="112.21" cy="-317.37" rx="72.66" ry="72.66"/>
<text text-anchor="middle" x="112.21" y="-312.37" font-family="Times,serif" font-size="20.00">rec_fuck</text>
</g>
<!-- node52&#45;&gt;node51 -->
<g id="edge3" class="edge">
<title>node52&#45;&gt;node51</title>
<path fill="none" stroke="black" d="M112.21,-425.81C112.21,-417.68 112.21,-409.1 112.21,-400.47"/>
<polygon fill="black" stroke="black" points="115.71,-400.34 112.21,-390.34 108.71,-400.34 115.71,-400.34"/>
</g>
<!-- node50 -->
<g id="node6" class="node">
<title>node50</title>
<ellipse fill="lightblue" stroke="black" cx="112.21" cy="-143.48" rx="65.11" ry="65.11"/>
<text text-anchor="middle" x="112.21" y="-138.48" font-family="Times,serif" font-size="20.00">PARAM</text>
</g>
<!-- node51&#45;&gt;node50 -->
<g id="edge4" class="edge">
<title>node51&#45;&gt;node50</title>
<path fill="none" stroke="black" d="M112.21,-244.47C112.21,-236.03 112.21,-227.41 112.21,-218.94"/>
<polygon fill="black" stroke="black" points="115.71,-218.7 112.21,-208.7 108.71,-218.7 115.71,-218.7"/>
</g>
<!-- node49 -->
<g id="node7" class="node">
<title>node49</title>
<ellipse fill="lightblue" stroke="black" cx="112.21" cy="-21.21" rx="21.43" ry="21.43"/>
<text text-anchor="middle" x="112.21" y="-16.21" font-family="Times,serif" font-size="20.00">n</text>
</g>
<!-- node50&#45;&gt;node49 -->
<g id="edge5" class="edge">
<title>node50&#45;&gt;node49</title>
<path fill="none" stroke="black" d="M112.21,-78.12C112.21,-69.21 112.21,-60.43 112.21,-52.56"/>
<polygon fill="black" stroke="black" points="115.71,-52.46 112.21,-42.46 108.71,-52.46 115.71,-52.46"/>
</g>
</g>
</svg>
