<?xml version="1.0" encoding="UTF-8" standalone="no"?>
<!DOCTYPE svg PUBLIC "-//W3C//DTD SVG 1.1//EN"
 "http://www.w3.org/Graphics/SVG/1.1/DTD/svg11.dtd">
<!-- Generated by graphviz version 2.43.0 (0)
 -->
<!-- Title: G Pages: 1 -->
<svg width="395pt" height="1115pt"
 viewBox="0.00 0.00 395.05 1114.83" xmlns="http://www.w3.org/2000/svg" xmlns:xlink="http://www.w3.org/1999/xlink">
<g id="graph0" class="graph" transform="scale(1 1) rotate(0) translate(4 1110.83)">
<title>G</title>
<polygon fill="white" stroke="transparent" points="-4,4 -4,-1110.83 391.05,-1110.83 391.05,4 -4,4"/>
<!-- node57 -->
<g id="node1" class="node">
<title>node57</title>
<ellipse fill="lightblue" stroke="black" cx="126.21" cy="-1079.25" rx="27.65" ry="27.65"/>
<text text-anchor="middle" x="126.21" y="-1074.25" font-family="Times,serif" font-size="20.00">IF</text>
</g>
<!-- node43 -->
<g id="node2" class="node">
<title>node43</title>
<ellipse fill="lightblue" stroke="black" cx="70.21" cy="-964.76" rx="43.68" ry="43.68"/>
<text text-anchor="middle" x="70.21" y="-959.76" font-family="Times,serif" font-size="20.00">SUB</text>
</g>
<!-- node57&#45;&gt;node43 -->
<g id="edge1" class="edge">
<title>node57&#45;&gt;node43</title>
<path fill="none" stroke="black" d="M114.2,-1054.12C108.29,-1042.26 100.96,-1027.53 93.99,-1013.52"/>
<polygon fill="black" stroke="black" points="97.07,-1011.85 89.48,-1004.46 90.8,-1014.97 97.07,-1011.85"/>
</g>
<!-- node56 -->
<g id="node5" class="node">
<title>node56</title>
<ellipse fill="lightblue" stroke="black" cx="183.21" cy="-964.76" rx="50.82" ry="50.82"/>
<text text-anchor="middle" x="183.21" y="-959.76" font-family="Times,serif" font-size="20.00">ELSE</text>
</g>
<!-- node57&#45;&gt;node56 -->
<g id="edge15" class="edge">
<title>node57&#45;&gt;node56</title>
<path fill="none" stroke="black" d="M138.3,-1054.4C143.46,-1044.22 149.7,-1031.9 155.87,-1019.72"/>
<polygon fill="black" stroke="black" points="159.16,-1020.98 160.56,-1010.47 152.92,-1017.81 159.16,-1020.98"/>
</g>
<!-- node41 -->
<g id="node3" class="node">
<title>node41</title>
<ellipse fill="lightblue" stroke="black" cx="21.21" cy="-846.74" rx="21.43" ry="21.43"/>
<text text-anchor="middle" x="21.21" y="-841.74" font-family="Times,serif" font-size="20.00">n</text>
</g>
<!-- node43&#45;&gt;node41 -->
<g id="edge2" class="edge">
<title>node43&#45;&gt;node41</title>
<path fill="none" stroke="black" d="M53.49,-924.16C46.82,-908.37 39.29,-890.55 33.19,-876.1"/>
<polygon fill="black" stroke="black" points="36.33,-874.54 29.22,-866.69 29.88,-877.27 36.33,-874.54"/>
</g>
<!-- node42 -->
<g id="node4" class="node">
<title>node42</title>
<ellipse fill="lightblue" stroke="black" cx="81.21" cy="-846.74" rx="21.43" ry="21.43"/>
<text text-anchor="middle" x="81.21" y="-841.74" font-family="Times,serif" font-size="20.00">1</text>
</g>
<!-- node43&#45;&gt;node42 -->
<g id="edge3" class="edge">
<title>node43&#45;&gt;node42</title>
<path fill="none" stroke="black" d="M74.28,-920.89C75.62,-906.77 77.08,-891.36 78.31,-878.34"/>
<polygon fill="black" stroke="black" points="81.83,-878.34 79.29,-868.05 74.86,-877.68 81.83,-878.34"/>
</g>
<!-- node46 -->
<g id="node6" class="node">
<title>node46</title>
<ellipse fill="lightblue" stroke="black" cx="172.21" cy="-846.74" rx="31.23" ry="31.23"/>
<text text-anchor="middle" x="172.21" y="-841.74" font-family="Times,serif" font-size="20.00">ST</text>
</g>
<!-- node56&#45;&gt;node46 -->
<g id="edge4" class="edge">
<title>node56&#45;&gt;node46</title>
<path fill="none" stroke="black" d="M178.48,-913.89C177.67,-905.25 176.82,-896.37 176.03,-888.02"/>
<polygon fill="black" stroke="black" points="179.49,-887.43 175.06,-877.81 172.52,-888.09 179.49,-887.43"/>
</g>
<!-- node55 -->
<g id="node9" class="node">
<title>node55</title>
<ellipse fill="lightblue" stroke="black" cx="262.21" cy="-846.74" rx="31.23" ry="31.23"/>
<text text-anchor="middle" x="262.21" y="-841.74" font-family="Times,serif" font-size="20.00">ST</text>
</g>
<!-- node56&#45;&gt;node55 -->
<g id="edge14" class="edge">
<title>node56&#45;&gt;node55</title>
<path fill="none" stroke="black" d="M211.51,-922.2C220.65,-908.78 230.66,-894.09 239.35,-881.32"/>
<polygon fill="black" stroke="black" points="242.4,-883.06 245.13,-872.83 236.61,-879.12 242.4,-883.06"/>
</g>
<!-- node45 -->
<g id="node7" class="node">
<title>node45</title>
<ellipse fill="lightblue" stroke="black" cx="167.21" cy="-737.91" rx="41.94" ry="41.94"/>
<text text-anchor="middle" x="167.21" y="-732.91" font-family="Times,serif" font-size="20.00">RET</text>
</g>
<!-- node46&#45;&gt;node45 -->
<g id="edge5" class="edge">
<title>node46&#45;&gt;node45</title>
<path fill="none" stroke="black" d="M170.79,-815.41C170.42,-807.43 170.01,-798.6 169.6,-789.85"/>
<polygon fill="black" stroke="black" points="173.09,-789.51 169.12,-779.69 166.09,-789.84 173.09,-789.51"/>
</g>
<!-- node44 -->
<g id="node8" class="node">
<title>node44</title>
<ellipse fill="lightblue" stroke="black" cx="167.21" cy="-612.81" rx="21.43" ry="21.43"/>
<text text-anchor="middle" x="167.21" y="-607.81" font-family="Times,serif" font-size="20.00">1</text>
</g>
<!-- node45&#45;&gt;node44 -->
<g id="edge6" class="edge">
<title>node45&#45;&gt;node44</title>
<path fill="none" stroke="black" d="M167.21,-695.92C167.21,-679.1 167.21,-659.96 167.21,-644.4"/>
<polygon fill="black" stroke="black" points="170.71,-644.27 167.21,-634.27 163.71,-644.27 170.71,-644.27"/>
</g>
<!-- node54 -->
<g id="node10" class="node">
<title>node54</title>
<ellipse fill="lightblue" stroke="black" cx="268.21" cy="-737.91" rx="41.94" ry="41.94"/>
<text text-anchor="middle" x="268.21" y="-732.91" font-family="Times,serif" font-size="20.00">RET</text>
</g>
<!-- node55&#45;&gt;node54 -->
<g id="edge7" class="edge">
<title>node55&#45;&gt;node54</title>
<path fill="none" stroke="black" d="M263.92,-815.41C264.36,-807.43 264.86,-798.6 265.35,-789.85"/>
<polygon fill="black" stroke="black" points="268.86,-789.87 265.92,-779.69 261.87,-789.47 268.86,-789.87"/>
</g>
<!-- node53 -->
<g id="node11" class="node">
<title>node53</title>
<ellipse fill="lightblue" stroke="black" cx="268.21" cy="-612.81" rx="47.25" ry="47.25"/>
<text text-anchor="middle" x="268.21" y="-607.81" font-family="Times,serif" font-size="20.00">MUL</text>
</g>
<!-- node54&#45;&gt;node53 -->
<g id="edge8" class="edge">
<title>node54&#45;&gt;node53</title>
<path fill="none" stroke="black" d="M268.21,-695.92C268.21,-687.86 268.21,-679.28 268.21,-670.81"/>
<polygon fill="black" stroke="black" points="271.71,-670.58 268.21,-660.58 264.71,-670.58 271.71,-670.58"/>
</g>
<!-- node47 -->
<g id="node12" class="node">
<title>node47</title>
<ellipse fill="lightblue" stroke="black" cx="223.21" cy="-477.82" rx="21.43" ry="21.43"/>
<text text-anchor="middle" x="223.21" y="-472.82" font-family="Times,serif" font-size="20.00">n</text>
</g>
<!-- node53&#45;&gt;node47 -->
<g id="edge9" class="edge">
<title>node53&#45;&gt;node47</title>
<path fill="none" stroke="black" d="M253.23,-567.53C246.56,-547.82 238.9,-525.17 232.98,-507.69"/>
<polygon fill="black" stroke="black" points="236.24,-506.41 229.72,-498.06 229.61,-508.65 236.24,-506.41"/>
</g>
<!-- node52 -->
<g id="node13" class="node">
<title>node52</title>
<ellipse fill="lightblue" stroke="black" cx="314.21" cy="-477.82" rx="51.74" ry="51.74"/>
<text text-anchor="middle" x="314.21" y="-472.82" font-family="Times,serif" font-size="20.00">CALL</text>
</g>
<!-- node53&#45;&gt;node52 -->
<g id="edge13" class="edge">
<title>node53&#45;&gt;node52</title>
<path fill="none" stroke="black" d="M283.4,-567.9C286.89,-557.82 290.65,-546.95 294.3,-536.39"/>
<polygon fill="black" stroke="black" points="297.65,-537.41 297.61,-526.81 291.04,-535.12 297.65,-537.41"/>
</g>
<!-- node51 -->
<g id="node14" class="node">
<title>node51</title>
<ellipse fill="lightblue" stroke="black" cx="314.21" cy="-317.37" rx="72.66" ry="72.66"/>
<text text-anchor="middle" x="314.21" y="-312.37" font-family="Times,serif" font-size="20.00">rec_fuck</text>
</g>
<!-- node52&#45;&gt;node51 -->
<g id="edge10" class="edge">
<title>node52&#45;&gt;node51</title>
<path fill="none" stroke="black" d="M314.21,-425.81C314.21,-417.68 314.21,-409.1 314.21,-400.47"/>
<polygon fill="black" stroke="black" points="317.71,-400.34 314.21,-390.34 310.71,-400.34 317.71,-400.34"/>
</g>
<!-- node50 -->
<g id="node15" class="node">
<title>node50</title>
<ellipse fill="lightblue" stroke="black" cx="314.21" cy="-143.48" rx="65.11" ry="65.11"/>
<text text-anchor="middle" x="314.21" y="-138.48" font-family="Times,serif" font-size="20.00">PARAM</text>
</g>
<!-- node51&#45;&gt;node50 -->
<g id="edge11" class="edge">
<title>node51&#45;&gt;node50</title>
<path fill="none" stroke="black" d="M314.21,-244.47C314.21,-236.03 314.21,-227.41 314.21,-218.94"/>
<polygon fill="black" stroke="black" points="317.71,-218.7 314.21,-208.7 310.71,-218.7 317.71,-218.7"/>
</g>
<!-- node49 -->
<g id="node16" class="node">
<title>node49</title>
<ellipse fill="lightblue" stroke="black" cx="314.21" cy="-21.21" rx="21.43" ry="21.43"/>
<text text-anchor="middle" x="314.21" y="-16.21" font-family="Times,serif" font-size="20.00">n</text>
</g>
<!-- node50&#45;&gt;node49 -->
<g id="edge12" class="edge">
<title>node50&#45;&gt;node49</title>
<path fill="none" stroke="black" d="M314.21,-78.12C314.21,-69.21 314.21,-60.43 314.21,-52.56"/>
<polygon fill="black" stroke="black" points="317.71,-52.46 314.21,-42.46 310.71,-52.46 317.71,-52.46"/>
</g>
</g>
</svg>
