<?xml version="1.0" encoding="UTF-8" standalone="no"?>
<!DOCTYPE svg PUBLIC "-//W3C//DTD SVG 1.1//EN"
 "http://www.w3.org/Graphics/SVG/1.1/DTD/svg11.dtd">
<!-- Generated by graphviz version 2.43.0 (0)
 -->
<!-- Title: G Pages: 1 -->
<svg width="700pt" height="1877pt"
 viewBox="0.00 0.00 699.89 1877.49" xmlns="http://www.w3.org/2000/svg" xmlns:xlink="http://www.w3.org/1999/xlink">
<g id="graph0" class="graph" transform="scale(1 1) rotate(0) translate(4 1873.49)">
<title>G</title>
<polygon fill="white" stroke="transparent" points="-4,4 -4,-1873.49 695.89,-1873.49 695.89,4 -4,4"/>
<!-- node44 -->
<g id="node1" class="node">
<title>node44</title>
<ellipse fill="lightblue" stroke="black" cx="233.05" cy="-1812.92" rx="56.64" ry="56.64"/>
<text text-anchor="middle" x="233.05" y="-1807.92" font-family="Times,serif" font-size="20.00">FUNC</text>
</g>
<!-- node43 -->
<g id="node2" class="node">
<title>node43</title>
<ellipse fill="lightblue" stroke="black" cx="172.05" cy="-1647.52" rx="72.66" ry="72.66"/>
<text text-anchor="middle" x="172.05" y="-1642.52" font-family="Times,serif" font-size="20.00">rec_fuck</text>
</g>
<!-- node44&#45;&gt;node43 -->
<g id="edge1" class="edge">
<title>node44&#45;&gt;node43</title>
<path fill="none" stroke="black" d="M213.59,-1759.77C209.53,-1748.89 205.17,-1737.22 200.85,-1725.66"/>
<polygon fill="black" stroke="black" points="204.02,-1724.14 197.25,-1716 197.46,-1726.59 204.02,-1724.14"/>
</g>
<!-- node41 -->
<g id="node7" class="node">
<title>node41</title>
<ellipse fill="lightblue" stroke="black" cx="294.05" cy="-1647.52" rx="31.23" ry="31.23"/>
<text text-anchor="middle" x="294.05" y="-1642.52" font-family="Times,serif" font-size="20.00">ST</text>
</g>
<!-- node44&#45;&gt;node41 -->
<g id="edge34" class="edge">
<title>node44&#45;&gt;node41</title>
<path fill="none" stroke="black" d="M252.52,-1759.77C261.41,-1735.95 271.75,-1708.27 279.88,-1686.48"/>
<polygon fill="black" stroke="black" points="283.23,-1687.51 283.45,-1676.91 276.68,-1685.06 283.23,-1687.51"/>
</g>
<!-- node11 -->
<g id="node3" class="node">
<title>node11</title>
<ellipse fill="lightblue" stroke="black" cx="65.05" cy="-1473.63" rx="65.11" ry="65.11"/>
<text text-anchor="middle" x="65.05" y="-1468.63" font-family="Times,serif" font-size="20.00">PARAM</text>
</g>
<!-- node43&#45;&gt;node11 -->
<g id="edge2" class="edge">
<title>node43&#45;&gt;node11</title>
<path fill="none" stroke="black" d="M133.73,-1584.95C124.25,-1569.73 114.09,-1553.4 104.56,-1538.09"/>
<polygon fill="black" stroke="black" points="107.29,-1535.85 99.03,-1529.21 101.34,-1539.55 107.29,-1535.85"/>
</g>
<!-- node42 -->
<g id="node6" class="node">
<title>node42</title>
<ellipse fill="lightblue" stroke="black" cx="195.05" cy="-1473.63" rx="46.84" ry="46.84"/>
<text text-anchor="middle" x="195.05" y="-1468.63" font-family="Times,serif" font-size="20.00">Type</text>
</g>
<!-- node43&#45;&gt;node42 -->
<g id="edge5" class="edge">
<title>node43&#45;&gt;node42</title>
<path fill="none" stroke="black" d="M181.61,-1575.11C183.61,-1560.12 185.7,-1544.52 187.62,-1530.21"/>
<polygon fill="black" stroke="black" points="191.12,-1530.42 188.98,-1520.04 184.18,-1529.49 191.12,-1530.42"/>
</g>
<!-- node10 -->
<g id="node4" class="node">
<title>node10</title>
<ellipse fill="lightblue" stroke="black" cx="65.05" cy="-1318.13" rx="41.94" ry="41.94"/>
<text text-anchor="middle" x="65.05" y="-1313.13" font-family="Times,serif" font-size="20.00">VAR</text>
</g>
<!-- node11&#45;&gt;node10 -->
<g id="edge3" class="edge">
<title>node11&#45;&gt;node10</title>
<path fill="none" stroke="black" d="M65.05,-1408.42C65.05,-1395.59 65.05,-1382.27 65.05,-1369.96"/>
<polygon fill="black" stroke="black" points="68.55,-1369.89 65.05,-1359.89 61.55,-1369.89 68.55,-1369.89"/>
</g>
<!-- node9 -->
<g id="node5" class="node">
<title>node9</title>
<ellipse fill="lightblue" stroke="black" cx="65.05" cy="-1196.57" rx="21.43" ry="21.43"/>
<text text-anchor="middle" x="65.05" y="-1191.57" font-family="Times,serif" font-size="20.00">n</text>
</g>
<!-- node10&#45;&gt;node9 -->
<g id="edge4" class="edge">
<title>node10&#45;&gt;node9</title>
<path fill="none" stroke="black" d="M65.05,-1276.32C65.05,-1260.53 65.05,-1242.78 65.05,-1228.13"/>
<polygon fill="black" stroke="black" points="68.55,-1228.08 65.05,-1218.08 61.55,-1228.08 68.55,-1228.08"/>
</g>
<!-- node40 -->
<g id="node8" class="node">
<title>node40</title>
<ellipse fill="lightblue" stroke="black" cx="294.05" cy="-1473.63" rx="27.65" ry="27.65"/>
<text text-anchor="middle" x="294.05" y="-1468.63" font-family="Times,serif" font-size="20.00">IF</text>
</g>
<!-- node41&#45;&gt;node40 -->
<g id="edge6" class="edge">
<title>node41&#45;&gt;node40</title>
<path fill="none" stroke="black" d="M294.05,-1616.18C294.05,-1586.92 294.05,-1542.57 294.05,-1511.33"/>
<polygon fill="black" stroke="black" points="297.55,-1511.28 294.05,-1501.28 290.55,-1511.28 297.55,-1511.28"/>
</g>
<!-- node14 -->
<g id="node9" class="node">
<title>node14</title>
<ellipse fill="lightblue" stroke="black" cx="182.05" cy="-1318.13" rx="54.39" ry="54.39"/>
<text text-anchor="middle" x="182.05" y="-1313.13" font-family="Times,serif" font-size="20.00">IS_EE</text>
</g>
<!-- node40&#45;&gt;node14 -->
<g id="edge7" class="edge">
<title>node40&#45;&gt;node14</title>
<path fill="none" stroke="black" d="M279.48,-1450.15C271.32,-1437.75 260.84,-1422.16 251.05,-1408.58 241.84,-1395.78 231.61,-1382.2 221.91,-1369.59"/>
<polygon fill="black" stroke="black" points="224.51,-1367.24 215.62,-1361.47 218.97,-1371.52 224.51,-1367.24"/>
</g>
<!-- node39 -->
<g id="node12" class="node">
<title>node39</title>
<ellipse fill="lightblue" stroke="black" cx="305.05" cy="-1318.13" rx="50.82" ry="50.82"/>
<text text-anchor="middle" x="305.05" y="-1313.13" font-family="Times,serif" font-size="20.00">ELSE</text>
</g>
<!-- node40&#45;&gt;node39 -->
<g id="edge33" class="edge">
<title>node40&#45;&gt;node39</title>
<path fill="none" stroke="black" d="M295.97,-1445.89C297.29,-1427.49 299.1,-1402.28 300.75,-1379.19"/>
<polygon fill="black" stroke="black" points="304.25,-1379.34 301.47,-1369.11 297.27,-1378.84 304.25,-1379.34"/>
</g>
<!-- node12 -->
<g id="node10" class="node">
<title>node12</title>
<ellipse fill="lightblue" stroke="black" cx="150.05" cy="-1196.57" rx="21.43" ry="21.43"/>
<text text-anchor="middle" x="150.05" y="-1191.57" font-family="Times,serif" font-size="20.00">n</text>
</g>
<!-- node14&#45;&gt;node12 -->
<g id="edge8" class="edge">
<title>node14&#45;&gt;node12</title>
<path fill="none" stroke="black" d="M168.2,-1265.38C164.71,-1252.34 161.08,-1238.77 157.99,-1227.23"/>
<polygon fill="black" stroke="black" points="161.3,-1226.03 155.33,-1217.28 154.53,-1227.84 161.3,-1226.03"/>
</g>
<!-- node13 -->
<g id="node11" class="node">
<title>node13</title>
<ellipse fill="lightblue" stroke="black" cx="210.05" cy="-1196.57" rx="21.43" ry="21.43"/>
<text text-anchor="middle" x="210.05" y="-1191.57" font-family="Times,serif" font-size="20.00">1</text>
</g>
<!-- node14&#45;&gt;node13 -->
<g id="edge9" class="edge">
<title>node14&#45;&gt;node13</title>
<path fill="none" stroke="black" d="M194.25,-1265.04C197.28,-1252.12 200.42,-1238.73 203.09,-1227.31"/>
<polygon fill="black" stroke="black" points="206.53,-1227.98 205.4,-1217.44 199.71,-1226.38 206.53,-1227.98"/>
</g>
<!-- node17 -->
<g id="node13" class="node">
<title>node17</title>
<ellipse fill="lightblue" stroke="black" cx="292.05" cy="-1196.57" rx="31.23" ry="31.23"/>
<text text-anchor="middle" x="292.05" y="-1191.57" font-family="Times,serif" font-size="20.00">ST</text>
</g>
<!-- node39&#45;&gt;node17 -->
<g id="edge10" class="edge">
<title>node39&#45;&gt;node17</title>
<path fill="none" stroke="black" d="M299.65,-1267.46C298.58,-1257.57 297.46,-1247.29 296.42,-1237.77"/>
<polygon fill="black" stroke="black" points="299.9,-1237.34 295.34,-1227.77 292.94,-1238.09 299.9,-1237.34"/>
</g>
<!-- node38 -->
<g id="node16" class="node">
<title>node38</title>
<ellipse fill="lightblue" stroke="black" cx="383.05" cy="-1196.57" rx="31.23" ry="31.23"/>
<text text-anchor="middle" x="383.05" y="-1191.57" font-family="Times,serif" font-size="20.00">ST</text>
</g>
<!-- node39&#45;&gt;node38 -->
<g id="edge32" class="edge">
<title>node39&#45;&gt;node38</title>
<path fill="none" stroke="black" d="M332.55,-1274.98C341.84,-1260.75 352.07,-1245.06 360.89,-1231.54"/>
<polygon fill="black" stroke="black" points="363.92,-1233.3 366.45,-1223.01 358.06,-1229.48 363.92,-1233.3"/>
</g>
<!-- node16 -->
<g id="node14" class="node">
<title>node16</title>
<ellipse fill="lightblue" stroke="black" cx="282.05" cy="-1087.74" rx="41.94" ry="41.94"/>
<text text-anchor="middle" x="282.05" y="-1082.74" font-family="Times,serif" font-size="20.00">RET</text>
</g>
<!-- node17&#45;&gt;node16 -->
<g id="edge11" class="edge">
<title>node17&#45;&gt;node16</title>
<path fill="none" stroke="black" d="M289.24,-1165.53C288.48,-1157.37 287.63,-1148.3 286.79,-1139.34"/>
<polygon fill="black" stroke="black" points="290.27,-1138.95 285.85,-1129.32 283.3,-1139.6 290.27,-1138.95"/>
</g>
<!-- node15 -->
<g id="node15" class="node">
<title>node15</title>
<ellipse fill="lightblue" stroke="black" cx="277.05" cy="-976.78" rx="21.43" ry="21.43"/>
<text text-anchor="middle" x="277.05" y="-971.78" font-family="Times,serif" font-size="20.00">n</text>
</g>
<!-- node16&#45;&gt;node15 -->
<g id="edge12" class="edge">
<title>node16&#45;&gt;node15</title>
<path fill="none" stroke="black" d="M280.18,-1045.86C279.6,-1033.38 278.99,-1019.88 278.45,-1008.21"/>
<polygon fill="black" stroke="black" points="281.94,-1007.93 277.99,-998.11 274.95,-1008.26 281.94,-1007.93"/>
</g>
<!-- node20 -->
<g id="node17" class="node">
<title>node20</title>
<ellipse fill="lightblue" stroke="black" cx="383.05" cy="-1087.74" rx="33.47" ry="33.47"/>
<text text-anchor="middle" x="383.05" y="-1082.74" font-family="Times,serif" font-size="20.00">EQ</text>
</g>
<!-- node38&#45;&gt;node20 -->
<g id="edge13" class="edge">
<title>node38&#45;&gt;node20</title>
<path fill="none" stroke="black" d="M383.05,-1165.24C383.05,-1154.66 383.05,-1142.59 383.05,-1131.2"/>
<polygon fill="black" stroke="black" points="386.55,-1131.01 383.05,-1121.01 379.55,-1131.01 386.55,-1131.01"/>
</g>
<!-- node37 -->
<g id="node20" class="node">
<title>node37</title>
<ellipse fill="lightblue" stroke="black" cx="469.05" cy="-1087.74" rx="31.23" ry="31.23"/>
<text text-anchor="middle" x="469.05" y="-1082.74" font-family="Times,serif" font-size="20.00">ST</text>
</g>
<!-- node38&#45;&gt;node37 -->
<g id="edge31" class="edge">
<title>node38&#45;&gt;node37</title>
<path fill="none" stroke="black" d="M402.14,-1171.86C414.39,-1156.65 430.43,-1136.72 443.74,-1120.19"/>
<polygon fill="black" stroke="black" points="446.48,-1122.37 450.02,-1112.38 441.02,-1117.98 446.48,-1122.37"/>
</g>
<!-- node18 -->
<g id="node18" class="node">
<title>node18</title>
<ellipse fill="lightblue" stroke="black" cx="337.05" cy="-976.78" rx="21.43" ry="21.43"/>
<text text-anchor="middle" x="337.05" y="-971.78" font-family="Times,serif" font-size="20.00">a</text>
</g>
<!-- node20&#45;&gt;node18 -->
<g id="edge14" class="edge">
<title>node20&#45;&gt;node18</title>
<path fill="none" stroke="black" d="M370.48,-1056.97C363.81,-1041.15 355.64,-1021.81 349.05,-1006.2"/>
<polygon fill="black" stroke="black" points="352.1,-1004.41 344.98,-996.56 345.65,-1007.13 352.1,-1004.41"/>
</g>
<!-- node19 -->
<g id="node19" class="node">
<title>node19</title>
<ellipse fill="lightblue" stroke="black" cx="397.05" cy="-976.78" rx="21.43" ry="21.43"/>
<text text-anchor="middle" x="397.05" y="-971.78" font-family="Times,serif" font-size="20.00">n</text>
</g>
<!-- node20&#45;&gt;node19 -->
<g id="edge15" class="edge">
<title>node20&#45;&gt;node19</title>
<path fill="none" stroke="black" d="M387.18,-1054.64C389.07,-1039.89 391.31,-1022.49 393.17,-1007.98"/>
<polygon fill="black" stroke="black" points="396.65,-1008.37 394.46,-998.01 389.71,-1007.48 396.65,-1008.37"/>
</g>
<!-- node25 -->
<g id="node21" class="node">
<title>node25</title>
<ellipse fill="lightblue" stroke="black" cx="469.05" cy="-976.78" rx="33.47" ry="33.47"/>
<text text-anchor="middle" x="469.05" y="-971.78" font-family="Times,serif" font-size="20.00">EQ</text>
</g>
<!-- node37&#45;&gt;node25 -->
<g id="edge16" class="edge">
<title>node37&#45;&gt;node25</title>
<path fill="none" stroke="black" d="M469.05,-1056.39C469.05,-1045.28 469.05,-1032.51 469.05,-1020.52"/>
<polygon fill="black" stroke="black" points="472.55,-1020.26 469.05,-1010.26 465.55,-1020.26 472.55,-1020.26"/>
</g>
<!-- node36 -->
<g id="node26" class="node">
<title>node36</title>
<ellipse fill="lightblue" stroke="black" cx="562.05" cy="-976.78" rx="31.23" ry="31.23"/>
<text text-anchor="middle" x="562.05" y="-971.78" font-family="Times,serif" font-size="20.00">ST</text>
</g>
<!-- node37&#45;&gt;node36 -->
<g id="edge30" class="edge">
<title>node37&#45;&gt;node36</title>
<path fill="none" stroke="black" d="M488.78,-1063.63C502.37,-1047.71 520.6,-1026.35 535.47,-1008.93"/>
<polygon fill="black" stroke="black" points="538.21,-1011.11 542.04,-1001.23 532.88,-1006.57 538.21,-1011.11"/>
</g>
<!-- node21 -->
<g id="node22" class="node">
<title>node21</title>
<ellipse fill="lightblue" stroke="black" cx="386.05" cy="-863.71" rx="21.43" ry="21.43"/>
<text text-anchor="middle" x="386.05" y="-858.71" font-family="Times,serif" font-size="20.00">n</text>
</g>
<!-- node25&#45;&gt;node21 -->
<g id="edge17" class="edge">
<title>node25&#45;&gt;node21</title>
<path fill="none" stroke="black" d="M448.62,-950.09C438.64,-937.4 426.56,-921.79 416.05,-907.55 412.02,-902.08 407.78,-896.15 403.8,-890.5"/>
<polygon fill="black" stroke="black" points="406.43,-888.14 397.83,-881.94 400.69,-892.15 406.43,-888.14"/>
</g>
<!-- node24 -->
<g id="node23" class="node">
<title>node24</title>
<ellipse fill="lightblue" stroke="black" cx="469.05" cy="-863.71" rx="43.68" ry="43.68"/>
<text text-anchor="middle" x="469.05" y="-858.71" font-family="Times,serif" font-size="20.00">SUB</text>
</g>
<!-- node25&#45;&gt;node24 -->
<g id="edge20" class="edge">
<title>node25&#45;&gt;node24</title>
<path fill="none" stroke="black" d="M469.05,-943.36C469.05,-935.35 469.05,-926.56 469.05,-917.85"/>
<polygon fill="black" stroke="black" points="472.55,-917.71 469.05,-907.72 465.55,-917.72 472.55,-917.71"/>
</g>
<!-- node22 -->
<g id="node24" class="node">
<title>node22</title>
<ellipse fill="lightblue" stroke="black" cx="418.05" cy="-736.49" rx="21.43" ry="21.43"/>
<text text-anchor="middle" x="418.05" y="-731.49" font-family="Times,serif" font-size="20.00">n</text>
</g>
<!-- node24&#45;&gt;node22 -->
<g id="edge18" class="edge">
<title>node24&#45;&gt;node22</title>
<path fill="none" stroke="black" d="M452.78,-822.75C445.22,-804.2 436.42,-782.59 429.57,-765.76"/>
<polygon fill="black" stroke="black" points="432.8,-764.41 425.78,-756.47 426.31,-767.05 432.8,-764.41"/>
</g>
<!-- node23 -->
<g id="node25" class="node">
<title>node23</title>
<ellipse fill="lightblue" stroke="black" cx="478.05" cy="-736.49" rx="21.43" ry="21.43"/>
<text text-anchor="middle" x="478.05" y="-731.49" font-family="Times,serif" font-size="20.00">1</text>
</g>
<!-- node24&#45;&gt;node23 -->
<g id="edge19" class="edge">
<title>node24&#45;&gt;node23</title>
<path fill="none" stroke="black" d="M472.13,-819.97C473.35,-802.93 474.73,-783.7 475.85,-768.1"/>
<polygon fill="black" stroke="black" points="479.36,-768.17 476.58,-757.95 472.38,-767.67 479.36,-768.17"/>
</g>
<!-- node35 -->
<g id="node27" class="node">
<title>node35</title>
<ellipse fill="lightblue" stroke="black" cx="573.05" cy="-863.71" rx="41.94" ry="41.94"/>
<text text-anchor="middle" x="573.05" y="-858.71" font-family="Times,serif" font-size="20.00">RET</text>
</g>
<!-- node36&#45;&gt;node35 -->
<g id="edge21" class="edge">
<title>node36&#45;&gt;node35</title>
<path fill="none" stroke="black" d="M565.03,-945.73C565.95,-936.47 566.98,-926.02 568,-915.77"/>
<polygon fill="black" stroke="black" points="571.5,-915.93 569,-905.64 564.53,-915.24 571.5,-915.93"/>
</g>
<!-- node34 -->
<g id="node28" class="node">
<title>node34</title>
<ellipse fill="lightblue" stroke="black" cx="573.05" cy="-736.49" rx="47.25" ry="47.25"/>
<text text-anchor="middle" x="573.05" y="-731.49" font-family="Times,serif" font-size="20.00">MUL</text>
</g>
<!-- node35&#45;&gt;node34 -->
<g id="edge22" class="edge">
<title>node35&#45;&gt;node34</title>
<path fill="none" stroke="black" d="M573.05,-821.71C573.05,-813 573.05,-803.66 573.05,-794.48"/>
<polygon fill="black" stroke="black" points="576.55,-794.23 573.05,-784.23 569.55,-794.23 576.55,-794.23"/>
</g>
<!-- node26 -->
<g id="node29" class="node">
<title>node26</title>
<ellipse fill="lightblue" stroke="black" cx="528.05" cy="-601.5" rx="21.43" ry="21.43"/>
<text text-anchor="middle" x="528.05" y="-596.5" font-family="Times,serif" font-size="20.00">n</text>
</g>
<!-- node34&#45;&gt;node26 -->
<g id="edge23" class="edge">
<title>node34&#45;&gt;node26</title>
<path fill="none" stroke="black" d="M558.07,-691.21C551.4,-671.5 543.74,-648.85 537.82,-631.37"/>
<polygon fill="black" stroke="black" points="541.08,-630.09 534.56,-621.74 534.45,-632.33 541.08,-630.09"/>
</g>
<!-- node33 -->
<g id="node30" class="node">
<title>node33</title>
<ellipse fill="lightblue" stroke="black" cx="619.05" cy="-601.5" rx="51.74" ry="51.74"/>
<text text-anchor="middle" x="619.05" y="-596.5" font-family="Times,serif" font-size="20.00">CALL</text>
</g>
<!-- node34&#45;&gt;node33 -->
<g id="edge29" class="edge">
<title>node34&#45;&gt;node33</title>
<path fill="none" stroke="black" d="M588.24,-691.58C591.73,-681.5 595.49,-670.63 599.14,-660.07"/>
<polygon fill="black" stroke="black" points="602.49,-661.09 602.45,-650.49 595.88,-658.8 602.49,-661.09"/>
</g>
<!-- node32 -->
<g id="node31" class="node">
<title>node32</title>
<ellipse fill="lightblue" stroke="black" cx="619.05" cy="-441.05" rx="72.66" ry="72.66"/>
<text text-anchor="middle" x="619.05" y="-436.05" font-family="Times,serif" font-size="20.00">rec_fuck</text>
</g>
<!-- node33&#45;&gt;node32 -->
<g id="edge24" class="edge">
<title>node33&#45;&gt;node32</title>
<path fill="none" stroke="black" d="M619.05,-549.49C619.05,-541.36 619.05,-532.78 619.05,-524.15"/>
<polygon fill="black" stroke="black" points="622.55,-524.02 619.05,-514.02 615.55,-524.02 622.55,-524.02"/>
</g>
<!-- node31 -->
<g id="node32" class="node">
<title>node31</title>
<ellipse fill="lightblue" stroke="black" cx="619.05" cy="-267.16" rx="65.11" ry="65.11"/>
<text text-anchor="middle" x="619.05" y="-262.16" font-family="Times,serif" font-size="20.00">PARAM</text>
</g>
<!-- node32&#45;&gt;node31 -->
<g id="edge25" class="edge">
<title>node32&#45;&gt;node31</title>
<path fill="none" stroke="black" d="M619.05,-368.15C619.05,-359.71 619.05,-351.09 619.05,-342.62"/>
<polygon fill="black" stroke="black" points="622.55,-342.38 619.05,-332.38 615.55,-342.38 622.55,-342.38"/>
</g>
<!-- node30 -->
<g id="node33" class="node">
<title>node30</title>
<ellipse fill="lightblue" stroke="black" cx="619.05" cy="-122.27" rx="43.68" ry="43.68"/>
<text text-anchor="middle" x="619.05" y="-117.27" font-family="Times,serif" font-size="20.00">SUB</text>
</g>
<!-- node31&#45;&gt;node30 -->
<g id="edge26" class="edge">
<title>node31&#45;&gt;node30</title>
<path fill="none" stroke="black" d="M619.05,-201.82C619.05,-193.38 619.05,-184.81 619.05,-176.58"/>
<polygon fill="black" stroke="black" points="622.55,-176.38 619.05,-166.38 615.55,-176.38 622.55,-176.38"/>
</g>
<!-- node28 -->
<g id="node34" class="node">
<title>node28</title>
<ellipse fill="lightblue" stroke="black" cx="589.05" cy="-21.21" rx="21.43" ry="21.43"/>
<text text-anchor="middle" x="589.05" y="-16.21" font-family="Times,serif" font-size="20.00">n</text>
</g>
<!-- node30&#45;&gt;node28 -->
<g id="edge27" class="edge">
<title>node30&#45;&gt;node28</title>
<path fill="none" stroke="black" d="M606.59,-80.12C603.67,-70.46 600.61,-60.37 597.88,-51.37"/>
<polygon fill="black" stroke="black" points="601.22,-50.3 594.97,-41.75 594.52,-52.33 601.22,-50.3"/>
</g>
<!-- node29 -->
<g id="node35" class="node">
<title>node29</title>
<ellipse fill="lightblue" stroke="black" cx="649.05" cy="-21.21" rx="21.43" ry="21.43"/>
<text text-anchor="middle" x="649.05" y="-16.21" font-family="Times,serif" font-size="20.00">1</text>
</g>
<!-- node30&#45;&gt;node29 -->
<g id="edge28" class="edge">
<title>node30&#45;&gt;node29</title>
<path fill="none" stroke="black" d="M631.52,-80.12C634.44,-70.46 637.5,-60.37 640.22,-51.37"/>
<polygon fill="black" stroke="black" points="643.59,-52.33 643.14,-41.75 636.89,-50.3 643.59,-52.33"/>
</g>
</g>
</svg>
