<?xml version="1.0" encoding="UTF-8" standalone="no"?>
<!DOCTYPE svg PUBLIC "-//W3C//DTD SVG 1.1//EN"
 "http://www.w3.org/Graphics/SVG/1.1/DTD/svg11.dtd">
<!-- Generated by graphviz version 2.43.0 (0)
 -->
<!-- Title: G Pages: 1 -->
<svg width="1189pt" height="1701pt"
 viewBox="0.00 0.00 1188.63 1700.83" xmlns="http://www.w3.org/2000/svg" xmlns:xlink="http://www.w3.org/1999/xlink">
<g id="graph0" class="graph" transform="scale(1 1) rotate(0) translate(4 1696.83)">
<title>G</title>
<polygon fill="white" stroke="transparent" points="-4,4 -4,-1696.83 1184.63,-1696.83 1184.63,4 -4,4"/>
<!-- node50 -->
<g id="node1" class="node">
<title>node50</title>
<ellipse fill="lightblue" stroke="black" cx="123.21" cy="-1661.72" rx="31.23" ry="31.23"/>
<text text-anchor="middle" x="123.21" y="-1656.72" font-family="Times,serif" font-size="20.00">ST</text>
</g>
<!-- node2 -->
<g id="node2" class="node">
<title>node2</title>
<ellipse fill="lightblue" stroke="black" cx="78.21" cy="-1552.89" rx="41.94" ry="41.94"/>
<text text-anchor="middle" x="78.21" y="-1547.89" font-family="Times,serif" font-size="20.00">VAR</text>
</g>
<!-- node50&#45;&gt;node2 -->
<g id="edge1" class="edge">
<title>node50&#45;&gt;node2</title>
<path fill="none" stroke="black" d="M111.39,-1632.65C107.32,-1622.99 102.65,-1611.9 98.11,-1601.14"/>
<polygon fill="black" stroke="black" points="101.29,-1599.67 94.19,-1591.81 94.84,-1602.39 101.29,-1599.67"/>
</g>
<!-- node49 -->
<g id="node5" class="node">
<title>node49</title>
<ellipse fill="lightblue" stroke="black" cx="169.21" cy="-1552.89" rx="31.23" ry="31.23"/>
<text text-anchor="middle" x="169.21" y="-1547.89" font-family="Times,serif" font-size="20.00">ST</text>
</g>
<!-- node50&#45;&gt;node49 -->
<g id="edge48" class="edge">
<title>node50&#45;&gt;node49</title>
<path fill="none" stroke="black" d="M135.18,-1632.93C140.67,-1620.17 147.27,-1604.86 153.18,-1591.12"/>
<polygon fill="black" stroke="black" points="156.41,-1592.48 157.15,-1581.91 149.98,-1589.71 156.41,-1592.48"/>
</g>
<!-- node0 -->
<g id="node3" class="node">
<title>node0</title>
<ellipse fill="lightblue" stroke="black" cx="21.21" cy="-1433.45" rx="21.43" ry="21.43"/>
<text text-anchor="middle" x="21.21" y="-1428.45" font-family="Times,serif" font-size="20.00">a</text>
</g>
<!-- node2&#45;&gt;node0 -->
<g id="edge2" class="edge">
<title>node2&#45;&gt;node0</title>
<path fill="none" stroke="black" d="M60.33,-1515.05C52.01,-1497.9 42.27,-1477.83 34.59,-1462.01"/>
<polygon fill="black" stroke="black" points="37.62,-1460.24 30.11,-1452.77 31.32,-1463.3 37.62,-1460.24"/>
</g>
<!-- node1 -->
<g id="node4" class="node">
<title>node1</title>
<ellipse fill="lightblue" stroke="black" cx="81.21" cy="-1433.45" rx="21.43" ry="21.43"/>
<text text-anchor="middle" x="81.21" y="-1428.45" font-family="Times,serif" font-size="20.00">3</text>
</g>
<!-- node2&#45;&gt;node1 -->
<g id="edge3" class="edge">
<title>node2&#45;&gt;node1</title>
<path fill="none" stroke="black" d="M79.25,-1511.14C79.64,-1495.94 80.08,-1478.96 80.44,-1464.84"/>
<polygon fill="black" stroke="black" points="83.94,-1464.78 80.7,-1454.69 76.94,-1464.6 83.94,-1464.78"/>
</g>
<!-- node5 -->
<g id="node6" class="node">
<title>node5</title>
<ellipse fill="lightblue" stroke="black" cx="167.21" cy="-1433.45" rx="41.94" ry="41.94"/>
<text text-anchor="middle" x="167.21" y="-1428.45" font-family="Times,serif" font-size="20.00">VAR</text>
</g>
<!-- node49&#45;&gt;node5 -->
<g id="edge4" class="edge">
<title>node49&#45;&gt;node5</title>
<path fill="none" stroke="black" d="M168.7,-1521.65C168.51,-1510.6 168.29,-1497.79 168.08,-1485.43"/>
<polygon fill="black" stroke="black" points="171.58,-1485.15 167.91,-1475.22 164.58,-1485.27 171.58,-1485.15"/>
</g>
<!-- node48 -->
<g id="node9" class="node">
<title>node48</title>
<ellipse fill="lightblue" stroke="black" cx="258.21" cy="-1433.45" rx="31.23" ry="31.23"/>
<text text-anchor="middle" x="258.21" y="-1428.45" font-family="Times,serif" font-size="20.00">ST</text>
</g>
<!-- node49&#45;&gt;node48 -->
<g id="edge47" class="edge">
<title>node49&#45;&gt;node48</title>
<path fill="none" stroke="black" d="M187.65,-1527.56C200.96,-1510 219.06,-1486.11 233.6,-1466.92"/>
<polygon fill="black" stroke="black" points="236.55,-1468.84 239.8,-1458.75 230.97,-1464.61 236.55,-1468.84"/>
</g>
<!-- node3 -->
<g id="node7" class="node">
<title>node3</title>
<ellipse fill="lightblue" stroke="black" cx="109.21" cy="-1311.18" rx="21.43" ry="21.43"/>
<text text-anchor="middle" x="109.21" y="-1306.18" font-family="Times,serif" font-size="20.00">b</text>
</g>
<!-- node5&#45;&gt;node3 -->
<g id="edge5" class="edge">
<title>node5&#45;&gt;node3</title>
<path fill="none" stroke="black" d="M149.34,-1395.39C140.66,-1377.38 130.41,-1356.13 122.44,-1339.61"/>
<polygon fill="black" stroke="black" points="125.54,-1337.98 118.04,-1330.49 119.24,-1341.02 125.54,-1337.98"/>
</g>
<!-- node4 -->
<g id="node8" class="node">
<title>node4</title>
<ellipse fill="lightblue" stroke="black" cx="169.21" cy="-1311.18" rx="21.43" ry="21.43"/>
<text text-anchor="middle" x="169.21" y="-1306.18" font-family="Times,serif" font-size="20.00">4</text>
</g>
<!-- node5&#45;&gt;node4 -->
<g id="edge6" class="edge">
<title>node5&#45;&gt;node4</title>
<path fill="none" stroke="black" d="M167.89,-1391.73C168.16,-1375.72 168.46,-1357.65 168.7,-1342.79"/>
<polygon fill="black" stroke="black" points="172.21,-1342.66 168.87,-1332.6 165.21,-1342.54 172.21,-1342.66"/>
</g>
<!-- node10 -->
<g id="node10" class="node">
<title>node10</title>
<ellipse fill="lightblue" stroke="black" cx="256.21" cy="-1311.18" rx="44.6" ry="44.6"/>
<text text-anchor="middle" x="256.21" y="-1306.18" font-family="Times,serif" font-size="20.00">OUT</text>
</g>
<!-- node48&#45;&gt;node10 -->
<g id="edge7" class="edge">
<title>node48&#45;&gt;node10</title>
<path fill="none" stroke="black" d="M257.71,-1402.1C257.53,-1391.23 257.32,-1378.62 257.11,-1366.34"/>
<polygon fill="black" stroke="black" points="260.61,-1366.1 256.94,-1356.16 253.61,-1366.21 260.61,-1366.1"/>
</g>
<!-- node47 -->
<g id="node15" class="node">
<title>node47</title>
<ellipse fill="lightblue" stroke="black" cx="369.21" cy="-1311.18" rx="31.23" ry="31.23"/>
<text text-anchor="middle" x="369.21" y="-1306.18" font-family="Times,serif" font-size="20.00">ST</text>
</g>
<!-- node48&#45;&gt;node47 -->
<g id="edge46" class="edge">
<title>node48&#45;&gt;node47</title>
<path fill="none" stroke="black" d="M278.83,-1410.11C296.48,-1390.99 322.03,-1363.3 341.47,-1342.24"/>
<polygon fill="black" stroke="black" points="344.12,-1344.53 348.33,-1334.81 338.97,-1339.79 344.12,-1344.53"/>
</g>
<!-- node9 -->
<g id="node11" class="node">
<title>node9</title>
<ellipse fill="lightblue" stroke="black" cx="238.21" cy="-1165.58" rx="65.11" ry="65.11"/>
<text text-anchor="middle" x="238.21" y="-1160.58" font-family="Times,serif" font-size="20.00">PARAM</text>
</g>
<!-- node10&#45;&gt;node9 -->
<g id="edge8" class="edge">
<title>node10&#45;&gt;node9</title>
<path fill="none" stroke="black" d="M250.76,-1266.71C249.72,-1258.37 248.6,-1249.43 247.47,-1240.44"/>
<polygon fill="black" stroke="black" points="250.92,-1239.79 246.2,-1230.31 243.97,-1240.66 250.92,-1239.79"/>
</g>
<!-- node8 -->
<g id="node12" class="node">
<title>node8</title>
<ellipse fill="lightblue" stroke="black" cx="215.21" cy="-999.47" rx="43.68" ry="43.68"/>
<text text-anchor="middle" x="215.21" y="-994.47" font-family="Times,serif" font-size="20.00">ADD</text>
</g>
<!-- node9&#45;&gt;node8 -->
<g id="edge9" class="edge">
<title>node9&#45;&gt;node8</title>
<path fill="none" stroke="black" d="M229.32,-1101.13C227.1,-1085.3 224.75,-1068.5 222.61,-1053.25"/>
<polygon fill="black" stroke="black" points="226.02,-1052.39 221.17,-1042.97 219.09,-1053.36 226.02,-1052.39"/>
</g>
<!-- node6 -->
<g id="node13" class="node">
<title>node6</title>
<ellipse fill="lightblue" stroke="black" cx="155.21" cy="-833.37" rx="21.43" ry="21.43"/>
<text text-anchor="middle" x="155.21" y="-828.37" font-family="Times,serif" font-size="20.00">a</text>
</g>
<!-- node8&#45;&gt;node6 -->
<g id="edge10" class="edge">
<title>node8&#45;&gt;node6</title>
<path fill="none" stroke="black" d="M200.38,-957.91C189.66,-928.58 175.43,-889.66 165.83,-863.4"/>
<polygon fill="black" stroke="black" points="168.99,-861.86 162.27,-853.67 162.42,-864.26 168.99,-861.86"/>
</g>
<!-- node7 -->
<g id="node14" class="node">
<title>node7</title>
<ellipse fill="lightblue" stroke="black" cx="215.21" cy="-833.37" rx="21.43" ry="21.43"/>
<text text-anchor="middle" x="215.21" y="-828.37" font-family="Times,serif" font-size="20.00">b</text>
</g>
<!-- node8&#45;&gt;node7 -->
<g id="edge11" class="edge">
<title>node8&#45;&gt;node7</title>
<path fill="none" stroke="black" d="M215.21,-955.36C215.21,-926.94 215.21,-890.41 215.21,-864.96"/>
<polygon fill="black" stroke="black" points="218.71,-864.78 215.21,-854.78 211.71,-864.78 218.71,-864.78"/>
</g>
<!-- node15 -->
<g id="node16" class="node">
<title>node15</title>
<ellipse fill="lightblue" stroke="black" cx="369.21" cy="-1165.58" rx="29.9" ry="29.9"/>
<text text-anchor="middle" x="369.21" y="-1160.58" font-family="Times,serif" font-size="20.00">IN</text>
</g>
<!-- node47&#45;&gt;node15 -->
<g id="edge12" class="edge">
<title>node47&#45;&gt;node15</title>
<path fill="none" stroke="black" d="M369.21,-1279.73C369.21,-1258.17 369.21,-1229.06 369.21,-1205.77"/>
<polygon fill="black" stroke="black" points="372.71,-1205.52 369.21,-1195.52 365.71,-1205.52 372.71,-1205.52"/>
</g>
<!-- node46 -->
<g id="node21" class="node">
<title>node46</title>
<ellipse fill="lightblue" stroke="black" cx="521.21" cy="-1165.58" rx="31.23" ry="31.23"/>
<text text-anchor="middle" x="521.21" y="-1160.58" font-family="Times,serif" font-size="20.00">ST</text>
</g>
<!-- node47&#45;&gt;node46 -->
<g id="edge45" class="edge">
<title>node47&#45;&gt;node46</title>
<path fill="none" stroke="black" d="M391.64,-1288.99C418.02,-1264.07 461.92,-1222.59 491.21,-1194.92"/>
<polygon fill="black" stroke="black" points="493.83,-1197.27 498.69,-1187.86 489.02,-1192.18 493.83,-1197.27"/>
</g>
<!-- node14 -->
<g id="node17" class="node">
<title>node14</title>
<ellipse fill="lightblue" stroke="black" cx="369.21" cy="-999.47" rx="65.11" ry="65.11"/>
<text text-anchor="middle" x="369.21" y="-994.47" font-family="Times,serif" font-size="20.00">PARAM</text>
</g>
<!-- node15&#45;&gt;node14 -->
<g id="edge13" class="edge">
<title>node15&#45;&gt;node14</title>
<path fill="none" stroke="black" d="M369.21,-1135.62C369.21,-1118.7 369.21,-1096.5 369.21,-1075"/>
<polygon fill="black" stroke="black" points="372.71,-1074.86 369.21,-1064.86 365.71,-1074.86 372.71,-1074.86"/>
</g>
<!-- node11 -->
<g id="node18" class="node">
<title>node11</title>
<ellipse fill="lightblue" stroke="black" cx="275.21" cy="-833.37" rx="21.43" ry="21.43"/>
<text text-anchor="middle" x="275.21" y="-828.37" font-family="Times,serif" font-size="20.00">a</text>
</g>
<!-- node14&#45;&gt;node11 -->
<g id="edge14" class="edge">
<title>node14&#45;&gt;node11</title>
<path fill="none" stroke="black" d="M333.18,-945C323.68,-930.15 313.72,-913.86 305.21,-898.42 298.89,-886.94 292.62,-873.9 287.47,-862.59"/>
<polygon fill="black" stroke="black" points="290.53,-860.88 283.25,-853.19 284.15,-863.74 290.53,-860.88"/>
</g>
<!-- node13 -->
<g id="node19" class="node">
<title>node13</title>
<ellipse fill="lightblue" stroke="black" cx="379.21" cy="-833.37" rx="65.11" ry="65.11"/>
<text text-anchor="middle" x="379.21" y="-828.37" font-family="Times,serif" font-size="20.00">PARAM</text>
</g>
<!-- node14&#45;&gt;node13 -->
<g id="edge16" class="edge">
<title>node14&#45;&gt;node13</title>
<path fill="none" stroke="black" d="M373.14,-934.09C373.64,-925.79 374.16,-917.23 374.68,-908.79"/>
<polygon fill="black" stroke="black" points="378.19,-908.76 375.3,-898.57 371.2,-908.34 378.19,-908.76"/>
</g>
<!-- node12 -->
<g id="node20" class="node">
<title>node12</title>
<ellipse fill="lightblue" stroke="black" cx="277.21" cy="-660.9" rx="21.43" ry="21.43"/>
<text text-anchor="middle" x="277.21" y="-655.9" font-family="Times,serif" font-size="20.00">b</text>
</g>
<!-- node13&#45;&gt;node12 -->
<g id="edge15" class="edge">
<title>node13&#45;&gt;node12</title>
<path fill="none" stroke="black" d="M339.4,-781.62C328.25,-766.25 316.62,-749 307.21,-732.31 299.78,-719.12 293.02,-703.72 287.8,-690.69"/>
<polygon fill="black" stroke="black" points="291.02,-689.32 284.13,-681.27 284.5,-691.86 291.02,-689.32"/>
</g>
<!-- node31 -->
<g id="node22" class="node">
<title>node31</title>
<ellipse fill="lightblue" stroke="black" cx="521.21" cy="-999.47" rx="56.64" ry="56.64"/>
<text text-anchor="middle" x="521.21" y="-994.47" font-family="Times,serif" font-size="20.00">FUNC</text>
</g>
<!-- node46&#45;&gt;node31 -->
<g id="edge17" class="edge">
<title>node46&#45;&gt;node31</title>
<path fill="none" stroke="black" d="M521.21,-1134.1C521.21,-1115.12 521.21,-1089.96 521.21,-1066.59"/>
<polygon fill="black" stroke="black" points="524.71,-1066.36 521.21,-1056.36 517.71,-1066.36 524.71,-1066.36"/>
</g>
<!-- node45 -->
<g id="node37" class="node">
<title>node45</title>
<ellipse fill="lightblue" stroke="black" cx="873.21" cy="-999.47" rx="31.23" ry="31.23"/>
<text text-anchor="middle" x="873.21" y="-994.47" font-family="Times,serif" font-size="20.00">ST</text>
</g>
<!-- node46&#45;&gt;node45 -->
<g id="edge44" class="edge">
<title>node46&#45;&gt;node45</title>
<path fill="none" stroke="black" d="M549.13,-1151.57C612.03,-1122.24 764.86,-1050.99 835.84,-1017.9"/>
<polygon fill="black" stroke="black" points="837.71,-1020.89 845.3,-1013.49 834.75,-1014.54 837.71,-1020.89"/>
</g>
<!-- node30 -->
<g id="node23" class="node">
<title>node30</title>
<ellipse fill="lightblue" stroke="black" cx="511.21" cy="-833.37" rx="41.94" ry="41.94"/>
<text text-anchor="middle" x="511.21" y="-828.37" font-family="Times,serif" font-size="20.00">pow</text>
</g>
<!-- node31&#45;&gt;node30 -->
<g id="edge18" class="edge">
<title>node31&#45;&gt;node30</title>
<path fill="none" stroke="black" d="M517.83,-942.91C516.69,-924.25 515.43,-903.54 514.31,-885.25"/>
<polygon fill="black" stroke="black" points="517.8,-884.85 513.69,-875.08 510.81,-885.28 517.8,-884.85"/>
</g>
<!-- node28 -->
<g id="node31" class="node">
<title>node28</title>
<ellipse fill="lightblue" stroke="black" cx="607.21" cy="-833.37" rx="31.23" ry="31.23"/>
<text text-anchor="middle" x="607.21" y="-828.37" font-family="Times,serif" font-size="20.00">ST</text>
</g>
<!-- node31&#45;&gt;node28 -->
<g id="edge31" class="edge">
<title>node31&#45;&gt;node28</title>
<path fill="none" stroke="black" d="M547.25,-948.79C560.46,-923.59 576.21,-893.53 588.26,-870.54"/>
<polygon fill="black" stroke="black" points="591.46,-871.96 593.01,-861.48 585.26,-868.71 591.46,-871.96"/>
</g>
<!-- node22 -->
<g id="node24" class="node">
<title>node22</title>
<ellipse fill="lightblue" stroke="black" cx="381.21" cy="-660.9" rx="65.11" ry="65.11"/>
<text text-anchor="middle" x="381.21" y="-655.9" font-family="Times,serif" font-size="20.00">PARAM</text>
</g>
<!-- node30&#45;&gt;node22 -->
<g id="edge19" class="edge">
<title>node30&#45;&gt;node22</title>
<path fill="none" stroke="black" d="M486.15,-799.5C469.23,-777.31 446.42,-747.4 426.39,-721.14"/>
<polygon fill="black" stroke="black" points="429.12,-718.94 420.27,-713.11 423.55,-723.19 429.12,-718.94"/>
</g>
<!-- node29 -->
<g id="node30" class="node">
<title>node29</title>
<ellipse fill="lightblue" stroke="black" cx="511.21" cy="-660.9" rx="46.84" ry="46.84"/>
<text text-anchor="middle" x="511.21" y="-655.9" font-family="Times,serif" font-size="20.00">Type</text>
</g>
<!-- node30&#45;&gt;node29 -->
<g id="edge25" class="edge">
<title>node30&#45;&gt;node29</title>
<path fill="none" stroke="black" d="M511.21,-791.53C511.21,-769.47 511.21,-741.9 511.21,-717.86"/>
<polygon fill="black" stroke="black" points="514.71,-717.8 511.21,-707.8 507.71,-717.8 514.71,-717.8"/>
</g>
<!-- node18 -->
<g id="node25" class="node">
<title>node18</title>
<ellipse fill="lightblue" stroke="black" cx="319.21" cy="-488.42" rx="41.94" ry="41.94"/>
<text text-anchor="middle" x="319.21" y="-483.42" font-family="Times,serif" font-size="20.00">VAR</text>
</g>
<!-- node22&#45;&gt;node18 -->
<g id="edge20" class="edge">
<title>node22&#45;&gt;node18</title>
<path fill="none" stroke="black" d="M359.18,-599.31C351.77,-578.93 343.6,-556.48 336.6,-537.22"/>
<polygon fill="black" stroke="black" points="339.86,-535.96 333.16,-527.76 333.28,-538.35 339.86,-535.96"/>
</g>
<!-- node21 -->
<g id="node27" class="node">
<title>node21</title>
<ellipse fill="lightblue" stroke="black" cx="444.21" cy="-488.42" rx="65.11" ry="65.11"/>
<text text-anchor="middle" x="444.21" y="-483.42" font-family="Times,serif" font-size="20.00">PARAM</text>
</g>
<!-- node22&#45;&gt;node21 -->
<g id="edge24" class="edge">
<title>node22&#45;&gt;node21</title>
<path fill="none" stroke="black" d="M403.6,-599.31C408.38,-586.38 413.47,-572.61 418.37,-559.35"/>
<polygon fill="black" stroke="black" points="421.71,-560.4 421.9,-549.81 415.15,-557.98 421.71,-560.4"/>
</g>
<!-- node17 -->
<g id="node26" class="node">
<title>node17</title>
<ellipse fill="lightblue" stroke="black" cx="319.21" cy="-315.95" rx="21.43" ry="21.43"/>
<text text-anchor="middle" x="319.21" y="-310.95" font-family="Times,serif" font-size="20.00">x</text>
</g>
<!-- node18&#45;&gt;node17 -->
<g id="edge21" class="edge">
<title>node18&#45;&gt;node17</title>
<path fill="none" stroke="black" d="M319.21,-446.59C319.21,-416.16 319.21,-375.24 319.21,-347.58"/>
<polygon fill="black" stroke="black" points="322.71,-347.32 319.21,-337.32 315.71,-347.32 322.71,-347.32"/>
</g>
<!-- node20 -->
<g id="node28" class="node">
<title>node20</title>
<ellipse fill="lightblue" stroke="black" cx="444.21" cy="-315.95" rx="41.94" ry="41.94"/>
<text text-anchor="middle" x="444.21" y="-310.95" font-family="Times,serif" font-size="20.00">VAR</text>
</g>
<!-- node21&#45;&gt;node20 -->
<g id="edge22" class="edge">
<title>node21&#45;&gt;node20</title>
<path fill="none" stroke="black" d="M444.21,-422.98C444.21,-404.86 444.21,-385.41 444.21,-368.18"/>
<polygon fill="black" stroke="black" points="447.71,-367.77 444.21,-357.77 440.71,-367.77 447.71,-367.77"/>
</g>
<!-- node19 -->
<g id="node29" class="node">
<title>node19</title>
<ellipse fill="lightblue" stroke="black" cx="444.21" cy="-143.48" rx="21.43" ry="21.43"/>
<text text-anchor="middle" x="444.21" y="-138.48" font-family="Times,serif" font-size="20.00">y</text>
</g>
<!-- node20&#45;&gt;node19 -->
<g id="edge23" class="edge">
<title>node20&#45;&gt;node19</title>
<path fill="none" stroke="black" d="M444.21,-274.12C444.21,-243.68 444.21,-202.77 444.21,-175.11"/>
<polygon fill="black" stroke="black" points="447.71,-174.85 444.21,-164.85 440.71,-174.85 447.71,-174.85"/>
</g>
<!-- node23 -->
<g id="node32" class="node">
<title>node23</title>
<ellipse fill="lightblue" stroke="black" cx="607.21" cy="-660.9" rx="31.23" ry="31.23"/>
<text text-anchor="middle" x="607.21" y="-655.9" font-family="Times,serif" font-size="20.00">ST</text>
</g>
<!-- node28&#45;&gt;node23 -->
<g id="edge26" class="edge">
<title>node28&#45;&gt;node23</title>
<path fill="none" stroke="black" d="M607.21,-801.89C607.21,-774.13 607.21,-732.94 607.21,-702.42"/>
<polygon fill="black" stroke="black" points="610.71,-702.11 607.21,-692.11 603.71,-702.11 610.71,-702.11"/>
</g>
<!-- node27 -->
<g id="node33" class="node">
<title>node27</title>
<ellipse fill="lightblue" stroke="black" cx="698.21" cy="-660.9" rx="41.94" ry="41.94"/>
<text text-anchor="middle" x="698.21" y="-655.9" font-family="Times,serif" font-size="20.00">RET</text>
</g>
<!-- node28&#45;&gt;node27 -->
<g id="edge30" class="edge">
<title>node28&#45;&gt;node27</title>
<path fill="none" stroke="black" d="M621.63,-805.35C635.73,-778.95 657.44,-738.27 674.16,-706.96"/>
<polygon fill="black" stroke="black" points="677.33,-708.46 678.95,-697.99 671.15,-705.16 677.33,-708.46"/>
</g>
<!-- node26 -->
<g id="node34" class="node">
<title>node26</title>
<ellipse fill="lightblue" stroke="black" cx="698.21" cy="-488.42" rx="47.25" ry="47.25"/>
<text text-anchor="middle" x="698.21" y="-483.42" font-family="Times,serif" font-size="20.00">POW</text>
</g>
<!-- node27&#45;&gt;node26 -->
<g id="edge27" class="edge">
<title>node27&#45;&gt;node26</title>
<path fill="none" stroke="black" d="M698.21,-619.06C698.21,-597.17 698.21,-569.86 698.21,-545.95"/>
<polygon fill="black" stroke="black" points="701.71,-545.94 698.21,-535.94 694.71,-545.94 701.71,-545.94"/>
</g>
<!-- node24 -->
<g id="node35" class="node">
<title>node24</title>
<ellipse fill="lightblue" stroke="black" cx="668.21" cy="-315.95" rx="21.43" ry="21.43"/>
<text text-anchor="middle" x="668.21" y="-310.95" font-family="Times,serif" font-size="20.00">x</text>
</g>
<!-- node26&#45;&gt;node24 -->
<g id="edge28" class="edge">
<title>node26&#45;&gt;node24</title>
<path fill="none" stroke="black" d="M690.09,-441.29C684.82,-411.31 678.09,-373.08 673.5,-346.97"/>
<polygon fill="black" stroke="black" points="676.91,-346.17 671.73,-336.93 670.01,-347.38 676.91,-346.17"/>
</g>
<!-- node25 -->
<g id="node36" class="node">
<title>node25</title>
<ellipse fill="lightblue" stroke="black" cx="728.21" cy="-315.95" rx="21.43" ry="21.43"/>
<text text-anchor="middle" x="728.21" y="-310.95" font-family="Times,serif" font-size="20.00">y</text>
</g>
<!-- node26&#45;&gt;node25 -->
<g id="edge29" class="edge">
<title>node26&#45;&gt;node25</title>
<path fill="none" stroke="black" d="M706.33,-441.29C711.61,-411.31 718.34,-373.08 722.93,-346.97"/>
<polygon fill="black" stroke="black" points="726.41,-347.38 724.7,-336.93 719.52,-346.17 726.41,-347.38"/>
</g>
<!-- node40 -->
<g id="node38" class="node">
<title>node40</title>
<ellipse fill="lightblue" stroke="black" cx="873.21" cy="-833.37" rx="41.94" ry="41.94"/>
<text text-anchor="middle" x="873.21" y="-828.37" font-family="Times,serif" font-size="20.00">VAR</text>
</g>
<!-- node45&#45;&gt;node40 -->
<g id="edge32" class="edge">
<title>node45&#45;&gt;node40</title>
<path fill="none" stroke="black" d="M873.21,-967.99C873.21,-944.81 873.21,-912.4 873.21,-885.31"/>
<polygon fill="black" stroke="black" points="876.71,-885.21 873.21,-875.21 869.71,-885.21 876.71,-885.21"/>
</g>
<!-- node44 -->
<g id="node46" class="node">
<title>node44</title>
<ellipse fill="lightblue" stroke="black" cx="1052.21" cy="-833.37" rx="31.23" ry="31.23"/>
<text text-anchor="middle" x="1052.21" y="-828.37" font-family="Times,serif" font-size="20.00">ST</text>
</g>
<!-- node45&#45;&gt;node44 -->
<g id="edge43" class="edge">
<title>node45&#45;&gt;node44</title>
<path fill="none" stroke="black" d="M895.88,-977.69C927.89,-948.34 986.4,-894.7 1022.05,-862.02"/>
<polygon fill="black" stroke="black" points="1024.72,-864.32 1029.73,-854.98 1019.99,-859.16 1024.72,-864.32"/>
</g>
<!-- node32 -->
<g id="node39" class="node">
<title>node32</title>
<ellipse fill="lightblue" stroke="black" cx="829.21" cy="-660.9" rx="71.34" ry="71.34"/>
<text text-anchor="middle" x="829.21" y="-655.9" font-family="Times,serif" font-size="20.00">powwed</text>
</g>
<!-- node40&#45;&gt;node32 -->
<g id="edge33" class="edge">
<title>node40&#45;&gt;node32</title>
<path fill="none" stroke="black" d="M863.01,-792.83C858.94,-777.07 854.11,-758.36 849.39,-740.07"/>
<polygon fill="black" stroke="black" points="852.75,-739.09 846.86,-730.28 845.97,-740.84 852.75,-739.09"/>
</g>
<!-- node39 -->
<g id="node40" class="node">
<title>node39</title>
<ellipse fill="lightblue" stroke="black" cx="970.21" cy="-660.9" rx="51.74" ry="51.74"/>
<text text-anchor="middle" x="970.21" y="-655.9" font-family="Times,serif" font-size="20.00">CALL</text>
</g>
<!-- node40&#45;&gt;node39 -->
<g id="edge39" class="edge">
<title>node40&#45;&gt;node39</title>
<path fill="none" stroke="black" d="M893.55,-796.63C907.02,-772.95 924.94,-741.46 940.06,-714.88"/>
<polygon fill="black" stroke="black" points="943.17,-716.5 945.07,-706.07 937.09,-713.04 943.17,-716.5"/>
</g>
<!-- node38 -->
<g id="node41" class="node">
<title>node38</title>
<ellipse fill="lightblue" stroke="black" cx="963.21" cy="-488.42" rx="41.94" ry="41.94"/>
<text text-anchor="middle" x="963.21" y="-483.42" font-family="Times,serif" font-size="20.00">pow</text>
</g>
<!-- node39&#45;&gt;node38 -->
<g id="edge34" class="edge">
<title>node39&#45;&gt;node38</title>
<path fill="none" stroke="black" d="M968.13,-609.21C967.24,-587.43 966.19,-562.04 965.3,-540.25"/>
<polygon fill="black" stroke="black" points="968.79,-540.04 964.89,-530.2 961.8,-540.33 968.79,-540.04"/>
</g>
<!-- node37 -->
<g id="node42" class="node">
<title>node37</title>
<ellipse fill="lightblue" stroke="black" cx="955.21" cy="-315.95" rx="65.11" ry="65.11"/>
<text text-anchor="middle" x="955.21" y="-310.95" font-family="Times,serif" font-size="20.00">PARAM</text>
</g>
<!-- node38&#45;&gt;node37 -->
<g id="edge35" class="edge">
<title>node38&#45;&gt;node37</title>
<path fill="none" stroke="black" d="M961.3,-446.59C960.52,-429.98 959.59,-410.24 958.7,-391.24"/>
<polygon fill="black" stroke="black" points="962.19,-390.91 958.22,-381.09 955.2,-391.24 962.19,-390.91"/>
</g>
<!-- node34 -->
<g id="node43" class="node">
<title>node34</title>
<ellipse fill="lightblue" stroke="black" cx="903.21" cy="-143.48" rx="21.43" ry="21.43"/>
<text text-anchor="middle" x="903.21" y="-138.48" font-family="Times,serif" font-size="20.00">a</text>
</g>
<!-- node37&#45;&gt;node34 -->
<g id="edge36" class="edge">
<title>node37&#45;&gt;node34</title>
<path fill="none" stroke="black" d="M936.44,-253.41C928.15,-226.24 918.8,-195.58 912.13,-173.73"/>
<polygon fill="black" stroke="black" points="915.45,-172.6 909.18,-164.06 908.75,-174.64 915.45,-172.6"/>
</g>
<!-- node36 -->
<g id="node44" class="node">
<title>node36</title>
<ellipse fill="lightblue" stroke="black" cx="1007.21" cy="-143.48" rx="65.11" ry="65.11"/>
<text text-anchor="middle" x="1007.21" y="-138.48" font-family="Times,serif" font-size="20.00">PARAM</text>
</g>
<!-- node37&#45;&gt;node36 -->
<g id="edge38" class="edge">
<title>node37&#45;&gt;node36</title>
<path fill="none" stroke="black" d="M973.99,-253.41C977.71,-241.22 981.64,-228.32 985.45,-215.84"/>
<polygon fill="black" stroke="black" points="988.9,-216.52 988.47,-205.93 982.2,-214.48 988.9,-216.52"/>
</g>
<!-- node35 -->
<g id="node45" class="node">
<title>node35</title>
<ellipse fill="lightblue" stroke="black" cx="1007.21" cy="-21.21" rx="21.43" ry="21.43"/>
<text text-anchor="middle" x="1007.21" y="-16.21" font-family="Times,serif" font-size="20.00">b</text>
</g>
<!-- node36&#45;&gt;node35 -->
<g id="edge37" class="edge">
<title>node36&#45;&gt;node35</title>
<path fill="none" stroke="black" d="M1007.21,-78.12C1007.21,-69.21 1007.21,-60.43 1007.21,-52.56"/>
<polygon fill="black" stroke="black" points="1010.71,-52.46 1007.21,-42.46 1003.71,-52.46 1010.71,-52.46"/>
</g>
<!-- node43 -->
<g id="node47" class="node">
<title>node43</title>
<ellipse fill="lightblue" stroke="black" cx="1096.21" cy="-660.9" rx="44.6" ry="44.6"/>
<text text-anchor="middle" x="1096.21" y="-655.9" font-family="Times,serif" font-size="20.00">OUT</text>
</g>
<!-- node44&#45;&gt;node43 -->
<g id="edge40" class="edge">
<title>node44&#45;&gt;node43</title>
<path fill="none" stroke="black" d="M1059.78,-803.06C1066.06,-778.71 1075.16,-743.44 1082.7,-714.26"/>
<polygon fill="black" stroke="black" points="1086.18,-714.77 1085.29,-704.21 1079.4,-713.02 1086.18,-714.77"/>
</g>
<!-- node42 -->
<g id="node48" class="node">
<title>node42</title>
<ellipse fill="lightblue" stroke="black" cx="1102.21" cy="-488.42" rx="65.11" ry="65.11"/>
<text text-anchor="middle" x="1102.21" y="-483.42" font-family="Times,serif" font-size="20.00">PARAM</text>
</g>
<!-- node43&#45;&gt;node42 -->
<g id="edge41" class="edge">
<title>node43&#45;&gt;node42</title>
<path fill="none" stroke="black" d="M1097.76,-615.99C1098.32,-600.16 1098.96,-581.82 1099.59,-564.09"/>
<polygon fill="black" stroke="black" points="1103.1,-563.87 1099.95,-553.75 1096.1,-563.62 1103.1,-563.87"/>
</g>
<!-- node41 -->
<g id="node49" class="node">
<title>node41</title>
<ellipse fill="lightblue" stroke="black" cx="1109.21" cy="-315.95" rx="71.34" ry="71.34"/>
<text text-anchor="middle" x="1109.21" y="-310.95" font-family="Times,serif" font-size="20.00">powwed</text>
</g>
<!-- node42&#45;&gt;node41 -->
<g id="edge42" class="edge">
<title>node42&#45;&gt;node41</title>
<path fill="none" stroke="black" d="M1104.86,-422.98C1105.2,-414.64 1105.56,-406.02 1105.91,-397.47"/>
<polygon fill="black" stroke="black" points="1109.4,-397.61 1106.32,-387.48 1102.41,-397.32 1109.4,-397.61"/>
</g>
</g>
</svg>
