<?xml version="1.0" encoding="UTF-8" standalone="no"?>
<!DOCTYPE svg PUBLIC "-//W3C//DTD SVG 1.1//EN"
 "http://www.w3.org/Graphics/SVG/1.1/DTD/svg11.dtd">
<!-- Generated by graphviz version 2.43.0 (0)
 -->
<!-- Title: G Pages: 1 -->
<svg width="650pt" height="861pt"
 viewBox="0.00 0.00 650.00 861.00" xmlns="http://www.w3.org/2000/svg" xmlns:xlink="http://www.w3.org/1999/xlink">
<g id="graph0" class="graph" transform="scale(1 1) rotate(0) translate(4 857)">
<title>G</title>
<polygon fill="white" stroke="transparent" points="-4,4 -4,-857 646,-857 646,4 -4,4"/>
<!-- node11 -->
<g id="node1" class="node">
<title>node11</title>
<polygon fill="lightblue" stroke="black" points="138.5,-762.5 138.5,-852.5 283.5,-852.5 283.5,-762.5 138.5,-762.5"/>
<text text-anchor="middle" x="189" y="-840.5" font-family="Times,serif" font-size="10.00">data_type:</text>
<text text-anchor="middle" x="189" y="-829.5" font-family="Times,serif" font-size="10.00"> STATEMENT</text>
<polyline fill="none" stroke="black" points="239.5,-822.5 239.5,-852.5 "/>
<text text-anchor="middle" x="261.5" y="-835" font-family="Times,serif" font-size="10.00">ST</text>
<polyline fill="none" stroke="black" points="138.5,-822.5 283.5,-822.5 "/>
<text text-anchor="middle" x="189" y="-810.5" font-family="Times,serif" font-size="10.00">this:</text>
<text text-anchor="middle" x="189" y="-799.5" font-family="Times,serif" font-size="10.00">0x604000000310</text>
<polyline fill="none" stroke="black" points="239.5,-792.5 239.5,-822.5 "/>
<text text-anchor="middle" x="261.5" y="-810.5" font-family="Times,serif" font-size="10.00">prev:</text>
<text text-anchor="middle" x="261.5" y="-799.5" font-family="Times,serif" font-size="10.00">(nil)</text>
<polyline fill="none" stroke="black" points="138.5,-792.5 283.5,-792.5 "/>
<text text-anchor="middle" x="189" y="-780.5" font-family="Times,serif" font-size="10.00">left:</text>
<text text-anchor="middle" x="189" y="-769.5" font-family="Times,serif" font-size="10.00">0x6040000002d0</text>
<polyline fill="none" stroke="black" points="239.5,-762.5 239.5,-792.5 "/>
<text text-anchor="middle" x="261.5" y="-780.5" font-family="Times,serif" font-size="10.00">right:</text>
<text text-anchor="middle" x="261.5" y="-769.5" font-family="Times,serif" font-size="10.00">(nil)</text>
</g>
<!-- node10 -->
<g id="node2" class="node">
<title>node10</title>
<polygon fill="lightblue" stroke="black" points="110,-635.5 110,-725.5 312,-725.5 312,-635.5 110,-635.5"/>
<text text-anchor="middle" x="172" y="-713.5" font-family="Times,serif" font-size="10.00">data_type:</text>
<text text-anchor="middle" x="172" y="-702.5" font-family="Times,serif" font-size="10.00"> OPERATOR</text>
<polyline fill="none" stroke="black" points="234,-695.5 234,-725.5 "/>
<text text-anchor="middle" x="273" y="-708" font-family="Times,serif" font-size="10.00">EQ</text>
<polyline fill="none" stroke="black" points="110,-695.5 312,-695.5 "/>
<text text-anchor="middle" x="160.5" y="-683.5" font-family="Times,serif" font-size="10.00">this:</text>
<text text-anchor="middle" x="160.5" y="-672.5" font-family="Times,serif" font-size="10.00">0x6040000002d0</text>
<polyline fill="none" stroke="black" points="211,-665.5 211,-695.5 "/>
<text text-anchor="middle" x="261.5" y="-683.5" font-family="Times,serif" font-size="10.00">prev:</text>
<text text-anchor="middle" x="261.5" y="-672.5" font-family="Times,serif" font-size="10.00">0x604000000310</text>
<polyline fill="none" stroke="black" points="110,-665.5 312,-665.5 "/>
<text text-anchor="middle" x="160.5" y="-653.5" font-family="Times,serif" font-size="10.00">left:</text>
<text text-anchor="middle" x="160.5" y="-642.5" font-family="Times,serif" font-size="10.00">0x604000000050</text>
<polyline fill="none" stroke="black" points="211,-635.5 211,-665.5 "/>
<text text-anchor="middle" x="261.5" y="-653.5" font-family="Times,serif" font-size="10.00">right:</text>
<text text-anchor="middle" x="261.5" y="-642.5" font-family="Times,serif" font-size="10.00">0x604000000290</text>
</g>
<!-- node11&#45;&gt;node10 -->
<g id="edge1" class="edge">
<title>node11&#45;&gt;node10</title>
<path fill="none" stroke="black" d="M211,-762.43C211,-753.84 211,-744.74 211,-735.87"/>
<polygon fill="black" stroke="black" points="214.5,-735.59 211,-725.59 207.5,-735.59 214.5,-735.59"/>
</g>
<!-- node0 -->
<g id="node3" class="node">
<title>node0</title>
<polygon fill="lightblue" stroke="black" points="0,-508.5 0,-598.5 202,-598.5 202,-508.5 0,-508.5"/>
<text text-anchor="middle" x="56" y="-586.5" font-family="Times,serif" font-size="10.00">data_type:</text>
<text text-anchor="middle" x="56" y="-575.5" font-family="Times,serif" font-size="10.00"> NAME</text>
<polyline fill="none" stroke="black" points="112,-568.5 112,-598.5 "/>
<text text-anchor="middle" x="157" y="-581" font-family="Times,serif" font-size="10.00">aboba</text>
<polyline fill="none" stroke="black" points="0,-568.5 202,-568.5 "/>
<text text-anchor="middle" x="50.5" y="-556.5" font-family="Times,serif" font-size="10.00">this:</text>
<text text-anchor="middle" x="50.5" y="-545.5" font-family="Times,serif" font-size="10.00">0x604000000050</text>
<polyline fill="none" stroke="black" points="101,-538.5 101,-568.5 "/>
<text text-anchor="middle" x="151.5" y="-556.5" font-family="Times,serif" font-size="10.00">prev:</text>
<text text-anchor="middle" x="151.5" y="-545.5" font-family="Times,serif" font-size="10.00">0x6040000002d0</text>
<polyline fill="none" stroke="black" points="0,-538.5 202,-538.5 "/>
<text text-anchor="middle" x="48.5" y="-526.5" font-family="Times,serif" font-size="10.00">left:</text>
<text text-anchor="middle" x="48.5" y="-515.5" font-family="Times,serif" font-size="10.00">(nil)</text>
<polyline fill="none" stroke="black" points="97,-508.5 97,-538.5 "/>
<text text-anchor="middle" x="149.5" y="-526.5" font-family="Times,serif" font-size="10.00">right:</text>
<text text-anchor="middle" x="149.5" y="-515.5" font-family="Times,serif" font-size="10.00">(nil)</text>
</g>
<!-- node10&#45;&gt;node0 -->
<g id="edge2" class="edge">
<title>node10&#45;&gt;node0</title>
<path fill="none" stroke="black" d="M172.22,-635.43C163.92,-626 155.08,-615.96 146.56,-606.27"/>
<polygon fill="black" stroke="black" points="149.04,-603.79 139.8,-598.59 143.78,-608.41 149.04,-603.79"/>
</g>
<!-- node9 -->
<g id="node4" class="node">
<title>node9</title>
<polygon fill="lightblue" stroke="black" points="220,-508.5 220,-598.5 422,-598.5 422,-508.5 220,-508.5"/>
<text text-anchor="middle" x="280.5" y="-586.5" font-family="Times,serif" font-size="10.00">data_type:</text>
<text text-anchor="middle" x="280.5" y="-575.5" font-family="Times,serif" font-size="10.00"> OPERATOR</text>
<polyline fill="none" stroke="black" points="341,-568.5 341,-598.5 "/>
<text text-anchor="middle" x="381.5" y="-581" font-family="Times,serif" font-size="10.00">SUB</text>
<polyline fill="none" stroke="black" points="220,-568.5 422,-568.5 "/>
<text text-anchor="middle" x="270.5" y="-556.5" font-family="Times,serif" font-size="10.00">this:</text>
<text text-anchor="middle" x="270.5" y="-545.5" font-family="Times,serif" font-size="10.00">0x604000000290</text>
<polyline fill="none" stroke="black" points="321,-538.5 321,-568.5 "/>
<text text-anchor="middle" x="371.5" y="-556.5" font-family="Times,serif" font-size="10.00">prev:</text>
<text text-anchor="middle" x="371.5" y="-545.5" font-family="Times,serif" font-size="10.00">0x6040000002d0</text>
<polyline fill="none" stroke="black" points="220,-538.5 422,-538.5 "/>
<text text-anchor="middle" x="270.5" y="-526.5" font-family="Times,serif" font-size="10.00">left:</text>
<text text-anchor="middle" x="270.5" y="-515.5" font-family="Times,serif" font-size="10.00">0x604000000090</text>
<polyline fill="none" stroke="black" points="321,-508.5 321,-538.5 "/>
<text text-anchor="middle" x="371.5" y="-526.5" font-family="Times,serif" font-size="10.00">right:</text>
<text text-anchor="middle" x="371.5" y="-515.5" font-family="Times,serif" font-size="10.00">0x604000000250</text>
</g>
<!-- node10&#45;&gt;node9 -->
<g id="edge11" class="edge">
<title>node10&#45;&gt;node9</title>
<path fill="none" stroke="black" d="M249.78,-635.43C258.08,-626 266.92,-615.96 275.44,-606.27"/>
<polygon fill="black" stroke="black" points="278.22,-608.41 282.2,-598.59 272.96,-603.79 278.22,-608.41"/>
</g>
<!-- node1 -->
<g id="node5" class="node">
<title>node1</title>
<polygon fill="lightblue" stroke="black" points="110,-381.5 110,-471.5 312,-471.5 312,-381.5 110,-381.5"/>
<text text-anchor="middle" x="172" y="-459.5" font-family="Times,serif" font-size="10.00">data_type:</text>
<text text-anchor="middle" x="172" y="-448.5" font-family="Times,serif" font-size="10.00"> NUMBER</text>
<polyline fill="none" stroke="black" points="234,-441.5 234,-471.5 "/>
<text text-anchor="middle" x="273" y="-454" font-family="Times,serif" font-size="10.00">1</text>
<polyline fill="none" stroke="black" points="110,-441.5 312,-441.5 "/>
<text text-anchor="middle" x="160.5" y="-429.5" font-family="Times,serif" font-size="10.00">this:</text>
<text text-anchor="middle" x="160.5" y="-418.5" font-family="Times,serif" font-size="10.00">0x604000000090</text>
<polyline fill="none" stroke="black" points="211,-411.5 211,-441.5 "/>
<text text-anchor="middle" x="261.5" y="-429.5" font-family="Times,serif" font-size="10.00">prev:</text>
<text text-anchor="middle" x="261.5" y="-418.5" font-family="Times,serif" font-size="10.00">0x604000000290</text>
<polyline fill="none" stroke="black" points="110,-411.5 312,-411.5 "/>
<text text-anchor="middle" x="158.5" y="-399.5" font-family="Times,serif" font-size="10.00">left:</text>
<text text-anchor="middle" x="158.5" y="-388.5" font-family="Times,serif" font-size="10.00">(nil)</text>
<polyline fill="none" stroke="black" points="207,-381.5 207,-411.5 "/>
<text text-anchor="middle" x="259.5" y="-399.5" font-family="Times,serif" font-size="10.00">right:</text>
<text text-anchor="middle" x="259.5" y="-388.5" font-family="Times,serif" font-size="10.00">(nil)</text>
</g>
<!-- node9&#45;&gt;node1 -->
<g id="edge3" class="edge">
<title>node9&#45;&gt;node1</title>
<path fill="none" stroke="black" d="M282.22,-508.43C273.92,-499 265.08,-488.96 256.56,-479.27"/>
<polygon fill="black" stroke="black" points="259.04,-476.79 249.8,-471.59 253.78,-481.41 259.04,-476.79"/>
</g>
<!-- node8 -->
<g id="node6" class="node">
<title>node8</title>
<polygon fill="lightblue" stroke="black" points="330,-381.5 330,-471.5 532,-471.5 532,-381.5 330,-381.5"/>
<text text-anchor="middle" x="391" y="-459.5" font-family="Times,serif" font-size="10.00">data_type:</text>
<text text-anchor="middle" x="391" y="-448.5" font-family="Times,serif" font-size="10.00"> OPERATOR</text>
<polyline fill="none" stroke="black" points="452,-441.5 452,-471.5 "/>
<text text-anchor="middle" x="492" y="-454" font-family="Times,serif" font-size="10.00">DIV</text>
<polyline fill="none" stroke="black" points="330,-441.5 532,-441.5 "/>
<text text-anchor="middle" x="380.5" y="-429.5" font-family="Times,serif" font-size="10.00">this:</text>
<text text-anchor="middle" x="380.5" y="-418.5" font-family="Times,serif" font-size="10.00">0x604000000250</text>
<polyline fill="none" stroke="black" points="431,-411.5 431,-441.5 "/>
<text text-anchor="middle" x="481.5" y="-429.5" font-family="Times,serif" font-size="10.00">prev:</text>
<text text-anchor="middle" x="481.5" y="-418.5" font-family="Times,serif" font-size="10.00">0x604000000290</text>
<polyline fill="none" stroke="black" points="330,-411.5 532,-411.5 "/>
<text text-anchor="middle" x="380.5" y="-399.5" font-family="Times,serif" font-size="10.00">left:</text>
<text text-anchor="middle" x="380.5" y="-388.5" font-family="Times,serif" font-size="10.00">0x6040000001d0</text>
<polyline fill="none" stroke="black" points="431,-381.5 431,-411.5 "/>
<text text-anchor="middle" x="481.5" y="-399.5" font-family="Times,serif" font-size="10.00">right:</text>
<text text-anchor="middle" x="481.5" y="-388.5" font-family="Times,serif" font-size="10.00">0x604000000210</text>
</g>
<!-- node9&#45;&gt;node8 -->
<g id="edge10" class="edge">
<title>node9&#45;&gt;node8</title>
<path fill="none" stroke="black" d="M359.78,-508.43C368.08,-499 376.92,-488.96 385.44,-479.27"/>
<polygon fill="black" stroke="black" points="388.22,-481.41 392.2,-471.59 382.96,-476.79 388.22,-481.41"/>
</g>
<!-- node6 -->
<g id="node7" class="node">
<title>node6</title>
<polygon fill="lightblue" stroke="black" points="220,-254.5 220,-344.5 422,-344.5 422,-254.5 220,-254.5"/>
<text text-anchor="middle" x="280" y="-332.5" font-family="Times,serif" font-size="10.00">data_type:</text>
<text text-anchor="middle" x="280" y="-321.5" font-family="Times,serif" font-size="10.00"> OPERATOR</text>
<polyline fill="none" stroke="black" points="340,-314.5 340,-344.5 "/>
<text text-anchor="middle" x="381" y="-327" font-family="Times,serif" font-size="10.00">ADD</text>
<polyline fill="none" stroke="black" points="220,-314.5 422,-314.5 "/>
<text text-anchor="middle" x="270.5" y="-302.5" font-family="Times,serif" font-size="10.00">this:</text>
<text text-anchor="middle" x="270.5" y="-291.5" font-family="Times,serif" font-size="10.00">0x6040000001d0</text>
<polyline fill="none" stroke="black" points="321,-284.5 321,-314.5 "/>
<text text-anchor="middle" x="371.5" y="-302.5" font-family="Times,serif" font-size="10.00">prev:</text>
<text text-anchor="middle" x="371.5" y="-291.5" font-family="Times,serif" font-size="10.00">0x604000000250</text>
<polyline fill="none" stroke="black" points="220,-284.5 422,-284.5 "/>
<text text-anchor="middle" x="270.5" y="-272.5" font-family="Times,serif" font-size="10.00">left:</text>
<text text-anchor="middle" x="270.5" y="-261.5" font-family="Times,serif" font-size="10.00">0x6040000000d0</text>
<polyline fill="none" stroke="black" points="321,-254.5 321,-284.5 "/>
<text text-anchor="middle" x="371.5" y="-272.5" font-family="Times,serif" font-size="10.00">right:</text>
<text text-anchor="middle" x="371.5" y="-261.5" font-family="Times,serif" font-size="10.00">0x604000000190</text>
</g>
<!-- node8&#45;&gt;node6 -->
<g id="edge4" class="edge">
<title>node8&#45;&gt;node6</title>
<path fill="none" stroke="black" d="M392.22,-381.43C383.92,-372 375.08,-361.96 366.56,-352.27"/>
<polygon fill="black" stroke="black" points="369.04,-349.79 359.8,-344.59 363.78,-354.41 369.04,-349.79"/>
</g>
<!-- node7 -->
<g id="node12" class="node">
<title>node7</title>
<polygon fill="lightblue" stroke="black" points="440,-254.5 440,-344.5 642,-344.5 642,-254.5 440,-254.5"/>
<text text-anchor="middle" x="502" y="-332.5" font-family="Times,serif" font-size="10.00">data_type:</text>
<text text-anchor="middle" x="502" y="-321.5" font-family="Times,serif" font-size="10.00"> NUMBER</text>
<polyline fill="none" stroke="black" points="564,-314.5 564,-344.5 "/>
<text text-anchor="middle" x="603" y="-327" font-family="Times,serif" font-size="10.00">4</text>
<polyline fill="none" stroke="black" points="440,-314.5 642,-314.5 "/>
<text text-anchor="middle" x="490.5" y="-302.5" font-family="Times,serif" font-size="10.00">this:</text>
<text text-anchor="middle" x="490.5" y="-291.5" font-family="Times,serif" font-size="10.00">0x604000000210</text>
<polyline fill="none" stroke="black" points="541,-284.5 541,-314.5 "/>
<text text-anchor="middle" x="591.5" y="-302.5" font-family="Times,serif" font-size="10.00">prev:</text>
<text text-anchor="middle" x="591.5" y="-291.5" font-family="Times,serif" font-size="10.00">0x604000000250</text>
<polyline fill="none" stroke="black" points="440,-284.5 642,-284.5 "/>
<text text-anchor="middle" x="488.5" y="-272.5" font-family="Times,serif" font-size="10.00">left:</text>
<text text-anchor="middle" x="488.5" y="-261.5" font-family="Times,serif" font-size="10.00">(nil)</text>
<polyline fill="none" stroke="black" points="537,-254.5 537,-284.5 "/>
<text text-anchor="middle" x="589.5" y="-272.5" font-family="Times,serif" font-size="10.00">right:</text>
<text text-anchor="middle" x="589.5" y="-261.5" font-family="Times,serif" font-size="10.00">(nil)</text>
</g>
<!-- node8&#45;&gt;node7 -->
<g id="edge9" class="edge">
<title>node8&#45;&gt;node7</title>
<path fill="none" stroke="black" d="M469.78,-381.43C478.08,-372 486.92,-361.96 495.44,-352.27"/>
<polygon fill="black" stroke="black" points="498.22,-354.41 502.2,-344.59 492.96,-349.79 498.22,-354.41"/>
</g>
<!-- node2 -->
<g id="node8" class="node">
<title>node2</title>
<polygon fill="lightblue" stroke="black" points="110,-127.5 110,-217.5 312,-217.5 312,-127.5 110,-127.5"/>
<text text-anchor="middle" x="172" y="-205.5" font-family="Times,serif" font-size="10.00">data_type:</text>
<text text-anchor="middle" x="172" y="-194.5" font-family="Times,serif" font-size="10.00"> NUMBER</text>
<polyline fill="none" stroke="black" points="234,-187.5 234,-217.5 "/>
<text text-anchor="middle" x="273" y="-200" font-family="Times,serif" font-size="10.00">4</text>
<polyline fill="none" stroke="black" points="110,-187.5 312,-187.5 "/>
<text text-anchor="middle" x="160.5" y="-175.5" font-family="Times,serif" font-size="10.00">this:</text>
<text text-anchor="middle" x="160.5" y="-164.5" font-family="Times,serif" font-size="10.00">0x6040000000d0</text>
<polyline fill="none" stroke="black" points="211,-157.5 211,-187.5 "/>
<text text-anchor="middle" x="261.5" y="-175.5" font-family="Times,serif" font-size="10.00">prev:</text>
<text text-anchor="middle" x="261.5" y="-164.5" font-family="Times,serif" font-size="10.00">0x6040000001d0</text>
<polyline fill="none" stroke="black" points="110,-157.5 312,-157.5 "/>
<text text-anchor="middle" x="158.5" y="-145.5" font-family="Times,serif" font-size="10.00">left:</text>
<text text-anchor="middle" x="158.5" y="-134.5" font-family="Times,serif" font-size="10.00">(nil)</text>
<polyline fill="none" stroke="black" points="207,-127.5 207,-157.5 "/>
<text text-anchor="middle" x="259.5" y="-145.5" font-family="Times,serif" font-size="10.00">right:</text>
<text text-anchor="middle" x="259.5" y="-134.5" font-family="Times,serif" font-size="10.00">(nil)</text>
</g>
<!-- node6&#45;&gt;node2 -->
<g id="edge5" class="edge">
<title>node6&#45;&gt;node2</title>
<path fill="none" stroke="black" d="M282.22,-254.43C273.92,-245 265.08,-234.96 256.56,-225.27"/>
<polygon fill="black" stroke="black" points="259.04,-222.79 249.8,-217.59 253.78,-227.41 259.04,-222.79"/>
</g>
<!-- node5 -->
<g id="node9" class="node">
<title>node5</title>
<polygon fill="lightblue" stroke="black" points="330,-127.5 330,-217.5 532,-217.5 532,-127.5 330,-127.5"/>
<text text-anchor="middle" x="389.5" y="-205.5" font-family="Times,serif" font-size="10.00">data_type:</text>
<text text-anchor="middle" x="389.5" y="-194.5" font-family="Times,serif" font-size="10.00"> OPERATOR</text>
<polyline fill="none" stroke="black" points="449,-187.5 449,-217.5 "/>
<text text-anchor="middle" x="490.5" y="-200" font-family="Times,serif" font-size="10.00">MUL</text>
<polyline fill="none" stroke="black" points="330,-187.5 532,-187.5 "/>
<text text-anchor="middle" x="380.5" y="-175.5" font-family="Times,serif" font-size="10.00">this:</text>
<text text-anchor="middle" x="380.5" y="-164.5" font-family="Times,serif" font-size="10.00">0x604000000190</text>
<polyline fill="none" stroke="black" points="431,-157.5 431,-187.5 "/>
<text text-anchor="middle" x="481.5" y="-175.5" font-family="Times,serif" font-size="10.00">prev:</text>
<text text-anchor="middle" x="481.5" y="-164.5" font-family="Times,serif" font-size="10.00">0x6040000001d0</text>
<polyline fill="none" stroke="black" points="330,-157.5 532,-157.5 "/>
<text text-anchor="middle" x="380.5" y="-145.5" font-family="Times,serif" font-size="10.00">left:</text>
<text text-anchor="middle" x="380.5" y="-134.5" font-family="Times,serif" font-size="10.00">0x604000000110</text>
<polyline fill="none" stroke="black" points="431,-127.5 431,-157.5 "/>
<text text-anchor="middle" x="481.5" y="-145.5" font-family="Times,serif" font-size="10.00">right:</text>
<text text-anchor="middle" x="481.5" y="-134.5" font-family="Times,serif" font-size="10.00">0x604000000150</text>
</g>
<!-- node6&#45;&gt;node5 -->
<g id="edge8" class="edge">
<title>node6&#45;&gt;node5</title>
<path fill="none" stroke="black" d="M359.78,-254.43C368.08,-245 376.92,-234.96 385.44,-225.27"/>
<polygon fill="black" stroke="black" points="388.22,-227.41 392.2,-217.59 382.96,-222.79 388.22,-227.41"/>
</g>
<!-- node3 -->
<g id="node10" class="node">
<title>node3</title>
<polygon fill="lightblue" stroke="black" points="220,-0.5 220,-90.5 422,-90.5 422,-0.5 220,-0.5"/>
<text text-anchor="middle" x="282" y="-78.5" font-family="Times,serif" font-size="10.00">data_type:</text>
<text text-anchor="middle" x="282" y="-67.5" font-family="Times,serif" font-size="10.00"> NUMBER</text>
<polyline fill="none" stroke="black" points="344,-60.5 344,-90.5 "/>
<text text-anchor="middle" x="383" y="-73" font-family="Times,serif" font-size="10.00">9</text>
<polyline fill="none" stroke="black" points="220,-60.5 422,-60.5 "/>
<text text-anchor="middle" x="270.5" y="-48.5" font-family="Times,serif" font-size="10.00">this:</text>
<text text-anchor="middle" x="270.5" y="-37.5" font-family="Times,serif" font-size="10.00">0x604000000110</text>
<polyline fill="none" stroke="black" points="321,-30.5 321,-60.5 "/>
<text text-anchor="middle" x="371.5" y="-48.5" font-family="Times,serif" font-size="10.00">prev:</text>
<text text-anchor="middle" x="371.5" y="-37.5" font-family="Times,serif" font-size="10.00">0x604000000190</text>
<polyline fill="none" stroke="black" points="220,-30.5 422,-30.5 "/>
<text text-anchor="middle" x="268.5" y="-18.5" font-family="Times,serif" font-size="10.00">left:</text>
<text text-anchor="middle" x="268.5" y="-7.5" font-family="Times,serif" font-size="10.00">(nil)</text>
<polyline fill="none" stroke="black" points="317,-0.5 317,-30.5 "/>
<text text-anchor="middle" x="369.5" y="-18.5" font-family="Times,serif" font-size="10.00">right:</text>
<text text-anchor="middle" x="369.5" y="-7.5" font-family="Times,serif" font-size="10.00">(nil)</text>
</g>
<!-- node5&#45;&gt;node3 -->
<g id="edge6" class="edge">
<title>node5&#45;&gt;node3</title>
<path fill="none" stroke="black" d="M392.22,-127.43C383.92,-118 375.08,-107.96 366.56,-98.27"/>
<polygon fill="black" stroke="black" points="369.04,-95.79 359.8,-90.59 363.78,-100.41 369.04,-95.79"/>
</g>
<!-- node4 -->
<g id="node11" class="node">
<title>node4</title>
<polygon fill="lightblue" stroke="black" points="440,-0.5 440,-90.5 642,-90.5 642,-0.5 440,-0.5"/>
<text text-anchor="middle" x="497.5" y="-78.5" font-family="Times,serif" font-size="10.00">data_type:</text>
<text text-anchor="middle" x="497.5" y="-67.5" font-family="Times,serif" font-size="10.00"> NAME</text>
<polyline fill="none" stroke="black" points="555,-60.5 555,-90.5 "/>
<text text-anchor="middle" x="598.5" y="-73" font-family="Times,serif" font-size="10.00">kuku</text>
<polyline fill="none" stroke="black" points="440,-60.5 642,-60.5 "/>
<text text-anchor="middle" x="490.5" y="-48.5" font-family="Times,serif" font-size="10.00">this:</text>
<text text-anchor="middle" x="490.5" y="-37.5" font-family="Times,serif" font-size="10.00">0x604000000150</text>
<polyline fill="none" stroke="black" points="541,-30.5 541,-60.5 "/>
<text text-anchor="middle" x="591.5" y="-48.5" font-family="Times,serif" font-size="10.00">prev:</text>
<text text-anchor="middle" x="591.5" y="-37.5" font-family="Times,serif" font-size="10.00">0x604000000190</text>
<polyline fill="none" stroke="black" points="440,-30.5 642,-30.5 "/>
<text text-anchor="middle" x="488.5" y="-18.5" font-family="Times,serif" font-size="10.00">left:</text>
<text text-anchor="middle" x="488.5" y="-7.5" font-family="Times,serif" font-size="10.00">(nil)</text>
<polyline fill="none" stroke="black" points="537,-0.5 537,-30.5 "/>
<text text-anchor="middle" x="589.5" y="-18.5" font-family="Times,serif" font-size="10.00">right:</text>
<text text-anchor="middle" x="589.5" y="-7.5" font-family="Times,serif" font-size="10.00">(nil)</text>
</g>
<!-- node5&#45;&gt;node4 -->
<g id="edge7" class="edge">
<title>node5&#45;&gt;node4</title>
<path fill="none" stroke="black" d="M469.78,-127.43C478.08,-118 486.92,-107.96 495.44,-98.27"/>
<polygon fill="black" stroke="black" points="498.22,-100.41 502.2,-90.59 492.96,-95.79 498.22,-100.41"/>
</g>
</g>
</svg>
