<?xml version="1.0" encoding="UTF-8" standalone="no"?>
<!DOCTYPE svg PUBLIC "-//W3C//DTD SVG 1.1//EN"
 "http://www.w3.org/Graphics/SVG/1.1/DTD/svg11.dtd">
<!-- Generated by graphviz version 2.43.0 (0)
 -->
<!-- Title: G Pages: 1 -->
<svg width="206pt" height="593pt"
 viewBox="0.00 0.00 205.88 593.23" xmlns="http://www.w3.org/2000/svg" xmlns:xlink="http://www.w3.org/1999/xlink">
<g id="graph0" class="graph" transform="scale(1 1) rotate(0) translate(4 589.23)">
<title>G</title>
<polygon fill="white" stroke="transparent" points="-4,4 -4,-589.23 201.88,-589.23 201.88,4 -4,4"/>
<!-- node8 -->
<g id="node1" class="node">
<title>node8</title>
<ellipse fill="lightblue" stroke="black" cx="66.21" cy="-541.39" rx="43.68" ry="43.68"/>
<text text-anchor="middle" x="66.21" y="-536.39" font-family="Times,serif" font-size="20.00">SUB</text>
</g>
<!-- node0 -->
<g id="node2" class="node">
<title>node0</title>
<ellipse fill="lightblue" stroke="black" cx="27.21" cy="-422.66" rx="21.43" ry="21.43"/>
<text text-anchor="middle" x="27.21" y="-417.66" font-family="Times,serif" font-size="20.00">1</text>
</g>
<!-- node8&#45;&gt;node0 -->
<g id="edge1" class="edge">
<title>node8&#45;&gt;node0</title>
<path fill="none" stroke="black" d="M52.57,-499.57C47.41,-484.12 41.65,-466.86 36.92,-452.71"/>
<polygon fill="black" stroke="black" points="40.17,-451.4 33.68,-443.03 33.53,-453.62 40.17,-451.4"/>
</g>
<!-- node7 -->
<g id="node3" class="node">
<title>node7</title>
<ellipse fill="lightblue" stroke="black" cx="105.21" cy="-422.66" rx="38.78" ry="38.78"/>
<text text-anchor="middle" x="105.21" y="-417.66" font-family="Times,serif" font-size="20.00">DIV</text>
</g>
<!-- node8&#45;&gt;node7 -->
<g id="edge8" class="edge">
<title>node8&#45;&gt;node7</title>
<path fill="none" stroke="black" d="M79.85,-499.57C83.08,-489.9 86.55,-479.53 89.85,-469.65"/>
<polygon fill="black" stroke="black" points="93.23,-470.58 93.08,-459.99 86.59,-468.36 93.23,-470.58"/>
</g>
<!-- node5 -->
<g id="node4" class="node">
<title>node5</title>
<ellipse fill="lightblue" stroke="black" cx="64.21" cy="-303.93" rx="43.68" ry="43.68"/>
<text text-anchor="middle" x="64.21" y="-298.93" font-family="Times,serif" font-size="20.00">ADD</text>
</g>
<!-- node7&#45;&gt;node5 -->
<g id="edge2" class="edge">
<title>node7&#45;&gt;node5</title>
<path fill="none" stroke="black" d="M92.58,-385.69C89.19,-376.04 85.46,-365.43 81.86,-355.17"/>
<polygon fill="black" stroke="black" points="85.07,-353.75 78.45,-345.48 78.47,-356.07 85.07,-353.75"/>
</g>
<!-- node6 -->
<g id="node9" class="node">
<title>node6</title>
<ellipse fill="lightblue" stroke="black" cx="147.21" cy="-303.93" rx="21.43" ry="21.43"/>
<text text-anchor="middle" x="147.21" y="-298.93" font-family="Times,serif" font-size="20.00">4</text>
</g>
<!-- node7&#45;&gt;node6 -->
<g id="edge7" class="edge">
<title>node7&#45;&gt;node6</title>
<path fill="none" stroke="black" d="M118.16,-385.69C124.13,-369.09 131.12,-349.65 136.75,-334"/>
<polygon fill="black" stroke="black" points="140.14,-334.93 140.23,-324.33 133.55,-332.56 140.14,-334.93"/>
</g>
<!-- node1 -->
<g id="node5" class="node">
<title>node1</title>
<ellipse fill="lightblue" stroke="black" cx="21.21" cy="-176.71" rx="21.43" ry="21.43"/>
<text text-anchor="middle" x="21.21" y="-171.71" font-family="Times,serif" font-size="20.00">4</text>
</g>
<!-- node5&#45;&gt;node1 -->
<g id="edge3" class="edge">
<title>node5&#45;&gt;node1</title>
<path fill="none" stroke="black" d="M50.25,-262.28C44.04,-244.18 36.86,-223.28 31.2,-206.79"/>
<polygon fill="black" stroke="black" points="34.45,-205.47 27.89,-197.15 27.83,-207.75 34.45,-205.47"/>
</g>
<!-- node4 -->
<g id="node6" class="node">
<title>node4</title>
<ellipse fill="lightblue" stroke="black" cx="108.21" cy="-176.71" rx="47.25" ry="47.25"/>
<text text-anchor="middle" x="108.21" y="-171.71" font-family="Times,serif" font-size="20.00">MUL</text>
</g>
<!-- node5&#45;&gt;node4 -->
<g id="edge6" class="edge">
<title>node5&#45;&gt;node4</title>
<path fill="none" stroke="black" d="M78.5,-262.28C82,-252.33 85.79,-241.53 89.46,-231.08"/>
<polygon fill="black" stroke="black" points="92.77,-232.22 92.79,-221.62 86.17,-229.89 92.77,-232.22"/>
</g>
<!-- node2 -->
<g id="node7" class="node">
<title>node2</title>
<ellipse fill="lightblue" stroke="black" cx="65.21" cy="-46.67" rx="21.43" ry="21.43"/>
<text text-anchor="middle" x="65.21" y="-41.67" font-family="Times,serif" font-size="20.00">9</text>
</g>
<!-- node4&#45;&gt;node2 -->
<g id="edge4" class="edge">
<title>node4&#45;&gt;node2</title>
<path fill="none" stroke="black" d="M93.42,-131.65C87.3,-113.44 80.38,-92.83 74.92,-76.59"/>
<polygon fill="black" stroke="black" points="78.24,-75.46 71.74,-67.1 71.6,-77.69 78.24,-75.46"/>
</g>
<!-- node3 -->
<g id="node8" class="node">
<title>node3</title>
<ellipse fill="lightblue" stroke="black" cx="151.21" cy="-46.67" rx="46.84" ry="46.84"/>
<text text-anchor="middle" x="151.21" y="-41.67" font-family="Times,serif" font-size="20.00">kuku</text>
</g>
<!-- node4&#45;&gt;node3 -->
<g id="edge5" class="edge">
<title>node4&#45;&gt;node3</title>
<path fill="none" stroke="black" d="M123.01,-131.65C126.33,-121.78 129.87,-111.21 133.3,-101.01"/>
<polygon fill="black" stroke="black" points="136.67,-101.98 136.53,-91.38 130.03,-99.75 136.67,-101.98"/>
</g>
</g>
</svg>
