<?xml version="1.0" encoding="UTF-8" standalone="no"?>
<!DOCTYPE svg PUBLIC "-//W3C//DTD SVG 1.1//EN"
 "http://www.w3.org/Graphics/SVG/1.1/DTD/svg11.dtd">
<!-- Generated by graphviz version 2.43.0 (0)
 -->
<!-- Title: G Pages: 1 -->
<svg width="154pt" height="667pt"
 viewBox="0.00 0.00 153.66 666.77" xmlns="http://www.w3.org/2000/svg" xmlns:xlink="http://www.w3.org/1999/xlink">
<g id="graph0" class="graph" transform="scale(1 1) rotate(0) translate(4 662.77)">
<title>G</title>
<polygon fill="white" stroke="transparent" points="-4,4 -4,-662.77 149.66,-662.77 149.66,4 -4,4"/>
<!-- node60 -->
<g id="node1" class="node">
<title>node60</title>
<ellipse fill="lightblue" stroke="black" cx="72.83" cy="-602.21" rx="56.64" ry="56.64"/>
<text text-anchor="middle" x="72.83" y="-597.21" font-family="Times,serif" font-size="20.00">FUNC</text>
</g>
<!-- node59 -->
<g id="node2" class="node">
<title>node59</title>
<ellipse fill="lightblue" stroke="black" cx="72.83" cy="-436.8" rx="72.66" ry="72.66"/>
<text text-anchor="middle" x="72.83" y="-431.8" font-family="Times,serif" font-size="20.00">rec_fuck</text>
</g>
<!-- node60&#45;&gt;node59 -->
<g id="edge1" class="edge">
<title>node60&#45;&gt;node59</title>
<path fill="none" stroke="black" d="M72.83,-545.43C72.83,-537.19 72.83,-528.56 72.83,-519.92"/>
<polygon fill="black" stroke="black" points="76.33,-519.8 72.83,-509.8 69.33,-519.8 76.33,-519.8"/>
</g>
<!-- node40 -->
<g id="node3" class="node">
<title>node40</title>
<ellipse fill="lightblue" stroke="black" cx="72.83" cy="-262.92" rx="65.11" ry="65.11"/>
<text text-anchor="middle" x="72.83" y="-257.92" font-family="Times,serif" font-size="20.00">PARAM</text>
</g>
<!-- node59&#45;&gt;node40 -->
<g id="edge2" class="edge">
<title>node59&#45;&gt;node40</title>
<path fill="none" stroke="black" d="M72.83,-363.91C72.83,-355.47 72.83,-346.85 72.83,-338.38"/>
<polygon fill="black" stroke="black" points="76.33,-338.14 72.83,-328.14 69.33,-338.14 76.33,-338.14"/>
</g>
<!-- node39 -->
<g id="node4" class="node">
<title>node39</title>
<ellipse fill="lightblue" stroke="black" cx="72.83" cy="-120.15" rx="41.94" ry="41.94"/>
<text text-anchor="middle" x="72.83" y="-115.15" font-family="Times,serif" font-size="20.00">VAR</text>
</g>
<!-- node40&#45;&gt;node39 -->
<g id="edge3" class="edge">
<title>node40&#45;&gt;node39</title>
<path fill="none" stroke="black" d="M72.83,-197.71C72.83,-189.15 72.83,-180.46 72.83,-172.16"/>
<polygon fill="black" stroke="black" points="76.33,-171.89 72.83,-161.89 69.33,-171.89 76.33,-171.89"/>
</g>
<!-- node38 -->
<g id="node5" class="node">
<title>node38</title>
<ellipse fill="lightblue" stroke="black" cx="72.83" cy="-21.21" rx="21.43" ry="21.43"/>
<text text-anchor="middle" x="72.83" y="-16.21" font-family="Times,serif" font-size="20.00">n</text>
</g>
<!-- node39&#45;&gt;node38 -->
<g id="edge4" class="edge">
<title>node39&#45;&gt;node38</title>
<path fill="none" stroke="black" d="M72.83,-78.32C72.83,-69.76 72.83,-60.87 72.83,-52.76"/>
<polygon fill="black" stroke="black" points="76.33,-52.64 72.83,-42.64 69.33,-52.64 76.33,-52.64"/>
</g>
</g>
</svg>
