<?xml version="1.0" encoding="UTF-8" standalone="no"?>
<!DOCTYPE svg PUBLIC "-//W3C//DTD SVG 1.1//EN"
 "http://www.w3.org/Graphics/SVG/1.1/DTD/svg11.dtd">
<!-- Generated by graphviz version 2.43.0 (0)
 -->
<!-- Title: G Pages: 1 -->
<svg width="234pt" height="413pt"
 viewBox="0.00 0.00 233.66 412.98" xmlns="http://www.w3.org/2000/svg" xmlns:xlink="http://www.w3.org/1999/xlink">
<g id="graph0" class="graph" transform="scale(1 1) rotate(0) translate(4 408.98)">
<title>G</title>
<polygon fill="white" stroke="transparent" points="-4,4 -4,-408.98 229.66,-408.98 229.66,4 -4,4"/>
<!-- node44 -->
<g id="node1" class="node">
<title>node44</title>
<ellipse fill="lightblue" stroke="black" cx="114.45" cy="-373.87" rx="31.23" ry="31.23"/>
<text text-anchor="middle" x="114.45" y="-368.87" font-family="Times,serif" font-size="20.00">ST</text>
</g>
<!-- node43 -->
<g id="node2" class="node">
<title>node43</title>
<ellipse fill="lightblue" stroke="black" cx="114.45" cy="-265.04" rx="41.94" ry="41.94"/>
<text text-anchor="middle" x="114.45" y="-260.04" font-family="Times,serif" font-size="20.00">VAR</text>
</g>
<!-- node44&#45;&gt;node43 -->
<g id="edge1" class="edge">
<title>node44&#45;&gt;node43</title>
<path fill="none" stroke="black" d="M114.45,-342.54C114.45,-334.56 114.45,-325.73 114.45,-316.99"/>
<polygon fill="black" stroke="black" points="117.95,-316.82 114.45,-306.82 110.95,-316.82 117.95,-316.82"/>
</g>
<!-- node39 -->
<g id="node3" class="node">
<title>node39</title>
<ellipse fill="lightblue" stroke="black" cx="54.45" cy="-132.87" rx="54.39" ry="54.39"/>
<text text-anchor="middle" x="54.45" y="-127.87" font-family="Times,serif" font-size="20.00">result</text>
</g>
<!-- node43&#45;&gt;node39 -->
<g id="edge2" class="edge">
<title>node43&#45;&gt;node39</title>
<path fill="none" stroke="black" d="M97.25,-226.74C92.28,-215.95 86.73,-203.91 81.32,-192.16"/>
<polygon fill="black" stroke="black" points="84.38,-190.46 77.02,-182.84 78.03,-193.39 84.38,-190.46"/>
</g>
<!-- node42 -->
<g id="node4" class="node">
<title>node42</title>
<ellipse fill="lightblue" stroke="black" cx="174.45" cy="-132.87" rx="47.25" ry="47.25"/>
<text text-anchor="middle" x="174.45" y="-127.87" font-family="Times,serif" font-size="20.00">MUL</text>
</g>
<!-- node43&#45;&gt;node42 -->
<g id="edge5" class="edge">
<title>node43&#45;&gt;node42</title>
<path fill="none" stroke="black" d="M131.64,-226.74C137.55,-213.92 144.27,-199.33 150.61,-185.58"/>
<polygon fill="black" stroke="black" points="153.92,-186.77 154.93,-176.22 147.56,-183.84 153.92,-186.77"/>
</g>
<!-- node40 -->
<g id="node5" class="node">
<title>node40</title>
<ellipse fill="lightblue" stroke="black" cx="144.45" cy="-21.21" rx="21.43" ry="21.43"/>
<text text-anchor="middle" x="144.45" y="-16.21" font-family="Times,serif" font-size="20.00">a</text>
</g>
<!-- node42&#45;&gt;node40 -->
<g id="edge3" class="edge">
<title>node42&#45;&gt;node40</title>
<path fill="none" stroke="black" d="M162.16,-86.95C158.9,-75.03 155.46,-62.46 152.49,-51.6"/>
<polygon fill="black" stroke="black" points="155.82,-50.51 149.8,-41.79 149.07,-52.36 155.82,-50.51"/>
</g>
<!-- node41 -->
<g id="node6" class="node">
<title>node41</title>
<ellipse fill="lightblue" stroke="black" cx="204.45" cy="-21.21" rx="21.43" ry="21.43"/>
<text text-anchor="middle" x="204.45" y="-16.21" font-family="Times,serif" font-size="20.00">b</text>
</g>
<!-- node42&#45;&gt;node41 -->
<g id="edge4" class="edge">
<title>node42&#45;&gt;node41</title>
<path fill="none" stroke="black" d="M186.74,-86.95C190,-75.03 193.44,-62.46 196.41,-51.6"/>
<polygon fill="black" stroke="black" points="199.83,-52.36 199.09,-41.79 193.08,-50.51 199.83,-52.36"/>
</g>
</g>
</svg>
