<?xml version="1.0" encoding="UTF-8" standalone="no"?>
<!DOCTYPE svg PUBLIC "-//W3C//DTD SVG 1.1//EN"
 "http://www.w3.org/Graphics/SVG/1.1/DTD/svg11.dtd">
<!-- Generated by graphviz version 2.43.0 (0)
 -->
<!-- Title: G Pages: 1 -->
<svg width="1182pt" height="2536pt"
 viewBox="0.00 0.00 1182.47 2536.38" xmlns="http://www.w3.org/2000/svg" xmlns:xlink="http://www.w3.org/1999/xlink">
<g id="graph0" class="graph" transform="scale(1 1) rotate(0) translate(4 2532.38)">
<title>G</title>
<polygon fill="white" stroke="transparent" points="-4,4 -4,-2532.38 1178.47,-2532.38 1178.47,4 -4,4"/>
<!-- node68 -->
<g id="node1" class="node">
<title>node68</title>
<ellipse fill="lightblue" stroke="black" cx="389.05" cy="-2497.27" rx="31.23" ry="31.23"/>
<text text-anchor="middle" x="389.05" y="-2492.27" font-family="Times,serif" font-size="20.00">ST</text>
</g>
<!-- node38 -->
<g id="node2" class="node">
<title>node38</title>
<ellipse fill="lightblue" stroke="black" cx="315.05" cy="-2373.59" rx="56.64" ry="56.64"/>
<text text-anchor="middle" x="315.05" y="-2368.59" font-family="Times,serif" font-size="20.00">FUNC</text>
</g>
<!-- node68&#45;&gt;node38 -->
<g id="edge1" class="edge">
<title>node68&#45;&gt;node38</title>
<path fill="none" stroke="black" d="M373.18,-2470.17C366.21,-2458.71 357.74,-2444.78 349.45,-2431.14"/>
<polygon fill="black" stroke="black" points="352.22,-2428.98 344.04,-2422.25 346.24,-2432.61 352.22,-2428.98"/>
</g>
<!-- node67 -->
<g id="node39" class="node">
<title>node67</title>
<ellipse fill="lightblue" stroke="black" cx="494.05" cy="-2373.59" rx="31.23" ry="31.23"/>
<text text-anchor="middle" x="494.05" y="-2368.59" font-family="Times,serif" font-size="20.00">ST</text>
</g>
<!-- node68&#45;&gt;node67 -->
<g id="edge65" class="edge">
<title>node68&#45;&gt;node67</title>
<path fill="none" stroke="black" d="M409.05,-2473.1C425.62,-2453.9 449.3,-2426.45 467.47,-2405.4"/>
<polygon fill="black" stroke="black" points="470.25,-2407.54 474.13,-2397.68 464.95,-2402.96 470.25,-2407.54"/>
</g>
<!-- node37 -->
<g id="node3" class="node">
<title>node37</title>
<ellipse fill="lightblue" stroke="black" cx="193.05" cy="-2208.19" rx="72.66" ry="72.66"/>
<text text-anchor="middle" x="193.05" y="-2203.19" font-family="Times,serif" font-size="20.00">rec_fuck</text>
</g>
<!-- node38&#45;&gt;node37 -->
<g id="edge2" class="edge">
<title>node38&#45;&gt;node37</title>
<path fill="none" stroke="black" d="M281.39,-2327.51C269.39,-2311.43 255.61,-2292.98 242.56,-2275.49"/>
<polygon fill="black" stroke="black" points="245.01,-2272.92 236.22,-2267.01 239.4,-2277.11 245.01,-2272.92"/>
</g>
<!-- node35 -->
<g id="node8" class="node">
<title>node35</title>
<ellipse fill="lightblue" stroke="black" cx="315.05" cy="-2208.19" rx="31.23" ry="31.23"/>
<text text-anchor="middle" x="315.05" y="-2203.19" font-family="Times,serif" font-size="20.00">ST</text>
</g>
<!-- node38&#45;&gt;node35 -->
<g id="edge37" class="edge">
<title>node38&#45;&gt;node35</title>
<path fill="none" stroke="black" d="M315.05,-2316.81C315.05,-2294.77 315.05,-2269.92 315.05,-2249.65"/>
<polygon fill="black" stroke="black" points="318.55,-2249.51 315.05,-2239.51 311.55,-2249.51 318.55,-2249.51"/>
</g>
<!-- node3 -->
<g id="node4" class="node">
<title>node3</title>
<ellipse fill="lightblue" stroke="black" cx="65.05" cy="-2034.3" rx="65.11" ry="65.11"/>
<text text-anchor="middle" x="65.05" y="-2029.3" font-family="Times,serif" font-size="20.00">PARAM</text>
</g>
<!-- node37&#45;&gt;node3 -->
<g id="edge3" class="edge">
<title>node37&#45;&gt;node3</title>
<path fill="none" stroke="black" d="M149.72,-2149C136.88,-2131.76 122.8,-2112.84 109.87,-2095.48"/>
<polygon fill="black" stroke="black" points="112.4,-2093.02 103.62,-2087.09 106.79,-2097.2 112.4,-2093.02"/>
</g>
<!-- node36 -->
<g id="node7" class="node">
<title>node36</title>
<ellipse fill="lightblue" stroke="black" cx="195.05" cy="-2034.3" rx="46.84" ry="46.84"/>
<text text-anchor="middle" x="195.05" y="-2029.3" font-family="Times,serif" font-size="20.00">Type</text>
</g>
<!-- node37&#45;&gt;node36 -->
<g id="edge6" class="edge">
<title>node37&#45;&gt;node36</title>
<path fill="none" stroke="black" d="M193.89,-2135.29C194.06,-2120.56 194.24,-2105.26 194.4,-2091.19"/>
<polygon fill="black" stroke="black" points="197.9,-2091.23 194.52,-2081.19 190.9,-2091.15 197.9,-2091.23"/>
</g>
<!-- node2 -->
<g id="node5" class="node">
<title>node2</title>
<ellipse fill="lightblue" stroke="black" cx="65.05" cy="-1876.68" rx="41.94" ry="41.94"/>
<text text-anchor="middle" x="65.05" y="-1871.68" font-family="Times,serif" font-size="20.00">VAR</text>
</g>
<!-- node3&#45;&gt;node2 -->
<g id="edge4" class="edge">
<title>node3&#45;&gt;node2</title>
<path fill="none" stroke="black" d="M65.05,-1969.11C65.05,-1955.63 65.05,-1941.59 65.05,-1928.67"/>
<polygon fill="black" stroke="black" points="68.55,-1928.59 65.05,-1918.59 61.55,-1928.59 68.55,-1928.59"/>
</g>
<!-- node1 -->
<g id="node6" class="node">
<title>node1</title>
<ellipse fill="lightblue" stroke="black" cx="65.05" cy="-1712.7" rx="21.43" ry="21.43"/>
<text text-anchor="middle" x="65.05" y="-1707.7" font-family="Times,serif" font-size="20.00">n</text>
</g>
<!-- node2&#45;&gt;node1 -->
<g id="edge5" class="edge">
<title>node2&#45;&gt;node1</title>
<path fill="none" stroke="black" d="M65.05,-1834.81C65.05,-1806.76 65.05,-1770.12 65.05,-1744.52"/>
<polygon fill="black" stroke="black" points="68.55,-1744.28 65.05,-1734.28 61.55,-1744.28 68.55,-1744.28"/>
</g>
<!-- node34 -->
<g id="node9" class="node">
<title>node34</title>
<ellipse fill="lightblue" stroke="black" cx="314.05" cy="-2034.3" rx="27.65" ry="27.65"/>
<text text-anchor="middle" x="314.05" y="-2029.3" font-family="Times,serif" font-size="20.00">IF</text>
</g>
<!-- node35&#45;&gt;node34 -->
<g id="edge7" class="edge">
<title>node35&#45;&gt;node34</title>
<path fill="none" stroke="black" d="M314.88,-2176.86C314.71,-2147.59 314.45,-2103.24 314.27,-2072"/>
<polygon fill="black" stroke="black" points="317.77,-2071.93 314.21,-2061.95 310.77,-2071.97 317.77,-2071.93"/>
</g>
<!-- node6 -->
<g id="node10" class="node">
<title>node6</title>
<ellipse fill="lightblue" stroke="black" cx="187.05" cy="-1876.68" rx="54.39" ry="54.39"/>
<text text-anchor="middle" x="187.05" y="-1871.68" font-family="Times,serif" font-size="20.00">IS_BT</text>
</g>
<!-- node34&#45;&gt;node6 -->
<g id="edge8" class="edge">
<title>node34&#45;&gt;node6</title>
<path fill="none" stroke="black" d="M296.93,-2012.32C279.23,-1990.63 250.96,-1955.99 227.53,-1927.28"/>
<polygon fill="black" stroke="black" points="230.09,-1924.89 221.06,-1919.35 224.67,-1929.31 230.09,-1924.89"/>
</g>
<!-- node33 -->
<g id="node13" class="node">
<title>node33</title>
<ellipse fill="lightblue" stroke="black" cx="314.05" cy="-1876.68" rx="50.82" ry="50.82"/>
<text text-anchor="middle" x="314.05" y="-1871.68" font-family="Times,serif" font-size="20.00">ELSE</text>
</g>
<!-- node34&#45;&gt;node33 -->
<g id="edge36" class="edge">
<title>node34&#45;&gt;node33</title>
<path fill="none" stroke="black" d="M314.05,-2006.55C314.05,-1987.62 314.05,-1961.46 314.05,-1937.66"/>
<polygon fill="black" stroke="black" points="317.55,-1937.63 314.05,-1927.63 310.55,-1937.63 317.55,-1937.63"/>
</g>
<!-- node4 -->
<g id="node11" class="node">
<title>node4</title>
<ellipse fill="lightblue" stroke="black" cx="127.05" cy="-1712.7" rx="21.43" ry="21.43"/>
<text text-anchor="middle" x="127.05" y="-1707.7" font-family="Times,serif" font-size="20.00">n</text>
</g>
<!-- node6&#45;&gt;node4 -->
<g id="edge9" class="edge">
<title>node6&#45;&gt;node4</title>
<path fill="none" stroke="black" d="M168.4,-1825.32C158.27,-1797.97 146.12,-1765.16 137.62,-1742.22"/>
<polygon fill="black" stroke="black" points="140.86,-1740.89 134.1,-1732.73 134.3,-1743.32 140.86,-1740.89"/>
</g>
<!-- node5 -->
<g id="node12" class="node">
<title>node5</title>
<ellipse fill="lightblue" stroke="black" cx="187.05" cy="-1712.7" rx="21.43" ry="21.43"/>
<text text-anchor="middle" x="187.05" y="-1707.7" font-family="Times,serif" font-size="20.00">1</text>
</g>
<!-- node6&#45;&gt;node5 -->
<g id="edge10" class="edge">
<title>node6&#45;&gt;node5</title>
<path fill="none" stroke="black" d="M187.05,-1822.19C187.05,-1796.22 187.05,-1765.96 187.05,-1744"/>
<polygon fill="black" stroke="black" points="190.55,-1743.95 187.05,-1733.95 183.55,-1743.95 190.55,-1743.95"/>
</g>
<!-- node12 -->
<g id="node14" class="node">
<title>node12</title>
<ellipse fill="lightblue" stroke="black" cx="257.05" cy="-1712.7" rx="31.23" ry="31.23"/>
<text text-anchor="middle" x="257.05" y="-1707.7" font-family="Times,serif" font-size="20.00">ST</text>
</g>
<!-- node33&#45;&gt;node12 -->
<g id="edge11" class="edge">
<title>node33&#45;&gt;node12</title>
<path fill="none" stroke="black" d="M297.41,-1828.39C288.88,-1804.15 278.63,-1775.01 270.59,-1752.16"/>
<polygon fill="black" stroke="black" points="273.8,-1750.74 267.18,-1742.47 267.2,-1753.07 273.8,-1750.74"/>
</g>
<!-- node32 -->
<g id="node20" class="node">
<title>node32</title>
<ellipse fill="lightblue" stroke="black" cx="337.05" cy="-1712.7" rx="31.23" ry="31.23"/>
<text text-anchor="middle" x="337.05" y="-1707.7" font-family="Times,serif" font-size="20.00">ST</text>
</g>
<!-- node33&#45;&gt;node32 -->
<g id="edge35" class="edge">
<title>node33&#45;&gt;node32</title>
<path fill="none" stroke="black" d="M321.08,-1826.2C324.39,-1802.91 328.28,-1775.49 331.39,-1753.56"/>
<polygon fill="black" stroke="black" points="334.87,-1753.98 332.81,-1743.59 327.94,-1753 334.87,-1753.98"/>
</g>
<!-- node7 -->
<g id="node15" class="node">
<title>node7</title>
<ellipse fill="lightblue" stroke="black" cx="161.05" cy="-1540.22" rx="47.25" ry="47.25"/>
<text text-anchor="middle" x="161.05" y="-1535.22" font-family="Times,serif" font-size="20.00">EXIT</text>
</g>
<!-- node12&#45;&gt;node7 -->
<g id="edge12" class="edge">
<title>node12&#45;&gt;node7</title>
<path fill="none" stroke="black" d="M242.05,-1685.06C227.89,-1659.92 206.31,-1621.59 188.98,-1590.82"/>
<polygon fill="black" stroke="black" points="191.94,-1588.94 183.99,-1581.95 185.84,-1592.38 191.94,-1588.94"/>
</g>
<!-- node11 -->
<g id="node16" class="node">
<title>node11</title>
<ellipse fill="lightblue" stroke="black" cx="257.05" cy="-1540.22" rx="31.23" ry="31.23"/>
<text text-anchor="middle" x="257.05" y="-1535.22" font-family="Times,serif" font-size="20.00">ST</text>
</g>
<!-- node12&#45;&gt;node11 -->
<g id="edge16" class="edge">
<title>node12&#45;&gt;node11</title>
<path fill="none" stroke="black" d="M257.05,-1681.22C257.05,-1653.46 257.05,-1612.27 257.05,-1581.75"/>
<polygon fill="black" stroke="black" points="260.55,-1581.44 257.05,-1571.44 253.55,-1581.44 260.55,-1581.44"/>
</g>
<!-- node10 -->
<g id="node17" class="node">
<title>node10</title>
<ellipse fill="lightblue" stroke="black" cx="238.05" cy="-1374.12" rx="44.6" ry="44.6"/>
<text text-anchor="middle" x="238.05" y="-1369.12" font-family="Times,serif" font-size="20.00">OUT</text>
</g>
<!-- node11&#45;&gt;node10 -->
<g id="edge13" class="edge">
<title>node11&#45;&gt;node10</title>
<path fill="none" stroke="black" d="M253.57,-1509.12C250.97,-1486.64 247.34,-1455.32 244.25,-1428.61"/>
<polygon fill="black" stroke="black" points="247.72,-1428.16 243.09,-1418.63 240.77,-1428.97 247.72,-1428.16"/>
</g>
<!-- node9 -->
<g id="node18" class="node">
<title>node9</title>
<ellipse fill="lightblue" stroke="black" cx="238.05" cy="-1205.89" rx="65.11" ry="65.11"/>
<text text-anchor="middle" x="238.05" y="-1200.89" font-family="Times,serif" font-size="20.00">PARAM</text>
</g>
<!-- node10&#45;&gt;node9 -->
<g id="edge14" class="edge">
<title>node10&#45;&gt;node9</title>
<path fill="none" stroke="black" d="M238.05,-1329.44C238.05,-1314.7 238.05,-1297.81 238.05,-1281.38"/>
<polygon fill="black" stroke="black" points="241.55,-1281.23 238.05,-1271.23 234.55,-1281.23 241.55,-1281.23"/>
</g>
<!-- node8 -->
<g id="node19" class="node">
<title>node8</title>
<ellipse fill="lightblue" stroke="black" cx="238.05" cy="-994.52" rx="108.38" ry="108.38"/>
<text text-anchor="middle" x="238.05" y="-989.52" font-family="Times,serif" font-size="20.00">1.33723e+08</text>
</g>
<!-- node9&#45;&gt;node8 -->
<g id="edge15" class="edge">
<title>node9&#45;&gt;node8</title>
<path fill="none" stroke="black" d="M238.05,-1140.65C238.05,-1131.82 238.05,-1122.54 238.05,-1113.12"/>
<polygon fill="black" stroke="black" points="241.55,-1112.85 238.05,-1102.85 234.55,-1112.85 241.55,-1112.85"/>
</g>
<!-- node31 -->
<g id="node21" class="node">
<title>node31</title>
<ellipse fill="lightblue" stroke="black" cx="355.05" cy="-1540.22" rx="27.65" ry="27.65"/>
<text text-anchor="middle" x="355.05" y="-1535.22" font-family="Times,serif" font-size="20.00">IF</text>
</g>
<!-- node32&#45;&gt;node31 -->
<g id="edge17" class="edge">
<title>node32&#45;&gt;node31</title>
<path fill="none" stroke="black" d="M340.23,-1681.61C343.29,-1652.67 347.91,-1608.86 351.18,-1577.9"/>
<polygon fill="black" stroke="black" points="354.66,-1578.24 352.23,-1567.92 347.7,-1577.5 354.66,-1578.24"/>
</g>
<!-- node15 -->
<g id="node22" class="node">
<title>node15</title>
<ellipse fill="lightblue" stroke="black" cx="355.05" cy="-1374.12" rx="54.39" ry="54.39"/>
<text text-anchor="middle" x="355.05" y="-1369.12" font-family="Times,serif" font-size="20.00">IS_EE</text>
</g>
<!-- node31&#45;&gt;node15 -->
<g id="edge18" class="edge">
<title>node31&#45;&gt;node15</title>
<path fill="none" stroke="black" d="M355.05,-1512.49C355.05,-1492.53 355.05,-1464.38 355.05,-1438.76"/>
<polygon fill="black" stroke="black" points="358.55,-1438.72 355.05,-1428.72 351.55,-1438.72 358.55,-1438.72"/>
</g>
<!-- node30 -->
<g id="node25" class="node">
<title>node30</title>
<ellipse fill="lightblue" stroke="black" cx="478.05" cy="-1374.12" rx="50.82" ry="50.82"/>
<text text-anchor="middle" x="478.05" y="-1369.12" font-family="Times,serif" font-size="20.00">ELSE</text>
</g>
<!-- node31&#45;&gt;node30 -->
<g id="edge34" class="edge">
<title>node31&#45;&gt;node30</title>
<path fill="none" stroke="black" d="M371.13,-1517.77C388.95,-1494 418.25,-1454.91 441.67,-1423.65"/>
<polygon fill="black" stroke="black" points="444.61,-1425.58 447.8,-1415.48 439,-1421.38 444.61,-1425.58"/>
</g>
<!-- node13 -->
<g id="node23" class="node">
<title>node13</title>
<ellipse fill="lightblue" stroke="black" cx="344.05" cy="-1205.89" rx="21.43" ry="21.43"/>
<text text-anchor="middle" x="344.05" y="-1200.89" font-family="Times,serif" font-size="20.00">n</text>
</g>
<!-- node15&#45;&gt;node13 -->
<g id="edge19" class="edge">
<title>node15&#45;&gt;node13</title>
<path fill="none" stroke="black" d="M351.51,-1319.61C349.71,-1292.4 347.59,-1260.33 346.07,-1237.37"/>
<polygon fill="black" stroke="black" points="349.55,-1236.95 345.4,-1227.2 342.57,-1237.41 349.55,-1236.95"/>
</g>
<!-- node14 -->
<g id="node24" class="node">
<title>node14</title>
<ellipse fill="lightblue" stroke="black" cx="404.05" cy="-1205.89" rx="21.43" ry="21.43"/>
<text text-anchor="middle" x="404.05" y="-1200.89" font-family="Times,serif" font-size="20.00">1</text>
</g>
<!-- node15&#45;&gt;node14 -->
<g id="edge20" class="edge">
<title>node15&#45;&gt;node14</title>
<path fill="none" stroke="black" d="M370.29,-1321.43C378.56,-1293.37 388.48,-1259.7 395.43,-1236.16"/>
<polygon fill="black" stroke="black" points="398.83,-1237 398.3,-1226.42 392.11,-1235.02 398.83,-1237"/>
</g>
<!-- node18 -->
<g id="node26" class="node">
<title>node18</title>
<ellipse fill="lightblue" stroke="black" cx="475.05" cy="-1205.89" rx="31.23" ry="31.23"/>
<text text-anchor="middle" x="475.05" y="-1200.89" font-family="Times,serif" font-size="20.00">ST</text>
</g>
<!-- node30&#45;&gt;node18 -->
<g id="edge21" class="edge">
<title>node30&#45;&gt;node18</title>
<path fill="none" stroke="black" d="M477.15,-1322.79C476.71,-1298.59 476.19,-1269.98 475.78,-1247.24"/>
<polygon fill="black" stroke="black" points="479.28,-1247.18 475.6,-1237.24 472.28,-1247.3 479.28,-1247.18"/>
</g>
<!-- node29 -->
<g id="node29" class="node">
<title>node29</title>
<ellipse fill="lightblue" stroke="black" cx="561.05" cy="-1205.89" rx="31.23" ry="31.23"/>
<text text-anchor="middle" x="561.05" y="-1200.89" font-family="Times,serif" font-size="20.00">ST</text>
</g>
<!-- node30&#45;&gt;node29 -->
<g id="edge33" class="edge">
<title>node30&#45;&gt;node29</title>
<path fill="none" stroke="black" d="M500.51,-1328.13C513.8,-1301.53 530.4,-1268.28 542.86,-1243.33"/>
<polygon fill="black" stroke="black" points="546.08,-1244.71 547.41,-1234.2 539.82,-1241.59 546.08,-1244.71"/>
</g>
<!-- node17 -->
<g id="node27" class="node">
<title>node17</title>
<ellipse fill="lightblue" stroke="black" cx="465.05" cy="-994.52" rx="41.94" ry="41.94"/>
<text text-anchor="middle" x="465.05" y="-989.52" font-family="Times,serif" font-size="20.00">RET</text>
</g>
<!-- node18&#45;&gt;node17 -->
<g id="edge22" class="edge">
<title>node18&#45;&gt;node17</title>
<path fill="none" stroke="black" d="M473.6,-1174.44C472,-1140.95 469.4,-1086.58 467.49,-1046.55"/>
<polygon fill="black" stroke="black" points="470.98,-1046.27 467.01,-1036.45 463.99,-1046.6 470.98,-1046.27"/>
</g>
<!-- node16 -->
<g id="node28" class="node">
<title>node16</title>
<ellipse fill="lightblue" stroke="black" cx="465.05" cy="-785.28" rx="21.43" ry="21.43"/>
<text text-anchor="middle" x="465.05" y="-780.28" font-family="Times,serif" font-size="20.00">1</text>
</g>
<!-- node17&#45;&gt;node16 -->
<g id="edge23" class="edge">
<title>node17&#45;&gt;node16</title>
<path fill="none" stroke="black" d="M465.05,-952.58C465.05,-912.71 465.05,-853 465.05,-817.02"/>
<polygon fill="black" stroke="black" points="468.55,-816.67 465.05,-806.67 461.55,-816.67 468.55,-816.67"/>
</g>
<!-- node28 -->
<g id="node30" class="node">
<title>node28</title>
<ellipse fill="lightblue" stroke="black" cx="566.05" cy="-994.52" rx="41.94" ry="41.94"/>
<text text-anchor="middle" x="566.05" y="-989.52" font-family="Times,serif" font-size="20.00">RET</text>
</g>
<!-- node29&#45;&gt;node28 -->
<g id="edge24" class="edge">
<title>node29&#45;&gt;node28</title>
<path fill="none" stroke="black" d="M561.78,-1174.44C562.58,-1140.95 563.88,-1086.58 564.84,-1046.55"/>
<polygon fill="black" stroke="black" points="568.34,-1046.53 565.08,-1036.45 561.34,-1046.36 568.34,-1046.53"/>
</g>
<!-- node27 -->
<g id="node31" class="node">
<title>node27</title>
<ellipse fill="lightblue" stroke="black" cx="566.05" cy="-785.28" rx="47.25" ry="47.25"/>
<text text-anchor="middle" x="566.05" y="-780.28" font-family="Times,serif" font-size="20.00">MUL</text>
</g>
<!-- node28&#45;&gt;node27 -->
<g id="edge25" class="edge">
<title>node28&#45;&gt;node27</title>
<path fill="none" stroke="black" d="M566.05,-952.58C566.05,-921.36 566.05,-877.99 566.05,-843.37"/>
<polygon fill="black" stroke="black" points="569.55,-842.93 566.05,-832.93 562.55,-842.93 569.55,-842.93"/>
</g>
<!-- node19 -->
<g id="node32" class="node">
<title>node19</title>
<ellipse fill="lightblue" stroke="black" cx="521.05" cy="-617.05" rx="21.43" ry="21.43"/>
<text text-anchor="middle" x="521.05" y="-612.05" font-family="Times,serif" font-size="20.00">n</text>
</g>
<!-- node27&#45;&gt;node19 -->
<g id="edge26" class="edge">
<title>node27&#45;&gt;node19</title>
<path fill="none" stroke="black" d="M553.88,-739.3C546.01,-710.23 535.99,-673.21 529.1,-647.77"/>
<polygon fill="black" stroke="black" points="532.44,-646.7 526.44,-637.97 525.68,-648.53 532.44,-646.7"/>
</g>
<!-- node26 -->
<g id="node33" class="node">
<title>node26</title>
<ellipse fill="lightblue" stroke="black" cx="612.05" cy="-617.05" rx="51.74" ry="51.74"/>
<text text-anchor="middle" x="612.05" y="-612.05" font-family="Times,serif" font-size="20.00">CALL</text>
</g>
<!-- node27&#45;&gt;node26 -->
<g id="edge32" class="edge">
<title>node27&#45;&gt;node26</title>
<path fill="none" stroke="black" d="M578.5,-739.3C583.81,-720.13 590.07,-697.5 595.74,-677.02"/>
<polygon fill="black" stroke="black" points="599.17,-677.73 598.46,-667.16 592.42,-675.87 599.17,-677.73"/>
</g>
<!-- node25 -->
<g id="node34" class="node">
<title>node25</title>
<ellipse fill="lightblue" stroke="black" cx="612.05" cy="-441.05" rx="72.66" ry="72.66"/>
<text text-anchor="middle" x="612.05" y="-436.05" font-family="Times,serif" font-size="20.00">rec_fuck</text>
</g>
<!-- node26&#45;&gt;node25 -->
<g id="edge27" class="edge">
<title>node26&#45;&gt;node25</title>
<path fill="none" stroke="black" d="M612.05,-565.26C612.05,-552.34 612.05,-538.13 612.05,-524.09"/>
<polygon fill="black" stroke="black" points="615.55,-523.92 612.05,-513.92 608.55,-523.92 615.55,-523.92"/>
</g>
<!-- node24 -->
<g id="node35" class="node">
<title>node24</title>
<ellipse fill="lightblue" stroke="black" cx="612.05" cy="-267.16" rx="65.11" ry="65.11"/>
<text text-anchor="middle" x="612.05" y="-262.16" font-family="Times,serif" font-size="20.00">PARAM</text>
</g>
<!-- node25&#45;&gt;node24 -->
<g id="edge28" class="edge">
<title>node25&#45;&gt;node24</title>
<path fill="none" stroke="black" d="M612.05,-368.15C612.05,-359.71 612.05,-351.09 612.05,-342.62"/>
<polygon fill="black" stroke="black" points="615.55,-342.38 612.05,-332.38 608.55,-342.38 615.55,-342.38"/>
</g>
<!-- node23 -->
<g id="node36" class="node">
<title>node23</title>
<ellipse fill="lightblue" stroke="black" cx="612.05" cy="-122.27" rx="43.68" ry="43.68"/>
<text text-anchor="middle" x="612.05" y="-117.27" font-family="Times,serif" font-size="20.00">SUB</text>
</g>
<!-- node24&#45;&gt;node23 -->
<g id="edge29" class="edge">
<title>node24&#45;&gt;node23</title>
<path fill="none" stroke="black" d="M612.05,-201.82C612.05,-193.38 612.05,-184.81 612.05,-176.58"/>
<polygon fill="black" stroke="black" points="615.55,-176.38 612.05,-166.38 608.55,-176.38 615.55,-176.38"/>
</g>
<!-- node21 -->
<g id="node37" class="node">
<title>node21</title>
<ellipse fill="lightblue" stroke="black" cx="582.05" cy="-21.21" rx="21.43" ry="21.43"/>
<text text-anchor="middle" x="582.05" y="-16.21" font-family="Times,serif" font-size="20.00">n</text>
</g>
<!-- node23&#45;&gt;node21 -->
<g id="edge30" class="edge">
<title>node23&#45;&gt;node21</title>
<path fill="none" stroke="black" d="M599.59,-80.12C596.67,-70.46 593.61,-60.37 590.88,-51.37"/>
<polygon fill="black" stroke="black" points="594.22,-50.3 587.97,-41.75 587.52,-52.33 594.22,-50.3"/>
</g>
<!-- node22 -->
<g id="node38" class="node">
<title>node22</title>
<ellipse fill="lightblue" stroke="black" cx="642.05" cy="-21.21" rx="21.43" ry="21.43"/>
<text text-anchor="middle" x="642.05" y="-16.21" font-family="Times,serif" font-size="20.00">1</text>
</g>
<!-- node23&#45;&gt;node22 -->
<g id="edge31" class="edge">
<title>node23&#45;&gt;node22</title>
<path fill="none" stroke="black" d="M624.52,-80.12C627.44,-70.46 630.5,-60.37 633.22,-51.37"/>
<polygon fill="black" stroke="black" points="636.59,-52.33 636.14,-41.75 629.89,-50.3 636.59,-52.33"/>
</g>
<!-- node43 -->
<g id="node40" class="node">
<title>node43</title>
<ellipse fill="lightblue" stroke="black" cx="494.05" cy="-2208.19" rx="29.9" ry="29.9"/>
<text text-anchor="middle" x="494.05" y="-2203.19" font-family="Times,serif" font-size="20.00">IN</text>
</g>
<!-- node67&#45;&gt;node43 -->
<g id="edge38" class="edge">
<title>node67&#45;&gt;node43</title>
<path fill="none" stroke="black" d="M494.05,-2342.24C494.05,-2315.69 494.05,-2276.97 494.05,-2248.14"/>
<polygon fill="black" stroke="black" points="497.55,-2248.01 494.05,-2238.01 490.55,-2248.01 497.55,-2248.01"/>
</g>
<!-- node66 -->
<g id="node45" class="node">
<title>node66</title>
<ellipse fill="lightblue" stroke="black" cx="681.05" cy="-2208.19" rx="31.23" ry="31.23"/>
<text text-anchor="middle" x="681.05" y="-2203.19" font-family="Times,serif" font-size="20.00">ST</text>
</g>
<!-- node67&#45;&gt;node66 -->
<g id="edge64" class="edge">
<title>node67&#45;&gt;node66</title>
<path fill="none" stroke="black" d="M516.98,-2352.55C550.49,-2323.28 612.91,-2268.74 650.35,-2236.02"/>
<polygon fill="black" stroke="black" points="652.71,-2238.61 657.94,-2229.39 648.1,-2233.33 652.71,-2238.61"/>
</g>
<!-- node42 -->
<g id="node41" class="node">
<title>node42</title>
<ellipse fill="lightblue" stroke="black" cx="494.05" cy="-2034.3" rx="65.11" ry="65.11"/>
<text text-anchor="middle" x="494.05" y="-2029.3" font-family="Times,serif" font-size="20.00">PARAM</text>
</g>
<!-- node43&#45;&gt;node42 -->
<g id="edge39" class="edge">
<title>node43&#45;&gt;node42</title>
<path fill="none" stroke="black" d="M494.05,-2178.42C494.05,-2159.6 494.05,-2134.1 494.05,-2109.83"/>
<polygon fill="black" stroke="black" points="497.55,-2109.53 494.05,-2099.53 490.55,-2109.53 497.55,-2109.53"/>
</g>
<!-- node41 -->
<g id="node42" class="node">
<title>node41</title>
<ellipse fill="lightblue" stroke="black" cx="494.05" cy="-1876.68" rx="41.94" ry="41.94"/>
<text text-anchor="middle" x="494.05" y="-1871.68" font-family="Times,serif" font-size="20.00">VAR</text>
</g>
<!-- node42&#45;&gt;node41 -->
<g id="edge40" class="edge">
<title>node42&#45;&gt;node41</title>
<path fill="none" stroke="black" d="M494.05,-1969.11C494.05,-1955.63 494.05,-1941.59 494.05,-1928.67"/>
<polygon fill="black" stroke="black" points="497.55,-1928.59 494.05,-1918.59 490.55,-1928.59 497.55,-1928.59"/>
</g>
<!-- node39 -->
<g id="node43" class="node">
<title>node39</title>
<ellipse fill="lightblue" stroke="black" cx="458.05" cy="-1712.7" rx="71.34" ry="71.34"/>
<text text-anchor="middle" x="458.05" y="-1707.7" font-family="Times,serif" font-size="20.00">is_going</text>
</g>
<!-- node41&#45;&gt;node39 -->
<g id="edge41" class="edge">
<title>node41&#45;&gt;node39</title>
<path fill="none" stroke="black" d="M485.15,-1835.64C482.23,-1822.5 478.88,-1807.4 475.55,-1792.41"/>
<polygon fill="black" stroke="black" points="478.95,-1791.6 473.37,-1782.6 472.12,-1793.12 478.95,-1791.6"/>
</g>
<!-- node40 -->
<g id="node44" class="node">
<title>node40</title>
<ellipse fill="lightblue" stroke="black" cx="569.05" cy="-1712.7" rx="21.43" ry="21.43"/>
<text text-anchor="middle" x="569.05" y="-1707.7" font-family="Times,serif" font-size="20.00">1</text>
</g>
<!-- node41&#45;&gt;node40 -->
<g id="edge42" class="edge">
<title>node41&#45;&gt;node40</title>
<path fill="none" stroke="black" d="M512.1,-1838.83C520.17,-1822.18 529.72,-1802.22 538.05,-1784.11 544.42,-1770.29 551.26,-1754.82 556.89,-1741.91"/>
<polygon fill="black" stroke="black" points="560.16,-1743.17 560.93,-1732.6 553.74,-1740.38 560.16,-1743.17"/>
</g>
<!-- node65 -->
<g id="node46" class="node">
<title>node65</title>
<ellipse fill="lightblue" stroke="black" cx="717.05" cy="-2034.3" rx="63.78" ry="63.78"/>
<text text-anchor="middle" x="717.05" y="-2029.3" font-family="Times,serif" font-size="20.00">WHILE</text>
</g>
<!-- node66&#45;&gt;node65 -->
<g id="edge43" class="edge">
<title>node66&#45;&gt;node65</title>
<path fill="none" stroke="black" d="M687.24,-2177.64C691.34,-2158.07 696.91,-2131.5 702.12,-2106.63"/>
<polygon fill="black" stroke="black" points="705.54,-2107.33 704.17,-2096.83 698.69,-2105.9 705.54,-2107.33"/>
</g>
<!-- node46 -->
<g id="node47" class="node">
<title>node46</title>
<ellipse fill="lightblue" stroke="black" cx="717.05" cy="-1876.68" rx="56.64" ry="56.64"/>
<text text-anchor="middle" x="717.05" y="-1871.68" font-family="Times,serif" font-size="20.00">IS_NE</text>
</g>
<!-- node65&#45;&gt;node46 -->
<g id="edge44" class="edge">
<title>node65&#45;&gt;node46</title>
<path fill="none" stroke="black" d="M717.05,-1970.45C717.05,-1961.72 717.05,-1952.73 717.05,-1943.94"/>
<polygon fill="black" stroke="black" points="720.55,-1943.74 717.05,-1933.74 713.55,-1943.74 720.55,-1943.74"/>
</g>
<!-- node64 -->
<g id="node50" class="node">
<title>node64</title>
<ellipse fill="lightblue" stroke="black" cx="860.05" cy="-1876.68" rx="31.23" ry="31.23"/>
<text text-anchor="middle" x="860.05" y="-1871.68" font-family="Times,serif" font-size="20.00">ST</text>
</g>
<!-- node65&#45;&gt;node64 -->
<g id="edge63" class="edge">
<title>node65&#45;&gt;node64</title>
<path fill="none" stroke="black" d="M759.96,-1986.61C783.51,-1960.98 812.01,-1929.96 832.57,-1907.59"/>
<polygon fill="black" stroke="black" points="835.3,-1909.79 839.49,-1900.06 830.15,-1905.06 835.3,-1909.79"/>
</g>
<!-- node44 -->
<g id="node48" class="node">
<title>node44</title>
<ellipse fill="lightblue" stroke="black" cx="680.05" cy="-1712.7" rx="71.34" ry="71.34"/>
<text text-anchor="middle" x="680.05" y="-1707.7" font-family="Times,serif" font-size="20.00">is_going</text>
</g>
<!-- node46&#45;&gt;node44 -->
<g id="edge45" class="edge">
<title>node46&#45;&gt;node44</title>
<path fill="none" stroke="black" d="M704.63,-1821.29C702.5,-1811.99 700.26,-1802.15 698.02,-1792.36"/>
<polygon fill="black" stroke="black" points="701.43,-1791.58 695.8,-1782.61 694.61,-1793.14 701.43,-1791.58"/>
</g>
<!-- node45 -->
<g id="node49" class="node">
<title>node45</title>
<ellipse fill="lightblue" stroke="black" cx="791.05" cy="-1712.7" rx="21.43" ry="21.43"/>
<text text-anchor="middle" x="791.05" y="-1707.7" font-family="Times,serif" font-size="20.00">0</text>
</g>
<!-- node46&#45;&gt;node45 -->
<g id="edge46" class="edge">
<title>node46&#45;&gt;node45</title>
<path fill="none" stroke="black" d="M741.16,-1824.93C747.38,-1811.67 754.02,-1797.38 760.05,-1784.11 766.36,-1770.26 773.19,-1754.78 778.83,-1741.88"/>
<polygon fill="black" stroke="black" points="782.1,-1743.15 782.89,-1732.58 775.68,-1740.35 782.1,-1743.15"/>
</g>
<!-- node51 -->
<g id="node51" class="node">
<title>node51</title>
<ellipse fill="lightblue" stroke="black" cx="860.05" cy="-1712.7" rx="29.9" ry="29.9"/>
<text text-anchor="middle" x="860.05" y="-1707.7" font-family="Times,serif" font-size="20.00">IN</text>
</g>
<!-- node64&#45;&gt;node51 -->
<g id="edge47" class="edge">
<title>node64&#45;&gt;node51</title>
<path fill="none" stroke="black" d="M860.05,-1845.21C860.05,-1819.05 860.05,-1781.16 860.05,-1752.77"/>
<polygon fill="black" stroke="black" points="863.55,-1752.4 860.05,-1742.4 856.55,-1752.4 863.55,-1752.4"/>
</g>
<!-- node63 -->
<g id="node56" class="node">
<title>node63</title>
<ellipse fill="lightblue" stroke="black" cx="963.05" cy="-1712.7" rx="31.23" ry="31.23"/>
<text text-anchor="middle" x="963.05" y="-1707.7" font-family="Times,serif" font-size="20.00">ST</text>
</g>
<!-- node64&#45;&gt;node63 -->
<g id="edge62" class="edge">
<title>node64&#45;&gt;node63</title>
<path fill="none" stroke="black" d="M876.37,-1850.01C893.93,-1822.41 921.93,-1778.37 941.33,-1747.86"/>
<polygon fill="black" stroke="black" points="944.4,-1749.56 946.81,-1739.24 938.49,-1745.8 944.4,-1749.56"/>
</g>
<!-- node50 -->
<g id="node52" class="node">
<title>node50</title>
<ellipse fill="lightblue" stroke="black" cx="835.05" cy="-1540.22" rx="65.11" ry="65.11"/>
<text text-anchor="middle" x="835.05" y="-1535.22" font-family="Times,serif" font-size="20.00">PARAM</text>
</g>
<!-- node51&#45;&gt;node50 -->
<g id="edge48" class="edge">
<title>node51&#45;&gt;node50</title>
<path fill="none" stroke="black" d="M855.87,-1683.16C853.12,-1664.42 849.39,-1638.98 845.85,-1614.81"/>
<polygon fill="black" stroke="black" points="849.31,-1614.3 844.39,-1604.92 842.38,-1615.32 849.31,-1614.3"/>
</g>
<!-- node49 -->
<g id="node53" class="node">
<title>node49</title>
<ellipse fill="lightblue" stroke="black" cx="835.05" cy="-1374.12" rx="41.94" ry="41.94"/>
<text text-anchor="middle" x="835.05" y="-1369.12" font-family="Times,serif" font-size="20.00">VAR</text>
</g>
<!-- node50&#45;&gt;node49 -->
<g id="edge49" class="edge">
<title>node50&#45;&gt;node49</title>
<path fill="none" stroke="black" d="M835.05,-1474.83C835.05,-1458.78 835.05,-1441.79 835.05,-1426.46"/>
<polygon fill="black" stroke="black" points="838.55,-1426.15 835.05,-1416.15 831.55,-1426.15 838.55,-1426.15"/>
</g>
<!-- node47 -->
<g id="node54" class="node">
<title>node47</title>
<ellipse fill="lightblue" stroke="black" cx="743.05" cy="-1205.89" rx="67.35" ry="67.35"/>
<text text-anchor="middle" x="743.05" y="-1200.89" font-family="Times,serif" font-size="20.00">number</text>
</g>
<!-- node49&#45;&gt;node47 -->
<g id="edge50" class="edge">
<title>node49&#45;&gt;node47</title>
<path fill="none" stroke="black" d="M815.09,-1337.05C804.87,-1318.58 792.1,-1295.5 780.16,-1273.92"/>
<polygon fill="black" stroke="black" points="783.18,-1272.16 775.28,-1265.11 777.06,-1275.55 783.18,-1272.16"/>
</g>
<!-- node48 -->
<g id="node55" class="node">
<title>node48</title>
<ellipse fill="lightblue" stroke="black" cx="849.05" cy="-1205.89" rx="21.43" ry="21.43"/>
<text text-anchor="middle" x="849.05" y="-1200.89" font-family="Times,serif" font-size="20.00">0</text>
</g>
<!-- node49&#45;&gt;node48 -->
<g id="edge51" class="edge">
<title>node49&#45;&gt;node48</title>
<path fill="none" stroke="black" d="M838.48,-1332.45C840.94,-1303.22 844.21,-1264.42 846.46,-1237.72"/>
<polygon fill="black" stroke="black" points="849.97,-1237.7 847.32,-1227.44 843,-1237.11 849.97,-1237.7"/>
</g>
<!-- node58 -->
<g id="node57" class="node">
<title>node58</title>
<ellipse fill="lightblue" stroke="black" cx="963.05" cy="-1540.22" rx="44.6" ry="44.6"/>
<text text-anchor="middle" x="963.05" y="-1535.22" font-family="Times,serif" font-size="20.00">OUT</text>
</g>
<!-- node63&#45;&gt;node58 -->
<g id="edge52" class="edge">
<title>node63&#45;&gt;node58</title>
<path fill="none" stroke="black" d="M963.05,-1681.22C963.05,-1657.34 963.05,-1623.51 963.05,-1595.09"/>
<polygon fill="black" stroke="black" points="966.55,-1594.89 963.05,-1584.89 959.55,-1594.89 966.55,-1594.89"/>
</g>
<!-- node62 -->
<g id="node63" class="node">
<title>node62</title>
<ellipse fill="lightblue" stroke="black" cx="1071.05" cy="-1540.22" rx="31.23" ry="31.23"/>
<text text-anchor="middle" x="1071.05" y="-1535.22" font-family="Times,serif" font-size="20.00">ST</text>
</g>
<!-- node63&#45;&gt;node62 -->
<g id="edge61" class="edge">
<title>node63&#45;&gt;node62</title>
<path fill="none" stroke="black" d="M979.46,-1685.8C998.12,-1656.35 1028.68,-1608.11 1049.31,-1575.54"/>
<polygon fill="black" stroke="black" points="1052.46,-1577.12 1054.85,-1566.8 1046.54,-1573.37 1052.46,-1577.12"/>
</g>
<!-- node57 -->
<g id="node58" class="node">
<title>node57</title>
<ellipse fill="lightblue" stroke="black" cx="961.05" cy="-1374.12" rx="65.11" ry="65.11"/>
<text text-anchor="middle" x="961.05" y="-1369.12" font-family="Times,serif" font-size="20.00">PARAM</text>
</g>
<!-- node58&#45;&gt;node57 -->
<g id="edge53" class="edge">
<title>node58&#45;&gt;node57</title>
<path fill="none" stroke="black" d="M962.52,-1495.68C962.35,-1481.5 962.15,-1465.34 961.96,-1449.56"/>
<polygon fill="black" stroke="black" points="965.46,-1449.22 961.84,-1439.27 958.46,-1449.31 965.46,-1449.22"/>
</g>
<!-- node56 -->
<g id="node59" class="node">
<title>node56</title>
<ellipse fill="lightblue" stroke="black" cx="952.05" cy="-1205.89" rx="51.74" ry="51.74"/>
<text text-anchor="middle" x="952.05" y="-1200.89" font-family="Times,serif" font-size="20.00">CALL</text>
</g>
<!-- node57&#45;&gt;node56 -->
<g id="edge54" class="edge">
<title>node57&#45;&gt;node56</title>
<path fill="none" stroke="black" d="M957.57,-1308.85C956.84,-1295.31 956.07,-1281.06 955.34,-1267.65"/>
<polygon fill="black" stroke="black" points="958.83,-1267.38 954.8,-1257.59 951.84,-1267.76 958.83,-1267.38"/>
</g>
<!-- node55 -->
<g id="node60" class="node">
<title>node55</title>
<ellipse fill="lightblue" stroke="black" cx="941.05" cy="-994.52" rx="72.66" ry="72.66"/>
<text text-anchor="middle" x="941.05" y="-989.52" font-family="Times,serif" font-size="20.00">rec_fuck</text>
</g>
<!-- node56&#45;&gt;node55 -->
<g id="edge55" class="edge">
<title>node56&#45;&gt;node55</title>
<path fill="none" stroke="black" d="M949.39,-1154.21C948.18,-1131.24 946.73,-1103.49 945.37,-1077.66"/>
<polygon fill="black" stroke="black" points="948.86,-1077.3 944.84,-1067.5 941.86,-1077.67 948.86,-1077.3"/>
</g>
<!-- node54 -->
<g id="node61" class="node">
<title>node54</title>
<ellipse fill="lightblue" stroke="black" cx="941.05" cy="-785.28" rx="65.11" ry="65.11"/>
<text text-anchor="middle" x="941.05" y="-780.28" font-family="Times,serif" font-size="20.00">PARAM</text>
</g>
<!-- node55&#45;&gt;node54 -->
<g id="edge56" class="edge">
<title>node55&#45;&gt;node54</title>
<path fill="none" stroke="black" d="M941.05,-921.62C941.05,-901.91 941.05,-880.51 941.05,-860.66"/>
<polygon fill="black" stroke="black" points="944.55,-860.44 941.05,-850.44 937.55,-860.44 944.55,-860.44"/>
</g>
<!-- node53 -->
<g id="node62" class="node">
<title>node53</title>
<ellipse fill="lightblue" stroke="black" cx="941.05" cy="-617.05" rx="67.35" ry="67.35"/>
<text text-anchor="middle" x="941.05" y="-612.05" font-family="Times,serif" font-size="20.00">number</text>
</g>
<!-- node54&#45;&gt;node53 -->
<g id="edge57" class="edge">
<title>node54&#45;&gt;node53</title>
<path fill="none" stroke="black" d="M941.05,-720.01C941.05,-711.61 941.05,-702.93 941.05,-694.35"/>
<polygon fill="black" stroke="black" points="944.55,-694.35 941.05,-684.35 937.55,-694.35 944.55,-694.35"/>
</g>
<!-- node61 -->
<g id="node64" class="node">
<title>node61</title>
<ellipse fill="lightblue" stroke="black" cx="1085.05" cy="-1374.12" rx="29.9" ry="29.9"/>
<text text-anchor="middle" x="1085.05" y="-1369.12" font-family="Times,serif" font-size="20.00">IN</text>
</g>
<!-- node62&#45;&gt;node61 -->
<g id="edge58" class="edge">
<title>node62&#45;&gt;node61</title>
<path fill="none" stroke="black" d="M1073.62,-1509.12C1075.9,-1482.42 1079.24,-1443.25 1081.72,-1414.15"/>
<polygon fill="black" stroke="black" points="1085.23,-1414.19 1082.6,-1403.92 1078.26,-1413.59 1085.23,-1414.19"/>
</g>
<!-- node60 -->
<g id="node65" class="node">
<title>node60</title>
<ellipse fill="lightblue" stroke="black" cx="1093.05" cy="-1205.89" rx="65.11" ry="65.11"/>
<text text-anchor="middle" x="1093.05" y="-1200.89" font-family="Times,serif" font-size="20.00">PARAM</text>
</g>
<!-- node61&#45;&gt;node60 -->
<g id="edge59" class="edge">
<title>node61&#45;&gt;node60</title>
<path fill="none" stroke="black" d="M1086.45,-1344.16C1087.29,-1326.66 1088.41,-1303.48 1089.48,-1281.16"/>
<polygon fill="black" stroke="black" points="1092.98,-1281.14 1089.97,-1270.98 1085.99,-1280.8 1092.98,-1281.14"/>
</g>
<!-- node59 -->
<g id="node66" class="node">
<title>node59</title>
<ellipse fill="lightblue" stroke="black" cx="1103.05" cy="-994.52" rx="71.34" ry="71.34"/>
<text text-anchor="middle" x="1103.05" y="-989.52" font-family="Times,serif" font-size="20.00">is_going</text>
</g>
<!-- node60&#45;&gt;node59 -->
<g id="edge60" class="edge">
<title>node60&#45;&gt;node59</title>
<path fill="none" stroke="black" d="M1096.12,-1140.65C1097.09,-1120.31 1098.18,-1097.56 1099.2,-1076.22"/>
<polygon fill="black" stroke="black" points="1102.7,-1076.36 1099.68,-1066.21 1095.7,-1076.03 1102.7,-1076.36"/>
</g>
</g>
</svg>
