<?xml version="1.0" encoding="UTF-8" standalone="no"?>
<!DOCTYPE svg PUBLIC "-//W3C//DTD SVG 1.1//EN"
 "http://www.w3.org/Graphics/SVG/1.1/DTD/svg11.dtd">
<!-- Generated by graphviz version 2.43.0 (0)
 -->
<!-- Title: G Pages: 1 -->
<svg width="534pt" height="1085pt"
 viewBox="0.00 0.00 534.27 1085.13" xmlns="http://www.w3.org/2000/svg" xmlns:xlink="http://www.w3.org/1999/xlink">
<g id="graph0" class="graph" transform="scale(1 1) rotate(0) translate(4 1081.13)">
<title>G</title>
<polygon fill="white" stroke="transparent" points="-4,4 -4,-1081.13 530.27,-1081.13 530.27,4 -4,4"/>
<!-- node31 -->
<g id="node1" class="node">
<title>node31</title>
<ellipse fill="lightblue" stroke="black" cx="243.05" cy="-1020.56" rx="56.64" ry="56.64"/>
<text text-anchor="middle" x="243.05" y="-1015.56" font-family="Times,serif" font-size="20.00">FUNC</text>
</g>
<!-- node30 -->
<g id="node2" class="node">
<title>node30</title>
<ellipse fill="lightblue" stroke="black" cx="195.05" cy="-880.62" rx="47.25" ry="47.25"/>
<text text-anchor="middle" x="195.05" y="-875.62" font-family="Times,serif" font-size="20.00">main</text>
</g>
<!-- node31&#45;&gt;node30 -->
<g id="edge1" class="edge">
<title>node31&#45;&gt;node30</title>
<path fill="none" stroke="black" d="M224.77,-967.02C221.12,-956.53 217.28,-945.49 213.62,-934.97"/>
<polygon fill="black" stroke="black" points="216.91,-933.78 210.32,-925.49 210.3,-936.08 216.91,-933.78"/>
</g>
<!-- node28 -->
<g id="node7" class="node">
<title>node28</title>
<ellipse fill="lightblue" stroke="black" cx="291.05" cy="-880.62" rx="31.23" ry="31.23"/>
<text text-anchor="middle" x="291.05" y="-875.62" font-family="Times,serif" font-size="20.00">ST</text>
</g>
<!-- node31&#45;&gt;node28 -->
<g id="edge25" class="edge">
<title>node31&#45;&gt;node28</title>
<path fill="none" stroke="black" d="M261.34,-967.02C266.76,-951.43 272.6,-934.65 277.65,-920.13"/>
<polygon fill="black" stroke="black" points="281.03,-921.07 281.01,-910.48 274.42,-918.77 281.03,-921.07"/>
</g>
<!-- node3 -->
<g id="node3" class="node">
<title>node3</title>
<ellipse fill="lightblue" stroke="black" cx="65.05" cy="-732.19" rx="65.11" ry="65.11"/>
<text text-anchor="middle" x="65.05" y="-727.19" font-family="Times,serif" font-size="20.00">PARAM</text>
</g>
<!-- node30&#45;&gt;node3 -->
<g id="edge2" class="edge">
<title>node30&#45;&gt;node3</title>
<path fill="none" stroke="black" d="M163.92,-844.54C149.26,-828.03 131.41,-807.94 114.94,-789.38"/>
<polygon fill="black" stroke="black" points="117.24,-786.69 107.98,-781.54 112,-791.34 117.24,-786.69"/>
</g>
<!-- node29 -->
<g id="node6" class="node">
<title>node29</title>
<ellipse fill="lightblue" stroke="black" cx="195.05" cy="-732.19" rx="46.84" ry="46.84"/>
<text text-anchor="middle" x="195.05" y="-727.19" font-family="Times,serif" font-size="20.00">Type</text>
</g>
<!-- node30&#45;&gt;node29 -->
<g id="edge5" class="edge">
<title>node30&#45;&gt;node29</title>
<path fill="none" stroke="black" d="M195.05,-832.88C195.05,-819.01 195.05,-803.67 195.05,-789.27"/>
<polygon fill="black" stroke="black" points="198.55,-788.98 195.05,-778.98 191.55,-788.98 198.55,-788.98"/>
</g>
<!-- node2 -->
<g id="node4" class="node">
<title>node2</title>
<ellipse fill="lightblue" stroke="black" cx="65.05" cy="-589.41" rx="41.94" ry="41.94"/>
<text text-anchor="middle" x="65.05" y="-584.41" font-family="Times,serif" font-size="20.00">VAR</text>
</g>
<!-- node3&#45;&gt;node2 -->
<g id="edge3" class="edge">
<title>node3&#45;&gt;node2</title>
<path fill="none" stroke="black" d="M65.05,-666.98C65.05,-658.41 65.05,-649.73 65.05,-641.43"/>
<polygon fill="black" stroke="black" points="68.55,-641.16 65.05,-631.16 61.55,-641.16 68.55,-641.16"/>
</g>
<!-- node1 -->
<g id="node5" class="node">
<title>node1</title>
<ellipse fill="lightblue" stroke="black" cx="65.05" cy="-467.85" rx="21.43" ry="21.43"/>
<text text-anchor="middle" x="65.05" y="-462.85" font-family="Times,serif" font-size="20.00">a</text>
</g>
<!-- node2&#45;&gt;node1 -->
<g id="edge4" class="edge">
<title>node2&#45;&gt;node1</title>
<path fill="none" stroke="black" d="M65.05,-547.6C65.05,-531.82 65.05,-514.06 65.05,-499.41"/>
<polygon fill="black" stroke="black" points="68.55,-499.37 65.05,-489.37 61.55,-499.37 68.55,-499.37"/>
</g>
<!-- node25 -->
<g id="node8" class="node">
<title>node25</title>
<ellipse fill="lightblue" stroke="black" cx="291.05" cy="-732.19" rx="31.23" ry="31.23"/>
<text text-anchor="middle" x="291.05" y="-727.19" font-family="Times,serif" font-size="20.00">ST</text>
</g>
<!-- node28&#45;&gt;node25 -->
<g id="edge6" class="edge">
<title>node28&#45;&gt;node25</title>
<path fill="none" stroke="black" d="M291.05,-849.28C291.05,-827.39 291.05,-797.6 291.05,-773.68"/>
<polygon fill="black" stroke="black" points="294.55,-773.49 291.05,-763.49 287.55,-773.49 294.55,-773.49"/>
</g>
<!-- node27 -->
<g id="node25" class="node">
<title>node27</title>
<ellipse fill="lightblue" stroke="black" cx="382.05" cy="-732.19" rx="41.94" ry="41.94"/>
<text text-anchor="middle" x="382.05" y="-727.19" font-family="Times,serif" font-size="20.00">RET</text>
</g>
<!-- node28&#45;&gt;node27 -->
<g id="edge24" class="edge">
<title>node28&#45;&gt;node27</title>
<path fill="none" stroke="black" d="M307.11,-853.78C320.35,-832.48 339.41,-801.8 355,-776.73"/>
<polygon fill="black" stroke="black" points="358.04,-778.45 360.35,-768.11 352.1,-774.76 358.04,-778.45"/>
</g>
<!-- node24 -->
<g id="node9" class="node">
<title>node24</title>
<ellipse fill="lightblue" stroke="black" cx="291.05" cy="-589.41" rx="27.65" ry="27.65"/>
<text text-anchor="middle" x="291.05" y="-584.41" font-family="Times,serif" font-size="20.00">IF</text>
</g>
<!-- node25&#45;&gt;node24 -->
<g id="edge7" class="edge">
<title>node25&#45;&gt;node24</title>
<path fill="none" stroke="black" d="M291.05,-700.99C291.05,-679.41 291.05,-650.25 291.05,-627.3"/>
<polygon fill="black" stroke="black" points="294.55,-627.24 291.05,-617.24 287.55,-627.24 294.55,-627.24"/>
</g>
<!-- node13 -->
<g id="node10" class="node">
<title>node13</title>
<ellipse fill="lightblue" stroke="black" cx="241.05" cy="-467.85" rx="43.68" ry="43.68"/>
<text text-anchor="middle" x="241.05" y="-462.85" font-family="Times,serif" font-size="20.00">ADD</text>
</g>
<!-- node24&#45;&gt;node13 -->
<g id="edge8" class="edge">
<title>node24&#45;&gt;node13</title>
<path fill="none" stroke="black" d="M280.69,-563.64C275.2,-550.5 268.25,-533.88 261.7,-518.23"/>
<polygon fill="black" stroke="black" points="264.79,-516.53 257.7,-508.66 258.33,-519.23 264.79,-516.53"/>
</g>
<!-- node23 -->
<g id="node15" class="node">
<title>node23</title>
<ellipse fill="lightblue" stroke="black" cx="341.05" cy="-467.85" rx="31.23" ry="31.23"/>
<text text-anchor="middle" x="341.05" y="-462.85" font-family="Times,serif" font-size="20.00">ST</text>
</g>
<!-- node24&#45;&gt;node23 -->
<g id="edge22" class="edge">
<title>node24&#45;&gt;node23</title>
<path fill="none" stroke="black" d="M301.41,-563.64C308.33,-547.1 317.56,-525.04 325.37,-506.36"/>
<polygon fill="black" stroke="black" points="328.68,-507.52 329.31,-496.95 322.22,-504.82 328.68,-507.52"/>
</g>
<!-- node9 -->
<g id="node11" class="node">
<title>node9</title>
<ellipse fill="lightblue" stroke="black" cx="163.05" cy="-346.29" rx="21.43" ry="21.43"/>
<text text-anchor="middle" x="163.05" y="-341.29" font-family="Times,serif" font-size="20.00">x</text>
</g>
<!-- node13&#45;&gt;node9 -->
<g id="edge9" class="edge">
<title>node13&#45;&gt;node9</title>
<path fill="none" stroke="black" d="M217.44,-430.66C205.33,-412.1 190.87,-389.93 179.9,-373.12"/>
<polygon fill="black" stroke="black" points="182.6,-370.86 174.21,-364.39 176.74,-374.68 182.6,-370.86"/>
</g>
<!-- node12 -->
<g id="node12" class="node">
<title>node12</title>
<ellipse fill="lightblue" stroke="black" cx="241.05" cy="-346.29" rx="38.78" ry="38.78"/>
<text text-anchor="middle" x="241.05" y="-341.29" font-family="Times,serif" font-size="20.00">DIV</text>
</g>
<!-- node13&#45;&gt;node12 -->
<g id="edge12" class="edge">
<title>node13&#45;&gt;node12</title>
<path fill="none" stroke="black" d="M241.05,-423.69C241.05,-414.55 241.05,-404.86 241.05,-395.54"/>
<polygon fill="black" stroke="black" points="244.55,-395.25 241.05,-385.25 237.55,-395.25 244.55,-395.25"/>
</g>
<!-- node10 -->
<g id="node13" class="node">
<title>node10</title>
<ellipse fill="lightblue" stroke="black" cx="181.05" cy="-235.34" rx="21.43" ry="21.43"/>
<text text-anchor="middle" x="181.05" y="-230.34" font-family="Times,serif" font-size="20.00">3</text>
</g>
<!-- node12&#45;&gt;node10 -->
<g id="edge10" class="edge">
<title>node12&#45;&gt;node10</title>
<path fill="none" stroke="black" d="M222.56,-311.72C214.03,-296.23 204.04,-278.08 196,-263.47"/>
<polygon fill="black" stroke="black" points="198.92,-261.52 191.03,-254.45 192.78,-264.9 198.92,-261.52"/>
</g>
<!-- node11 -->
<g id="node14" class="node">
<title>node11</title>
<ellipse fill="lightblue" stroke="black" cx="241.05" cy="-235.34" rx="21.43" ry="21.43"/>
<text text-anchor="middle" x="241.05" y="-230.34" font-family="Times,serif" font-size="20.00">y</text>
</g>
<!-- node12&#45;&gt;node11 -->
<g id="edge11" class="edge">
<title>node12&#45;&gt;node11</title>
<path fill="none" stroke="black" d="M241.05,-307.19C241.05,-294.09 241.05,-279.6 241.05,-267.15"/>
<polygon fill="black" stroke="black" points="244.55,-266.83 241.05,-256.83 237.55,-266.83 244.55,-266.83"/>
</g>
<!-- node16 -->
<g id="node16" class="node">
<title>node16</title>
<ellipse fill="lightblue" stroke="black" cx="341.05" cy="-346.29" rx="41.94" ry="41.94"/>
<text text-anchor="middle" x="341.05" y="-341.29" font-family="Times,serif" font-size="20.00">VAR</text>
</g>
<!-- node23&#45;&gt;node16 -->
<g id="edge13" class="edge">
<title>node23&#45;&gt;node16</title>
<path fill="none" stroke="black" d="M341.05,-436.68C341.05,-425.11 341.05,-411.56 341.05,-398.56"/>
<polygon fill="black" stroke="black" points="344.55,-398.29 341.05,-388.29 337.55,-398.29 344.55,-398.29"/>
</g>
<!-- node22 -->
<g id="node19" class="node">
<title>node22</title>
<ellipse fill="lightblue" stroke="black" cx="432.05" cy="-346.29" rx="31.23" ry="31.23"/>
<text text-anchor="middle" x="432.05" y="-341.29" font-family="Times,serif" font-size="20.00">ST</text>
</g>
<!-- node23&#45;&gt;node22 -->
<g id="edge21" class="edge">
<title>node23&#45;&gt;node22</title>
<path fill="none" stroke="black" d="M359.47,-442.66C373.28,-424.51 392.34,-399.48 407.45,-379.62"/>
<polygon fill="black" stroke="black" points="410.39,-381.53 413.67,-371.45 404.82,-377.29 410.39,-381.53"/>
</g>
<!-- node14 -->
<g id="node17" class="node">
<title>node14</title>
<ellipse fill="lightblue" stroke="black" cx="301.05" cy="-235.34" rx="21.43" ry="21.43"/>
<text text-anchor="middle" x="301.05" y="-230.34" font-family="Times,serif" font-size="20.00">a</text>
</g>
<!-- node16&#45;&gt;node14 -->
<g id="edge14" class="edge">
<title>node16&#45;&gt;node14</title>
<path fill="none" stroke="black" d="M326.95,-306.88C321.91,-293.15 316.32,-277.93 311.63,-265.15"/>
<polygon fill="black" stroke="black" points="314.82,-263.68 308.09,-255.5 308.25,-266.09 314.82,-263.68"/>
</g>
<!-- node15 -->
<g id="node18" class="node">
<title>node15</title>
<ellipse fill="lightblue" stroke="black" cx="361.05" cy="-235.34" rx="21.43" ry="21.43"/>
<text text-anchor="middle" x="361.05" y="-230.34" font-family="Times,serif" font-size="20.00">3</text>
</g>
<!-- node16&#45;&gt;node15 -->
<g id="edge15" class="edge">
<title>node16&#45;&gt;node15</title>
<path fill="none" stroke="black" d="M348.44,-305.03C350.8,-292.19 353.37,-278.21 355.57,-266.23"/>
<polygon fill="black" stroke="black" points="359.03,-266.77 357.39,-256.3 352.14,-265.51 359.03,-266.77"/>
</g>
<!-- node21 -->
<g id="node20" class="node">
<title>node21</title>
<ellipse fill="lightblue" stroke="black" cx="433.05" cy="-235.34" rx="33.47" ry="33.47"/>
<text text-anchor="middle" x="433.05" y="-230.34" font-family="Times,serif" font-size="20.00">EQ</text>
</g>
<!-- node22&#45;&gt;node21 -->
<g id="edge16" class="edge">
<title>node22&#45;&gt;node21</title>
<path fill="none" stroke="black" d="M432.33,-314.95C432.43,-303.84 432.55,-291.06 432.66,-279.08"/>
<polygon fill="black" stroke="black" points="436.16,-278.85 432.76,-268.81 429.16,-278.78 436.16,-278.85"/>
</g>
<!-- node17 -->
<g id="node21" class="node">
<title>node17</title>
<ellipse fill="lightblue" stroke="black" cx="392.05" cy="-122.27" rx="21.43" ry="21.43"/>
<text text-anchor="middle" x="392.05" y="-117.27" font-family="Times,serif" font-size="20.00">z</text>
</g>
<!-- node21&#45;&gt;node17 -->
<g id="edge17" class="edge">
<title>node21&#45;&gt;node17</title>
<path fill="none" stroke="black" d="M421.85,-203.99C415.9,-187.87 408.62,-168.15 402.75,-152.24"/>
<polygon fill="black" stroke="black" points="405.87,-150.58 399.12,-142.41 399.3,-153 405.87,-150.58"/>
</g>
<!-- node20 -->
<g id="node22" class="node">
<title>node20</title>
<ellipse fill="lightblue" stroke="black" cx="475.05" cy="-122.27" rx="43.68" ry="43.68"/>
<text text-anchor="middle" x="475.05" y="-117.27" font-family="Times,serif" font-size="20.00">SUB</text>
</g>
<!-- node21&#45;&gt;node20 -->
<g id="edge20" class="edge">
<title>node21&#45;&gt;node20</title>
<path fill="none" stroke="black" d="M444.53,-203.99C448.14,-194.45 452.22,-183.65 456.2,-173.13"/>
<polygon fill="black" stroke="black" points="459.55,-174.18 459.81,-163.58 453,-171.7 459.55,-174.18"/>
</g>
<!-- node18 -->
<g id="node23" class="node">
<title>node18</title>
<ellipse fill="lightblue" stroke="black" cx="445.05" cy="-21.21" rx="21.43" ry="21.43"/>
<text text-anchor="middle" x="445.05" y="-16.21" font-family="Times,serif" font-size="20.00">2</text>
</g>
<!-- node20&#45;&gt;node18 -->
<g id="edge18" class="edge">
<title>node20&#45;&gt;node18</title>
<path fill="none" stroke="black" d="M462.59,-80.12C459.67,-70.46 456.61,-60.37 453.88,-51.37"/>
<polygon fill="black" stroke="black" points="457.22,-50.3 450.97,-41.75 450.52,-52.33 457.22,-50.3"/>
</g>
<!-- node19 -->
<g id="node24" class="node">
<title>node19</title>
<ellipse fill="lightblue" stroke="black" cx="505.05" cy="-21.21" rx="21.43" ry="21.43"/>
<text text-anchor="middle" x="505.05" y="-16.21" font-family="Times,serif" font-size="20.00">6</text>
</g>
<!-- node20&#45;&gt;node19 -->
<g id="edge19" class="edge">
<title>node20&#45;&gt;node19</title>
<path fill="none" stroke="black" d="M487.52,-80.12C490.44,-70.46 493.5,-60.37 496.22,-51.37"/>
<polygon fill="black" stroke="black" points="499.59,-52.33 499.14,-41.75 492.89,-50.3 499.59,-52.33"/>
</g>
<!-- node26 -->
<g id="node26" class="node">
<title>node26</title>
<ellipse fill="lightblue" stroke="black" cx="382.05" cy="-589.41" rx="21.43" ry="21.43"/>
<text text-anchor="middle" x="382.05" y="-584.41" font-family="Times,serif" font-size="20.00">1</text>
</g>
<!-- node27&#45;&gt;node26 -->
<g id="edge23" class="edge">
<title>node27&#45;&gt;node26</title>
<path fill="none" stroke="black" d="M382.05,-690.09C382.05,-668.08 382.05,-641.41 382.05,-621.2"/>
<polygon fill="black" stroke="black" points="385.55,-621 382.05,-611 378.55,-621 385.55,-621"/>
</g>
</g>
</svg>
