<?xml version="1.0" encoding="UTF-8" standalone="no"?>
<!DOCTYPE svg PUBLIC "-//W3C//DTD SVG 1.1//EN"
 "http://www.w3.org/Graphics/SVG/1.1/DTD/svg11.dtd">
<!-- Generated by graphviz version 2.43.0 (0)
 -->
<!-- Title: G Pages: 1 -->
<svg width="309pt" height="390pt"
 viewBox="0.00 0.00 308.91 389.59" xmlns="http://www.w3.org/2000/svg" xmlns:xlink="http://www.w3.org/1999/xlink">
<g id="graph0" class="graph" transform="scale(1 1) rotate(0) translate(4 385.59)">
<title>G</title>
<polygon fill="white" stroke="transparent" points="-4,4 -4,-385.59 304.91,-385.59 304.91,4 -4,4"/>
<!-- node10 -->
<g id="node1" class="node">
<title>node10</title>
<ellipse fill="lightblue" stroke="black" cx="128.7" cy="-358.25" rx="23.17" ry="23.17"/>
<text text-anchor="middle" x="128.7" y="-353.25" font-family="Times,serif" font-size="20.00">+</text>
</g>
<!-- node2 -->
<g id="node2" class="node">
<title>node2</title>
<ellipse fill="lightblue" stroke="black" cx="98.7" cy="-277.71" rx="21.43" ry="21.43"/>
<text text-anchor="middle" x="98.7" y="-272.71" font-family="Times,serif" font-size="20.00">/</text>
</g>
<!-- node10&#45;&gt;node2 -->
<g id="edge1" class="edge">
<title>node10&#45;&gt;node2</title>
<path fill="none" stroke="black" d="M120.66,-336.2C117.26,-327.3 113.24,-316.79 109.58,-307.21"/>
<polygon fill="black" stroke="black" points="112.78,-305.76 105.94,-297.66 106.24,-308.25 112.78,-305.76"/>
</g>
<!-- node9 -->
<g id="node5" class="node">
<title>node9</title>
<ellipse fill="lightblue" stroke="black" cx="158.7" cy="-277.71" rx="21.43" ry="21.43"/>
<text text-anchor="middle" x="158.7" y="-272.71" font-family="Times,serif" font-size="20.00">*</text>
</g>
<!-- node10&#45;&gt;node9 -->
<g id="edge10" class="edge">
<title>node10&#45;&gt;node9</title>
<path fill="none" stroke="black" d="M136.74,-336.2C140.14,-327.3 144.15,-316.79 147.81,-307.21"/>
<polygon fill="black" stroke="black" points="151.16,-308.25 151.46,-297.66 144.62,-305.76 151.16,-308.25"/>
</g>
<!-- node0 -->
<g id="node3" class="node">
<title>node0</title>
<ellipse fill="lightblue" stroke="black" cx="29.7" cy="-190.79" rx="29.9" ry="29.9"/>
<text text-anchor="middle" x="29.7" y="-185.79" font-family="Times,serif" font-size="20.00">17</text>
</g>
<!-- node2&#45;&gt;node0 -->
<g id="edge2" class="edge">
<title>node2&#45;&gt;node0</title>
<path fill="none" stroke="black" d="M85.72,-260.73C76.93,-249.91 65.03,-235.27 54.46,-222.26"/>
<polygon fill="black" stroke="black" points="57.11,-219.98 48.09,-214.42 51.68,-224.39 57.11,-219.98"/>
</g>
<!-- node1 -->
<g id="node4" class="node">
<title>node1</title>
<ellipse fill="lightblue" stroke="black" cx="98.7" cy="-190.79" rx="21.43" ry="21.43"/>
<text text-anchor="middle" x="98.7" y="-185.79" font-family="Times,serif" font-size="20.00">2</text>
</g>
<!-- node2&#45;&gt;node1 -->
<g id="edge3" class="edge">
<title>node2&#45;&gt;node1</title>
<path fill="none" stroke="black" d="M98.7,-256.15C98.7,-246.03 98.7,-233.63 98.7,-222.42"/>
<polygon fill="black" stroke="black" points="102.2,-222.16 98.7,-212.16 95.2,-222.16 102.2,-222.16"/>
</g>
<!-- node3 -->
<g id="node6" class="node">
<title>node3</title>
<ellipse fill="lightblue" stroke="black" cx="158.7" cy="-190.79" rx="21.43" ry="21.43"/>
<text text-anchor="middle" x="158.7" y="-185.79" font-family="Times,serif" font-size="20.00">3</text>
</g>
<!-- node9&#45;&gt;node3 -->
<g id="edge4" class="edge">
<title>node9&#45;&gt;node3</title>
<path fill="none" stroke="black" d="M158.7,-256.15C158.7,-246.03 158.7,-233.63 158.7,-222.42"/>
<polygon fill="black" stroke="black" points="162.2,-222.16 158.7,-212.16 155.2,-222.16 162.2,-222.16"/>
</g>
<!-- node8 -->
<g id="node7" class="node">
<title>node8</title>
<ellipse fill="lightblue" stroke="black" cx="218.7" cy="-190.79" rx="21.43" ry="21.43"/>
<text text-anchor="middle" x="218.7" y="-185.79" font-family="Times,serif" font-size="20.00">&#45;</text>
</g>
<!-- node9&#45;&gt;node8 -->
<g id="edge9" class="edge">
<title>node9&#45;&gt;node8</title>
<path fill="none" stroke="black" d="M170.55,-259.93C179.26,-247.6 191.24,-230.65 201.07,-216.74"/>
<polygon fill="black" stroke="black" points="203.96,-218.72 206.87,-208.53 198.24,-214.68 203.96,-218.72"/>
</g>
<!-- node4 -->
<g id="node8" class="node">
<title>node4</title>
<ellipse fill="lightblue" stroke="black" cx="186.7" cy="-101.76" rx="21.43" ry="21.43"/>
<text text-anchor="middle" x="186.7" y="-96.76" font-family="Times,serif" font-size="20.00">1</text>
</g>
<!-- node8&#45;&gt;node4 -->
<g id="edge5" class="edge">
<title>node8&#45;&gt;node4</title>
<path fill="none" stroke="black" d="M211.6,-170.48C207.41,-159.1 202.04,-144.48 197.35,-131.74"/>
<polygon fill="black" stroke="black" points="200.52,-130.2 193.78,-122.02 193.95,-132.62 200.52,-130.2"/>
</g>
<!-- node7 -->
<g id="node9" class="node">
<title>node7</title>
<ellipse fill="lightblue" stroke="black" cx="249.7" cy="-101.76" rx="23.17" ry="23.17"/>
<text text-anchor="middle" x="249.7" y="-96.76" font-family="Times,serif" font-size="20.00">+</text>
</g>
<!-- node8&#45;&gt;node7 -->
<g id="edge8" class="edge">
<title>node8&#45;&gt;node7</title>
<path fill="none" stroke="black" d="M225.58,-170.48C229.43,-159.65 234.34,-145.89 238.71,-133.61"/>
<polygon fill="black" stroke="black" points="242.02,-134.75 242.08,-124.16 235.42,-132.41 242.02,-134.75"/>
</g>
<!-- node5 -->
<g id="node10" class="node">
<title>node5</title>
<ellipse fill="lightblue" stroke="black" cx="219.7" cy="-21.21" rx="21.43" ry="21.43"/>
<text text-anchor="middle" x="219.7" y="-16.21" font-family="Times,serif" font-size="20.00">2</text>
</g>
<!-- node7&#45;&gt;node5 -->
<g id="edge6" class="edge">
<title>node7&#45;&gt;node5</title>
<path fill="none" stroke="black" d="M241.66,-79.71C238.26,-70.81 234.24,-60.3 230.58,-50.72"/>
<polygon fill="black" stroke="black" points="233.78,-49.26 226.94,-41.17 227.24,-51.76 233.78,-49.26"/>
</g>
<!-- node6 -->
<g id="node11" class="node">
<title>node6</title>
<ellipse fill="lightblue" stroke="black" cx="279.7" cy="-21.21" rx="21.43" ry="21.43"/>
<text text-anchor="middle" x="279.7" y="-16.21" font-family="Times,serif" font-size="20.00">4</text>
</g>
<!-- node7&#45;&gt;node6 -->
<g id="edge7" class="edge">
<title>node7&#45;&gt;node6</title>
<path fill="none" stroke="black" d="M257.74,-79.71C261.14,-70.81 265.15,-60.3 268.81,-50.72"/>
<polygon fill="black" stroke="black" points="272.16,-51.76 272.46,-41.17 265.62,-49.26 272.16,-51.76"/>
</g>
</g>
</svg>
