<?xml version="1.0" encoding="UTF-8" standalone="no"?>
<!DOCTYPE svg PUBLIC "-//W3C//DTD SVG 1.1//EN"
 "http://www.w3.org/Graphics/SVG/1.1/DTD/svg11.dtd">
<!-- Generated by graphviz version 2.43.0 (0)
 -->
<!-- Title: G Pages: 1 -->
<svg width="574pt" height="1029pt"
 viewBox="0.00 0.00 573.75 1029.33" xmlns="http://www.w3.org/2000/svg" xmlns:xlink="http://www.w3.org/1999/xlink">
<g id="graph0" class="graph" transform="scale(1 1) rotate(0) translate(4 1025.33)">
<title>G</title>
<polygon fill="white" stroke="transparent" points="-4,4 -4,-1025.33 569.75,-1025.33 569.75,4 -4,4"/>
<!-- node24 -->
<g id="node1" class="node">
<title>node24</title>
<ellipse fill="lightblue" stroke="black" cx="178.7" cy="-990.22" rx="31.23" ry="31.23"/>
<text text-anchor="middle" x="178.7" y="-985.22" font-family="Times,serif" font-size="20.00">ST</text>
</g>
<!-- node6 -->
<g id="node2" class="node">
<title>node6</title>
<ellipse fill="lightblue" stroke="black" cx="121.7" cy="-881.39" rx="41.94" ry="41.94"/>
<text text-anchor="middle" x="121.7" y="-876.39" font-family="Times,serif" font-size="20.00">VAR</text>
</g>
<!-- node24&#45;&gt;node6 -->
<g id="edge1" class="edge">
<title>node24&#45;&gt;node6</title>
<path fill="none" stroke="black" d="M164.46,-962.54C158.84,-952 152.22,-939.59 145.89,-927.72"/>
<polygon fill="black" stroke="black" points="148.92,-925.97 141.12,-918.79 142.74,-929.27 148.92,-925.97"/>
</g>
<!-- node23 -->
<g id="node9" class="node">
<title>node23</title>
<ellipse fill="lightblue" stroke="black" cx="266.7" cy="-881.39" rx="31.23" ry="31.23"/>
<text text-anchor="middle" x="266.7" y="-876.39" font-family="Times,serif" font-size="20.00">ST</text>
</g>
<!-- node24&#45;&gt;node23 -->
<g id="edge24" class="edge">
<title>node24&#45;&gt;node23</title>
<path fill="none" stroke="black" d="M198.01,-965.77C210.53,-950.57 227,-930.58 240.67,-913.99"/>
<polygon fill="black" stroke="black" points="243.47,-916.09 247.13,-906.15 238.07,-911.64 243.47,-916.09"/>
</g>
<!-- node0 -->
<g id="node3" class="node">
<title>node0</title>
<ellipse fill="lightblue" stroke="black" cx="27.7" cy="-749.22" rx="21.43" ry="21.43"/>
<text text-anchor="middle" x="27.7" y="-744.22" font-family="Times,serif" font-size="20.00">a</text>
</g>
<!-- node6&#45;&gt;node0 -->
<g id="edge2" class="edge">
<title>node6&#45;&gt;node0</title>
<path fill="none" stroke="black" d="M94.46,-849.56C82.9,-835.9 69.6,-819.39 58.7,-803.67 52.95,-795.38 47.24,-785.98 42.32,-777.39"/>
<polygon fill="black" stroke="black" points="45.27,-775.49 37.33,-768.48 39.17,-778.92 45.27,-775.49"/>
</g>
<!-- node5 -->
<g id="node4" class="node">
<title>node5</title>
<ellipse fill="lightblue" stroke="black" cx="121.7" cy="-749.22" rx="54.39" ry="54.39"/>
<text text-anchor="middle" x="121.7" y="-744.22" font-family="Times,serif" font-size="20.00">IS_GT</text>
</g>
<!-- node6&#45;&gt;node5 -->
<g id="edge7" class="edge">
<title>node6&#45;&gt;node5</title>
<path fill="none" stroke="black" d="M121.7,-839.56C121.7,-831.41 121.7,-822.68 121.7,-813.97"/>
<polygon fill="black" stroke="black" points="125.2,-813.8 121.7,-803.8 118.2,-813.8 125.2,-813.8"/>
</g>
<!-- node1 -->
<g id="node5" class="node">
<title>node1</title>
<ellipse fill="lightblue" stroke="black" cx="29.7" cy="-604.33" rx="29.9" ry="29.9"/>
<text text-anchor="middle" x="29.7" y="-599.33" font-family="Times,serif" font-size="20.00">12</text>
</g>
<!-- node5&#45;&gt;node1 -->
<g id="edge3" class="edge">
<title>node5&#45;&gt;node1</title>
<path fill="none" stroke="black" d="M92.59,-703.01C79.08,-682.02 63.31,-657.52 50.94,-638.31"/>
<polygon fill="black" stroke="black" points="53.87,-636.4 45.51,-629.89 47.98,-640.19 53.87,-636.4"/>
</g>
<!-- node4 -->
<g id="node6" class="node">
<title>node4</title>
<ellipse fill="lightblue" stroke="black" cx="121.7" cy="-604.33" rx="43.68" ry="43.68"/>
<text text-anchor="middle" x="121.7" y="-599.33" font-family="Times,serif" font-size="20.00">SUB</text>
</g>
<!-- node5&#45;&gt;node4 -->
<g id="edge6" class="edge">
<title>node5&#45;&gt;node4</title>
<path fill="none" stroke="black" d="M121.7,-694.61C121.7,-682.85 121.7,-670.4 121.7,-658.65"/>
<polygon fill="black" stroke="black" points="125.2,-658.54 121.7,-648.54 118.2,-658.54 125.2,-658.54"/>
</g>
<!-- node2 -->
<g id="node7" class="node">
<title>node2</title>
<ellipse fill="lightblue" stroke="black" cx="53.7" cy="-459.43" rx="21.43" ry="21.43"/>
<text text-anchor="middle" x="53.7" y="-454.43" font-family="Times,serif" font-size="20.00">4</text>
</g>
<!-- node4&#45;&gt;node2 -->
<g id="edge4" class="edge">
<title>node4&#45;&gt;node2</title>
<path fill="none" stroke="black" d="M103.12,-564.28C91.66,-540.2 77.24,-509.9 66.94,-488.25"/>
<polygon fill="black" stroke="black" points="69.98,-486.49 62.52,-478.97 63.66,-489.5 69.98,-486.49"/>
</g>
<!-- node3 -->
<g id="node8" class="node">
<title>node3</title>
<ellipse fill="lightblue" stroke="black" cx="122.7" cy="-459.43" rx="29.9" ry="29.9"/>
<text text-anchor="middle" x="122.7" y="-454.43" font-family="Times,serif" font-size="20.00">33</text>
</g>
<!-- node4&#45;&gt;node3 -->
<g id="edge5" class="edge">
<title>node4&#45;&gt;node3</title>
<path fill="none" stroke="black" d="M122,-560.45C122.13,-541.03 122.29,-518.24 122.43,-499.32"/>
<polygon fill="black" stroke="black" points="125.93,-499.28 122.5,-489.25 118.93,-499.23 125.93,-499.28"/>
</g>
<!-- node13 -->
<g id="node10" class="node">
<title>node13</title>
<ellipse fill="lightblue" stroke="black" cx="266.7" cy="-749.22" rx="41.94" ry="41.94"/>
<text text-anchor="middle" x="266.7" y="-744.22" font-family="Times,serif" font-size="20.00">VAR</text>
</g>
<!-- node23&#45;&gt;node13 -->
<g id="edge8" class="edge">
<title>node23&#45;&gt;node13</title>
<path fill="none" stroke="black" d="M266.7,-850.2C266.7,-835.64 266.7,-817.79 266.7,-801.21"/>
<polygon fill="black" stroke="black" points="270.2,-801.09 266.7,-791.09 263.2,-801.09 270.2,-801.09"/>
</g>
<!-- node22 -->
<g id="node17" class="node">
<title>node22</title>
<ellipse fill="lightblue" stroke="black" cx="377.7" cy="-749.22" rx="31.23" ry="31.23"/>
<text text-anchor="middle" x="377.7" y="-744.22" font-family="Times,serif" font-size="20.00">ST</text>
</g>
<!-- node23&#45;&gt;node22 -->
<g id="edge23" class="edge">
<title>node23&#45;&gt;node22</title>
<path fill="none" stroke="black" d="M286.54,-857.12C304.5,-836.05 331.11,-804.86 350.94,-781.6"/>
<polygon fill="black" stroke="black" points="353.83,-783.61 357.65,-773.73 348.5,-779.07 353.83,-783.61"/>
</g>
<!-- node7 -->
<g id="node11" class="node">
<title>node7</title>
<ellipse fill="lightblue" stroke="black" cx="204.7" cy="-604.33" rx="21.43" ry="21.43"/>
<text text-anchor="middle" x="204.7" y="-599.33" font-family="Times,serif" font-size="20.00">b</text>
</g>
<!-- node13&#45;&gt;node7 -->
<g id="edge9" class="edge">
<title>node13&#45;&gt;node7</title>
<path fill="none" stroke="black" d="M250.41,-710.68C239.95,-686.58 226.6,-655.79 217.02,-633.73"/>
<polygon fill="black" stroke="black" points="220.11,-632.05 212.92,-624.26 213.69,-634.83 220.11,-632.05"/>
</g>
<!-- node12 -->
<g id="node12" class="node">
<title>node12</title>
<ellipse fill="lightblue" stroke="black" cx="298.7" cy="-604.33" rx="54.39" ry="54.39"/>
<text text-anchor="middle" x="298.7" y="-599.33" font-family="Times,serif" font-size="20.00">IS_BT</text>
</g>
<!-- node13&#45;&gt;node12 -->
<g id="edge14" class="edge">
<title>node13&#45;&gt;node12</title>
<path fill="none" stroke="black" d="M275.61,-708.42C278.44,-695.79 281.64,-681.51 284.73,-667.7"/>
<polygon fill="black" stroke="black" points="288.19,-668.27 286.96,-657.75 281.36,-666.74 288.19,-668.27"/>
</g>
<!-- node10 -->
<g id="node13" class="node">
<title>node10</title>
<ellipse fill="lightblue" stroke="black" cx="216.7" cy="-459.43" rx="43.68" ry="43.68"/>
<text text-anchor="middle" x="216.7" y="-454.43" font-family="Times,serif" font-size="20.00">SUB</text>
</g>
<!-- node12&#45;&gt;node10 -->
<g id="edge10" class="edge">
<title>node12&#45;&gt;node10</title>
<path fill="none" stroke="black" d="M271.85,-556.54C262.71,-540.62 252.51,-522.83 243.38,-506.93"/>
<polygon fill="black" stroke="black" points="246.17,-504.75 238.15,-497.82 240.09,-508.23 246.17,-504.75"/>
</g>
<!-- node11 -->
<g id="node16" class="node">
<title>node11</title>
<ellipse fill="lightblue" stroke="black" cx="299.7" cy="-459.43" rx="21.43" ry="21.43"/>
<text text-anchor="middle" x="299.7" y="-454.43" font-family="Times,serif" font-size="20.00">8</text>
</g>
<!-- node12&#45;&gt;node11 -->
<g id="edge13" class="edge">
<title>node12&#45;&gt;node11</title>
<path fill="none" stroke="black" d="M299.07,-549.71C299.21,-529.96 299.36,-508.27 299.48,-491.22"/>
<polygon fill="black" stroke="black" points="302.99,-490.77 299.56,-480.74 295.99,-490.72 302.99,-490.77"/>
</g>
<!-- node8 -->
<g id="node14" class="node">
<title>node8</title>
<ellipse fill="lightblue" stroke="black" cx="186.7" cy="-324.44" rx="21.43" ry="21.43"/>
<text text-anchor="middle" x="186.7" y="-319.44" font-family="Times,serif" font-size="20.00">a</text>
</g>
<!-- node10&#45;&gt;node8 -->
<g id="edge11" class="edge">
<title>node10&#45;&gt;node8</title>
<path fill="none" stroke="black" d="M207.21,-416.35C202.73,-396.5 197.49,-373.29 193.43,-355.28"/>
<polygon fill="black" stroke="black" points="196.8,-354.33 191.19,-345.35 189.98,-355.87 196.8,-354.33"/>
</g>
<!-- node9 -->
<g id="node15" class="node">
<title>node9</title>
<ellipse fill="lightblue" stroke="black" cx="246.7" cy="-324.44" rx="21.43" ry="21.43"/>
<text text-anchor="middle" x="246.7" y="-319.44" font-family="Times,serif" font-size="20.00">4</text>
</g>
<!-- node10&#45;&gt;node9 -->
<g id="edge12" class="edge">
<title>node10&#45;&gt;node9</title>
<path fill="none" stroke="black" d="M226.19,-416.35C230.67,-396.5 235.91,-373.29 239.97,-355.28"/>
<polygon fill="black" stroke="black" points="243.42,-355.87 242.21,-345.35 236.59,-354.33 243.42,-355.87"/>
</g>
<!-- node21 -->
<g id="node18" class="node">
<title>node21</title>
<ellipse fill="lightblue" stroke="black" cx="398.7" cy="-604.33" rx="27.65" ry="27.65"/>
<text text-anchor="middle" x="398.7" y="-599.33" font-family="Times,serif" font-size="20.00">IF</text>
</g>
<!-- node22&#45;&gt;node21 -->
<g id="edge15" class="edge">
<title>node22&#45;&gt;node21</title>
<path fill="none" stroke="black" d="M382.1,-718.27C385.37,-696.02 389.84,-665.57 393.32,-641.89"/>
<polygon fill="black" stroke="black" points="396.81,-642.28 394.8,-631.87 389.88,-641.26 396.81,-642.28"/>
</g>
<!-- node16 -->
<g id="node19" class="node">
<title>node16</title>
<ellipse fill="lightblue" stroke="black" cx="396.7" cy="-459.43" rx="54.39" ry="54.39"/>
<text text-anchor="middle" x="396.7" y="-454.43" font-family="Times,serif" font-size="20.00">IS_EE</text>
</g>
<!-- node21&#45;&gt;node16 -->
<g id="edge16" class="edge">
<title>node21&#45;&gt;node16</title>
<path fill="none" stroke="black" d="M398.32,-576.45C398.12,-561.65 397.85,-542.59 397.59,-524.23"/>
<polygon fill="black" stroke="black" points="401.09,-524.07 397.45,-514.12 394.09,-524.17 401.09,-524.07"/>
</g>
<!-- node20 -->
<g id="node22" class="node">
<title>node20</title>
<ellipse fill="lightblue" stroke="black" cx="500.7" cy="-459.43" rx="31.23" ry="31.23"/>
<text text-anchor="middle" x="500.7" y="-454.43" font-family="Times,serif" font-size="20.00">ST</text>
</g>
<!-- node21&#45;&gt;node20 -->
<g id="edge22" class="edge">
<title>node21&#45;&gt;node20</title>
<path fill="none" stroke="black" d="M414.41,-581.31C431.15,-557.86 457.84,-520.47 477.11,-493.48"/>
<polygon fill="black" stroke="black" points="480.12,-495.28 483.08,-485.11 474.42,-491.22 480.12,-495.28"/>
</g>
<!-- node14 -->
<g id="node20" class="node">
<title>node14</title>
<ellipse fill="lightblue" stroke="black" cx="348.7" cy="-324.44" rx="21.43" ry="21.43"/>
<text text-anchor="middle" x="348.7" y="-319.44" font-family="Times,serif" font-size="20.00">a</text>
</g>
<!-- node16&#45;&gt;node14 -->
<g id="edge17" class="edge">
<title>node16&#45;&gt;node14</title>
<path fill="none" stroke="black" d="M378.41,-407.77C371.89,-389.71 364.78,-369.99 359.14,-354.38"/>
<polygon fill="black" stroke="black" points="362.36,-352.99 355.68,-344.77 355.78,-355.36 362.36,-352.99"/>
</g>
<!-- node15 -->
<g id="node21" class="node">
<title>node15</title>
<ellipse fill="lightblue" stroke="black" cx="408.7" cy="-324.44" rx="21.43" ry="21.43"/>
<text text-anchor="middle" x="408.7" y="-319.44" font-family="Times,serif" font-size="20.00">b</text>
</g>
<!-- node16&#45;&gt;node15 -->
<g id="edge18" class="edge">
<title>node16&#45;&gt;node15</title>
<path fill="none" stroke="black" d="M401.51,-405.1C403.02,-388.36 404.64,-370.45 405.95,-355.86"/>
<polygon fill="black" stroke="black" points="409.44,-356.16 406.85,-345.89 402.47,-355.53 409.44,-356.16"/>
</g>
<!-- node19 -->
<g id="node23" class="node">
<title>node19</title>
<ellipse fill="lightblue" stroke="black" cx="500.7" cy="-324.44" rx="44.6" ry="44.6"/>
<text text-anchor="middle" x="500.7" y="-319.44" font-family="Times,serif" font-size="20.00">OUT</text>
</g>
<!-- node20&#45;&gt;node19 -->
<g id="edge19" class="edge">
<title>node20&#45;&gt;node19</title>
<path fill="none" stroke="black" d="M500.7,-428.25C500.7,-413.78 500.7,-396 500.7,-379.32"/>
<polygon fill="black" stroke="black" points="504.2,-379.12 500.7,-369.12 497.2,-379.12 504.2,-379.12"/>
</g>
<!-- node18 -->
<g id="node24" class="node">
<title>node18</title>
<ellipse fill="lightblue" stroke="black" cx="500.7" cy="-178.84" rx="65.11" ry="65.11"/>
<text text-anchor="middle" x="500.7" y="-173.84" font-family="Times,serif" font-size="20.00">PARAM</text>
</g>
<!-- node19&#45;&gt;node18 -->
<g id="edge20" class="edge">
<title>node19&#45;&gt;node18</title>
<path fill="none" stroke="black" d="M500.7,-279.57C500.7,-271.51 500.7,-262.89 500.7,-254.22"/>
<polygon fill="black" stroke="black" points="504.2,-254.05 500.7,-244.05 497.2,-254.05 504.2,-254.05"/>
</g>
<!-- node17 -->
<g id="node25" class="node">
<title>node17</title>
<ellipse fill="lightblue" stroke="black" cx="500.7" cy="-38.89" rx="38.78" ry="38.78"/>
<text text-anchor="middle" x="500.7" y="-33.89" font-family="Times,serif" font-size="20.00">999</text>
</g>
<!-- node18&#45;&gt;node17 -->
<g id="edge21" class="edge">
<title>node18&#45;&gt;node17</title>
<path fill="none" stroke="black" d="M500.7,-113.71C500.7,-105.1 500.7,-96.39 500.7,-88.12"/>
<polygon fill="black" stroke="black" points="504.2,-87.92 500.7,-77.92 497.2,-87.92 504.2,-87.92"/>
</g>
</g>
</svg>
