<?xml version="1.0" encoding="UTF-8" standalone="no"?>
<!DOCTYPE svg PUBLIC "-//W3C//DTD SVG 1.1//EN"
 "http://www.w3.org/Graphics/SVG/1.1/DTD/svg11.dtd">
<!-- Generated by graphviz version 2.43.0 (0)
 -->
<!-- Title: G Pages: 1 -->
<svg width="215pt" height="593pt"
 viewBox="0.00 0.00 215.04 592.59" xmlns="http://www.w3.org/2000/svg" xmlns:xlink="http://www.w3.org/1999/xlink">
<g id="graph0" class="graph" transform="scale(1 1) rotate(0) translate(4 588.59)">
<title>G</title>
<polygon fill="white" stroke="transparent" points="-4,4 -4,-588.59 211.04,-588.59 211.04,4 -4,4"/>
<!-- node69 -->
<g id="node1" class="node">
<title>node69</title>
<ellipse fill="lightblue" stroke="black" cx="76.65" cy="-520.95" rx="63.78" ry="63.78"/>
<text text-anchor="middle" x="76.65" y="-515.95" font-family="Times,serif" font-size="20.00">WHILE</text>
</g>
<!-- node64 -->
<g id="node2" class="node">
<title>node64</title>
<ellipse fill="lightblue" stroke="black" cx="34.65" cy="-386.66" rx="34.8" ry="34.8"/>
<text text-anchor="middle" x="34.65" y="-381.66" font-family="Times,serif" font-size="20.00">inp</text>
</g>
<!-- node69&#45;&gt;node64 -->
<g id="edge1" class="edge">
<title>node69&#45;&gt;node64</title>
<path fill="none" stroke="black" d="M57.61,-460C54.36,-449.75 51.04,-439.3 47.98,-429.65"/>
<polygon fill="black" stroke="black" points="51.25,-428.39 44.89,-419.92 44.58,-430.51 51.25,-428.39"/>
</g>
<!-- node68 -->
<g id="node3" class="node">
<title>node68</title>
<ellipse fill="lightblue" stroke="black" cx="118.65" cy="-386.66" rx="31.23" ry="31.23"/>
<text text-anchor="middle" x="118.65" y="-381.66" font-family="Times,serif" font-size="20.00">ST</text>
</g>
<!-- node69&#45;&gt;node68 -->
<g id="edge4" class="edge">
<title>node69&#45;&gt;node68</title>
<path fill="none" stroke="black" d="M95.68,-460C99.3,-448.6 103,-436.96 106.34,-426.43"/>
<polygon fill="black" stroke="black" points="109.73,-427.32 109.42,-416.73 103.06,-425.21 109.73,-427.32"/>
</g>
<!-- node67 -->
<g id="node4" class="node">
<title>node67</title>
<ellipse fill="lightblue" stroke="black" cx="118.65" cy="-264.4" rx="51.74" ry="51.74"/>
<text text-anchor="middle" x="118.65" y="-259.4" font-family="Times,serif" font-size="20.00">CALL</text>
</g>
<!-- node68&#45;&gt;node67 -->
<g id="edge2" class="edge">
<title>node68&#45;&gt;node67</title>
<path fill="none" stroke="black" d="M118.65,-355.31C118.65,-346.44 118.65,-336.41 118.65,-326.35"/>
<polygon fill="black" stroke="black" points="122.15,-326.32 118.65,-316.32 115.15,-326.32 122.15,-326.32"/>
</g>
<!-- node66 -->
<g id="node5" class="node">
<title>node66</title>
<ellipse fill="lightblue" stroke="black" cx="118.65" cy="-88.39" rx="88.28" ry="88.28"/>
<text text-anchor="middle" x="118.65" y="-83.39" font-family="Times,serif" font-size="20.00">while_fuck</text>
</g>
<!-- node67&#45;&gt;node66 -->
<g id="edge3" class="edge">
<title>node67&#45;&gt;node66</title>
<path fill="none" stroke="black" d="M118.65,-212.6C118.65,-204.43 118.65,-195.75 118.65,-186.93"/>
<polygon fill="black" stroke="black" points="122.15,-186.92 118.65,-176.92 115.15,-186.92 122.15,-186.92"/>
</g>
</g>
</svg>
