<?xml version="1.0" encoding="UTF-8" standalone="no"?>
<!DOCTYPE svg PUBLIC "-//W3C//DTD SVG 1.1//EN"
 "http://www.w3.org/Graphics/SVG/1.1/DTD/svg11.dtd">
<!-- Generated by graphviz version 2.43.0 (0)
 -->
<!-- Title: G Pages: 1 -->
<svg width="1293pt" height="2027pt"
 viewBox="0.00 0.00 1293.27 2026.75" xmlns="http://www.w3.org/2000/svg" xmlns:xlink="http://www.w3.org/1999/xlink">
<g id="graph0" class="graph" transform="scale(1 1) rotate(0) translate(4 2022.75)">
<title>G</title>
<polygon fill="white" stroke="transparent" points="-4,4 -4,-2022.75 1289.27,-2022.75 1289.27,4 -4,4"/>
<!-- node79 -->
<g id="node1" class="node">
<title>node79</title>
<ellipse fill="lightblue" stroke="black" cx="489.21" cy="-1987.63" rx="31.23" ry="31.23"/>
<text text-anchor="middle" x="489.21" y="-1982.63" font-family="Times,serif" font-size="20.00">ST</text>
</g>
<!-- node37 -->
<g id="node2" class="node">
<title>node37</title>
<ellipse fill="lightblue" stroke="black" cx="275.21" cy="-1863.95" rx="56.64" ry="56.64"/>
<text text-anchor="middle" x="275.21" y="-1858.95" font-family="Times,serif" font-size="20.00">FUNC</text>
</g>
<!-- node79&#45;&gt;node37 -->
<g id="edge1" class="edge">
<title>node79&#45;&gt;node37</title>
<path fill="none" stroke="black" d="M462.54,-1971.47C430.32,-1953.15 375.21,-1921.81 333.08,-1897.86"/>
<polygon fill="black" stroke="black" points="334.72,-1894.76 324.3,-1892.86 331.26,-1900.85 334.72,-1894.76"/>
</g>
<!-- node78 -->
<g id="node39" class="node">
<title>node78</title>
<ellipse fill="lightblue" stroke="black" cx="747.21" cy="-1863.95" rx="31.23" ry="31.23"/>
<text text-anchor="middle" x="747.21" y="-1858.95" font-family="Times,serif" font-size="20.00">ST</text>
</g>
<!-- node79&#45;&gt;node78 -->
<g id="edge75" class="edge">
<title>node79&#45;&gt;node78</title>
<path fill="none" stroke="black" d="M517.31,-1973.38C564.04,-1951.35 657.7,-1907.17 709.9,-1882.55"/>
<polygon fill="black" stroke="black" points="711.59,-1885.62 719.15,-1878.19 708.61,-1879.29 711.59,-1885.62"/>
</g>
<!-- node36 -->
<g id="node3" class="node">
<title>node36</title>
<ellipse fill="lightblue" stroke="black" cx="128.21" cy="-1683" rx="88.28" ry="88.28"/>
<text text-anchor="middle" x="128.21" y="-1678" font-family="Times,serif" font-size="20.00">while_fuck</text>
</g>
<!-- node37&#45;&gt;node36 -->
<g id="edge2" class="edge">
<title>node37&#45;&gt;node36</title>
<path fill="none" stroke="black" d="M239.63,-1819.63C224.79,-1801.56 207.1,-1780.04 190.24,-1759.51"/>
<polygon fill="black" stroke="black" points="192.88,-1757.21 183.83,-1751.7 187.47,-1761.65 192.88,-1757.21"/>
</g>
<!-- node34 -->
<g id="node5" class="node">
<title>node34</title>
<ellipse fill="lightblue" stroke="black" cx="275.21" cy="-1683" rx="31.23" ry="31.23"/>
<text text-anchor="middle" x="275.21" y="-1678" font-family="Times,serif" font-size="20.00">ST</text>
</g>
<!-- node37&#45;&gt;node34 -->
<g id="edge37" class="edge">
<title>node37&#45;&gt;node34</title>
<path fill="none" stroke="black" d="M275.21,-1807.31C275.21,-1780.47 275.21,-1748.86 275.21,-1724.36"/>
<polygon fill="black" stroke="black" points="278.71,-1724.34 275.21,-1714.34 271.71,-1724.34 278.71,-1724.34"/>
</g>
<!-- node35 -->
<g id="node4" class="node">
<title>node35</title>
<ellipse fill="lightblue" stroke="black" cx="119.21" cy="-1485.78" rx="46.84" ry="46.84"/>
<text text-anchor="middle" x="119.21" y="-1480.78" font-family="Times,serif" font-size="20.00">Type</text>
</g>
<!-- node36&#45;&gt;node35 -->
<g id="edge3" class="edge">
<title>node36&#45;&gt;node35</title>
<path fill="none" stroke="black" d="M124.19,-1594.66C123.38,-1577.09 122.55,-1559.07 121.8,-1542.91"/>
<polygon fill="black" stroke="black" points="125.28,-1542.42 121.33,-1532.59 118.29,-1542.74 125.28,-1542.42"/>
</g>
<!-- node5 -->
<g id="node6" class="node">
<title>node5</title>
<ellipse fill="lightblue" stroke="black" cx="213.21" cy="-1485.78" rx="29.9" ry="29.9"/>
<text text-anchor="middle" x="213.21" y="-1480.78" font-family="Times,serif" font-size="20.00">IN</text>
</g>
<!-- node34&#45;&gt;node5 -->
<g id="edge4" class="edge">
<title>node34&#45;&gt;node5</title>
<path fill="none" stroke="black" d="M266.06,-1653.19C255.18,-1618.92 236.98,-1561.62 225.04,-1524.02"/>
<polygon fill="black" stroke="black" points="228.36,-1522.91 222,-1514.44 221.69,-1525.03 228.36,-1522.91"/>
</g>
<!-- node33 -->
<g id="node11" class="node">
<title>node33</title>
<ellipse fill="lightblue" stroke="black" cx="292.21" cy="-1485.78" rx="31.23" ry="31.23"/>
<text text-anchor="middle" x="292.21" y="-1480.78" font-family="Times,serif" font-size="20.00">ST</text>
</g>
<!-- node34&#45;&gt;node33 -->
<g id="edge36" class="edge">
<title>node34&#45;&gt;node33</title>
<path fill="none" stroke="black" d="M277.83,-1651.92C280.75,-1618.39 285.49,-1564 288.72,-1526.87"/>
<polygon fill="black" stroke="black" points="292.21,-1527.15 289.59,-1516.89 285.24,-1526.54 292.21,-1527.15"/>
</g>
<!-- node4 -->
<g id="node7" class="node">
<title>node4</title>
<ellipse fill="lightblue" stroke="black" cx="86.21" cy="-1311.89" rx="65.11" ry="65.11"/>
<text text-anchor="middle" x="86.21" y="-1306.89" font-family="Times,serif" font-size="20.00">PARAM</text>
</g>
<!-- node5&#45;&gt;node4 -->
<g id="edge5" class="edge">
<title>node5&#45;&gt;node4</title>
<path fill="none" stroke="black" d="M201.11,-1458.3C194.27,-1444.34 185.11,-1427.2 175.21,-1412.94 164.31,-1397.23 151.22,-1381.29 138.48,-1366.88"/>
<polygon fill="black" stroke="black" points="140.74,-1364.15 131.45,-1359.05 135.52,-1368.83 140.74,-1364.15"/>
</g>
<!-- node3 -->
<g id="node8" class="node">
<title>node3</title>
<ellipse fill="lightblue" stroke="black" cx="56.21" cy="-1147.2" rx="41.94" ry="41.94"/>
<text text-anchor="middle" x="56.21" y="-1142.2" font-family="Times,serif" font-size="20.00">VAR</text>
</g>
<!-- node4&#45;&gt;node3 -->
<g id="edge6" class="edge">
<title>node4&#45;&gt;node3</title>
<path fill="none" stroke="black" d="M74.53,-1247.52C71.53,-1231.28 68.35,-1214.02 65.49,-1198.53"/>
<polygon fill="black" stroke="black" points="68.92,-1197.83 63.67,-1188.63 62.04,-1199.1 68.92,-1197.83"/>
</g>
<!-- node1 -->
<g id="node9" class="node">
<title>node1</title>
<ellipse fill="lightblue" stroke="black" cx="21.21" cy="-995.94" rx="21.43" ry="21.43"/>
<text text-anchor="middle" x="21.21" y="-990.94" font-family="Times,serif" font-size="20.00">n</text>
</g>
<!-- node3&#45;&gt;node1 -->
<g id="edge7" class="edge">
<title>node3&#45;&gt;node1</title>
<path fill="none" stroke="black" d="M46.83,-1106.2C40.97,-1081.19 33.54,-1049.51 28.19,-1026.71"/>
<polygon fill="black" stroke="black" points="31.59,-1025.85 25.9,-1016.92 24.77,-1027.45 31.59,-1025.85"/>
</g>
<!-- node2 -->
<g id="node10" class="node">
<title>node2</title>
<ellipse fill="lightblue" stroke="black" cx="81.21" cy="-995.94" rx="21.43" ry="21.43"/>
<text text-anchor="middle" x="81.21" y="-990.94" font-family="Times,serif" font-size="20.00">1</text>
</g>
<!-- node3&#45;&gt;node2 -->
<g id="edge8" class="edge">
<title>node3&#45;&gt;node2</title>
<path fill="none" stroke="black" d="M62.98,-1105.81C67.12,-1081.06 72.34,-1049.91 76.13,-1027.27"/>
<polygon fill="black" stroke="black" points="79.62,-1027.66 77.82,-1017.22 72.71,-1026.5 79.62,-1027.66"/>
</g>
<!-- node8 -->
<g id="node12" class="node">
<title>node8</title>
<ellipse fill="lightblue" stroke="black" cx="240.21" cy="-1311.89" rx="41.94" ry="41.94"/>
<text text-anchor="middle" x="240.21" y="-1306.89" font-family="Times,serif" font-size="20.00">VAR</text>
</g>
<!-- node33&#45;&gt;node8 -->
<g id="edge9" class="edge">
<title>node33&#45;&gt;node8</title>
<path fill="none" stroke="black" d="M283.39,-1455.62C275.66,-1430.06 264.26,-1392.38 255.11,-1362.15"/>
<polygon fill="black" stroke="black" points="258.35,-1360.77 252.11,-1352.21 251.65,-1362.79 258.35,-1360.77"/>
</g>
<!-- node32 -->
<g id="node15" class="node">
<title>node32</title>
<ellipse fill="lightblue" stroke="black" cx="343.21" cy="-1311.89" rx="31.23" ry="31.23"/>
<text text-anchor="middle" x="343.21" y="-1306.89" font-family="Times,serif" font-size="20.00">ST</text>
</g>
<!-- node33&#45;&gt;node32 -->
<g id="edge35" class="edge">
<title>node33&#45;&gt;node32</title>
<path fill="none" stroke="black" d="M300.86,-1455.62C309.35,-1427.01 322.35,-1383.21 331.71,-1351.68"/>
<polygon fill="black" stroke="black" points="335.12,-1352.49 334.6,-1341.9 328.4,-1350.5 335.12,-1352.49"/>
</g>
<!-- node6 -->
<g id="node13" class="node">
<title>node6</title>
<ellipse fill="lightblue" stroke="black" cx="158.21" cy="-1147.2" rx="42.35" ry="42.35"/>
<text text-anchor="middle" x="158.21" y="-1142.2" font-family="Times,serif" font-size="20.00">fuck</text>
</g>
<!-- node8&#45;&gt;node6 -->
<g id="edge10" class="edge">
<title>node8&#45;&gt;node6</title>
<path fill="none" stroke="black" d="M221.81,-1274.38C209.91,-1250.77 194.31,-1219.82 181.54,-1194.49"/>
<polygon fill="black" stroke="black" points="184.61,-1192.79 176.98,-1185.43 178.36,-1195.94 184.61,-1192.79"/>
</g>
<!-- node7 -->
<g id="node14" class="node">
<title>node7</title>
<ellipse fill="lightblue" stroke="black" cx="240.21" cy="-1147.2" rx="21.43" ry="21.43"/>
<text text-anchor="middle" x="240.21" y="-1142.2" font-family="Times,serif" font-size="20.00">n</text>
</g>
<!-- node8&#45;&gt;node7 -->
<g id="edge11" class="edge">
<title>node8&#45;&gt;node7</title>
<path fill="none" stroke="black" d="M240.21,-1269.84C240.21,-1241.5 240.21,-1204.44 240.21,-1178.71"/>
<polygon fill="black" stroke="black" points="243.71,-1178.43 240.21,-1168.43 236.71,-1178.43 243.71,-1178.43"/>
</g>
<!-- node24 -->
<g id="node16" class="node">
<title>node24</title>
<ellipse fill="lightblue" stroke="black" cx="343.21" cy="-1147.2" rx="63.78" ry="63.78"/>
<text text-anchor="middle" x="343.21" y="-1142.2" font-family="Times,serif" font-size="20.00">WHILE</text>
</g>
<!-- node32&#45;&gt;node24 -->
<g id="edge12" class="edge">
<title>node32&#45;&gt;node24</title>
<path fill="none" stroke="black" d="M343.21,-1280.67C343.21,-1263.85 343.21,-1242.12 343.21,-1221.15"/>
<polygon fill="black" stroke="black" points="346.71,-1220.94 343.21,-1210.94 339.71,-1220.94 346.71,-1220.94"/>
</g>
<!-- node31 -->
<g id="node32" class="node">
<title>node31</title>
<ellipse fill="lightblue" stroke="black" cx="456.21" cy="-1147.2" rx="31.23" ry="31.23"/>
<text text-anchor="middle" x="456.21" y="-1142.2" font-family="Times,serif" font-size="20.00">ST</text>
</g>
<!-- node32&#45;&gt;node31 -->
<g id="edge34" class="edge">
<title>node32&#45;&gt;node31</title>
<path fill="none" stroke="black" d="M361.64,-1286.52C376.67,-1266.45 398.26,-1237.11 416.21,-1210.84 422.39,-1201.79 428.87,-1191.86 434.77,-1182.62"/>
<polygon fill="black" stroke="black" points="437.82,-1184.35 440.22,-1174.03 431.91,-1180.6 437.82,-1184.35"/>
</g>
<!-- node11 -->
<g id="node17" class="node">
<title>node11</title>
<ellipse fill="lightblue" stroke="black" cx="189.21" cy="-995.94" rx="43.68" ry="43.68"/>
<text text-anchor="middle" x="189.21" y="-990.94" font-family="Times,serif" font-size="20.00">SUB</text>
</g>
<!-- node24&#45;&gt;node11 -->
<g id="edge13" class="edge">
<title>node24&#45;&gt;node11</title>
<path fill="none" stroke="black" d="M297.84,-1102.22C275.62,-1080.68 249.14,-1055.02 227.89,-1034.43"/>
<polygon fill="black" stroke="black" points="230.23,-1031.81 220.61,-1027.37 225.35,-1036.84 230.23,-1031.81"/>
</g>
<!-- node23 -->
<g id="node20" class="node">
<title>node23</title>
<ellipse fill="lightblue" stroke="black" cx="343.21" cy="-995.94" rx="31.23" ry="31.23"/>
<text text-anchor="middle" x="343.21" y="-990.94" font-family="Times,serif" font-size="20.00">ST</text>
</g>
<!-- node24&#45;&gt;node23 -->
<g id="edge27" class="edge">
<title>node24&#45;&gt;node23</title>
<path fill="none" stroke="black" d="M343.21,-1083.33C343.21,-1067.84 343.21,-1051.66 343.21,-1037.54"/>
<polygon fill="black" stroke="black" points="346.71,-1037.19 343.21,-1027.19 339.71,-1037.19 346.71,-1037.19"/>
</g>
<!-- node9 -->
<g id="node18" class="node">
<title>node9</title>
<ellipse fill="lightblue" stroke="black" cx="129.21" cy="-819.93" rx="21.43" ry="21.43"/>
<text text-anchor="middle" x="129.21" y="-814.93" font-family="Times,serif" font-size="20.00">n</text>
</g>
<!-- node11&#45;&gt;node9 -->
<g id="edge14" class="edge">
<title>node11&#45;&gt;node9</title>
<path fill="none" stroke="black" d="M175.15,-954.41C170.11,-939.87 164.4,-923.37 159.21,-908.32 152.54,-888.98 145.07,-867.22 139.26,-850.25"/>
<polygon fill="black" stroke="black" points="142.42,-848.7 135.87,-840.37 135.8,-850.97 142.42,-848.7"/>
</g>
<!-- node10 -->
<g id="node19" class="node">
<title>node10</title>
<ellipse fill="lightblue" stroke="black" cx="189.21" cy="-819.93" rx="21.43" ry="21.43"/>
<text text-anchor="middle" x="189.21" y="-814.93" font-family="Times,serif" font-size="20.00">1</text>
</g>
<!-- node11&#45;&gt;node10 -->
<g id="edge15" class="edge">
<title>node11&#45;&gt;node10</title>
<path fill="none" stroke="black" d="M189.21,-951.93C189.21,-920.83 189.21,-879.56 189.21,-851.72"/>
<polygon fill="black" stroke="black" points="192.71,-851.4 189.21,-841.4 185.71,-851.4 192.71,-851.4"/>
</g>
<!-- node16 -->
<g id="node21" class="node">
<title>node16</title>
<ellipse fill="lightblue" stroke="black" cx="261.21" cy="-819.93" rx="33.47" ry="33.47"/>
<text text-anchor="middle" x="261.21" y="-814.93" font-family="Times,serif" font-size="20.00">EQ</text>
</g>
<!-- node23&#45;&gt;node16 -->
<g id="edge16" class="edge">
<title>node23&#45;&gt;node16</title>
<path fill="none" stroke="black" d="M330.22,-967.37C316.53,-938.32 294.87,-892.35 279.47,-859.67"/>
<polygon fill="black" stroke="black" points="282.53,-857.96 275.1,-850.41 276.2,-860.95 282.53,-857.96"/>
</g>
<!-- node22 -->
<g id="node26" class="node">
<title>node22</title>
<ellipse fill="lightblue" stroke="black" cx="343.21" cy="-819.93" rx="31.23" ry="31.23"/>
<text text-anchor="middle" x="343.21" y="-814.93" font-family="Times,serif" font-size="20.00">ST</text>
</g>
<!-- node23&#45;&gt;node22 -->
<g id="edge26" class="edge">
<title>node23&#45;&gt;node22</title>
<path fill="none" stroke="black" d="M343.21,-964.63C343.21,-936.02 343.21,-892.93 343.21,-861.4"/>
<polygon fill="black" stroke="black" points="346.71,-861.19 343.21,-851.19 339.71,-861.19 346.71,-861.19"/>
</g>
<!-- node12 -->
<g id="node22" class="node">
<title>node12</title>
<ellipse fill="lightblue" stroke="black" cx="178.21" cy="-630.49" rx="21.43" ry="21.43"/>
<text text-anchor="middle" x="178.21" y="-625.49" font-family="Times,serif" font-size="20.00">n</text>
</g>
<!-- node16&#45;&gt;node12 -->
<g id="edge17" class="edge">
<title>node16&#45;&gt;node12</title>
<path fill="none" stroke="black" d="M248.06,-789.23C232.34,-753.72 206.21,-694.71 190.75,-659.81"/>
<polygon fill="black" stroke="black" points="193.76,-657.96 186.51,-650.23 187.36,-660.79 193.76,-657.96"/>
</g>
<!-- node15 -->
<g id="node23" class="node">
<title>node15</title>
<ellipse fill="lightblue" stroke="black" cx="261.21" cy="-630.49" rx="43.68" ry="43.68"/>
<text text-anchor="middle" x="261.21" y="-625.49" font-family="Times,serif" font-size="20.00">SUB</text>
</g>
<!-- node16&#45;&gt;node15 -->
<g id="edge20" class="edge">
<title>node16&#45;&gt;node15</title>
<path fill="none" stroke="black" d="M261.21,-786.28C261.21,-758.36 261.21,-717.63 261.21,-684.96"/>
<polygon fill="black" stroke="black" points="264.71,-684.66 261.21,-674.66 257.71,-684.66 264.71,-684.66"/>
</g>
<!-- node13 -->
<g id="node24" class="node">
<title>node13</title>
<ellipse fill="lightblue" stroke="black" cx="205.21" cy="-477.82" rx="21.43" ry="21.43"/>
<text text-anchor="middle" x="205.21" y="-472.82" font-family="Times,serif" font-size="20.00">n</text>
</g>
<!-- node15&#45;&gt;node13 -->
<g id="edge18" class="edge">
<title>node15&#45;&gt;node13</title>
<path fill="none" stroke="black" d="M246.21,-589.11C236.67,-563.45 224.54,-530.83 215.96,-507.74"/>
<polygon fill="black" stroke="black" points="219.17,-506.32 212.4,-498.17 212.61,-508.76 219.17,-506.32"/>
</g>
<!-- node14 -->
<g id="node25" class="node">
<title>node14</title>
<ellipse fill="lightblue" stroke="black" cx="265.21" cy="-477.82" rx="21.43" ry="21.43"/>
<text text-anchor="middle" x="265.21" y="-472.82" font-family="Times,serif" font-size="20.00">1</text>
</g>
<!-- node15&#45;&gt;node14 -->
<g id="edge19" class="edge">
<title>node15&#45;&gt;node14</title>
<path fill="none" stroke="black" d="M262.36,-586.31C263.01,-561.65 263.82,-531.33 264.41,-509.18"/>
<polygon fill="black" stroke="black" points="267.91,-509.12 264.68,-499.03 260.91,-508.93 267.91,-509.12"/>
</g>
<!-- node21 -->
<g id="node27" class="node">
<title>node21</title>
<ellipse fill="lightblue" stroke="black" cx="356.21" cy="-630.49" rx="33.47" ry="33.47"/>
<text text-anchor="middle" x="356.21" y="-625.49" font-family="Times,serif" font-size="20.00">EQ</text>
</g>
<!-- node22&#45;&gt;node21 -->
<g id="edge21" class="edge">
<title>node22&#45;&gt;node21</title>
<path fill="none" stroke="black" d="M345.3,-788.82C347.45,-757.77 350.83,-709.1 353.26,-674.11"/>
<polygon fill="black" stroke="black" points="356.78,-673.95 353.98,-663.73 349.79,-673.46 356.78,-673.95"/>
</g>
<!-- node17 -->
<g id="node28" class="node">
<title>node17</title>
<ellipse fill="lightblue" stroke="black" cx="353.21" cy="-477.82" rx="42.35" ry="42.35"/>
<text text-anchor="middle" x="353.21" y="-472.82" font-family="Times,serif" font-size="20.00">fuck</text>
</g>
<!-- node21&#45;&gt;node17 -->
<g id="edge22" class="edge">
<title>node21&#45;&gt;node17</title>
<path fill="none" stroke="black" d="M355.57,-597.17C355.18,-577.76 354.68,-552.62 354.24,-530.51"/>
<polygon fill="black" stroke="black" points="357.74,-530.19 354.04,-520.27 350.74,-530.33 357.74,-530.19"/>
</g>
<!-- node20 -->
<g id="node29" class="node">
<title>node20</title>
<ellipse fill="lightblue" stroke="black" cx="461.21" cy="-477.82" rx="47.25" ry="47.25"/>
<text text-anchor="middle" x="461.21" y="-472.82" font-family="Times,serif" font-size="20.00">MUL</text>
</g>
<!-- node21&#45;&gt;node20 -->
<g id="edge25" class="edge">
<title>node21&#45;&gt;node20</title>
<path fill="none" stroke="black" d="M374.74,-602.9C389.66,-581.49 410.99,-550.89 428.73,-525.43"/>
<polygon fill="black" stroke="black" points="431.75,-527.22 434.59,-517.02 426,-523.22 431.75,-527.22"/>
</g>
<!-- node18 -->
<g id="node30" class="node">
<title>node18</title>
<ellipse fill="lightblue" stroke="black" cx="420.21" cy="-317.37" rx="42.35" ry="42.35"/>
<text text-anchor="middle" x="420.21" y="-312.37" font-family="Times,serif" font-size="20.00">fuck</text>
</g>
<!-- node20&#45;&gt;node18 -->
<g id="edge23" class="edge">
<title>node20&#45;&gt;node18</title>
<path fill="none" stroke="black" d="M449.57,-431.84C444.45,-412.02 438.4,-388.67 433.14,-368.32"/>
<polygon fill="black" stroke="black" points="436.52,-367.4 430.62,-358.59 429.74,-369.15 436.52,-367.4"/>
</g>
<!-- node19 -->
<g id="node31" class="node">
<title>node19</title>
<ellipse fill="lightblue" stroke="black" cx="502.21" cy="-317.37" rx="21.43" ry="21.43"/>
<text text-anchor="middle" x="502.21" y="-312.37" font-family="Times,serif" font-size="20.00">n</text>
</g>
<!-- node20&#45;&gt;node19 -->
<g id="edge24" class="edge">
<title>node20&#45;&gt;node19</title>
<path fill="none" stroke="black" d="M472.85,-431.84C479.82,-404.9 488.49,-371.42 494.59,-347.83"/>
<polygon fill="black" stroke="black" points="498,-348.62 497.12,-338.06 491.22,-346.86 498,-348.62"/>
</g>
<!-- node27 -->
<g id="node33" class="node">
<title>node27</title>
<ellipse fill="lightblue" stroke="black" cx="456.21" cy="-995.94" rx="44.6" ry="44.6"/>
<text text-anchor="middle" x="456.21" y="-990.94" font-family="Times,serif" font-size="20.00">OUT</text>
</g>
<!-- node31&#45;&gt;node27 -->
<g id="edge28" class="edge">
<title>node31&#45;&gt;node27</title>
<path fill="none" stroke="black" d="M456.21,-1115.99C456.21,-1097.31 456.21,-1072.8 456.21,-1050.87"/>
<polygon fill="black" stroke="black" points="459.71,-1050.68 456.21,-1040.68 452.71,-1050.68 459.71,-1050.68"/>
</g>
<!-- node30 -->
<g id="node36" class="node">
<title>node30</title>
<ellipse fill="lightblue" stroke="black" cx="550.21" cy="-995.94" rx="31.23" ry="31.23"/>
<text text-anchor="middle" x="550.21" y="-990.94" font-family="Times,serif" font-size="20.00">ST</text>
</g>
<!-- node31&#45;&gt;node30 -->
<g id="edge33" class="edge">
<title>node31&#45;&gt;node30</title>
<path fill="none" stroke="black" d="M472.37,-1120.54C487.84,-1095.98 511.29,-1058.74 528.41,-1031.56"/>
<polygon fill="black" stroke="black" points="531.58,-1033.09 533.95,-1022.76 525.66,-1029.36 531.58,-1033.09"/>
</g>
<!-- node26 -->
<g id="node34" class="node">
<title>node26</title>
<ellipse fill="lightblue" stroke="black" cx="457.21" cy="-819.93" rx="65.11" ry="65.11"/>
<text text-anchor="middle" x="457.21" y="-814.93" font-family="Times,serif" font-size="20.00">PARAM</text>
</g>
<!-- node27&#45;&gt;node26 -->
<g id="edge29" class="edge">
<title>node27&#45;&gt;node26</title>
<path fill="none" stroke="black" d="M456.47,-951.03C456.56,-934.13 456.68,-914.33 456.79,-895.35"/>
<polygon fill="black" stroke="black" points="460.29,-895.24 456.84,-885.22 453.29,-895.2 460.29,-895.24"/>
</g>
<!-- node25 -->
<g id="node35" class="node">
<title>node25</title>
<ellipse fill="lightblue" stroke="black" cx="457.21" cy="-630.49" rx="42.35" ry="42.35"/>
<text text-anchor="middle" x="457.21" y="-625.49" font-family="Times,serif" font-size="20.00">fuck</text>
</g>
<!-- node26&#45;&gt;node25 -->
<g id="edge30" class="edge">
<title>node26&#45;&gt;node25</title>
<path fill="none" stroke="black" d="M457.21,-754.69C457.21,-731.36 457.21,-705.31 457.21,-683.2"/>
<polygon fill="black" stroke="black" points="460.71,-683.02 457.21,-673.02 453.71,-683.02 460.71,-683.02"/>
</g>
<!-- node29 -->
<g id="node37" class="node">
<title>node29</title>
<ellipse fill="lightblue" stroke="black" cx="582.21" cy="-819.93" rx="41.94" ry="41.94"/>
<text text-anchor="middle" x="582.21" y="-814.93" font-family="Times,serif" font-size="20.00">RET</text>
</g>
<!-- node30&#45;&gt;node29 -->
<g id="edge31" class="edge">
<title>node30&#45;&gt;node29</title>
<path fill="none" stroke="black" d="M555.71,-965.03C560.45,-939.27 567.38,-901.57 572.97,-871.19"/>
<polygon fill="black" stroke="black" points="576.44,-871.66 574.81,-861.19 569.56,-870.4 576.44,-871.66"/>
</g>
<!-- node28 -->
<g id="node38" class="node">
<title>node28</title>
<ellipse fill="lightblue" stroke="black" cx="582.21" cy="-630.49" rx="21.43" ry="21.43"/>
<text text-anchor="middle" x="582.21" y="-625.49" font-family="Times,serif" font-size="20.00">1</text>
</g>
<!-- node29&#45;&gt;node28 -->
<g id="edge32" class="edge">
<title>node29&#45;&gt;node28</title>
<path fill="none" stroke="black" d="M582.21,-777.8C582.21,-742.9 582.21,-693.62 582.21,-662.11"/>
<polygon fill="black" stroke="black" points="585.71,-661.76 582.21,-651.76 578.71,-661.76 585.71,-661.76"/>
</g>
<!-- node62 -->
<g id="node40" class="node">
<title>node62</title>
<ellipse fill="lightblue" stroke="black" cx="747.21" cy="-1683" rx="56.64" ry="56.64"/>
<text text-anchor="middle" x="747.21" y="-1678" font-family="Times,serif" font-size="20.00">FUNC</text>
</g>
<!-- node78&#45;&gt;node62 -->
<g id="edge38" class="edge">
<title>node78&#45;&gt;node62</title>
<path fill="none" stroke="black" d="M747.21,-1832.6C747.21,-1810.04 747.21,-1778.4 747.21,-1750.12"/>
<polygon fill="black" stroke="black" points="750.71,-1749.87 747.21,-1739.87 743.71,-1749.87 750.71,-1749.87"/>
</g>
<!-- node77 -->
<g id="node63" class="node">
<title>node77</title>
<ellipse fill="lightblue" stroke="black" cx="906.21" cy="-1683" rx="31.23" ry="31.23"/>
<text text-anchor="middle" x="906.21" y="-1678" font-family="Times,serif" font-size="20.00">ST</text>
</g>
<!-- node78&#45;&gt;node77 -->
<g id="edge74" class="edge">
<title>node78&#45;&gt;node77</title>
<path fill="none" stroke="black" d="M767.67,-1839.92C796.06,-1807.98 847.44,-1750.14 879.02,-1714.6"/>
<polygon fill="black" stroke="black" points="881.81,-1716.74 885.83,-1706.94 876.57,-1712.09 881.81,-1716.74"/>
</g>
<!-- node61 -->
<g id="node41" class="node">
<title>node61</title>
<ellipse fill="lightblue" stroke="black" cx="662.21" cy="-1485.78" rx="72.66" ry="72.66"/>
<text text-anchor="middle" x="662.21" y="-1480.78" font-family="Times,serif" font-size="20.00">rec_fuck</text>
</g>
<!-- node62&#45;&gt;node61 -->
<g id="edge39" class="edge">
<title>node62&#45;&gt;node61</title>
<path fill="none" stroke="black" d="M724.99,-1630.96C715.87,-1610.01 705.12,-1585.32 695.12,-1562.35"/>
<polygon fill="black" stroke="black" points="698.23,-1560.74 691.03,-1552.97 691.82,-1563.53 698.23,-1560.74"/>
</g>
<!-- node59 -->
<g id="node46" class="node">
<title>node59</title>
<ellipse fill="lightblue" stroke="black" cx="784.21" cy="-1485.78" rx="31.23" ry="31.23"/>
<text text-anchor="middle" x="784.21" y="-1480.78" font-family="Times,serif" font-size="20.00">ST</text>
</g>
<!-- node62&#45;&gt;node59 -->
<g id="edge60" class="edge">
<title>node62&#45;&gt;node59</title>
<path fill="none" stroke="black" d="M757.57,-1627.36C763.62,-1595.41 771.13,-1555.79 776.63,-1526.76"/>
<polygon fill="black" stroke="black" points="780.14,-1527.06 778.56,-1516.58 773.26,-1525.75 780.14,-1527.06"/>
</g>
<!-- node41 -->
<g id="node42" class="node">
<title>node41</title>
<ellipse fill="lightblue" stroke="black" cx="562.21" cy="-1311.89" rx="65.11" ry="65.11"/>
<text text-anchor="middle" x="562.21" y="-1306.89" font-family="Times,serif" font-size="20.00">PARAM</text>
</g>
<!-- node61&#45;&gt;node41 -->
<g id="edge40" class="edge">
<title>node61&#45;&gt;node41</title>
<path fill="none" stroke="black" d="M625.83,-1422.24C617.36,-1407.69 608.34,-1392.17 599.82,-1377.54"/>
<polygon fill="black" stroke="black" points="602.65,-1375.44 594.6,-1368.56 596.6,-1378.96 602.65,-1375.44"/>
</g>
<!-- node60 -->
<g id="node45" class="node">
<title>node60</title>
<ellipse fill="lightblue" stroke="black" cx="692.21" cy="-1311.89" rx="46.84" ry="46.84"/>
<text text-anchor="middle" x="692.21" y="-1306.89" font-family="Times,serif" font-size="20.00">Type</text>
</g>
<!-- node61&#45;&gt;node60 -->
<g id="edge43" class="edge">
<title>node61&#45;&gt;node60</title>
<path fill="none" stroke="black" d="M674.59,-1413.87C677.26,-1398.54 680.05,-1382.56 682.6,-1367.94"/>
<polygon fill="black" stroke="black" points="686.06,-1368.53 684.33,-1358.07 679.16,-1367.32 686.06,-1368.53"/>
</g>
<!-- node40 -->
<g id="node43" class="node">
<title>node40</title>
<ellipse fill="lightblue" stroke="black" cx="584.21" cy="-1147.2" rx="41.94" ry="41.94"/>
<text text-anchor="middle" x="584.21" y="-1142.2" font-family="Times,serif" font-size="20.00">VAR</text>
</g>
<!-- node41&#45;&gt;node40 -->
<g id="edge41" class="edge">
<title>node41&#45;&gt;node40</title>
<path fill="none" stroke="black" d="M570.85,-1247.06C573,-1231.14 575.28,-1214.29 577.33,-1199.1"/>
<polygon fill="black" stroke="black" points="580.84,-1199.25 578.71,-1188.87 573.9,-1198.32 580.84,-1199.25"/>
</g>
<!-- node39 -->
<g id="node44" class="node">
<title>node39</title>
<ellipse fill="lightblue" stroke="black" cx="620.21" cy="-995.94" rx="21.43" ry="21.43"/>
<text text-anchor="middle" x="620.21" y="-990.94" font-family="Times,serif" font-size="20.00">n</text>
</g>
<!-- node40&#45;&gt;node39 -->
<g id="edge42" class="edge">
<title>node40&#45;&gt;node39</title>
<path fill="none" stroke="black" d="M593.86,-1106.2C599.89,-1081.19 607.53,-1049.51 613.03,-1026.71"/>
<polygon fill="black" stroke="black" points="616.45,-1027.46 615.39,-1016.92 609.65,-1025.82 616.45,-1027.46"/>
</g>
<!-- node58 -->
<g id="node47" class="node">
<title>node58</title>
<ellipse fill="lightblue" stroke="black" cx="784.21" cy="-1311.89" rx="27.65" ry="27.65"/>
<text text-anchor="middle" x="784.21" y="-1306.89" font-family="Times,serif" font-size="20.00">IF</text>
</g>
<!-- node59&#45;&gt;node58 -->
<g id="edge44" class="edge">
<title>node59&#45;&gt;node58</title>
<path fill="none" stroke="black" d="M784.21,-1454.44C784.21,-1425.18 784.21,-1380.83 784.21,-1349.59"/>
<polygon fill="black" stroke="black" points="787.71,-1349.54 784.21,-1339.54 780.71,-1349.54 787.71,-1349.54"/>
</g>
<!-- node44 -->
<g id="node48" class="node">
<title>node44</title>
<ellipse fill="lightblue" stroke="black" cx="768.21" cy="-1147.2" rx="43.68" ry="43.68"/>
<text text-anchor="middle" x="768.21" y="-1142.2" font-family="Times,serif" font-size="20.00">SUB</text>
</g>
<!-- node58&#45;&gt;node44 -->
<g id="edge45" class="edge">
<title>node58&#45;&gt;node44</title>
<path fill="none" stroke="black" d="M781.61,-1284.39C779.39,-1261.85 776.14,-1228.81 773.4,-1200.91"/>
<polygon fill="black" stroke="black" points="776.87,-1200.51 772.41,-1190.9 769.91,-1201.19 776.87,-1200.51"/>
</g>
<!-- node57 -->
<g id="node51" class="node">
<title>node57</title>
<ellipse fill="lightblue" stroke="black" cx="881.21" cy="-1147.2" rx="50.82" ry="50.82"/>
<text text-anchor="middle" x="881.21" y="-1142.2" font-family="Times,serif" font-size="20.00">ELSE</text>
</g>
<!-- node58&#45;&gt;node57 -->
<g id="edge59" class="edge">
<title>node58&#45;&gt;node57</title>
<path fill="none" stroke="black" d="M797.15,-1287.33C803.9,-1275.17 812.37,-1260.13 820.21,-1246.84 829.36,-1231.32 839.57,-1214.61 848.97,-1199.43"/>
<polygon fill="black" stroke="black" points="852.1,-1201.03 854.4,-1190.69 846.15,-1197.33 852.1,-1201.03"/>
</g>
<!-- node42 -->
<g id="node49" class="node">
<title>node42</title>
<ellipse fill="lightblue" stroke="black" cx="714.21" cy="-995.94" rx="21.43" ry="21.43"/>
<text text-anchor="middle" x="714.21" y="-990.94" font-family="Times,serif" font-size="20.00">n</text>
</g>
<!-- node44&#45;&gt;node42 -->
<g id="edge46" class="edge">
<title>node44&#45;&gt;node42</title>
<path fill="none" stroke="black" d="M753.6,-1105.81C744.4,-1080.39 732.76,-1048.2 724.52,-1025.44"/>
<polygon fill="black" stroke="black" points="727.8,-1024.22 721.11,-1016 721.22,-1026.6 727.8,-1024.22"/>
</g>
<!-- node43 -->
<g id="node50" class="node">
<title>node43</title>
<ellipse fill="lightblue" stroke="black" cx="774.21" cy="-995.94" rx="21.43" ry="21.43"/>
<text text-anchor="middle" x="774.21" y="-990.94" font-family="Times,serif" font-size="20.00">1</text>
</g>
<!-- node44&#45;&gt;node43 -->
<g id="edge47" class="edge">
<title>node44&#45;&gt;node43</title>
<path fill="none" stroke="black" d="M769.95,-1103.03C770.92,-1078.76 772.12,-1049.06 772.99,-1027.26"/>
<polygon fill="black" stroke="black" points="776.49,-1027.39 773.4,-1017.25 769.5,-1027.1 776.49,-1027.39"/>
</g>
<!-- node47 -->
<g id="node52" class="node">
<title>node47</title>
<ellipse fill="lightblue" stroke="black" cx="845.21" cy="-995.94" rx="31.23" ry="31.23"/>
<text text-anchor="middle" x="845.21" y="-990.94" font-family="Times,serif" font-size="20.00">ST</text>
</g>
<!-- node57&#45;&gt;node47 -->
<g id="edge48" class="edge">
<title>node57&#45;&gt;node47</title>
<path fill="none" stroke="black" d="M869.43,-1097.32C864.65,-1077.53 859.21,-1054.97 854.7,-1036.26"/>
<polygon fill="black" stroke="black" points="858.04,-1035.21 852.3,-1026.3 851.24,-1036.85 858.04,-1035.21"/>
</g>
<!-- node56 -->
<g id="node55" class="node">
<title>node56</title>
<ellipse fill="lightblue" stroke="black" cx="925.21" cy="-995.94" rx="31.23" ry="31.23"/>
<text text-anchor="middle" x="925.21" y="-990.94" font-family="Times,serif" font-size="20.00">ST</text>
</g>
<!-- node57&#45;&gt;node56 -->
<g id="edge58" class="edge">
<title>node57&#45;&gt;node56</title>
<path fill="none" stroke="black" d="M895.38,-1098.15C901.3,-1078.07 908.09,-1055.03 913.69,-1036.01"/>
<polygon fill="black" stroke="black" points="917.12,-1036.77 916.59,-1026.19 910.41,-1034.79 917.12,-1036.77"/>
</g>
<!-- node46 -->
<g id="node53" class="node">
<title>node46</title>
<ellipse fill="lightblue" stroke="black" cx="834.21" cy="-819.93" rx="41.94" ry="41.94"/>
<text text-anchor="middle" x="834.21" y="-814.93" font-family="Times,serif" font-size="20.00">RET</text>
</g>
<!-- node47&#45;&gt;node46 -->
<g id="edge49" class="edge">
<title>node47&#45;&gt;node46</title>
<path fill="none" stroke="black" d="M843.3,-964.63C841.68,-939.11 839.34,-902.06 837.44,-871.97"/>
<polygon fill="black" stroke="black" points="840.91,-871.41 836.79,-861.65 833.93,-871.85 840.91,-871.41"/>
</g>
<!-- node45 -->
<g id="node54" class="node">
<title>node45</title>
<ellipse fill="lightblue" stroke="black" cx="834.21" cy="-630.49" rx="21.43" ry="21.43"/>
<text text-anchor="middle" x="834.21" y="-625.49" font-family="Times,serif" font-size="20.00">1</text>
</g>
<!-- node46&#45;&gt;node45 -->
<g id="edge50" class="edge">
<title>node46&#45;&gt;node45</title>
<path fill="none" stroke="black" d="M834.21,-777.8C834.21,-742.9 834.21,-693.62 834.21,-662.11"/>
<polygon fill="black" stroke="black" points="837.71,-661.76 834.21,-651.76 830.71,-661.76 837.71,-661.76"/>
</g>
<!-- node55 -->
<g id="node56" class="node">
<title>node55</title>
<ellipse fill="lightblue" stroke="black" cx="935.21" cy="-819.93" rx="41.94" ry="41.94"/>
<text text-anchor="middle" x="935.21" y="-814.93" font-family="Times,serif" font-size="20.00">RET</text>
</g>
<!-- node56&#45;&gt;node55 -->
<g id="edge51" class="edge">
<title>node56&#45;&gt;node55</title>
<path fill="none" stroke="black" d="M926.96,-964.63C928.42,-939.11 930.55,-902.06 932.28,-871.97"/>
<polygon fill="black" stroke="black" points="935.79,-871.84 932.87,-861.65 928.8,-871.44 935.79,-871.84"/>
</g>
<!-- node54 -->
<g id="node57" class="node">
<title>node54</title>
<ellipse fill="lightblue" stroke="black" cx="935.21" cy="-630.49" rx="47.25" ry="47.25"/>
<text text-anchor="middle" x="935.21" y="-625.49" font-family="Times,serif" font-size="20.00">MUL</text>
</g>
<!-- node55&#45;&gt;node54 -->
<g id="edge52" class="edge">
<title>node55&#45;&gt;node54</title>
<path fill="none" stroke="black" d="M935.21,-777.8C935.21,-751.59 935.21,-717.28 935.21,-688.47"/>
<polygon fill="black" stroke="black" points="938.71,-688.13 935.21,-678.13 931.71,-688.13 938.71,-688.13"/>
</g>
<!-- node48 -->
<g id="node58" class="node">
<title>node48</title>
<ellipse fill="lightblue" stroke="black" cx="890.21" cy="-477.82" rx="21.43" ry="21.43"/>
<text text-anchor="middle" x="890.21" y="-472.82" font-family="Times,serif" font-size="20.00">n</text>
</g>
<!-- node54&#45;&gt;node48 -->
<g id="edge53" class="edge">
<title>node54&#45;&gt;node48</title>
<path fill="none" stroke="black" d="M921.83,-584.69C914.45,-559.98 905.5,-529.99 899,-508.24"/>
<polygon fill="black" stroke="black" points="902.33,-507.17 896.12,-498.59 895.63,-509.17 902.33,-507.17"/>
</g>
<!-- node53 -->
<g id="node59" class="node">
<title>node53</title>
<ellipse fill="lightblue" stroke="black" cx="981.21" cy="-477.82" rx="51.74" ry="51.74"/>
<text text-anchor="middle" x="981.21" y="-472.82" font-family="Times,serif" font-size="20.00">CALL</text>
</g>
<!-- node54&#45;&gt;node53 -->
<g id="edge57" class="edge">
<title>node54&#45;&gt;node53</title>
<path fill="none" stroke="black" d="M948.89,-584.69C953.45,-569.75 958.6,-552.88 963.43,-537.07"/>
<polygon fill="black" stroke="black" points="966.81,-537.97 966.39,-527.38 960.12,-535.93 966.81,-537.97"/>
</g>
<!-- node52 -->
<g id="node60" class="node">
<title>node52</title>
<ellipse fill="lightblue" stroke="black" cx="981.21" cy="-317.37" rx="72.66" ry="72.66"/>
<text text-anchor="middle" x="981.21" y="-312.37" font-family="Times,serif" font-size="20.00">rec_fuck</text>
</g>
<!-- node53&#45;&gt;node52 -->
<g id="edge54" class="edge">
<title>node53&#45;&gt;node52</title>
<path fill="none" stroke="black" d="M981.21,-425.81C981.21,-417.68 981.21,-409.1 981.21,-400.47"/>
<polygon fill="black" stroke="black" points="984.71,-400.34 981.21,-390.34 977.71,-400.34 984.71,-400.34"/>
</g>
<!-- node51 -->
<g id="node61" class="node">
<title>node51</title>
<ellipse fill="lightblue" stroke="black" cx="981.21" cy="-143.48" rx="65.11" ry="65.11"/>
<text text-anchor="middle" x="981.21" y="-138.48" font-family="Times,serif" font-size="20.00">PARAM</text>
</g>
<!-- node52&#45;&gt;node51 -->
<g id="edge55" class="edge">
<title>node52&#45;&gt;node51</title>
<path fill="none" stroke="black" d="M981.21,-244.47C981.21,-236.03 981.21,-227.41 981.21,-218.94"/>
<polygon fill="black" stroke="black" points="984.71,-218.7 981.21,-208.7 977.71,-218.7 984.71,-218.7"/>
</g>
<!-- node50 -->
<g id="node62" class="node">
<title>node50</title>
<ellipse fill="lightblue" stroke="black" cx="981.21" cy="-21.21" rx="21.43" ry="21.43"/>
<text text-anchor="middle" x="981.21" y="-16.21" font-family="Times,serif" font-size="20.00">n</text>
</g>
<!-- node51&#45;&gt;node50 -->
<g id="edge56" class="edge">
<title>node51&#45;&gt;node50</title>
<path fill="none" stroke="black" d="M981.21,-78.12C981.21,-69.21 981.21,-60.43 981.21,-52.56"/>
<polygon fill="black" stroke="black" points="984.71,-52.46 981.21,-42.46 977.71,-52.46 984.71,-52.46"/>
</g>
<!-- node65 -->
<g id="node64" class="node">
<title>node65</title>
<ellipse fill="lightblue" stroke="black" cx="906.21" cy="-1485.78" rx="41.94" ry="41.94"/>
<text text-anchor="middle" x="906.21" y="-1480.78" font-family="Times,serif" font-size="20.00">VAR</text>
</g>
<!-- node77&#45;&gt;node65 -->
<g id="edge61" class="edge">
<title>node77&#45;&gt;node65</title>
<path fill="none" stroke="black" d="M906.21,-1651.49C906.21,-1621.14 906.21,-1574 906.21,-1537.92"/>
<polygon fill="black" stroke="black" points="909.71,-1537.58 906.21,-1527.58 902.71,-1537.58 909.71,-1537.58"/>
</g>
<!-- node76 -->
<g id="node67" class="node">
<title>node76</title>
<ellipse fill="lightblue" stroke="black" cx="1019.21" cy="-1485.78" rx="31.23" ry="31.23"/>
<text text-anchor="middle" x="1019.21" y="-1480.78" font-family="Times,serif" font-size="20.00">ST</text>
</g>
<!-- node77&#45;&gt;node76 -->
<g id="edge73" class="edge">
<title>node77&#45;&gt;node76</title>
<path fill="none" stroke="black" d="M921.45,-1655.67C941.47,-1621.08 976.7,-1560.23 998.95,-1521.79"/>
<polygon fill="black" stroke="black" points="1002.05,-1523.41 1004.03,-1513 996,-1519.9 1002.05,-1523.41"/>
</g>
<!-- node63 -->
<g id="node65" class="node">
<title>node63</title>
<ellipse fill="lightblue" stroke="black" cx="864.21" cy="-1311.89" rx="34.8" ry="34.8"/>
<text text-anchor="middle" x="864.21" y="-1306.89" font-family="Times,serif" font-size="20.00">inp</text>
</g>
<!-- node65&#45;&gt;node63 -->
<g id="edge62" class="edge">
<title>node65&#45;&gt;node63</title>
<path fill="none" stroke="black" d="M896.47,-1444.91C889.94,-1418.18 881.34,-1383 874.67,-1355.68"/>
<polygon fill="black" stroke="black" points="877.99,-1354.51 872.21,-1345.63 871.19,-1356.17 877.99,-1354.51"/>
</g>
<!-- node64 -->
<g id="node66" class="node">
<title>node64</title>
<ellipse fill="lightblue" stroke="black" cx="938.21" cy="-1311.89" rx="21.43" ry="21.43"/>
<text text-anchor="middle" x="938.21" y="-1306.89" font-family="Times,serif" font-size="20.00">1</text>
</g>
<!-- node65&#45;&gt;node64 -->
<g id="edge63" class="edge">
<title>node65&#45;&gt;node64</title>
<path fill="none" stroke="black" d="M913.72,-1444.48C919.48,-1413.51 927.32,-1371.39 932.56,-1343.23"/>
<polygon fill="black" stroke="black" points="936.05,-1343.65 934.44,-1333.18 929.17,-1342.37 936.05,-1343.65"/>
</g>
<!-- node75 -->
<g id="node68" class="node">
<title>node75</title>
<ellipse fill="lightblue" stroke="black" cx="1041.21" cy="-1311.89" rx="63.78" ry="63.78"/>
<text text-anchor="middle" x="1041.21" y="-1306.89" font-family="Times,serif" font-size="20.00">WHILE</text>
</g>
<!-- node76&#45;&gt;node75 -->
<g id="edge64" class="edge">
<title>node76&#45;&gt;node75</title>
<path fill="none" stroke="black" d="M1023.05,-1454.84C1025.51,-1435.56 1028.83,-1409.63 1031.96,-1385.21"/>
<polygon fill="black" stroke="black" points="1035.44,-1385.58 1033.24,-1375.22 1028.49,-1384.69 1035.44,-1385.58"/>
</g>
<!-- node66 -->
<g id="node69" class="node">
<title>node66</title>
<ellipse fill="lightblue" stroke="black" cx="1005.21" cy="-1147.2" rx="34.8" ry="34.8"/>
<text text-anchor="middle" x="1005.21" y="-1142.2" font-family="Times,serif" font-size="20.00">inp</text>
</g>
<!-- node75&#45;&gt;node66 -->
<g id="edge65" class="edge">
<title>node75&#45;&gt;node66</title>
<path fill="none" stroke="black" d="M1027.6,-1249.38C1023.34,-1230.13 1018.73,-1209.29 1014.81,-1191.56"/>
<polygon fill="black" stroke="black" points="1018.16,-1190.52 1012.59,-1181.51 1011.33,-1192.03 1018.16,-1190.52"/>
</g>
<!-- node74 -->
<g id="node70" class="node">
<title>node74</title>
<ellipse fill="lightblue" stroke="black" cx="1089.21" cy="-1147.2" rx="31.23" ry="31.23"/>
<text text-anchor="middle" x="1089.21" y="-1142.2" font-family="Times,serif" font-size="20.00">ST</text>
</g>
<!-- node75&#45;&gt;node74 -->
<g id="edge72" class="edge">
<title>node75&#45;&gt;node74</title>
<path fill="none" stroke="black" d="M1058.95,-1250.77C1065.24,-1229.44 1072.15,-1206.02 1077.78,-1186.94"/>
<polygon fill="black" stroke="black" points="1081.21,-1187.7 1080.68,-1177.12 1074.49,-1185.72 1081.21,-1187.7"/>
</g>
<!-- node69 -->
<g id="node71" class="node">
<title>node69</title>
<ellipse fill="lightblue" stroke="black" cx="1089.21" cy="-995.94" rx="51.74" ry="51.74"/>
<text text-anchor="middle" x="1089.21" y="-990.94" font-family="Times,serif" font-size="20.00">CALL</text>
</g>
<!-- node74&#45;&gt;node69 -->
<g id="edge66" class="edge">
<title>node74&#45;&gt;node69</title>
<path fill="none" stroke="black" d="M1089.21,-1115.99C1089.21,-1099.23 1089.21,-1077.77 1089.21,-1057.7"/>
<polygon fill="black" stroke="black" points="1092.71,-1057.67 1089.21,-1047.67 1085.71,-1057.67 1092.71,-1057.67"/>
</g>
<!-- node73 -->
<g id="node73" class="node">
<title>node73</title>
<ellipse fill="lightblue" stroke="black" cx="1207.21" cy="-995.94" rx="31.23" ry="31.23"/>
<text text-anchor="middle" x="1207.21" y="-990.94" font-family="Times,serif" font-size="20.00">ST</text>
</g>
<!-- node74&#45;&gt;node73 -->
<g id="edge71" class="edge">
<title>node74&#45;&gt;node73</title>
<path fill="none" stroke="black" d="M1108.17,-1122.22C1128.21,-1096.87 1159.93,-1056.75 1182.05,-1028.77"/>
<polygon fill="black" stroke="black" points="1184.85,-1030.88 1188.3,-1020.86 1179.35,-1026.53 1184.85,-1030.88"/>
</g>
<!-- node68 -->
<g id="node72" class="node">
<title>node68</title>
<ellipse fill="lightblue" stroke="black" cx="1084.21" cy="-819.93" rx="88.28" ry="88.28"/>
<text text-anchor="middle" x="1084.21" y="-814.93" font-family="Times,serif" font-size="20.00">while_fuck</text>
</g>
<!-- node69&#45;&gt;node68 -->
<g id="edge67" class="edge">
<title>node69&#45;&gt;node68</title>
<path fill="none" stroke="black" d="M1087.75,-944.14C1087.52,-935.98 1087.27,-927.3 1087.02,-918.47"/>
<polygon fill="black" stroke="black" points="1090.51,-918.36 1086.73,-908.46 1083.52,-918.56 1090.51,-918.36"/>
</g>
<!-- node72 -->
<g id="node74" class="node">
<title>node72</title>
<ellipse fill="lightblue" stroke="black" cx="1220.21" cy="-819.93" rx="29.9" ry="29.9"/>
<text text-anchor="middle" x="1220.21" y="-814.93" font-family="Times,serif" font-size="20.00">IN</text>
</g>
<!-- node73&#45;&gt;node72 -->
<g id="edge68" class="edge">
<title>node73&#45;&gt;node72</title>
<path fill="none" stroke="black" d="M1209.48,-964.63C1211.65,-935.58 1214.93,-891.61 1217.3,-859.96"/>
<polygon fill="black" stroke="black" points="1220.81,-859.97 1218.06,-849.74 1213.83,-859.45 1220.81,-859.97"/>
</g>
<!-- node71 -->
<g id="node75" class="node">
<title>node71</title>
<ellipse fill="lightblue" stroke="black" cx="1220.21" cy="-630.49" rx="65.11" ry="65.11"/>
<text text-anchor="middle" x="1220.21" y="-625.49" font-family="Times,serif" font-size="20.00">PARAM</text>
</g>
<!-- node72&#45;&gt;node71 -->
<g id="edge69" class="edge">
<title>node72&#45;&gt;node71</title>
<path fill="none" stroke="black" d="M1220.21,-790.05C1220.21,-767.64 1220.21,-735.52 1220.21,-706.04"/>
<polygon fill="black" stroke="black" points="1223.71,-705.75 1220.21,-695.75 1216.71,-705.75 1223.71,-705.75"/>
</g>
<!-- node70 -->
<g id="node76" class="node">
<title>node70</title>
<ellipse fill="lightblue" stroke="black" cx="1220.21" cy="-477.82" rx="34.8" ry="34.8"/>
<text text-anchor="middle" x="1220.21" y="-472.82" font-family="Times,serif" font-size="20.00">inp</text>
</g>
<!-- node71&#45;&gt;node70 -->
<g id="edge70" class="edge">
<title>node71&#45;&gt;node70</title>
<path fill="none" stroke="black" d="M1220.21,-565.15C1220.21,-550.89 1220.21,-536.09 1220.21,-522.85"/>
<polygon fill="black" stroke="black" points="1223.71,-522.62 1220.21,-512.62 1216.71,-522.62 1223.71,-522.62"/>
</g>
</g>
</svg>
