<?xml version="1.0" encoding="UTF-8" standalone="no"?>
<!DOCTYPE svg PUBLIC "-//W3C//DTD SVG 1.1//EN"
 "http://www.w3.org/Graphics/SVG/1.1/DTD/svg11.dtd">
<!-- Generated by graphviz version 2.43.0 (0)
 -->
<!-- Title: G Pages: 1 -->
<svg width="159pt" height="307pt"
 viewBox="0.00 0.00 158.91 306.92" xmlns="http://www.w3.org/2000/svg" xmlns:xlink="http://www.w3.org/1999/xlink">
<g id="graph0" class="graph" transform="scale(1 1) rotate(0) translate(4 302.92)">
<title>G</title>
<polygon fill="white" stroke="transparent" points="-4,4 -4,-302.92 154.91,-302.92 154.91,4 -4,4"/>
<!-- node6 -->
<g id="node1" class="node">
<title>node6</title>
<ellipse fill="lightblue" stroke="black" cx="63.7" cy="-277.71" rx="21.43" ry="21.43"/>
<text text-anchor="middle" x="63.7" y="-272.71" font-family="Times,serif" font-size="20.00">&#45;</text>
</g>
<!-- node0 -->
<g id="node2" class="node">
<title>node0</title>
<ellipse fill="lightblue" stroke="black" cx="29.7" cy="-190.79" rx="29.9" ry="29.9"/>
<text text-anchor="middle" x="29.7" y="-185.79" font-family="Times,serif" font-size="20.00">11</text>
</g>
<!-- node6&#45;&gt;node0 -->
<g id="edge1" class="edge">
<title>node6&#45;&gt;node0</title>
<path fill="none" stroke="black" d="M56.15,-257.86C52.65,-249.12 48.37,-238.43 44.28,-228.21"/>
<polygon fill="black" stroke="black" points="47.41,-226.62 40.45,-218.64 40.92,-229.22 47.41,-226.62"/>
</g>
<!-- node5 -->
<g id="node3" class="node">
<title>node5</title>
<ellipse fill="lightblue" stroke="black" cx="98.7" cy="-190.79" rx="21.43" ry="21.43"/>
<text text-anchor="middle" x="98.7" y="-185.79" font-family="Times,serif" font-size="20.00">*</text>
</g>
<!-- node6&#45;&gt;node5 -->
<g id="edge6" class="edge">
<title>node6&#45;&gt;node5</title>
<path fill="none" stroke="black" d="M71.47,-257.86C76.04,-246.76 81.92,-232.5 87.04,-220.07"/>
<polygon fill="black" stroke="black" points="90.38,-221.17 90.95,-210.59 83.91,-218.5 90.38,-221.17"/>
</g>
<!-- node3 -->
<g id="node4" class="node">
<title>node3</title>
<ellipse fill="lightblue" stroke="black" cx="66.7" cy="-101.76" rx="23.17" ry="23.17"/>
<text text-anchor="middle" x="66.7" y="-96.76" font-family="Times,serif" font-size="20.00">+</text>
</g>
<!-- node5&#45;&gt;node3 -->
<g id="edge2" class="edge">
<title>node5&#45;&gt;node3</title>
<path fill="none" stroke="black" d="M91.6,-170.48C87.59,-159.57 82.48,-145.69 77.94,-133.34"/>
<polygon fill="black" stroke="black" points="81.19,-132.03 74.45,-123.85 74.62,-134.44 81.19,-132.03"/>
</g>
<!-- node4 -->
<g id="node7" class="node">
<title>node4</title>
<ellipse fill="lightblue" stroke="black" cx="129.7" cy="-101.76" rx="21.43" ry="21.43"/>
<text text-anchor="middle" x="129.7" y="-96.76" font-family="Times,serif" font-size="20.00">7</text>
</g>
<!-- node5&#45;&gt;node4 -->
<g id="edge5" class="edge">
<title>node5&#45;&gt;node4</title>
<path fill="none" stroke="black" d="M105.58,-170.48C109.63,-159.1 114.84,-144.48 119.38,-131.74"/>
<polygon fill="black" stroke="black" points="122.78,-132.62 122.84,-122.02 116.19,-130.27 122.78,-132.62"/>
</g>
<!-- node1 -->
<g id="node5" class="node">
<title>node1</title>
<ellipse fill="lightblue" stroke="black" cx="36.7" cy="-21.21" rx="21.43" ry="21.43"/>
<text text-anchor="middle" x="36.7" y="-16.21" font-family="Times,serif" font-size="20.00">1</text>
</g>
<!-- node3&#45;&gt;node1 -->
<g id="edge3" class="edge">
<title>node3&#45;&gt;node1</title>
<path fill="none" stroke="black" d="M58.66,-79.71C55.26,-70.81 51.24,-60.3 47.58,-50.72"/>
<polygon fill="black" stroke="black" points="50.78,-49.26 43.94,-41.17 44.24,-51.76 50.78,-49.26"/>
</g>
<!-- node2 -->
<g id="node6" class="node">
<title>node2</title>
<ellipse fill="lightblue" stroke="black" cx="96.7" cy="-21.21" rx="21.43" ry="21.43"/>
<text text-anchor="middle" x="96.7" y="-16.21" font-family="Times,serif" font-size="20.00">3</text>
</g>
<!-- node3&#45;&gt;node2 -->
<g id="edge4" class="edge">
<title>node3&#45;&gt;node2</title>
<path fill="none" stroke="black" d="M74.74,-79.71C78.14,-70.81 82.15,-60.3 85.81,-50.72"/>
<polygon fill="black" stroke="black" points="89.16,-51.76 89.46,-41.17 82.62,-49.26 89.16,-51.76"/>
</g>
</g>
</svg>
